<svg width="256" height="256" viewBox="0 0 256 256" fill="none" xmlns="http://www.w3.org/2000/svg">
<rect width="256" height="256" fill="white"/>
<g clip-path="url(#clip0_223_3114)">
<path fill-rule="evenodd" clip-rule="evenodd" d="M48 124.125V138.125H52.4444C52.9114 138.125 53.3737 138.216 53.8051 138.391C54.2364 138.567 54.6285 138.825 54.9586 139.15C55.2887 139.475 55.5507 139.861 55.7294 140.286C55.908 140.71 56 141.165 56 141.625V146H66.6667L80 132.875V118.875H75.5556C75.0886 118.875 74.6263 118.784 74.1948 118.609C73.7636 118.433 73.3716 118.175 73.0414 117.85C72.7113 117.525 72.4493 117.139 72.2706 116.714C72.092 116.29 72 115.835 72 115.375V111H61.3333L48 124.125ZM63.1111 137.25H56.8889V127.625L64.8889 119.75H71.1111V129.375L63.1111 137.25Z" fill="#191919"/>
</g>
<path d="M97.5137 130.834C97.5547 131.566 97.7275 132.161 98.0322 132.618C98.6123 133.474 99.6348 133.901 101.1 133.901C101.756 133.901 102.354 133.808 102.893 133.62C103.936 133.257 104.457 132.606 104.457 131.669C104.457 130.966 104.237 130.465 103.798 130.166C103.353 129.873 102.655 129.618 101.706 129.401L99.957 129.006C98.8145 128.748 98.0059 128.464 97.5312 128.153C96.7109 127.614 96.3008 126.809 96.3008 125.736C96.3008 124.576 96.7021 123.624 97.5049 122.88C98.3076 122.136 99.4443 121.764 100.915 121.764C102.269 121.764 103.417 122.092 104.36 122.748C105.31 123.398 105.784 124.441 105.784 125.877H104.141C104.053 125.186 103.865 124.655 103.578 124.286C103.045 123.612 102.14 123.275 100.862 123.275C99.8311 123.275 99.0898 123.492 98.6387 123.926C98.1875 124.359 97.9619 124.863 97.9619 125.438C97.9619 126.07 98.2256 126.533 98.7529 126.826C99.0986 127.014 99.8809 127.248 101.1 127.529L102.91 127.942C103.783 128.142 104.457 128.414 104.932 128.76C105.752 129.363 106.162 130.239 106.162 131.388C106.162 132.817 105.641 133.84 104.598 134.455C103.561 135.07 102.354 135.378 100.977 135.378C99.3711 135.378 98.1143 134.968 97.2061 134.147C96.2979 133.333 95.8525 132.229 95.8701 130.834H97.5137ZM108.122 122.959H109.722V125.587H111.225V126.879H109.722V133.022C109.722 133.351 109.833 133.57 110.056 133.682C110.179 133.746 110.384 133.778 110.671 133.778C110.747 133.778 110.829 133.778 110.917 133.778C111.005 133.772 111.108 133.764 111.225 133.752V135C111.043 135.053 110.853 135.091 110.654 135.114C110.46 135.138 110.249 135.149 110.021 135.149C109.283 135.149 108.782 134.962 108.518 134.587C108.254 134.206 108.122 133.714 108.122 133.11V126.879H106.848V125.587H108.122V122.959ZM116.376 125.376C117.044 125.376 117.691 125.534 118.318 125.851C118.945 126.161 119.423 126.565 119.751 127.063C120.067 127.538 120.278 128.092 120.384 128.725C120.477 129.158 120.524 129.85 120.524 130.799H113.625C113.654 131.754 113.88 132.521 114.301 133.102C114.723 133.676 115.377 133.963 116.261 133.963C117.088 133.963 117.747 133.69 118.239 133.146C118.52 132.829 118.719 132.463 118.837 132.047H120.392C120.351 132.393 120.214 132.779 119.979 133.207C119.751 133.629 119.493 133.975 119.206 134.244C118.725 134.713 118.131 135.029 117.422 135.193C117.041 135.287 116.61 135.334 116.13 135.334C114.958 135.334 113.965 134.909 113.15 134.06C112.336 133.204 111.928 132.009 111.928 130.474C111.928 128.962 112.339 127.734 113.159 126.791C113.979 125.848 115.051 125.376 116.376 125.376ZM118.898 129.542C118.834 128.856 118.684 128.309 118.45 127.898C118.016 127.137 117.293 126.756 116.279 126.756C115.552 126.756 114.943 127.02 114.451 127.547C113.959 128.068 113.698 128.733 113.669 129.542H118.898ZM126.035 125.376C126.703 125.376 127.351 125.534 127.978 125.851C128.605 126.161 129.082 126.565 129.41 127.063C129.727 127.538 129.938 128.092 130.043 128.725C130.137 129.158 130.184 129.85 130.184 130.799H123.284C123.314 131.754 123.539 132.521 123.961 133.102C124.383 133.676 125.036 133.963 125.921 133.963C126.747 133.963 127.406 133.69 127.899 133.146C128.18 132.829 128.379 132.463 128.496 132.047H130.052C130.011 132.393 129.873 132.779 129.639 133.207C129.41 133.629 129.152 133.975 128.865 134.244C128.385 134.713 127.79 135.029 127.081 135.193C126.7 135.287 126.27 135.334 125.789 135.334C124.617 135.334 123.624 134.909 122.81 134.06C121.995 133.204 121.588 132.009 121.588 130.474C121.588 128.962 121.998 127.734 122.818 126.791C123.639 125.848 124.711 125.376 126.035 125.376ZM128.558 129.542C128.493 128.856 128.344 128.309 128.109 127.898C127.676 127.137 126.952 126.756 125.939 126.756C125.212 126.756 124.603 127.02 124.11 127.547C123.618 128.068 123.358 128.733 123.328 129.542H128.558ZM131.819 122.089H133.401V135H131.819V122.089ZM139.053 125.314C140.113 125.314 140.974 125.572 141.637 126.088C142.304 126.604 142.706 127.491 142.841 128.751H141.303C141.209 128.171 140.995 127.69 140.661 127.31C140.327 126.923 139.791 126.729 139.053 126.729C138.045 126.729 137.324 127.222 136.89 128.206C136.609 128.845 136.469 129.633 136.469 130.57C136.469 131.514 136.668 132.308 137.066 132.952C137.465 133.597 138.092 133.919 138.947 133.919C139.603 133.919 140.122 133.72 140.503 133.321C140.889 132.917 141.156 132.366 141.303 131.669H142.841C142.665 132.917 142.225 133.831 141.522 134.411C140.819 134.985 139.92 135.272 138.824 135.272C137.594 135.272 136.612 134.824 135.88 133.928C135.147 133.025 134.781 131.9 134.781 130.553C134.781 128.9 135.182 127.614 135.985 126.694C136.788 125.774 137.81 125.314 139.053 125.314ZM144.107 125.587H145.61V127.213C145.733 126.896 146.034 126.513 146.515 126.062C146.995 125.604 147.549 125.376 148.176 125.376C148.205 125.376 148.255 125.379 148.325 125.385C148.396 125.391 148.516 125.402 148.686 125.42V127.09C148.592 127.072 148.504 127.061 148.422 127.055C148.346 127.049 148.261 127.046 148.167 127.046C147.37 127.046 146.758 127.304 146.33 127.819C145.903 128.329 145.689 128.918 145.689 129.586V135H144.107V125.587ZM153.617 125.376C154.285 125.376 154.932 125.534 155.559 125.851C156.186 126.161 156.664 126.565 156.992 127.063C157.308 127.538 157.519 128.092 157.625 128.725C157.718 129.158 157.765 129.85 157.765 130.799H150.866C150.895 131.754 151.121 132.521 151.542 133.102C151.964 133.676 152.618 133.963 153.502 133.963C154.329 133.963 154.988 133.69 155.48 133.146C155.761 132.829 155.96 132.463 156.078 132.047H157.633C157.592 132.393 157.455 132.779 157.22 133.207C156.992 133.629 156.734 133.975 156.447 134.244C155.966 134.713 155.372 135.029 154.663 135.193C154.282 135.287 153.851 135.334 153.371 135.334C152.199 135.334 151.206 134.909 150.391 134.06C149.577 133.204 149.169 132.009 149.169 130.474C149.169 128.962 149.58 127.734 150.4 126.791C151.22 125.848 152.292 125.376 153.617 125.376ZM156.139 129.542C156.075 128.856 155.925 128.309 155.691 127.898C155.257 127.137 154.534 126.756 153.52 126.756C152.793 126.756 152.184 127.02 151.692 127.547C151.2 128.068 150.939 128.733 150.91 129.542H156.139ZM160.297 132.047C160.344 132.574 160.475 132.979 160.692 133.26C161.091 133.77 161.782 134.024 162.766 134.024C163.352 134.024 163.868 133.898 164.313 133.646C164.759 133.389 164.981 132.993 164.981 132.46C164.981 132.056 164.803 131.748 164.445 131.537C164.217 131.408 163.766 131.259 163.092 131.089L161.835 130.772C161.032 130.573 160.44 130.351 160.059 130.104C159.38 129.677 159.04 129.085 159.04 128.329C159.04 127.438 159.359 126.718 159.998 126.167C160.642 125.616 161.507 125.341 162.591 125.341C164.009 125.341 165.031 125.757 165.658 126.589C166.051 127.116 166.241 127.685 166.229 128.294H164.735C164.706 127.937 164.58 127.611 164.357 127.318C163.994 126.902 163.364 126.694 162.468 126.694C161.87 126.694 161.416 126.809 161.105 127.037C160.801 127.266 160.648 127.567 160.648 127.942C160.648 128.353 160.85 128.681 161.255 128.927C161.489 129.073 161.835 129.202 162.292 129.313L163.338 129.568C164.474 129.844 165.236 130.11 165.623 130.368C166.238 130.772 166.546 131.408 166.546 132.275C166.546 133.113 166.226 133.837 165.588 134.446C164.955 135.056 163.988 135.36 162.687 135.36C161.287 135.36 160.294 135.044 159.708 134.411C159.128 133.772 158.817 132.984 158.776 132.047H160.297ZM168.313 122.959H169.912V125.587H171.415V126.879H169.912V133.022C169.912 133.351 170.024 133.57 170.246 133.682C170.369 133.746 170.574 133.778 170.862 133.778C170.938 133.778 171.02 133.778 171.108 133.778C171.196 133.772 171.298 133.764 171.415 133.752V135C171.234 135.053 171.043 135.091 170.844 135.114C170.651 135.138 170.44 135.149 170.211 135.149C169.473 135.149 168.972 134.962 168.708 134.587C168.445 134.206 168.313 133.714 168.313 133.11V126.879H167.038V125.587H168.313V122.959Z" fill="#191919"/>
<defs>
<clipPath id="clip0_223_3114">
<rect width="32" height="35" fill="white" transform="translate(48 111)"/>
</clipPath>
</defs>
</svg>
