<svg width="32" height="35" viewBox="0 0 32 35" fill="none" xmlns="http://www.w3.org/2000/svg">
<g clip-path="url(#clip0_228_1202)">
<path fill-rule="evenodd" clip-rule="evenodd" d="M0 13.125V27.125H4.44444C4.91135 27.125 5.3737 27.2156 5.80512 27.3914C6.23644 27.5673 6.62847 27.8251 6.95855 28.1502C7.28874 28.4751 7.55068 28.861 7.72939 29.2856C7.90798 29.7103 8 30.1654 8 30.625V35H18.6667L32 21.875V7.875H27.5556C27.0886 7.875 26.6263 7.78448 26.1948 7.60859C25.7636 7.4327 25.3716 7.17488 25.0414 6.84988C24.7113 6.52488 24.4493 6.13902 24.2706 5.71439C24.092 5.28976 24 4.83464 24 4.375V0H13.3333L0 13.125ZM15.1111 26.25H8.88889V16.625L16.8889 8.75H23.1111V18.375L15.1111 26.25Z" fill="white"/>
</g>
<defs>
<clipPath id="clip0_228_1202">
<rect width="32" height="35" fill="white"/>
</clipPath>
</defs>
</svg>
