<svg width="18" height="18" viewBox="0 0 18 18" fill="none" xmlns="http://www.w3.org/2000/svg">
<path d="M10.3324 16.5949C10.346 16.6086 10.7637 16.7133 11.2606 16.8275C11.7575 16.9417 12.1694 17.0177 12.176 16.9965C12.1826 16.9752 12.234 16.6303 12.2902 16.23C12.4032 15.4262 12.6766 14.4877 12.9688 13.9007C13.8795 12.0714 15.5135 10.8602 17.4953 10.5454L18 10.4652V9.65708V8.84893L17.5426 8.77218C14.5458 8.26942 12.5921 6.0287 12.2266 2.67545C12.2027 2.45649 12.1742 2.27739 12.1632 2.27739C12.0622 2.27739 10.3875 2.68099 10.3558 2.71296C10.3329 2.73608 10.3499 2.94135 10.3937 3.16904C10.8783 5.69031 12.2659 7.74194 14.0665 8.59977L14.4984 8.80555L5.61642 8.82167L1.90735e-06 8.8319V10.4674L5.63087 10.4776L14.4919 10.4938L13.9466 10.7701C12.532 11.4867 11.412 12.8926 10.7524 14.7797C10.5645 15.3173 10.2809 16.5429 10.3324 16.5949Z" fill="#191919"/>
</svg>
