<svg width="139" height="44" viewBox="0 0 139 44" fill="none" xmlns="http://www.w3.org/2000/svg">
<path d="M19.0723 23.0273C18.877 23.4961 18.6328 23.7891 18.3398 23.9062C18.0469 24.0039 17.7441 24.0527 17.4316 24.0527C17.1582 24.0332 16.8652 24.0039 16.5527 23.9648C16.2598 23.9062 15.9766 23.8965 15.7031 23.9355C15.1367 24.3262 14.7168 24.8047 14.4434 25.3711C14.1699 25.918 13.9453 26.5137 13.7695 27.1582C13.5938 27.7832 13.4277 28.418 13.2715 29.0625C13.1348 29.6875 12.9102 30.2734 12.5977 30.8203C12.3828 31.2109 12.207 31.6211 12.0703 32.0508C11.9336 32.5 11.7871 32.9395 11.6309 33.3691C11.4941 33.8184 11.3184 34.2383 11.1035 34.6289C10.9082 35.0391 10.625 35.3906 10.2539 35.6836C10.3516 35.8398 10.3711 35.9863 10.3125 36.123C10.2539 36.2598 10.1758 36.377 10.0781 36.4746L9.96094 36.6211L9.78516 36.7969C9.84375 37.2266 9.74609 37.6172 9.49219 37.9688C9.25781 38.3398 9.02344 38.6914 8.78906 39.0234C8.69141 39.1211 8.60352 39.2285 8.52539 39.3457C8.4668 39.4629 8.39844 39.5996 8.32031 39.7559C7.89062 39.6191 7.57812 39.6484 7.38281 39.8438L7.17773 40.7812L6.97266 40.459C6.81641 40.8301 6.60156 41.1133 6.32812 41.3086C6.07422 41.5039 5.79102 41.6504 5.47852 41.748C5.18555 41.8457 4.86328 41.9238 4.51172 41.9824C4.17969 42.0605 3.85742 42.1582 3.54492 42.2754C3.34961 42.373 3.18359 42.4805 3.04688 42.5977C2.89062 42.7344 2.73438 42.9102 2.57812 43.125C1.91406 43.1445 1.38672 42.9688 0.996094 42.5977C0.605469 42.2266 0.273438 41.7969 0 41.3086C0.136719 40.8203 0.244141 40.3223 0.322266 39.8145C0.380859 39.3066 0.458984 38.7988 0.556641 38.291C0.634766 37.8027 0.751953 37.3145 0.908203 36.8262C1.04492 36.3574 1.25 35.8984 1.52344 35.4492C1.46484 35.2539 1.45508 35.0684 1.49414 34.8926C1.51367 34.7168 1.5625 34.5508 1.64062 34.3945C1.71875 34.2383 1.81641 34.082 1.93359 33.9258C2.03125 33.7891 2.10938 33.6426 2.16797 33.4863C2.26562 33.3105 2.28516 33.1152 2.22656 32.9004C2.53906 32.4316 2.83203 31.9727 3.10547 31.5234C3.37891 31.0938 3.66211 30.6641 3.95508 30.2344C4.24805 29.8047 4.56055 29.3945 4.89258 29.0039C5.24414 28.5938 5.64453 28.2129 6.09375 27.8613L6.18164 27.3926C6.61133 27.1191 6.99219 26.7969 7.32422 26.4258C7.67578 26.0547 8.04688 25.7031 8.4375 25.3711C9.16016 24.7656 9.87305 24.2578 10.5762 23.8477C11.2793 23.418 12.0996 23.125 13.0371 22.9688C13.2129 22.8711 13.291 22.7441 13.2715 22.5879C13.2715 22.4121 13.2617 22.2363 13.2422 22.0605C13.2227 21.8652 13.2324 21.6797 13.2715 21.5039C13.3105 21.3281 13.4668 21.1914 13.7402 21.0938C13.7598 20.9766 13.7988 20.8203 13.8574 20.625C13.916 20.4297 13.9551 20.2344 13.9746 20.0391C14.0137 19.8438 14.0137 19.668 13.9746 19.5117C13.9551 19.3555 13.8574 19.2676 13.6816 19.248C13.5254 19.2285 13.3887 19.209 13.2715 19.1895C13.1543 19.1699 13.0664 19.082 13.0078 18.9258C12.4414 18.8477 11.8652 18.7305 11.2793 18.5742C10.6934 18.3984 10.0879 18.2812 9.46289 18.2227C9.38477 17.9688 9.23828 17.7734 9.02344 17.6367C8.82812 17.4805 8.60352 17.3535 8.34961 17.2559C8.0957 17.1387 7.8418 17.0312 7.58789 16.9336C7.33398 16.8359 7.11914 16.6992 6.94336 16.5234C6.65039 16.25 6.35742 15.957 6.06445 15.6445C5.77148 15.332 5.50781 15 5.27344 14.6484C5.03906 14.2969 4.84375 13.9258 4.6875 13.5352C4.53125 13.125 4.44336 12.6953 4.42383 12.2461L3.89648 11.4551L4.10156 11.3379C4.00391 11.2012 3.93555 11.084 3.89648 10.9863C3.85742 10.8691 3.86719 10.7324 3.92578 10.5762L4.10156 10.4883C4.04297 10.293 4.04297 10.1172 4.10156 9.96094C4.14062 9.80469 4.18945 9.64844 4.24805 9.49219C4.32617 9.33594 4.375 9.18945 4.39453 9.05273C4.43359 8.89648 4.4043 8.73047 4.30664 8.55469C4.3457 8.22266 4.44336 7.92969 4.59961 7.67578C4.75586 7.40234 4.92188 7.10938 5.09766 6.79688C5.25391 6.54297 5.38086 6.29883 5.47852 6.06445C5.57617 5.81055 5.60547 5.53711 5.56641 5.24414C6.05469 4.75586 6.58203 4.17969 7.14844 3.51562C7.73438 2.83203 8.34961 2.24609 8.99414 1.75781C9.63867 1.25 10.3223 0.917969 11.0449 0.761719C11.7871 0.585938 12.5781 0.751953 13.418 1.25977C13.6719 1.06445 13.8379 1.03516 13.916 1.17188C14.0137 1.30859 14.082 1.46484 14.1211 1.64062C14.1406 1.71875 14.1602 1.77734 14.1797 1.81641C14.2188 1.85547 14.2871 1.86523 14.3848 1.8457C14.834 2.13867 15.1465 2.4707 15.3223 2.8418C15.5176 3.19336 15.6641 3.56445 15.7617 3.95508C15.8789 4.32617 15.9961 4.69727 16.1133 5.06836C16.2305 5.43945 16.4453 5.77148 16.7578 6.06445C16.7969 7.00195 16.8262 7.91992 16.8457 8.81836C16.8652 9.7168 16.9629 10.625 17.1387 11.543C16.9629 12.6562 16.7969 13.75 16.6406 14.8242C16.4844 15.8984 16.3672 16.9922 16.2891 18.1055C16.4844 18.3398 16.6406 18.6328 16.7578 18.9844C16.875 19.3359 16.9336 19.6777 16.9336 20.0098L16.6699 20.4785C16.709 20.6152 16.6602 20.7031 16.5234 20.7422C16.4062 20.7812 16.3379 20.7129 16.3184 20.5371L16.2891 20.4785C16.2891 20.4004 16.2402 20.3613 16.1426 20.3613C15.9863 20.3809 15.8691 20.4395 15.791 20.5371C15.7129 20.6348 15.6543 20.7617 15.6152 20.918C15.5762 21.0547 15.5371 21.2012 15.498 21.3574C15.4785 21.4941 15.4492 21.6113 15.4102 21.709C15.3125 21.9238 15.293 22.0996 15.3516 22.2363C15.4102 22.373 15.4688 22.5488 15.5273 22.7637C15.918 22.7246 16.3281 22.7441 16.7578 22.8223C17.207 22.9004 17.5977 23.0371 17.9297 23.2324L18.5156 22.6758C18.5352 22.7148 18.5645 22.7734 18.6035 22.8516C18.6621 22.9102 18.7109 22.959 18.75 22.998C18.7695 23.0371 18.7891 23.0566 18.8086 23.0566C18.8477 23.0566 18.9355 23.0469 19.0723 23.0273ZM15.0586 9.31641C14.9609 8.78906 14.8438 8.26172 14.707 7.73438C14.5703 7.1875 14.4824 6.61133 14.4434 6.00586L12.8906 2.95898C12.5586 3.05664 12.2168 3.08594 11.8652 3.04688C11.5332 2.98828 11.2305 3.00781 10.957 3.10547C10.8398 3.22266 10.7227 3.28125 10.6055 3.28125C10.4883 3.26172 10.3613 3.25195 10.2246 3.25195C10.1074 3.23242 9.98047 3.25195 9.84375 3.31055C9.72656 3.36914 9.60938 3.53516 9.49219 3.80859C9.39453 4.00391 9.31641 4.20898 9.25781 4.42383C9.21875 4.61914 9.13086 4.81445 8.99414 5.00977C8.7207 5.14648 8.50586 5.30273 8.34961 5.47852C8.19336 5.6543 8.07617 5.84961 7.99805 6.06445C7.93945 6.2793 7.90039 6.52344 7.88086 6.79688C7.88086 7.07031 7.88086 7.37305 7.88086 7.70508C7.64648 7.64648 7.49023 7.63672 7.41211 7.67578C7.35352 7.71484 7.27539 7.83203 7.17773 8.02734C7.11914 8.16406 7.03125 8.29102 6.91406 8.4082C6.81641 8.52539 6.66016 8.54492 6.44531 8.4668C6.34766 8.68164 6.25 8.90625 6.15234 9.14062C6.05469 9.35547 5.98633 9.57031 5.94727 9.78516C5.9082 10.0391 5.92773 10.2734 6.00586 10.4883C6.08398 10.6836 6.28906 10.8789 6.62109 11.0742C6.48438 11.2891 6.41602 11.4551 6.41602 11.5723C6.43555 11.6895 6.46484 11.8555 6.50391 12.0703C6.52344 12.207 6.52344 12.3535 6.50391 12.5098C6.50391 12.666 6.42578 12.8125 6.26953 12.9492C6.34766 13.0273 6.50391 13.0762 6.73828 13.0957C7.03125 13.8574 7.45117 14.4531 7.99805 14.8828C8.56445 15.293 9.17969 15.6445 9.84375 15.9375C10.5078 16.2109 11.1914 16.4648 11.8945 16.6992C12.6172 16.9141 13.2812 17.1973 13.8867 17.5488C13.9648 17.3926 14.043 17.2461 14.1211 17.1094C14.2188 16.9727 14.2969 16.8359 14.3555 16.6992C14.4336 16.5625 14.4727 16.416 14.4727 16.2598C14.4727 16.1035 14.4238 15.9277 14.3262 15.7324C14.5605 15.5762 14.7168 15.4199 14.7949 15.2637C14.8926 15.0879 14.9414 14.9023 14.9414 14.707C14.9414 14.5117 14.9121 14.3164 14.8535 14.1211C14.7949 13.9062 14.7559 13.6914 14.7363 13.4766C14.6777 13.2031 14.6973 12.9004 14.7949 12.5684C15.0488 11.9629 15.1758 11.3965 15.1758 10.8691C15.1953 10.3418 15.1562 9.82422 15.0586 9.31641ZM12.1582 25.1367C11.9043 25.0781 11.6504 25.0977 11.3965 25.1953C11.1621 25.2734 10.957 25.4102 10.7812 25.6055C10.8203 25.6445 10.8691 25.6934 10.9277 25.752C10.9863 25.8105 11.0645 25.918 11.1621 26.0742C10.9668 26.0938 10.7617 26.1133 10.5469 26.1328C10.332 26.1328 10.1367 26.1719 9.96094 26.25C9.80469 26.3086 9.67773 26.3867 9.58008 26.4844C9.50195 26.582 9.44336 26.7578 9.4043 27.0117C9.0332 27.0312 8.75 27.1387 8.55469 27.334C8.35938 27.5293 8.19336 27.7441 8.05664 27.9785C7.91992 28.2129 7.77344 28.4375 7.61719 28.6523C7.48047 28.8477 7.26562 28.9648 6.97266 29.0039C6.85547 29.3945 6.67969 29.7363 6.44531 30.0293C6.21094 30.3418 5.9668 30.6348 5.71289 30.9082C5.45898 31.2012 5.23438 31.5039 5.03906 31.8164C4.86328 32.1484 4.77539 32.5391 4.77539 32.9883C4.73633 33.0273 4.76562 33.0566 4.86328 33.0762C5.03906 33.1543 5.12695 33.291 5.12695 33.4863C4.91211 33.623 4.72656 33.7402 4.57031 33.8379C4.41406 33.9551 4.25781 34.0625 4.10156 34.1602C3.98438 34.2383 3.92578 34.2969 3.92578 34.3359C3.92578 34.3945 3.95508 34.4727 4.01367 34.5703C4.05273 34.6094 4.14062 34.7363 4.27734 34.9512L3.54492 35.4199L4.13086 36.5918C4.05273 36.6309 3.98438 36.6699 3.92578 36.709C3.86719 36.7676 3.79883 36.8164 3.7207 36.8555C3.68164 36.8945 3.59375 36.9336 3.45703 36.9727C3.49609 37.5 3.44727 38.0176 3.31055 38.5254C3.1543 39.0332 3.10547 39.5508 3.16406 40.0781C3.90625 40.0391 4.57031 39.7949 5.15625 39.3457C5.76172 38.8965 6.31836 38.3984 6.82617 37.8516C6.8457 37.6367 6.89453 37.4414 6.97266 37.2656C7.07031 37.1094 7.22656 36.9824 7.44141 36.8848C7.55859 36.3574 7.76367 35.8398 8.05664 35.332C8.34961 34.8438 8.75977 34.4727 9.28711 34.2188C9.22852 34.1016 9.21875 33.9844 9.25781 33.8672C9.29688 33.75 9.35547 33.6328 9.43359 33.5156C9.49219 33.3984 9.52148 33.3008 9.52148 33.2227C9.54102 33.1445 9.49219 33.0371 9.375 32.9004C9.45312 32.7441 9.53125 32.627 9.60938 32.5488C9.6875 32.4902 9.78516 32.3828 9.90234 32.2266C9.96094 32.1484 9.99023 32.0703 9.99023 31.9922C9.99023 31.9336 9.91211 31.8359 9.75586 31.6992C9.9707 31.5625 10.0879 31.4355 10.1074 31.3184C10.1465 31.2012 10.1855 31.0254 10.2246 30.791C10.2637 30.6348 10.3125 30.4688 10.3711 30.293C10.4492 30.1367 10.5957 30.0293 10.8105 29.9707C10.8496 29.7754 10.8789 29.5605 10.8984 29.3262C10.918 29.1113 10.9473 28.9062 10.9863 28.7109C11.0449 28.4961 11.123 28.3008 11.2207 28.125C11.3184 27.9492 11.4648 27.8027 11.6602 27.6855C11.6797 27.5684 11.6992 27.4805 11.7188 27.4219C11.7383 27.3633 11.748 27.3145 11.748 27.2754C11.748 27.2168 11.7188 27.168 11.6602 27.1289C11.6211 27.0703 11.5332 27.002 11.3965 26.9238C11.8262 26.7676 12.0605 26.6016 12.0996 26.4258C12.1387 26.2305 12.1484 25.9375 12.1289 25.5469C12.1289 25.4883 12.1289 25.4297 12.1289 25.3711C12.1289 25.293 12.1387 25.2148 12.1582 25.1367ZM39.0973 20.0977C39.1754 20.3906 39.1461 20.6445 39.0094 20.8594C38.8727 21.0547 38.6871 21.2305 38.4527 21.3867C38.2379 21.543 37.9937 21.6895 37.7203 21.8262C37.4664 21.9434 37.2516 22.0801 37.0758 22.2363C36.1969 22.4316 35.3961 22.5781 34.6734 22.6758C33.9703 22.7539 33.1891 22.8613 32.3297 22.998C32.0758 23.0371 31.8316 23.0371 31.5973 22.998C31.3824 22.9395 31.1578 22.9199 30.9234 22.9395C30.7867 22.9395 30.6598 22.9395 30.5426 22.9395C30.4254 22.9199 30.3082 22.9199 30.191 22.9395C29.7418 22.9785 29.4488 23.1348 29.3121 23.4082C29.1754 23.6621 29.0582 23.9648 28.9605 24.3164C28.8824 24.6484 28.775 24.9707 28.6383 25.2832C28.5211 25.5762 28.2574 25.7812 27.8473 25.8984C27.8082 25.9961 27.818 26.084 27.8766 26.1621C27.9547 26.2402 28.0133 26.3086 28.0523 26.3672C27.7203 26.4648 27.4957 26.6406 27.3785 26.8945C27.2809 27.1484 27.193 27.4023 27.1148 27.6562C27.0367 27.9102 26.9195 28.125 26.7633 28.3008C26.6266 28.4766 26.3531 28.5352 25.943 28.4766C25.3375 29.1211 24.6246 29.6387 23.8043 30.0293C22.984 30.4395 22.1344 30.7031 21.2555 30.8203C21.0992 30.7422 20.943 30.6445 20.7867 30.5273C20.65 30.4102 20.5035 30.3027 20.3473 30.2051C20.2105 30.1074 20.0543 30.0293 19.8785 29.9707C19.7223 29.9316 19.5367 29.9316 19.3219 29.9707C19.3023 29.5605 19.2242 29.1797 19.0875 28.8281C18.9312 28.4766 18.7359 28.1445 18.5016 27.832C18.4625 27.4805 18.5113 27.1582 18.648 26.8652C18.7652 26.5527 18.8922 26.25 19.0289 25.957C19.1656 25.6641 19.2828 25.3711 19.3805 25.0781C19.4586 24.7656 19.4391 24.4141 19.3219 24.0234C19.5172 23.9062 19.6441 23.7695 19.7027 23.6133C19.7809 23.457 19.8297 23.3008 19.8492 23.1445C19.8883 22.9688 19.9371 22.8125 19.9957 22.6758C20.0543 22.5195 20.191 22.3926 20.4059 22.2949C20.2496 21.8262 20.2691 21.4844 20.4645 21.2695C20.6793 21.0352 20.9332 20.8301 21.2262 20.6543C21.5191 20.4785 21.7926 20.2832 22.0465 20.0684C22.3004 19.8535 22.398 19.5312 22.3395 19.1016C22.4566 18.9844 22.5934 18.8867 22.7496 18.8086C22.9059 18.7305 23.0523 18.6621 23.1891 18.6035C23.3453 18.5254 23.4918 18.4473 23.6285 18.3691C23.7652 18.291 23.8922 18.1836 24.0094 18.0469C23.8727 17.9492 23.8043 17.8516 23.8043 17.7539C23.8238 17.6562 23.8531 17.5586 23.8922 17.4609C23.9312 17.3438 23.9703 17.2266 24.0094 17.1094C24.068 16.9922 24.068 16.875 24.0094 16.7578C24.5367 16.8359 24.9957 16.7676 25.3863 16.5527C25.7965 16.3184 26.1773 16.084 26.5289 15.8496C26.9 15.6152 27.2711 15.4492 27.6422 15.3516C28.0133 15.2539 28.443 15.3711 28.9312 15.7031C28.9703 15.8398 29.0289 16.0449 29.107 16.3184C29.2047 16.5723 29.2926 16.8359 29.3707 17.1094C29.4684 17.3828 29.5562 17.6465 29.6344 17.9004C29.7125 18.1543 29.7613 18.3398 29.7809 18.457C29.7809 18.5547 29.7809 18.7109 29.7809 18.9258C29.7809 19.1406 29.7809 19.375 29.7809 19.6289C29.7809 19.8633 29.7809 20.0879 29.7809 20.3027C29.7809 20.5176 29.7809 20.6836 29.7809 20.8008C30.3473 21.1328 30.9137 21.3379 31.4801 21.416C32.0465 21.4746 32.6129 21.3379 33.1793 21.0059C33.3941 21.2012 33.5992 21.2598 33.7945 21.1816C33.9898 21.084 34.1754 20.9766 34.3512 20.8594C34.5465 20.7422 34.7418 20.6836 34.9371 20.6836C35.1324 20.6641 35.3277 20.8203 35.523 21.1523C35.7965 20.8984 36.0797 20.7422 36.3727 20.6836C36.6656 20.6055 36.9684 20.5664 37.2809 20.5664C37.5934 20.5469 37.8961 20.5176 38.1891 20.4785C38.5016 20.4395 38.8043 20.3125 39.0973 20.0977ZM27.8473 20.5957C27.8473 20.3027 27.8961 19.9902 27.9937 19.6582C28.0914 19.3262 28.1695 19.0039 28.2281 18.6914C28.2867 18.3594 28.277 18.0469 28.1988 17.7539C28.1402 17.4609 27.9547 17.1973 27.6422 16.9629C27.4273 17.0801 27.2516 17.2461 27.1148 17.4609C26.9781 17.6562 26.8414 17.8613 26.7047 18.0762C26.568 18.2715 26.402 18.4375 26.2066 18.5742C26.0309 18.7109 25.7965 18.75 25.5035 18.6914C25.4059 18.9258 25.4059 19.1211 25.5035 19.2773C25.6012 19.4141 25.7184 19.5508 25.8551 19.6875C25.9918 19.8047 26.1187 19.9316 26.2359 20.0684C26.3727 20.2051 26.4215 20.3809 26.3824 20.5957C26.4605 20.6543 26.568 20.7129 26.7047 20.7715C26.8414 20.8105 26.9781 20.8398 27.1148 20.8594C27.2711 20.8594 27.4176 20.8398 27.5543 20.8008C27.691 20.7617 27.7887 20.6934 27.8473 20.5957ZM27.6422 22.9395C27.2516 22.9395 26.9098 22.8516 26.6168 22.6758C26.3434 22.4805 26.0602 22.2656 25.7672 22.0312C25.4937 21.7969 25.2008 21.582 24.8883 21.3867C24.5953 21.1719 24.234 21.0449 23.8043 21.0059C23.6285 21.2402 23.4234 21.4648 23.1891 21.6797C22.9547 21.875 22.7496 22.0898 22.5738 22.3242C22.398 22.5586 22.2711 22.8125 22.193 23.0859C22.1344 23.3594 22.1832 23.6719 22.3395 24.0234C21.8902 24.2383 21.5875 24.5508 21.4312 24.9609C21.275 25.3516 21.1676 25.7812 21.109 26.25C21.0699 26.7188 21.0309 27.1875 20.9918 27.6562C20.9527 28.125 20.8258 28.5449 20.6109 28.916L21.2555 28.4766C21.3336 28.5156 21.3922 28.5742 21.4312 28.6523C21.4898 28.7305 21.4996 28.8184 21.4605 28.916C21.6168 28.7598 21.7926 28.6426 21.9879 28.5645C22.1832 28.4668 22.3785 28.3984 22.5738 28.3594C22.7887 28.3008 22.9937 28.252 23.1891 28.2129C23.4039 28.1738 23.609 28.1152 23.8043 28.0371C24.2926 28.3105 24.6441 28.3691 24.859 28.2129C25.0738 28.0566 25.2496 27.8223 25.3863 27.5098C25.523 27.1973 25.6695 26.875 25.8258 26.543C25.982 26.1914 26.2359 25.9766 26.5875 25.8984L26.3824 25.6934C26.7145 25.2832 27.0074 24.8633 27.2613 24.4336C27.5348 23.9844 27.6617 23.4863 27.6422 22.9395ZM53.4973 25.8105C53.0871 26.6895 52.6965 27.3828 52.3254 27.8906C51.9543 28.3984 51.5344 28.8281 51.0656 29.1797C50.6164 29.5117 50.0695 29.8242 49.425 30.1172C48.7805 30.4102 47.9699 30.7812 46.9934 31.2305C46.6027 31.1328 46.2219 31.1035 45.8508 31.1426C45.4797 31.2012 45.1184 31.2402 44.7668 31.2598C44.4348 31.2793 44.1125 31.2402 43.8 31.1426C43.4875 31.0645 43.2043 30.8301 42.9504 30.4395H42.5109C42.5305 30.1855 42.5012 29.9121 42.423 29.6191C42.3645 29.3457 42.1789 29.1895 41.8664 29.1504C42.0617 28.9355 42.1887 28.7012 42.2473 28.4473C42.3059 28.1738 42.3449 27.9004 42.3645 27.627C42.4035 27.3535 42.4523 27.0898 42.5109 26.8359C42.5695 26.582 42.716 26.3672 42.9504 26.1914C42.716 25.8789 42.6184 25.5664 42.6574 25.2539C42.716 24.9219 42.8234 24.5996 42.9797 24.2871C43.1555 23.9551 43.3312 23.6328 43.507 23.3203C43.7023 22.9883 43.8 22.6562 43.8 22.3242C43.6242 22.207 43.4582 22.0508 43.302 21.8555C43.1652 21.6406 42.9699 21.582 42.716 21.6797C42.1887 22.1875 41.6613 22.6758 41.134 23.1445C40.6066 23.5938 40.0891 24.0625 39.5812 24.5508C39.093 25.0391 38.6242 25.5566 38.175 26.1035C37.7453 26.6309 37.3449 27.2168 36.9738 27.8613C36.6418 27.9199 36.3879 28.0762 36.2121 28.3301C36.0363 28.584 35.8801 28.8574 35.7434 29.1504C35.6066 29.4238 35.4504 29.6875 35.2746 29.9414C35.1184 30.1953 34.8937 30.3613 34.6008 30.4395C34.5031 30.752 34.4055 31.0645 34.3078 31.377C34.1906 31.709 34.0832 32.0312 33.9855 32.3438C33.8684 32.2852 33.7219 32.2363 33.5461 32.1973C33.3508 32.1582 33.1652 32.1094 32.9895 32.0508C32.8137 31.9922 32.6574 31.9141 32.5207 31.8164C32.384 31.7383 32.2961 31.6309 32.257 31.4941C32.2375 31.4551 32.2375 31.3672 32.257 31.2305C32.257 31.1133 32.257 31.0352 32.257 30.9961C32.2961 30.4492 32.4426 29.9316 32.6965 29.4434C32.9309 28.9746 33.1848 28.5156 33.4582 28.0664C33.7316 27.5977 33.9855 27.1289 34.2199 26.6602C34.4543 26.1914 34.5812 25.6738 34.6008 25.1074C34.8937 25.1074 35.0793 25.0195 35.1574 24.8438C35.2551 24.668 35.3234 24.4824 35.3625 24.2871C35.4211 24.0918 35.4895 23.916 35.5676 23.7598C35.6457 23.6035 35.8215 23.5449 36.0949 23.584C35.9191 23.3496 35.841 23.0957 35.8605 22.8223C35.8996 22.5293 35.9777 22.2461 36.0949 21.9727C36.2121 21.6797 36.3586 21.4062 36.5344 21.1523C36.7102 20.8789 36.8566 20.6348 36.9738 20.4199C36.9543 20.1465 36.9738 19.873 37.0324 19.5996C37.1105 19.3262 37.2375 19.082 37.4133 18.8672C37.5891 18.6523 37.7453 18.4473 37.882 18.252C38.0187 18.0566 38.1555 17.8516 38.2922 17.6367C38.3703 17.5391 38.4289 17.4316 38.468 17.3145C38.5266 17.1973 38.5852 17.0898 38.6437 16.9922C38.8195 16.7383 38.9367 16.4746 38.9953 16.2012C39.0539 15.9082 39.1125 15.625 39.1711 15.3516C39.2492 15.0586 39.3469 14.8047 39.4641 14.5898C39.6008 14.3555 39.8352 14.1699 40.1672 14.0332C40.1672 13.8184 40.1965 13.623 40.2551 13.4473C40.3332 13.252 40.4113 13.0566 40.4895 12.8613C40.5676 12.666 40.6359 12.4805 40.6945 12.3047C40.7727 12.1094 40.8117 11.9043 40.8117 11.6895C40.8703 11.5918 40.9582 11.4941 41.0754 11.3965C41.1926 11.2988 41.3 11.2012 41.3977 11.1035C41.4953 11.0059 41.5734 10.9082 41.632 10.8105C41.6906 10.6934 41.7004 10.5566 41.6613 10.4004C41.6809 10.1465 41.6711 9.88281 41.632 9.60938C41.6125 9.33594 41.6906 9.10156 41.8664 8.90625C41.8273 8.65234 41.8566 8.44727 41.9543 8.29102C42.0715 8.13477 42.2082 7.99805 42.3645 7.88086C42.5207 7.76367 42.6867 7.65625 42.8625 7.55859C43.0578 7.44141 43.2238 7.31445 43.3605 7.17773C43.2629 7.04102 43.2434 6.88477 43.302 6.70898C43.3605 6.5332 43.4387 6.36719 43.5363 6.21094C43.6535 6.03516 43.7805 5.86914 43.9172 5.71289C44.0539 5.55664 44.1516 5.41992 44.2102 5.30273C44.3273 5.06836 44.425 4.83398 44.5031 4.59961C44.6008 4.36523 44.7082 4.15039 44.8254 3.95508C44.9426 3.74023 45.0793 3.54492 45.2355 3.36914C45.4113 3.19336 45.6359 3.04688 45.9094 2.92969C45.8312 2.53906 45.8508 2.23633 45.968 2.02148C46.1047 1.80664 46.2805 1.62109 46.4953 1.46484C46.7297 1.30859 46.9738 1.16211 47.2277 1.02539C47.4816 0.869141 47.6867 0.654297 47.843 0.380859C48.0578 0.322266 48.2922 0.263672 48.5461 0.205078C48.8 0.126953 49.0539 0.078125 49.3078 0.0585938C49.5617 0.0195312 49.8059 0.0195312 50.0402 0.0585938C50.2746 0.0976563 50.4895 0.205078 50.6848 0.380859C50.7629 0.458984 50.8117 0.507813 50.8312 0.527344C50.8508 0.546875 50.8605 0.566406 50.8605 0.585938C50.8605 0.585938 50.8605 0.605469 50.8605 0.644531C50.8801 0.664062 50.9289 0.712891 51.007 0.791016C51.0852 0.869141 51.1633 0.947266 51.2414 1.02539C51.3195 1.08398 51.3977 1.16211 51.4758 1.25977C51.4953 1.39648 51.4953 1.55273 51.4758 1.72852C51.4562 1.88477 51.4465 2.04102 51.4465 2.19727C51.4465 2.35352 51.466 2.5 51.5051 2.63672C51.5637 2.77344 51.6906 2.87109 51.8859 2.92969C51.7297 3.49609 51.6613 4.10156 51.6809 4.74609C51.7004 5.39062 51.7102 6.04492 51.7102 6.70898C51.7102 7.35352 51.6613 7.97852 51.5637 8.58398C51.466 9.18945 51.2121 9.72656 50.802 10.1953L50.5969 11.6895C50.343 11.709 50.1672 11.7969 50.0695 11.9531C49.9719 12.0898 49.9035 12.2559 49.8645 12.4512C49.8254 12.6465 49.7863 12.8516 49.7473 13.0664C49.7277 13.2812 49.6594 13.457 49.5422 13.5938C49.3859 13.7891 49.2297 14.0137 49.0734 14.2676C48.9172 14.5215 48.7512 14.7559 48.5754 14.9707C48.3996 15.1855 48.1945 15.3711 47.9602 15.5273C47.7453 15.6641 47.4914 15.7324 47.1984 15.7324C47.1594 15.8496 47.0812 15.9863 46.9641 16.1426C46.8469 16.2988 46.7102 16.4551 46.5539 16.6113C46.4172 16.748 46.2707 16.875 46.1145 16.9922C45.9582 17.0898 45.8215 17.1582 45.7043 17.1973C45.548 17.2559 45.4016 17.3047 45.2648 17.3438C45.1477 17.3633 45.0109 17.4219 44.8547 17.5195C44.6789 17.6172 44.5031 17.7441 44.3273 17.9004C44.1516 18.0566 43.966 18.1934 43.7707 18.3105C43.5754 18.4277 43.3703 18.5156 43.1555 18.5742C42.9406 18.6133 42.7258 18.584 42.5109 18.4863C42.257 18.7988 41.9641 18.9941 41.632 19.0723C41.3195 19.1309 41.007 19.1797 40.6945 19.2188C40.4016 19.2383 40.1184 19.3066 39.8449 19.4238C39.591 19.5215 39.3957 19.7559 39.259 20.127C39.2199 20.166 39.1809 20.2539 39.1418 20.3906C39.1223 20.5078 39.1125 20.5859 39.1125 20.625C39.1125 20.8398 39.1027 21.1035 39.0832 21.416C39.0637 21.7285 39.1418 21.9629 39.3176 22.1191C40.0207 21.7871 40.6848 21.3965 41.3098 20.9473C41.9543 20.4785 42.6379 20.0879 43.3605 19.7754L43.5656 20.0098C43.6242 19.5801 43.8098 19.3652 44.1223 19.3652C44.4348 19.3457 44.757 19.3457 45.0891 19.3652H45.2941C45.3332 19.3652 45.3625 19.3652 45.382 19.3652C45.4211 19.3457 45.4602 19.3359 45.4992 19.3359C45.8703 19.3359 46.1145 19.4824 46.2316 19.7754C46.3488 20.0684 46.4562 20.3516 46.5539 20.625C46.3391 20.8594 46.1633 21.1426 46.0266 21.4746C45.9094 21.7871 45.7922 22.1191 45.675 22.4707C45.5773 22.8223 45.4602 23.1738 45.3234 23.5254C45.2062 23.8574 45.0402 24.1699 44.8254 24.4629C45.0012 24.5605 45.0793 24.668 45.0598 24.7852C45.0402 24.9023 45.0012 25.0195 44.9426 25.1367C44.9035 25.2539 44.8937 25.3711 44.9133 25.4883C44.9328 25.5859 45.0598 25.6641 45.2941 25.7227C45.0988 25.8594 44.9621 26.0254 44.884 26.2207C44.8254 26.3965 44.7668 26.5918 44.7082 26.8066C44.6691 27.002 44.6203 27.1973 44.5617 27.3926C44.5031 27.5684 44.3859 27.7246 44.2102 27.8613C44.2883 28.0371 44.3469 28.2129 44.3859 28.3887C44.4445 28.5449 44.4543 28.7305 44.4152 28.9453C44.6887 29.2969 44.9621 29.4922 45.2355 29.5312C45.5285 29.5703 45.8117 29.5508 46.0852 29.4727C46.3586 29.3945 46.6418 29.3164 46.9348 29.2383C47.2277 29.1602 47.5305 29.1797 47.843 29.2969C48.3898 28.9258 48.7707 28.7012 48.9855 28.623C49.2004 28.5449 49.3664 28.4863 49.4836 28.4473C49.6203 28.4082 49.7766 28.3203 49.9523 28.1836C50.1281 28.0469 50.4602 27.7441 50.9484 27.2754C51.4367 27.1387 51.8664 26.9141 52.2375 26.6016C52.6281 26.2891 53.048 26.0254 53.4973 25.8105ZM49.132 1.875C49.1516 2.10938 49.093 2.29492 48.9562 2.43164C48.8391 2.54883 48.7023 2.66602 48.5461 2.7832C48.3898 2.88086 48.2336 2.98828 48.0773 3.10547C47.9406 3.20313 47.8625 3.35937 47.843 3.57422C47.5891 3.69141 47.423 3.84766 47.3449 4.04297C47.2668 4.23828 47.1984 4.44336 47.1398 4.6582C47.1008 4.85352 47.0324 5.04883 46.9348 5.24414C46.8371 5.43945 46.6418 5.5957 46.3488 5.71289L46.5539 5.91797C45.9094 6.50391 45.3918 7.19727 45.0012 7.99805C44.6301 8.79883 44.298 9.59961 44.0051 10.4004C43.7316 10.6934 43.5363 11.0254 43.4191 11.3965C43.302 11.748 43.1848 12.1094 43.0676 12.4805C42.9699 12.832 42.8332 13.1738 42.6574 13.5059C42.5012 13.8184 42.2375 14.0625 41.8664 14.2383C42.0617 14.4922 42.1301 14.7266 42.0715 14.9414C42.0324 15.1562 41.9348 15.3613 41.7785 15.5566C41.6223 15.752 41.4562 15.9473 41.2805 16.1426C41.1242 16.3379 41.0363 16.5527 41.0168 16.7871C41.3879 16.8652 41.7492 16.8555 42.1008 16.7578C42.4719 16.6602 42.8332 16.5234 43.1848 16.3477C43.5363 16.1523 43.8684 15.9375 44.1809 15.7031C44.4934 15.4688 44.7961 15.2637 45.0891 15.0879L45.2941 15.293C46.173 14.8047 46.8957 14.2188 47.4621 13.5352C48.048 12.832 48.6047 12.0703 49.132 11.25C48.9562 11.1133 48.8781 10.9668 48.8977 10.8105C48.9367 10.7129 48.9855 10.5957 49.0441 10.459C49.1027 10.3223 49.1516 10.2051 49.1906 10.1074C49.3859 9.52148 49.5324 8.97461 49.6301 8.4668C49.884 7.41211 50.0598 6.35742 50.1574 5.30273C50.2746 4.22852 50.3527 3.1543 50.3918 2.08008L49.132 1.875ZM67.4578 28.2422C67.4773 28.4766 67.4383 28.6523 67.3406 28.7695C67.243 28.8867 67.1063 28.9746 66.9305 29.0332C66.7742 29.0918 66.5984 29.1406 66.4031 29.1797C66.2078 29.1992 66.0418 29.248 65.9051 29.3262C65.3387 29.2676 64.7918 29.1895 64.2645 29.0918C63.7371 28.9746 63.2488 28.8086 62.7996 28.5938C62.3504 28.3594 61.9402 28.0566 61.5691 27.6855C61.2176 27.3145 60.9148 26.8457 60.6609 26.2793C60.9148 25.8691 61.0027 25.4199 60.9246 24.9316C60.8465 24.4238 60.7684 23.9355 60.6902 23.4668C60.6316 22.998 60.6414 22.5684 60.7195 22.1777C60.8172 21.7871 61.159 21.4746 61.7449 21.2402C61.7059 21.0254 61.7059 20.791 61.7449 20.5371C61.8035 20.2832 61.7352 20.0684 61.5398 19.8926C60.8563 20.127 60.2605 20.459 59.7527 20.8887C59.2449 21.3184 58.7566 21.7871 58.2879 22.2949C57.8387 22.8027 57.3797 23.3203 56.9109 23.8477C56.4617 24.3555 55.9637 24.8047 55.4168 25.1953C55.1629 25.2148 54.8895 25.2051 54.5965 25.166C54.323 25.1074 54.0887 25.1855 53.8934 25.4004C53.9129 25.5371 53.9617 25.6543 54.0398 25.752C54.118 25.8496 54.1766 25.9473 54.2156 26.0449C54.2742 26.1426 54.3035 26.25 54.3035 26.3672C54.3035 26.4648 54.2352 26.582 54.0984 26.7188C53.9031 26.9141 53.6883 27.0801 53.4539 27.2168C53.2391 27.334 53.0242 27.4707 52.8094 27.627C52.6141 27.7637 52.448 27.9297 52.3113 28.125C52.1746 28.3203 52.1063 28.584 52.1063 28.916C51.9891 28.8574 51.8816 28.8477 51.784 28.8867C51.6863 28.9062 51.5984 28.9551 51.5203 29.0332C51.4227 29.1113 51.3348 29.1992 51.2566 29.2969C51.1785 29.3945 51.1004 29.4727 51.0223 29.5312C50.9832 29.6289 50.993 29.707 51.0516 29.7656C51.1102 29.8438 51.1785 29.9219 51.2566 30C51.1785 30.2148 51.0809 30.3418 50.9637 30.3809C50.827 30.4395 50.6902 30.4492 50.5535 30.4102C50.3973 30.3711 50.2508 30.3027 50.1141 30.2051C49.9578 30.127 49.8211 30.0586 49.7039 30C49.6453 29.7461 49.6063 29.4531 49.5867 29.1211C49.5672 28.7891 49.577 28.4668 49.616 28.1543C49.6551 27.8223 49.7332 27.5098 49.8504 27.2168C49.9676 26.9238 50.1434 26.6797 50.3777 26.4844C50.4559 26.4258 50.5047 26.3965 50.5242 26.3965C50.5438 26.377 50.5535 26.3672 50.5535 26.3672C50.5535 26.3672 50.5633 26.3672 50.5828 26.3672C50.6023 26.3477 50.6414 26.3086 50.7 26.25C50.8563 26.0742 50.9637 25.8887 51.0223 25.6934C51.0809 25.4785 51.1297 25.2637 51.1688 25.0488C51.2078 24.834 51.2664 24.6289 51.3445 24.4336C51.4031 24.2188 51.5203 24.0332 51.6961 23.877C51.618 23.5645 51.618 23.291 51.6961 23.0566C51.7938 22.8027 51.9109 22.5684 52.0477 22.3535C52.2039 22.1191 52.3504 21.8945 52.4871 21.6797C52.6434 21.4453 52.741 21.1914 52.7801 20.918C52.7996 20.8203 52.7996 20.7324 52.7801 20.6543C52.7801 20.5566 52.7801 20.459 52.7801 20.3613C52.741 20.0488 52.7703 19.8145 52.868 19.6582C52.9852 19.4824 53.1219 19.3457 53.2781 19.248C53.4539 19.1309 53.6297 19.0137 53.8055 18.8965C54.0008 18.7793 54.1668 18.6035 54.3035 18.3691C54.8699 18.6426 55.202 19.0137 55.2996 19.4824C55.4168 19.9316 55.4559 20.4395 55.4168 21.0059C55.0848 21.2207 54.8309 21.5234 54.6551 21.9141C54.4793 22.2852 54.3621 22.6465 54.3035 22.998C54.3426 23.1152 54.3914 23.1836 54.45 23.2031C54.5281 23.2031 54.6063 23.1934 54.6844 23.1738C54.782 23.1348 54.8699 23.0957 54.948 23.0566C55.0262 23.0176 55.1043 22.998 55.1824 22.998C55.8855 22.5098 56.5789 21.9629 57.2625 21.3574C57.9656 20.752 58.5125 20.0586 58.9031 19.2773C59.4695 19.0039 60.0066 18.6914 60.5145 18.3398C61.0223 17.9688 61.5789 17.6953 62.1844 17.5195L62.8582 16.8457C62.9559 17.002 63.073 17.041 63.2098 16.9629C63.3465 16.8652 63.4832 16.7578 63.6199 16.6406C63.7566 16.5234 63.8836 16.4551 64.0008 16.4355C64.1375 16.416 64.2645 16.5527 64.3816 16.8457C64.577 17.3535 64.6258 17.8516 64.5281 18.3398C64.4305 18.8086 64.2742 19.2773 64.0594 19.7461C63.8641 20.1953 63.659 20.6543 63.4441 21.123C63.2293 21.5918 63.1023 22.0703 63.0633 22.5586C63.0633 22.6758 63.0633 22.8027 63.0633 22.9395C63.0633 23.0566 63.0535 23.1836 63.034 23.3203C62.9949 23.7305 62.9363 24.1797 62.8582 24.668C62.7996 25.1367 62.8289 25.5664 62.9461 25.957C63.0438 26.3086 63.2488 26.6211 63.5613 26.8945C63.8738 27.168 64.1473 27.4414 64.3816 27.7148C64.5184 27.6953 64.6551 27.7051 64.7918 27.7441C64.9285 27.7832 65.0555 27.8223 65.1727 27.8613C65.3094 27.9004 65.4363 27.9199 65.5535 27.9199C65.6707 27.9004 65.7879 27.832 65.9051 27.7148C66.0418 27.6562 66.1688 27.666 66.2859 27.7441C66.4227 27.8027 66.5496 27.8809 66.6668 27.9785C66.784 28.0762 66.9012 28.1641 67.0184 28.2422C67.1551 28.3008 67.3016 28.3008 67.4578 28.2422ZM103.67 22.793C103.611 23.0664 103.484 23.2812 103.289 23.4375C103.094 23.5938 102.869 23.7207 102.615 23.8184C102.381 23.916 102.127 24.0137 101.854 24.1113C101.6 24.1895 101.375 24.2969 101.18 24.4336C100.828 24.3164 100.506 24.3066 100.213 24.4043C99.9199 24.4824 99.6367 24.5703 99.3633 24.668C99.0898 24.7461 98.8066 24.7949 98.5137 24.8145C98.2207 24.8145 97.918 24.6777 97.6055 24.4043L97.5176 24.5508C97.3418 24.8633 97.0879 25.1172 96.7559 25.3125C96.4238 25.5078 96.1113 25.6836 95.8184 25.8398C95.6035 25.957 95.3691 26.1133 95.1152 26.3086C94.8613 26.5039 94.6172 26.7188 94.3828 26.9531C94.168 27.1875 93.9824 27.4316 93.8262 27.6855C93.6895 27.9395 93.6211 28.1934 93.6211 28.4473V28.5645C93.0547 28.8379 92.5273 29.1797 92.0391 29.5898C91.5703 30.0195 91.0625 30.3809 90.5156 30.6738H90.4863V30.7031C90.3301 30.8789 90.1738 30.9863 90.0176 31.0254C89.8613 31.084 89.6953 31.1133 89.5195 31.1133C89.3633 31.1133 89.1973 31.1133 89.0215 31.1133C88.8652 31.1133 88.6992 31.1523 88.5234 31.2305C88.3672 30.9961 88.1816 30.8301 87.9668 30.7324C87.7715 30.6543 87.5469 30.5957 87.293 30.5566C87.0586 30.5371 86.8145 30.5273 86.5605 30.5273C86.3262 30.5273 86.0918 30.498 85.8574 30.4395C84.9199 30.2246 84.1484 29.8535 83.543 29.3262C82.957 28.8184 82.3809 28.1934 81.8145 27.4512C81.9316 26.709 81.834 26.0059 81.5215 25.3418C81.209 24.6582 80.8477 24.0332 80.4375 23.4668C80.1055 23.7402 79.8027 24.0039 79.5293 24.2578C79.2559 24.4922 78.9922 24.7266 78.7383 24.9609C78.4844 25.1953 78.2305 25.4395 77.9766 25.6934C77.7227 25.9473 77.4492 26.2207 77.1562 26.5137L77.0977 26.5723C77.1953 26.8652 77.2051 27.0996 77.127 27.2754C77.0293 27.4316 76.8926 27.5781 76.7168 27.7148C76.5215 27.832 76.3164 27.9492 76.1016 28.0664C75.8867 28.1641 75.7109 28.3008 75.5742 28.4766L75.4277 28.2422C75.1543 28.457 74.9492 28.7109 74.8125 29.0039C74.6562 29.2969 74.5 29.5898 74.3438 29.8828C74.1875 30.1758 74.002 30.4297 73.7871 30.6445C73.5723 30.8789 73.2793 31.0254 72.9082 31.084C72.8301 30.9668 72.7324 30.8789 72.6152 30.8203C72.498 30.7812 72.3809 30.752 72.2637 30.7324C72.1465 30.7129 72.0391 30.6934 71.9414 30.6738C71.8242 30.6543 71.7363 30.6152 71.6777 30.5566C71.6582 30.5176 71.6484 30.4688 71.6484 30.4102C71.6289 30.3516 71.6289 30.3027 71.6484 30.2637C71.668 29.7363 71.8145 29.2383 72.0879 28.7695C72.3613 28.3008 72.6543 27.8711 72.9668 27.4805C73.2207 27.1289 73.4551 26.7773 73.6699 26.4258C73.8652 26.0742 74.0312 25.6934 74.168 25.2832C74.5781 24.9902 74.9688 24.6484 75.3398 24.2578C75.6914 23.8477 76.0625 23.457 76.4531 23.0859C76.8242 22.6953 77.2246 22.3633 77.6543 22.0898C78.084 21.7969 78.5625 21.6211 79.0898 21.5625H79.207C79.2656 21.3281 79.3926 21.123 79.5879 20.9473C79.8027 20.7715 80.0469 20.6055 80.3203 20.4492C80.5938 20.293 80.8672 20.127 81.1406 19.9512C81.4336 19.7754 81.6777 19.5703 81.873 19.3359C82.0684 19.1016 82.1953 18.8281 82.2539 18.5156C82.3125 18.2031 82.2539 17.8223 82.0781 17.373L82.0488 17.3438V17.3145C81.6973 16.7871 81.4629 16.2207 81.3457 15.6152C81.2285 15.0098 81.1895 14.3945 81.2285 13.7695C81.2676 13.1445 81.3457 12.5195 81.4629 11.8945C81.5801 11.2695 81.6973 10.6641 81.8145 10.0781C81.8535 9.80469 81.8926 9.54102 81.9316 9.28711C81.9902 9.0332 82.0488 8.76953 82.1074 8.49609C82.1465 8.32031 82.1855 8.1543 82.2246 7.99805C82.2637 7.82227 82.293 7.64648 82.3125 7.4707C82.5859 7.33398 82.791 7.1582 82.9277 6.94336C83.084 6.72852 83.2109 6.49414 83.3086 6.24023C83.4062 5.98633 83.4941 5.73242 83.5723 5.47852C83.6699 5.22461 83.7773 5 83.8945 4.80469C84.0117 4.58984 84.168 4.42383 84.3633 4.30664C84.5781 4.16992 84.8613 4.10156 85.2129 4.10156V4.07227C85.9551 3.33008 86.7754 2.75391 87.6738 2.34375C88.5723 1.93359 89.5586 1.78711 90.6328 1.9043H90.6621C91.1113 1.9043 91.5508 2.03125 91.9805 2.28516C92.4297 2.53906 92.8496 2.76367 93.2402 2.95898L93.4746 2.8125L93.6504 3.07617L93.9434 2.90039C94.2949 3.42773 94.6758 3.95508 95.0859 4.48242C95.5156 5.00977 95.916 5.55664 96.2871 6.12305C96.6777 6.66992 97 7.24609 97.2539 7.85156C97.5078 8.4375 97.6348 9.0625 97.6348 9.72656C97.6348 9.78516 97.625 9.89258 97.6055 10.0488C97.5859 10.1855 97.5664 10.3223 97.5469 10.459C97.5273 10.5957 97.5078 10.7227 97.4883 10.8398C97.4688 10.957 97.459 11.0156 97.459 11.0156L97.9863 11.8066L98.0156 11.7773C97.9766 12.0117 97.9473 12.2656 97.9277 12.5391C97.9277 12.793 97.9277 13.0566 97.9277 13.3301C97.9277 13.6035 97.9082 13.8672 97.8691 14.1211C97.8496 14.375 97.8008 14.5898 97.7227 14.7656H97.6934L97.6348 15.1172C97.6152 15.2148 97.6055 15.3027 97.6055 15.3809C97.6055 15.4395 97.6055 15.4883 97.6055 15.5273C97.6055 15.8594 97.6348 16.1621 97.6934 16.4355C97.752 16.709 97.791 16.9727 97.8105 17.2266C97.8301 17.4805 97.8105 17.7441 97.752 18.0176C97.7129 18.2715 97.5762 18.5449 97.3418 18.8379C97.498 18.9551 97.5566 19.0723 97.5176 19.1895C97.4785 19.3066 97.4199 19.4336 97.3418 19.5703C97.2637 19.707 97.1953 19.8633 97.1367 20.0391C97.0977 20.1953 97.1367 20.3711 97.2539 20.5664C97.0977 20.7031 97 20.8691 96.9609 21.0645C96.9414 21.2402 96.9414 21.4355 96.9609 21.6504C96.9805 21.8652 97.0098 22.0898 97.0488 22.3242C97.0879 22.5391 97.1074 22.7441 97.1074 22.9395C97.6543 23.0762 98.2012 23.1543 98.748 23.1738C99.2949 23.1738 99.8418 23.1543 100.389 23.1152C100.936 23.0566 101.482 22.998 102.029 22.9395C102.576 22.8613 103.123 22.8125 103.67 22.793ZM96.2871 15.6445C96.0527 15.2539 95.916 14.8926 95.877 14.5605C95.8379 14.209 95.8281 13.877 95.8477 13.5645C95.8672 13.252 95.877 12.9395 95.877 12.627C95.8965 12.3145 95.8281 11.9824 95.6719 11.6309C95.7891 11.5723 95.8965 11.5137 95.9941 11.4551C96.1113 11.377 96.2188 11.2988 96.3164 11.2207C96.0234 10.9082 95.8184 10.625 95.7012 10.3711C95.6035 10.1172 95.5254 9.78516 95.4668 9.375C95.4277 9.21875 95.3887 9.0625 95.3496 8.90625C95.3105 8.75 95.2715 8.58398 95.2324 8.4082C95.2129 8.27148 95.1934 8.14453 95.1738 8.02734C95.1543 7.91016 95.125 7.79297 95.0859 7.67578C94.8711 7.07031 94.5391 6.57227 94.0898 6.18164C93.6602 5.77148 93.1914 5.40039 92.6836 5.06836C92.3711 4.83398 92.0684 4.61914 91.7754 4.42383C91.4824 4.20898 91.2285 3.93555 91.0137 3.60352C90.9941 3.64258 90.8965 3.7207 90.7207 3.83789C90.5449 3.95508 90.3496 4.08203 90.1348 4.21875C89.9395 4.35547 89.7539 4.48242 89.5781 4.59961C89.4023 4.7168 89.2852 4.78516 89.2266 4.80469C89.0117 4.70703 88.8066 4.67773 88.6113 4.7168C88.416 4.73633 88.2305 4.77539 88.0547 4.83398C87.8789 4.89258 87.7227 4.95117 87.5859 5.00977C87.4492 5.04883 87.3516 5.03906 87.293 4.98047H87.2637L87.2344 4.95117C87 4.87305 86.834 4.87305 86.7363 4.95117C86.6387 5.0293 86.5605 5.13672 86.502 5.27344C86.4629 5.41016 86.4141 5.53711 86.3555 5.6543C86.3164 5.75195 86.2383 5.79102 86.1211 5.77148C86.1211 5.79102 86.1113 5.81055 86.0918 5.83008C86.0918 5.84961 86.0918 5.86914 86.0918 5.88867C86.0332 6.29883 85.9648 6.65039 85.8867 6.94336C85.8281 7.2168 85.75 7.48047 85.6523 7.73438C85.5742 7.96875 85.457 8.21289 85.3008 8.4668C85.1641 8.70117 84.9883 8.99414 84.7734 9.3457C84.5781 9.67773 84.3926 9.98047 84.2168 10.2539C84.0605 10.5273 83.9238 10.8105 83.8066 11.1035C83.6895 11.377 83.5918 11.6699 83.5137 11.9824C83.4551 12.2949 83.4258 12.6465 83.4258 13.0371C83.6992 13.5059 83.8262 13.9453 83.8066 14.3555C83.7871 14.7656 83.7188 15.2246 83.6016 15.7324V15.7617L83.8359 15.9082C84.2266 15.5371 84.5684 15.127 84.8613 14.6777C85.1738 14.2285 85.4668 13.7793 85.7402 13.3301C86.0137 12.8809 86.2969 12.4512 86.5898 12.041C86.8828 11.6113 87.2051 11.2402 87.5566 10.9277C88.084 11.2988 88.3965 11.6797 88.4941 12.0703C88.5918 12.4609 88.5527 12.8613 88.377 13.2715C88.2012 13.6816 87.9375 14.1113 87.5859 14.5605C87.2539 14.9902 86.9121 15.4395 86.5605 15.9082C86.209 16.377 85.8965 16.8652 85.623 17.373C85.3691 17.8809 85.2422 18.4082 85.2422 18.9551L85.2715 18.9844C86.0137 19.8633 86.834 20.498 87.7324 20.8887C88.6309 21.2793 89.6172 21.6113 90.6914 21.8848L91.2773 21.5039C91.5312 21.4844 91.7656 21.582 91.9805 21.7969C92.1953 21.9922 92.4004 22.1582 92.5957 22.2949C92.7324 22.1973 92.918 22.1191 93.1523 22.0605C93.3867 22.002 93.6211 21.9531 93.8555 21.9141C94.1094 21.875 94.3535 21.8359 94.5879 21.7969C94.8418 21.7578 95.0566 21.7188 95.2324 21.6797L94.998 21.3574L95.3203 21.0938C95.2617 21.0547 95.1934 21.0059 95.1152 20.9473C95.0566 20.8887 95.0273 20.8203 95.0273 20.7422C95.0859 20.625 95.1543 20.5273 95.2324 20.4492C95.3105 20.3711 95.3691 20.293 95.4082 20.2148C95.4473 20.1367 95.4668 20.0586 95.4668 19.9805C95.4668 19.8828 95.4277 19.7559 95.3496 19.5996C95.6426 19.3066 95.7793 18.9941 95.7598 18.6621C95.7598 18.3105 95.7305 17.9688 95.6719 17.6367C95.6328 17.2852 95.6328 16.9531 95.6719 16.6406C95.7305 16.3086 95.9648 16.0254 96.375 15.791L96.2871 15.6445ZM93.3574 25.5469C93.1816 25.0195 92.9375 24.6777 92.625 24.5215C92.3125 24.3457 91.9609 24.2578 91.5703 24.2578C91.1797 24.2578 90.7695 24.2871 90.3398 24.3457C89.9297 24.4043 89.5488 24.3848 89.1973 24.2871C89.0605 24.0918 88.9043 23.9746 88.7285 23.9355C88.5527 23.8965 88.377 23.8867 88.2012 23.9062C88.0254 23.9258 87.8594 23.9453 87.7031 23.9648C87.5469 23.9844 87.4199 23.9648 87.3223 23.9062C87.2246 23.8281 87.1758 23.75 87.1758 23.6719C87.1953 23.5742 87.1855 23.4863 87.1465 23.4082L87.0879 23.3496C86.9902 23.3105 86.8926 23.291 86.7949 23.291C86.6973 23.291 86.5996 23.291 86.502 23.291C86.4238 23.2715 86.3555 23.2324 86.2969 23.1738C86.2578 23.1152 86.2285 23.0176 86.209 22.8809C85.7988 23.0176 85.4375 23.0469 85.125 22.9688C84.832 22.8711 84.5684 22.7148 84.334 22.5C84.0996 22.2656 83.8848 22.002 83.6895 21.709C83.4941 21.3965 83.3086 21.1035 83.1328 20.8301L83.1035 20.8008L83.0742 20.8301L82.8105 20.8887V20.9473C82.8691 21.416 82.9375 21.9434 83.0156 22.5293C83.1133 23.1152 83.2305 23.7109 83.3672 24.3164C83.5039 24.9219 83.6699 25.498 83.8652 26.0449C84.0605 26.5918 84.2949 27.0605 84.5684 27.4512C84.5684 27.4512 84.5879 27.4707 84.627 27.5098C84.7637 27.4707 84.9199 27.5195 85.0957 27.6562C85.291 27.793 85.4961 27.9297 85.7109 28.0664C85.9258 28.2031 86.1504 28.291 86.3848 28.3301C86.6387 28.3691 86.8926 28.2715 87.1465 28.0371C87.3418 28.2324 87.498 28.3984 87.6152 28.5352C87.7324 28.6719 87.957 28.7402 88.2891 28.7402H88.3184C88.8457 28.5254 89.3242 28.3203 89.7539 28.125C90.1836 27.9102 90.5938 27.6855 90.9844 27.4512C91.375 27.2168 91.7559 26.9531 92.127 26.6602C92.498 26.3672 92.8887 26.0156 93.2988 25.6055L93.3574 25.5469ZM121.293 20.0977C121.371 20.3906 121.341 20.6445 121.205 20.8594C121.068 21.0547 120.882 21.2305 120.648 21.3867C120.433 21.543 120.189 21.6895 119.916 21.8262C119.662 21.9434 119.447 22.0801 119.271 22.2363C118.392 22.4316 117.591 22.5781 116.869 22.6758C116.166 22.7539 115.384 22.8613 114.525 22.998C114.271 23.0371 114.027 23.0371 113.793 22.998C113.578 22.9395 113.353 22.9199 113.119 22.9395C112.982 22.9395 112.855 22.9395 112.738 22.9395C112.621 22.9199 112.504 22.9199 112.386 22.9395C111.937 22.9785 111.644 23.1348 111.507 23.4082C111.371 23.6621 111.254 23.9648 111.156 24.3164C111.078 24.6484 110.97 24.9707 110.834 25.2832C110.716 25.5762 110.453 25.7812 110.043 25.8984C110.004 25.9961 110.013 26.084 110.072 26.1621C110.15 26.2402 110.209 26.3086 110.248 26.3672C109.916 26.4648 109.691 26.6406 109.574 26.8945C109.476 27.1484 109.388 27.4023 109.31 27.6562C109.232 27.9102 109.115 28.125 108.959 28.3008C108.822 28.4766 108.548 28.5352 108.138 28.4766C107.533 29.1211 106.82 29.6387 106 30.0293C105.179 30.4395 104.33 30.7031 103.451 30.8203C103.295 30.7422 103.138 30.6445 102.982 30.5273C102.845 30.4102 102.699 30.3027 102.543 30.2051C102.406 30.1074 102.25 30.0293 102.074 29.9707C101.918 29.9316 101.732 29.9316 101.517 29.9707C101.498 29.5605 101.42 29.1797 101.283 28.8281C101.127 28.4766 100.931 28.1445 100.697 27.832C100.658 27.4805 100.707 27.1582 100.843 26.8652C100.961 26.5527 101.088 26.25 101.224 25.957C101.361 25.6641 101.478 25.3711 101.576 25.0781C101.654 24.7656 101.634 24.4141 101.517 24.0234C101.713 23.9062 101.839 23.7695 101.898 23.6133C101.976 23.457 102.025 23.3008 102.045 23.1445C102.084 22.9688 102.132 22.8125 102.191 22.6758C102.25 22.5195 102.386 22.3926 102.601 22.2949C102.445 21.8262 102.464 21.4844 102.66 21.2695C102.875 21.0352 103.129 20.8301 103.421 20.6543C103.714 20.4785 103.988 20.2832 104.242 20.0684C104.496 19.8535 104.593 19.5312 104.535 19.1016C104.652 18.9844 104.789 18.8867 104.945 18.8086C105.101 18.7305 105.248 18.6621 105.384 18.6035C105.541 18.5254 105.687 18.4473 105.824 18.3691C105.961 18.291 106.088 18.1836 106.205 18.0469C106.068 17.9492 106 17.8516 106 17.7539C106.019 17.6562 106.048 17.5586 106.088 17.4609C106.127 17.3438 106.166 17.2266 106.205 17.1094C106.263 16.9922 106.263 16.875 106.205 16.7578C106.732 16.8359 107.191 16.7676 107.582 16.5527C107.992 16.3184 108.373 16.084 108.724 15.8496C109.095 15.6152 109.466 15.4492 109.838 15.3516C110.209 15.2539 110.638 15.3711 111.127 15.7031C111.166 15.8398 111.224 16.0449 111.302 16.3184C111.4 16.5723 111.488 16.8359 111.566 17.1094C111.664 17.3828 111.752 17.6465 111.83 17.9004C111.908 18.1543 111.957 18.3398 111.976 18.457C111.976 18.5547 111.976 18.7109 111.976 18.9258C111.976 19.1406 111.976 19.375 111.976 19.6289C111.976 19.8633 111.976 20.0879 111.976 20.3027C111.976 20.5176 111.976 20.6836 111.976 20.8008C112.543 21.1328 113.109 21.3379 113.675 21.416C114.242 21.4746 114.808 21.3379 115.375 21.0059C115.589 21.2012 115.795 21.2598 115.99 21.1816C116.185 21.084 116.371 20.9766 116.546 20.8594C116.742 20.7422 116.937 20.6836 117.132 20.6836C117.328 20.6641 117.523 20.8203 117.718 21.1523C117.992 20.8984 118.275 20.7422 118.568 20.6836C118.861 20.6055 119.164 20.5664 119.476 20.5664C119.789 20.5469 120.091 20.5176 120.384 20.4785C120.697 20.4395 121 20.3125 121.293 20.0977ZM110.043 20.5957C110.043 20.3027 110.091 19.9902 110.189 19.6582C110.287 19.3262 110.365 19.0039 110.423 18.6914C110.482 18.3594 110.472 18.0469 110.394 17.7539C110.336 17.4609 110.15 17.1973 109.838 16.9629C109.623 17.0801 109.447 17.2461 109.31 17.4609C109.173 17.6562 109.037 17.8613 108.9 18.0762C108.763 18.2715 108.597 18.4375 108.402 18.5742C108.226 18.7109 107.992 18.75 107.699 18.6914C107.601 18.9258 107.601 19.1211 107.699 19.2773C107.796 19.4141 107.914 19.5508 108.05 19.6875C108.187 19.8047 108.314 19.9316 108.431 20.0684C108.568 20.2051 108.617 20.3809 108.578 20.5957C108.656 20.6543 108.763 20.7129 108.9 20.7715C109.037 20.8105 109.173 20.8398 109.31 20.8594C109.466 20.8594 109.613 20.8398 109.75 20.8008C109.886 20.7617 109.984 20.6934 110.043 20.5957ZM109.838 22.9395C109.447 22.9395 109.105 22.8516 108.812 22.6758C108.539 22.4805 108.255 22.2656 107.963 22.0312C107.689 21.7969 107.396 21.582 107.084 21.3867C106.791 21.1719 106.429 21.0449 106 21.0059C105.824 21.2402 105.619 21.4648 105.384 21.6797C105.15 21.875 104.945 22.0898 104.769 22.3242C104.593 22.5586 104.466 22.8125 104.388 23.0859C104.33 23.3594 104.379 23.6719 104.535 24.0234C104.086 24.2383 103.783 24.5508 103.627 24.9609C103.47 25.3516 103.363 25.7812 103.304 26.25C103.265 26.7188 103.226 27.1875 103.187 27.6562C103.148 28.125 103.021 28.5449 102.806 28.916L103.451 28.4766C103.529 28.5156 103.588 28.5742 103.627 28.6523C103.685 28.7305 103.695 28.8184 103.656 28.916C103.812 28.7598 103.988 28.6426 104.183 28.5645C104.379 28.4668 104.574 28.3984 104.769 28.3594C104.984 28.3008 105.189 28.252 105.384 28.2129C105.599 28.1738 105.804 28.1152 106 28.0371C106.488 28.3105 106.839 28.3691 107.054 28.2129C107.269 28.0566 107.445 27.8223 107.582 27.5098C107.718 27.1973 107.865 26.875 108.021 26.543C108.177 26.1914 108.431 25.9766 108.783 25.8984L108.578 25.6934C108.91 25.2832 109.203 24.8633 109.457 24.4336C109.73 23.9844 109.857 23.4863 109.838 22.9395ZM138.857 20.332C138.681 20.5078 138.544 20.6445 138.446 20.7422C138.368 20.8398 138.29 20.9375 138.212 21.0352C138.154 21.1133 138.075 21.2012 137.978 21.2988C137.9 21.3965 137.773 21.543 137.597 21.7383C137.441 21.8945 137.294 22.0605 137.157 22.2363C137.021 22.4121 136.864 22.5684 136.689 22.7051C136.454 22.6465 136.269 22.6758 136.132 22.793C136.015 22.9102 135.898 23.0469 135.78 23.2031C135.683 23.3398 135.585 23.4766 135.488 23.6133C135.409 23.7305 135.302 23.7793 135.165 23.7598C134.696 24.0137 134.228 24.2383 133.759 24.4336C133.29 24.6094 132.841 24.873 132.411 25.2246L132.177 24.9902L129.13 26.4551C129.032 26.4941 128.935 26.5527 128.837 26.6309C128.739 26.709 128.642 26.7773 128.544 26.8359C128.114 27.0703 127.665 27.2852 127.196 27.4805C126.747 27.6562 126.298 27.8223 125.849 27.9785L125.468 28.0957C125.624 28.4863 125.624 28.7598 125.468 28.916C125.312 29.0723 125.087 29.1895 124.794 29.2676C124.501 29.3262 124.179 29.3652 123.827 29.3848C123.476 29.4043 123.202 29.4727 123.007 29.5898C122.773 29.5508 122.529 29.5312 122.275 29.5312C122.04 29.5508 121.796 29.5801 121.542 29.6191C121.269 29.6582 121.015 29.6777 120.78 29.6777C120.546 29.6777 120.292 29.6484 120.019 29.5898H119.96C119.628 29.7461 119.335 29.7754 119.081 29.6777C118.847 29.5996 118.632 29.4629 118.437 29.2676C118.241 29.0527 118.056 28.8086 117.88 28.5352C117.724 28.2422 117.558 27.9785 117.382 27.7441C117.265 27.5879 117.118 27.3633 116.943 27.0703C116.767 26.7773 116.62 26.4648 116.503 26.1328C116.366 25.8008 116.288 25.4688 116.269 25.1367C116.23 24.7852 116.298 24.4824 116.474 24.2285C116.65 23.9746 116.796 23.7012 116.913 23.4082C117.011 23.1152 117.06 22.7734 117.06 22.3828C117.06 22.2461 117.06 22.1191 117.06 22.002C117.04 21.8848 117.03 21.7578 117.03 21.6211C117.128 21.6211 117.236 21.6309 117.353 21.6504C117.47 21.6504 117.577 21.6504 117.675 21.6504C117.792 21.6309 117.88 21.5918 117.939 21.5332C118.017 21.4551 118.056 21.3281 118.056 21.1523C118.056 21.0547 118.017 20.9766 117.939 20.918C117.88 20.8594 117.841 20.8008 117.821 20.7422C117.939 20.5664 118.046 20.4297 118.144 20.332C118.261 20.2148 118.359 20.1074 118.437 20.0098C118.515 19.8926 118.573 19.7656 118.613 19.6289C118.652 19.4727 118.642 19.2676 118.583 19.0137C118.818 18.6035 119.091 18.2422 119.404 17.9297C119.736 17.5977 120.077 17.2949 120.429 17.0215C120.78 16.7285 121.142 16.4453 121.513 16.1719C121.884 15.8984 122.236 15.6055 122.568 15.293C122.939 15.4492 123.232 15.4492 123.446 15.293C123.681 15.1367 123.886 14.9707 124.062 14.7949C124.238 14.5996 124.413 14.4434 124.589 14.3262C124.765 14.209 124.999 14.2578 125.292 14.4727L125.351 14.5312C125.878 14.0039 126.405 13.7695 126.933 13.8281C127.48 13.8867 127.939 14.0625 128.31 14.3555C128.7 14.6484 128.954 14.9902 129.071 15.3809C129.189 15.752 129.081 16.0059 128.749 16.1426C128.964 16.3574 129.071 16.6113 129.071 16.9043C129.071 17.1973 128.993 17.4512 128.837 17.666C128.661 17.9004 128.505 18.1445 128.368 18.3984C128.251 18.6328 128.124 18.8867 127.988 19.1602C127.792 19.6094 127.577 20.0391 127.343 20.4492C127.109 20.8398 126.777 21.1719 126.347 21.4453C125.995 21.3477 125.751 21.3867 125.614 21.5625C125.497 21.7383 125.409 21.9336 125.351 22.1484C125.292 22.3438 125.224 22.5 125.146 22.6172C125.068 22.7344 124.902 22.6953 124.648 22.5L124.589 22.4414L124.53 22.5C124.374 22.6562 124.247 22.832 124.15 23.0273C124.071 23.2227 123.954 23.3691 123.798 23.4668C123.622 23.4082 123.437 23.3594 123.241 23.3203C123.046 23.2812 122.861 23.2422 122.685 23.2031C122.685 23.6133 122.607 23.9355 122.45 24.1699C122.294 24.4043 122.089 24.5996 121.835 24.7559C121.601 24.8926 121.327 25.0098 121.015 25.1074C120.702 25.1855 120.39 25.293 120.077 25.4297C119.784 25.5469 119.501 25.7031 119.228 25.8984C118.974 26.0742 118.769 26.3281 118.613 26.6602C118.808 26.875 119.052 27.002 119.345 27.041C119.638 27.0605 119.941 27.0605 120.253 27.041C120.566 27.002 120.868 26.9824 121.161 26.9824C121.474 26.9824 121.747 27.0605 121.982 27.2168L122.011 27.2461L122.04 27.2168C122.509 27.1582 122.958 27.0508 123.388 26.8945C123.837 26.7188 124.267 26.543 124.677 26.3672C125.107 26.1719 125.536 25.9961 125.966 25.8398C126.415 25.6641 126.874 25.5371 127.343 25.459C127.441 25.6152 127.568 25.7031 127.724 25.7227C127.9 25.7422 128.066 25.7324 128.222 25.6934L128.251 25.6348C128.29 25.498 128.329 25.3809 128.368 25.2832C128.407 25.166 128.466 25.0391 128.544 24.9023C128.681 24.6875 128.847 24.5215 129.042 24.4043C129.238 24.2871 129.443 24.1992 129.657 24.1406C129.892 24.082 130.136 24.043 130.39 24.0234C130.644 24.0039 130.898 23.9746 131.152 23.9355H131.21L131.239 23.8477C131.318 23.6133 131.415 23.457 131.532 23.3789C131.669 23.2812 131.806 23.2129 131.943 23.1738C132.099 23.1348 132.255 23.1055 132.411 23.0859C132.587 23.0664 132.753 23.0078 132.909 22.9102C133.261 23.0273 133.554 22.9883 133.788 22.793C134.023 22.5977 134.247 22.3926 134.462 22.1777L134.696 22.4707L134.784 22.3535C135.077 22.0801 135.292 21.875 135.429 21.7383C135.585 21.6016 135.732 21.4844 135.868 21.3867C136.005 21.2695 136.161 21.1621 136.337 21.0645C136.532 20.9473 136.796 20.7812 137.128 20.5664C137.402 20.3906 137.665 20.2148 137.919 20.0391C138.193 19.8633 138.456 19.668 138.71 19.4531C138.808 19.4922 138.857 19.5703 138.857 19.6875C138.857 19.7852 138.857 19.8828 138.857 19.9805C138.837 20.0195 138.818 20.0781 138.798 20.1562C138.798 20.2344 138.818 20.293 138.857 20.332ZM126.728 16.6699C126.708 16.6504 126.689 16.6406 126.669 16.6406C126.669 16.6406 126.659 16.6309 126.64 16.6113C126.23 16.3965 125.888 16.2988 125.614 16.3184C125.341 16.3184 125.087 16.3965 124.853 16.5527C124.638 16.6895 124.433 16.875 124.238 17.1094C124.062 17.3242 123.866 17.5293 123.652 17.7246C123.456 17.9004 123.222 18.0371 122.948 18.1348C122.675 18.2324 122.343 18.2227 121.952 18.1055C121.894 18.418 121.835 18.7305 121.777 19.043C121.738 19.3359 121.708 19.6387 121.689 19.9512C121.357 20.0684 121.093 20.2344 120.898 20.4492C120.722 20.6641 120.566 20.8984 120.429 21.1523C120.312 21.4062 120.195 21.6797 120.077 21.9727C119.98 22.2461 119.843 22.5098 119.667 22.7637L119.784 22.9102C119.863 22.8711 119.95 22.9004 120.048 22.998C120.146 23.0957 120.214 23.1641 120.253 23.2031C120.468 22.8906 120.751 22.627 121.103 22.4121C121.474 22.1973 121.845 22.002 122.216 21.8262C122.607 21.6309 122.978 21.4258 123.329 21.2109C123.681 20.9961 123.945 20.7129 124.12 20.3613C124.745 20.1855 125.214 19.834 125.527 19.3066C125.839 18.7793 126.103 18.2324 126.318 17.666C126.357 17.5488 126.425 17.3828 126.523 17.168C126.64 16.9336 126.708 16.7676 126.728 16.6699Z" fill="#191919"/>
</svg>
