<svg width="166" height="53" viewBox="0 0 166 53" fill="none" xmlns="http://www.w3.org/2000/svg">
<path d="M31.584 21.2109C31.5449 21.7383 31.4375 22.1387 31.2617 22.4121C31.1055 22.666 30.9297 22.9004 30.7344 23.1152C30.5586 23.3301 30.373 23.5742 30.1777 23.8477C30.002 24.1211 29.8652 24.5312 29.7676 25.0781C29.123 25.332 28.6543 25.6348 28.3613 25.9863C28.0684 26.3184 27.8145 26.6309 27.5996 26.9238C27.4043 27.2168 27.1602 27.4414 26.8672 27.5977C26.5938 27.7539 26.1348 27.7832 25.4902 27.6855C25.3926 27.5684 25.2852 27.4609 25.168 27.3633C25.0703 27.2656 24.9531 27.168 24.8164 27.0703C24.6602 27.4805 24.4551 27.7539 24.2012 27.8906C23.9668 28.0273 23.7031 28.125 23.4102 28.1836C23.1172 28.2227 22.8145 28.2812 22.502 28.3594C22.1895 28.4375 21.8867 28.6328 21.5938 28.9453C20.8516 28.8477 20.2559 28.6816 19.8066 28.4473C19.377 28.2129 19.0352 27.959 18.7812 27.6855C18.5273 27.3926 18.3223 27.0898 18.166 26.7773C18.0293 26.4453 17.8828 26.1328 17.7266 25.8398C17.5703 25.5469 17.375 25.2832 17.1406 25.0488C16.9258 24.7949 16.6035 24.5996 16.1738 24.4629C15.9785 24.4043 15.8125 24.3945 15.6758 24.4336C15.5586 24.4727 15.4512 24.541 15.3535 24.6387C15.2559 24.7363 15.1582 24.8535 15.0605 24.9902C14.9824 25.1074 14.8848 25.2148 14.7676 25.3125L14.4453 24.9902C14.2695 25.459 14.0059 25.8301 13.6543 26.1035C13.3223 26.3574 12.9316 26.5527 12.4824 26.6895C12.0527 26.8066 11.5938 26.8848 11.1055 26.9238C10.6367 26.9434 10.1875 26.9531 9.75781 26.9531C9.54297 27.4219 9.2793 27.7734 8.9668 28.0078C8.6543 28.2422 8.30273 28.418 7.91211 28.5352C7.54102 28.6523 7.15039 28.7402 6.74023 28.7988C6.33008 28.8574 5.91016 28.9453 5.48047 29.0625C5.30469 29.0234 5.10938 29.0332 4.89453 29.0918C4.69922 29.1504 4.49414 29.209 4.2793 29.2676C4.08398 29.3457 3.87891 29.4043 3.66406 29.4434C3.46875 29.4824 3.30273 29.4629 3.16602 29.3848C2.99023 29.2871 2.90234 29.1699 2.90234 29.0332C2.90234 28.8965 2.85352 28.7695 2.75586 28.6523H2.69727C2.28711 28.6133 1.95508 28.4863 1.70117 28.2715C1.44727 28.0371 1.23242 27.7637 1.05664 27.4512C0.861328 27.1387 0.695312 26.8066 0.558594 26.4551C0.421875 26.1035 0.285156 25.7812 0.148438 25.4883C0.148438 25.0586 0.128906 24.5898 0.0898438 24.082C0.03125 23.5547 0.0214844 23.0371 0.0605469 22.5293C0.0996094 22.002 0.207031 21.5137 0.382812 21.0645C0.558594 20.6152 0.851562 20.2539 1.26172 19.9805L1.34961 19.9219L1.02734 19.6582C1.28125 19.4434 1.4375 19.2383 1.49609 19.043C1.53516 18.8281 1.54492 18.5742 1.52539 18.2812C1.66211 18.0664 1.81836 17.8809 1.99414 17.7246C2.15039 17.5488 2.31641 17.3828 2.49219 17.2266C2.98047 16.7188 3.41992 16.1914 3.81055 15.6445C4.20117 15.0977 4.39648 14.4531 4.39648 13.7109C4.39648 13.6133 4.38672 13.5254 4.36719 13.4473C4.36719 13.3691 4.36719 13.2812 4.36719 13.1836C4.64062 13.1055 4.89453 12.9785 5.12891 12.8027C5.38281 12.6074 5.62695 12.4219 5.86133 12.2461C6.0957 12.0508 6.33984 11.8945 6.59375 11.7773C6.84766 11.6602 7.11133 11.6309 7.38477 11.6895C7.3457 11.5723 7.30664 11.4648 7.26758 11.3672C7.22852 11.2695 7.20898 11.1621 7.20898 11.0449C7.20898 10.7129 7.32617 10.4199 7.56055 10.166C7.81445 9.91211 8.03906 9.6875 8.23438 9.49219C8.39062 9.33594 8.56641 9.15039 8.76172 8.93555C8.95703 8.70117 9.10352 8.53516 9.20117 8.4375L9.02539 8.26172C9.31836 8.24219 9.5332 8.1543 9.66992 7.99805C9.80664 7.82227 9.93359 7.64648 10.0508 7.4707C10.1875 7.29492 10.334 7.13867 10.4902 7.00195C10.6465 6.8457 10.8809 6.76758 11.1934 6.76758H11.2812C11.4375 6.45508 11.6719 6.18164 11.9844 5.94727C12.2969 5.69336 12.6191 5.44922 12.9512 5.21484C13.3027 4.98047 13.6445 4.73633 13.9766 4.48242C14.3086 4.22852 14.5625 3.91602 14.7383 3.54492C15.0312 3.44727 15.2852 3.32031 15.5 3.16406C15.7148 2.98828 15.9199 2.83203 16.1152 2.69531C16.3301 2.53906 16.5547 2.40234 16.7891 2.28516C17.043 2.16797 17.3457 2.09961 17.6973 2.08008C17.7949 1.98242 17.9219 1.85547 18.0781 1.69922C18.2344 1.54297 18.3613 1.46484 18.459 1.46484C18.5566 1.46484 18.6152 1.50391 18.6348 1.58203C18.6738 1.64062 18.7129 1.69922 18.752 1.75781C18.8691 1.66016 19.0254 1.63086 19.2207 1.66992C19.4355 1.68945 19.6504 1.74805 19.8652 1.8457C20.0801 1.94336 20.2852 2.05078 20.4805 2.16797C20.6758 2.28516 20.832 2.37305 20.9492 2.43164C21.4375 3.64258 21.4961 4.88281 21.125 6.15234C21.0273 6.15234 20.9199 6.16211 20.8027 6.18164C20.6855 6.18164 20.5684 6.18164 20.4512 6.18164C20.4512 6.10352 20.5 6.01562 20.5977 5.91797C20.6953 5.82031 20.7637 5.75195 20.8027 5.71289C20.5684 5.5957 20.3926 5.43945 20.2754 5.24414C20.1582 5.0293 20.0508 4.82422 19.9531 4.62891C19.8555 4.41406 19.7285 4.22852 19.5723 4.07227C19.4355 3.89648 19.2109 3.78906 18.8984 3.75C18.4688 3.69141 18.0684 3.76953 17.6973 3.98438C17.3262 4.17969 16.9844 4.4043 16.6719 4.6582C16.3594 4.89258 16.0664 5.11719 15.793 5.33203C15.5195 5.52734 15.2559 5.60547 15.002 5.56641C14.8848 5.80078 14.748 5.99609 14.5918 6.15234C14.4551 6.30859 14.3184 6.46484 14.1816 6.62109C14.0645 6.77734 13.9668 6.95312 13.8887 7.14844C13.8301 7.34375 13.8398 7.59766 13.918 7.91016C13.2148 8.57422 12.4922 9.21875 11.75 9.84375C11.0273 10.4492 10.3535 11.1328 9.72852 11.8945L9.40625 11.5723C9.40625 11.709 9.35742 11.8359 9.25977 11.9531C9.18164 12.0508 9.10352 12.1582 9.02539 12.2754C8.94727 12.3926 8.87891 12.5293 8.82031 12.6855C8.78125 12.8223 8.79102 12.9785 8.84961 13.1543C8.69336 13.252 8.55664 13.3691 8.43945 13.5059C8.3418 13.623 8.24414 13.7598 8.14648 13.916C8.0293 14.0918 7.90234 14.2578 7.76562 14.4141C7.64844 14.5508 7.49219 14.6875 7.29688 14.8242L7.26758 14.8535C7.28711 15.0488 7.29688 15.2344 7.29688 15.4102C7.29688 15.5859 7.29688 15.7812 7.29688 15.9961C7.08203 16.3281 6.81836 16.6406 6.50586 16.9336C6.19336 17.2266 5.89062 17.5293 5.59766 17.8418C5.30469 18.1348 5.04102 18.457 4.80664 18.8086C4.5918 19.1602 4.46484 19.5508 4.42578 19.9805C4.09375 20.0977 3.85938 20.293 3.72266 20.5664C3.58594 20.8398 3.47852 21.123 3.40039 21.416C3.32227 21.709 3.25391 21.9922 3.19531 22.2656C3.13672 22.5391 3.01953 22.7441 2.84375 22.8809L3.10742 23.1445C2.59961 23.4375 2.22852 23.7988 1.99414 24.2285C1.75977 24.6582 1.7207 25.166 1.87695 25.752L1.90625 25.7812V25.8105C2.47266 26.2988 3.04883 26.5625 3.63477 26.6016C4.2207 26.6406 4.85547 26.6113 5.53906 26.5137C5.85156 26.4746 6.14453 26.4551 6.41797 26.4551C6.71094 26.4355 6.99414 26.4258 7.26758 26.4258H7.32617C7.59961 26.1523 7.89258 25.9863 8.20508 25.9277C8.51758 25.8496 8.85938 25.8105 9.23047 25.8105C9.54297 25.8105 9.8457 25.791 10.1387 25.752C10.4316 25.7129 10.6855 25.5664 10.9004 25.3125C10.9785 25.2344 11.0371 25.1562 11.0762 25.0781C11.1152 25 11.1641 24.9219 11.2227 24.8438C11.2617 24.8047 11.3008 24.7656 11.3398 24.7266C11.3789 24.6875 11.418 24.6484 11.457 24.6094C11.8867 24.707 12.2871 24.6582 12.6582 24.4629C13.0293 24.248 13.3809 23.9941 13.7129 23.7012C14.0645 23.4082 14.4062 23.1152 14.7383 22.8223C15.0898 22.5098 15.4414 22.2949 15.793 22.1777C16.2422 21.7285 16.5352 21.2402 16.6719 20.7129C16.8281 20.1855 16.9258 19.6289 16.9648 19.043C16.9844 18.75 17.0039 18.4766 17.0234 18.2227C17.0625 17.9688 17.1113 17.7344 17.1699 17.5195C17.248 17.2852 17.3555 17.0703 17.4922 16.875C17.6289 16.6602 17.8242 16.4453 18.0781 16.2305L18.1367 16.1719C18.0977 16.0156 18.0586 15.8789 18.0195 15.7617C17.9805 15.6445 17.9609 15.498 17.9609 15.3223C17.9609 14.9512 18.0293 14.5996 18.166 14.2676C18.3027 13.9355 18.4492 13.6035 18.6055 13.2715C18.7812 12.9199 18.9375 12.5488 19.0742 12.1582C19.2109 11.7676 19.2793 11.3281 19.2793 10.8398C19.5527 10.3711 19.8555 9.89258 20.1875 9.4043C20.5195 8.91602 20.8809 8.44727 21.2715 7.99805C21.6621 7.54883 22.082 7.14844 22.5312 6.79688C22.9805 6.44531 23.4688 6.17188 23.9961 5.97656C24.25 5.99609 24.5039 6.02539 24.7578 6.06445C25.0312 6.08398 25.2852 6.11328 25.5195 6.15234C25.4023 6.42578 25.3438 6.74805 25.3438 7.11914C25.3438 7.4707 25.3242 7.82227 25.2852 8.17383C25.2656 8.50586 25.1875 8.80859 25.0508 9.08203C24.9141 9.35547 24.6602 9.55078 24.2891 9.66797C24.3281 9.72656 24.3477 9.84375 24.3477 10.0195C24.3672 10.1758 24.377 10.293 24.377 10.3711C24.377 10.957 24.25 11.5137 23.9961 12.041C23.7422 12.5684 23.4492 13.0957 23.1172 13.623C22.8047 14.1309 22.4922 14.6484 22.1797 15.1758C21.8867 15.7031 21.6816 16.2402 21.5645 16.7871C21.5059 17.041 21.3691 17.2754 21.1543 17.4902C20.959 17.7051 20.7539 17.9199 20.5391 18.1348C20.3438 18.3496 20.1777 18.584 20.041 18.8379C19.9238 19.0723 19.9141 19.3359 20.0117 19.6289C19.8555 19.8828 19.6699 20.0977 19.4551 20.2734C19.2598 20.4297 19.084 20.5957 18.9277 20.7715C18.7715 20.9277 18.6641 21.123 18.6055 21.3574C18.5469 21.5918 18.5859 21.8945 18.7227 22.2656H18.752V22.2949C18.9668 22.627 19.1328 22.9688 19.25 23.3203C19.3672 23.6719 19.4941 24.0137 19.6309 24.3457C19.7871 24.6777 19.9824 24.9805 20.2168 25.2539C20.4707 25.5273 20.8223 25.7324 21.2715 25.8691C21.3105 25.6543 21.3984 25.5469 21.5352 25.5469C21.6719 25.5273 21.8184 25.5176 21.9746 25.5176C22.0723 25.6152 22.1699 25.7129 22.2676 25.8105C22.3652 25.8887 22.4629 25.9766 22.5605 26.0742C23.4199 26.0742 24.1035 26.0449 24.6113 25.9863C25.1191 25.9277 25.5488 25.8203 25.9004 25.6641C26.2715 25.5078 26.6328 25.2832 26.9844 24.9902C27.3359 24.6777 27.7949 24.2773 28.3613 23.7891C28.8887 23.3398 29.416 22.9004 29.9434 22.4707C30.4707 22.0215 31.0176 21.6016 31.584 21.2109ZM21.8574 12.8613C21.7598 12.6465 21.5938 12.5391 21.3594 12.5391C21.125 12.5391 20.9102 12.5488 20.7148 12.5684C20.8711 12.7246 21.0078 12.9004 21.125 13.0957C21.2617 13.291 21.3887 13.4766 21.5059 13.6523C21.6035 13.5547 21.7012 13.4375 21.7988 13.3008C21.916 13.1641 21.9355 13.0176 21.8574 12.8613ZM44.0504 27.6855C44.0699 27.9199 44.0309 28.0957 43.9332 28.2129C43.8355 28.3301 43.6988 28.418 43.523 28.4766C43.3668 28.5352 43.191 28.584 42.9957 28.623C42.8004 28.6426 42.6344 28.6914 42.4977 28.7695C41.9312 28.7109 41.3844 28.6328 40.857 28.5352C40.3297 28.418 39.8414 28.252 39.3922 28.0371C38.943 27.8027 38.5328 27.5 38.1617 27.1289C37.8102 26.7578 37.5074 26.2891 37.2535 25.7227C37.5074 25.3125 37.5953 24.8633 37.5172 24.375C37.4391 23.8672 37.3609 23.3789 37.2828 22.9102C37.2242 22.4414 37.234 22.0117 37.3121 21.6211C37.4098 21.2305 37.7516 20.918 38.3375 20.6836C38.2984 20.4688 38.2984 20.2344 38.3375 19.9805C38.3961 19.7266 38.3277 19.5117 38.1324 19.3359C37.4488 19.5703 36.8531 19.9023 36.3453 20.332C35.8375 20.7617 35.3492 21.2305 34.8805 21.7383C34.4312 22.2461 33.9723 22.7637 33.5035 23.291C33.0543 23.7988 32.5562 24.248 32.0094 24.6387C31.7555 24.6582 31.482 24.6484 31.1891 24.6094C30.9156 24.5508 30.6812 24.6289 30.4859 24.8438C30.5055 24.9805 30.5543 25.0977 30.6324 25.1953C30.7105 25.293 30.7691 25.3906 30.8082 25.4883C30.8668 25.5859 30.8961 25.6934 30.8961 25.8105C30.8961 25.9082 30.8277 26.0254 30.691 26.1621C30.4957 26.3574 30.2809 26.5234 30.0465 26.6602C29.8316 26.7773 29.6168 26.9141 29.402 27.0703C29.2066 27.207 29.0406 27.373 28.9039 27.5684C28.7672 27.7637 28.6988 28.0273 28.6988 28.3594C28.5816 28.3008 28.4742 28.291 28.3766 28.3301C28.2789 28.3496 28.191 28.3984 28.1129 28.4766C28.0152 28.5547 27.9273 28.6426 27.8492 28.7402C27.7711 28.8379 27.693 28.916 27.6148 28.9746C27.5758 29.0723 27.5855 29.1504 27.6441 29.209C27.7027 29.2871 27.7711 29.3652 27.8492 29.4434C27.7711 29.6582 27.6734 29.7852 27.5562 29.8242C27.4195 29.8828 27.2828 29.8926 27.1461 29.8535C26.9898 29.8145 26.8434 29.7461 26.7066 29.6484C26.5504 29.5703 26.4137 29.502 26.2965 29.4434C26.2379 29.1895 26.1988 28.8965 26.1793 28.5645C26.1598 28.2324 26.1695 27.9102 26.2086 27.5977C26.2477 27.2656 26.3258 26.9531 26.443 26.6602C26.5602 26.3672 26.7359 26.123 26.9703 25.9277C27.0484 25.8691 27.0973 25.8398 27.1168 25.8398C27.1363 25.8203 27.1461 25.8105 27.1461 25.8105C27.1461 25.8105 27.1559 25.8105 27.1754 25.8105C27.1949 25.791 27.234 25.752 27.2926 25.6934C27.4488 25.5176 27.5562 25.332 27.6148 25.1367C27.6734 24.9219 27.7223 24.707 27.7613 24.4922C27.8004 24.2773 27.859 24.0723 27.9371 23.877C27.9957 23.6621 28.1129 23.4766 28.2887 23.3203C28.2105 23.0078 28.2105 22.7344 28.2887 22.5C28.3863 22.2461 28.5035 22.0117 28.6402 21.7969C28.7965 21.5625 28.943 21.3379 29.0797 21.123C29.2359 20.8887 29.3336 20.6348 29.3727 20.3613C29.3922 20.2637 29.3922 20.1758 29.3727 20.0977C29.3727 20 29.3727 19.9023 29.3727 19.8047C29.3336 19.4922 29.3629 19.2578 29.4605 19.1016C29.5777 18.9258 29.7145 18.7891 29.8707 18.6914C30.0465 18.5742 30.2223 18.457 30.398 18.3398C30.5934 18.2227 30.7594 18.0469 30.8961 17.8125C31.4625 18.0859 31.7945 18.457 31.8922 18.9258C32.0094 19.375 32.0484 19.8828 32.0094 20.4492C31.6773 20.6641 31.4234 20.9668 31.2477 21.3574C31.0719 21.7285 30.9547 22.0898 30.8961 22.4414C30.9352 22.5586 30.984 22.627 31.0426 22.6465C31.1207 22.6465 31.1988 22.6367 31.277 22.6172C31.3746 22.5781 31.4625 22.5391 31.5406 22.5C31.6187 22.4609 31.6969 22.4414 31.775 22.4414C32.4781 21.9531 33.1715 21.4062 33.8551 20.8008C34.5582 20.1953 35.1051 19.502 35.4957 18.7207C36.0621 18.4473 36.5992 18.1348 37.107 17.7832C37.6148 17.4121 38.1715 17.1387 38.777 16.9629L39.4508 16.2891C39.5484 16.4453 39.6656 16.4844 39.8023 16.4062C39.9391 16.3086 40.0758 16.2012 40.2125 16.084C40.3492 15.9668 40.4762 15.8984 40.5934 15.8789C40.7301 15.8594 40.857 15.9961 40.9742 16.2891C41.1695 16.7969 41.2184 17.2949 41.1207 17.7832C41.023 18.252 40.8668 18.7207 40.652 19.1895C40.4566 19.6387 40.2516 20.0977 40.0367 20.5664C39.8219 21.0352 39.6949 21.5137 39.6559 22.002C39.6559 22.1191 39.6559 22.2461 39.6559 22.3828C39.6559 22.5 39.6461 22.627 39.6266 22.7637C39.5875 23.1738 39.5289 23.623 39.4508 24.1113C39.3922 24.5801 39.4215 25.0098 39.5387 25.4004C39.6363 25.752 39.8414 26.0645 40.1539 26.3379C40.4664 26.6113 40.7398 26.8848 40.9742 27.1582C41.1109 27.1387 41.2477 27.1484 41.3844 27.1875C41.5211 27.2266 41.648 27.2656 41.7652 27.3047C41.902 27.3438 42.0289 27.3633 42.1461 27.3633C42.2633 27.3438 42.3805 27.2754 42.4977 27.1582C42.6344 27.0996 42.7613 27.1094 42.8785 27.1875C43.0152 27.2461 43.1422 27.3242 43.2594 27.4219C43.3766 27.5195 43.4937 27.6074 43.6109 27.6855C43.7477 27.7441 43.8941 27.7441 44.0504 27.6855ZM66.0969 20.3613C65.882 20.6348 65.716 20.9375 65.5988 21.2695C65.4816 21.6016 65.3352 21.9141 65.1594 22.207C65.0031 22.5 64.798 22.7441 64.5441 22.9395C64.3098 23.1348 63.9777 23.2227 63.548 23.2031C63.2355 23.3203 63.0012 23.5352 62.8449 23.8477C62.7082 24.1406 62.5715 24.4434 62.4348 24.7559C62.298 25.0488 62.1223 25.293 61.9074 25.4883C61.6926 25.6641 61.3703 25.6836 60.9406 25.5469C60.3937 25.7812 59.8957 26.0938 59.4465 26.4844C59.0168 26.8555 58.6066 27.2461 58.216 27.6562C58.0793 27.793 57.923 27.9688 57.7473 28.1836C57.5715 28.3789 57.4055 28.5254 57.2492 28.623C57.1125 28.7012 56.9758 28.7109 56.8391 28.6523C56.7023 28.5938 56.5754 28.5352 56.4582 28.4766C56.341 28.3984 56.2238 28.3594 56.1066 28.3594C56.009 28.3594 55.9211 28.4473 55.843 28.623C55.9797 28.8965 56.009 29.082 55.9309 29.1797C55.8527 29.2969 55.7258 29.3848 55.55 29.4434C55.3742 29.502 55.1887 29.5508 54.9934 29.5898C54.798 29.6289 54.6418 29.6973 54.5246 29.7949C54.2902 30.0098 54.1242 30.2734 54.0266 30.5859C53.9289 30.8984 53.841 31.2109 53.7629 31.5234C53.6848 31.8359 53.5676 32.1289 53.4113 32.4023C53.2746 32.6953 53.0402 32.9199 52.7082 33.0762C52.9035 33.2129 52.9816 33.3496 52.9426 33.4863C52.923 33.623 52.8742 33.7598 52.7961 33.8965C52.718 34.0527 52.6594 34.1992 52.6203 34.3359C52.6008 34.4727 52.6789 34.6094 52.8547 34.7461C52.5617 35.1172 52.298 35.5176 52.0637 35.9473C51.8488 36.377 51.634 36.8066 51.4191 37.2363C51.2043 37.6855 50.9699 38.1152 50.716 38.5254C50.4816 38.9551 50.1789 39.3359 49.8078 39.668L49.8957 40.3711C49.6027 40.293 49.4172 40.3027 49.3391 40.4004C49.2805 40.498 49.2512 40.6348 49.2512 40.8105C49.2512 40.9863 49.2512 41.1621 49.2512 41.3379C49.2707 41.5332 49.2121 41.6797 49.0754 41.7773C49.0168 41.8555 48.9484 41.9141 48.8703 41.9531C48.8117 41.9922 48.7531 42.041 48.6945 42.0996C48.0695 42.5684 47.6398 43.1641 47.4055 43.8867C47.3664 44.0039 47.3371 44.1211 47.3176 44.2383C47.298 44.3555 47.2687 44.4824 47.2297 44.6191C47.132 44.8926 46.9758 45.1758 46.7609 45.4688C46.5461 45.7617 46.3117 46.0645 46.0578 46.377C45.8039 46.6895 45.5598 47.0117 45.3254 47.3438C45.091 47.6953 44.9055 48.0469 44.7687 48.3984C44.4562 48.3594 44.2121 48.3887 44.0363 48.4863C43.841 48.6035 43.6848 48.75 43.5676 48.9258C43.4504 49.1211 43.3527 49.3262 43.2746 49.541C43.1965 49.7559 43.0988 49.9414 42.9816 50.0977C42.8449 50.2734 42.6789 50.4004 42.4836 50.4785C42.2687 50.5762 41.9953 50.5762 41.6633 50.4785L40.3449 51.6797C40.1105 51.543 39.8859 51.5137 39.6711 51.5918C39.4367 51.6699 39.2121 51.7773 38.9973 51.9141C38.7629 52.0508 38.5383 52.1582 38.3234 52.2363C38.0891 52.3145 37.8449 52.2852 37.591 52.1484C37.4543 52.3047 37.3371 52.3828 37.2395 52.3828C37.1418 52.4023 37.0246 52.3242 36.8879 52.1484L36.4484 52.6172C36.2141 52.4219 35.9309 52.2363 35.5988 52.0605C35.2473 51.9043 34.925 51.7188 34.632 51.5039C34.3391 51.3086 34.1047 51.0742 33.9289 50.8008C33.7531 50.5469 33.7238 50.2148 33.841 49.8047C33.802 49.6875 33.7434 49.5605 33.6652 49.4238C33.5676 49.2871 33.4895 49.1406 33.4309 48.9844C33.3723 48.8477 33.3332 48.7012 33.3137 48.5449C33.2941 48.4082 33.3332 48.2812 33.4309 48.1641C33.2551 47.832 33.1965 47.4902 33.2551 47.1387C33.2941 46.8066 33.3625 46.4746 33.4602 46.1426C33.5578 45.8105 33.6359 45.4785 33.6945 45.1465C33.7531 44.8145 33.6945 44.4824 33.5187 44.1504C33.7531 43.9746 33.9289 43.75 34.0461 43.4766C34.1437 43.2031 34.2414 42.9199 34.3391 42.627C34.4172 42.334 34.5051 42.0508 34.6027 41.7773C34.7004 41.5039 34.8664 41.2793 35.1008 41.1035L35.0715 40.6348C35.9895 39.6582 36.966 38.7598 38.0012 37.9395C39.0168 37.1387 40.1691 36.543 41.4582 36.1523C41.7121 35.7031 42.0441 35.3711 42.4543 35.1562C42.8645 34.9609 43.2844 34.7754 43.7141 34.5996C44.1242 34.4434 44.5051 34.2383 44.8566 33.9844C45.2082 33.75 45.4719 33.3691 45.6477 32.8418C45.7453 33.0566 45.843 33.1445 45.9406 33.1055C46.0383 33.0859 46.1359 33.0371 46.2336 32.959C46.3508 32.9004 46.4582 32.8516 46.5559 32.8125C46.6535 32.793 46.7512 32.8809 46.8488 33.0762C47.0441 32.4902 47.3566 32.0215 47.7863 31.6699C48.2355 31.3184 48.7238 31.0059 49.2512 30.7324C49.798 30.4785 50.3449 30.2246 50.8918 29.9707C51.4387 29.7363 51.9172 29.4434 52.3273 29.0918C52.757 28.7402 53.0793 28.3105 53.2941 27.8027C53.509 27.2754 53.5578 26.6016 53.4406 25.7812C53.6164 25.6641 53.7336 25.5176 53.7922 25.3418C53.8508 25.1465 53.8898 24.9512 53.9094 24.7559C53.9484 24.5605 53.9973 24.3848 54.0559 24.2285C54.1145 24.0723 54.2414 23.9648 54.4367 23.9062C54.3 23.6914 54.134 23.5938 53.9387 23.6133C53.7434 23.6328 53.5383 23.6914 53.3234 23.7891C53.1281 23.8867 52.9426 23.9844 52.7668 24.082C52.591 24.1797 52.4445 24.1992 52.3273 24.1406C52.2687 24.4141 52.1418 24.6094 51.9465 24.7266C51.7707 24.8438 51.5754 24.9512 51.3605 25.0488C51.1457 25.127 50.9211 25.2148 50.6867 25.3125C50.4523 25.4102 50.2668 25.5664 50.1301 25.7812C49.9543 25.7031 49.7883 25.7422 49.632 25.8984C49.4953 26.0352 49.3488 26.1914 49.1926 26.3672C49.0559 26.5234 48.8996 26.6406 48.7238 26.7188C48.548 26.7969 48.343 26.7188 48.1086 26.4844C47.9914 26.7969 47.7961 27.002 47.5227 27.0996C47.2687 27.1973 46.9855 27.2461 46.673 27.2461C46.3605 27.2461 46.0383 27.2266 45.7062 27.1875C45.3937 27.1484 45.1105 27.1582 44.8566 27.2168L44.3586 26.7188C44.3195 26.8164 44.2609 26.8945 44.1828 26.9531C44.0852 27.0117 43.9875 27.0215 43.8898 26.9824C43.7336 26.6504 43.5871 26.2988 43.4504 25.9277C43.2941 25.5371 43.1965 25.1562 43.1574 24.7852C43.0988 24.3945 43.1281 24.0234 43.2453 23.6719C43.3625 23.3008 43.5969 22.9785 43.9484 22.7051C44.4953 21.709 45.2082 20.9277 46.0871 20.3613C46.1848 20.4395 46.2922 20.4688 46.4094 20.4492C46.5266 20.4102 46.6437 20.3613 46.7609 20.3027C46.8977 20.2246 47.0246 20.1465 47.1418 20.0684C47.259 19.9707 47.3664 19.9121 47.4641 19.8926C47.5227 19.6777 47.6301 19.4727 47.7863 19.2773C47.9621 19.082 48.1477 18.9062 48.343 18.75C48.5578 18.5938 48.7727 18.457 48.9875 18.3398C49.2219 18.2031 49.4367 18.0859 49.632 17.9883C50.0031 17.8125 50.3449 17.5977 50.6574 17.3438C50.9895 17.0703 51.3215 16.8164 51.6535 16.582C51.9855 16.3281 52.3273 16.1133 52.6789 15.9375C53.0305 15.7617 53.4309 15.6738 53.8801 15.6738L54.4074 16.1426C54.0754 16.3379 53.7824 16.582 53.5285 16.875C53.2941 17.1484 53.05 17.4316 52.7961 17.7246C52.5422 17.998 52.2687 18.252 51.9758 18.4863C51.6828 18.7207 51.3215 18.877 50.8918 18.9551C50.5402 19.6387 50.0617 20.2246 49.4562 20.7129C48.8703 21.1816 48.2648 21.6211 47.6398 22.0312C47.6398 22.3242 47.552 22.5586 47.3762 22.7344C47.2004 22.9102 46.9953 23.0664 46.7609 23.2031C46.5266 23.3398 46.2922 23.4668 46.0578 23.584C45.8234 23.6816 45.6281 23.8184 45.4719 23.9941C45.3352 24.1504 45.2668 24.3555 45.2668 24.6094C45.2668 24.8438 45.3937 25.1562 45.6477 25.5469C45.882 25.4297 46.1652 25.3516 46.4973 25.3125C46.8293 25.2734 47.1516 25.2246 47.4641 25.166C47.7766 25.0879 48.05 24.9805 48.2844 24.8438C48.5383 24.6875 48.7141 24.4531 48.8117 24.1406C49.0852 23.9062 49.3781 23.7598 49.6906 23.7012C50.0031 23.6426 50.3254 23.6328 50.6574 23.6719C51.302 22.9688 51.9465 22.3242 52.591 21.7383C53.2551 21.1328 53.8801 20.5176 54.466 19.8926C55.052 19.2676 55.5891 18.6035 56.0773 17.9004C56.5852 17.1777 57.0246 16.3477 57.3957 15.4102C57.7863 15.293 58.1379 15.3418 58.4504 15.5566C58.7629 15.7715 58.9875 16.0449 59.1242 16.377C59.0852 16.6113 59.0168 16.8359 58.9191 17.0508C58.841 17.2461 58.7629 17.4414 58.6848 17.6367C58.6262 17.8125 58.5773 18.0078 58.5383 18.2227C58.5187 18.4375 58.5578 18.6816 58.6555 18.9551C58.4992 18.916 58.3723 18.9648 58.2746 19.1016C58.1965 19.2383 58.1086 19.3555 58.0109 19.4531C58.0695 19.707 58.0598 19.9414 57.9816 20.1562C57.9035 20.3516 57.8059 20.5469 57.6887 20.7422C57.5715 20.918 57.4641 21.1133 57.3664 21.3281C57.2883 21.543 57.2687 21.7773 57.3078 22.0312C57.0344 22.5391 56.8293 23.0762 56.6926 23.6426C56.5754 24.1895 56.4973 24.7461 56.4582 25.3125L56.9855 25.7812C57.2395 25.4102 57.552 25.1465 57.923 24.9902C58.3137 24.834 58.7043 24.707 59.0949 24.6094C59.4855 24.4922 59.8664 24.3652 60.2375 24.2285C60.6086 24.0723 60.9309 23.8086 61.2043 23.4375C61.3215 22.8711 61.5656 22.4707 61.9367 22.2363C62.3078 21.9824 62.6984 21.7676 63.1086 21.5918C63.5187 21.416 63.9094 21.2207 64.2805 21.0059C64.6711 20.7715 64.9445 20.4004 65.1008 19.8926H65.8332C65.7941 19.9902 65.8137 20.0781 65.8918 20.1562C65.9699 20.2344 66.0383 20.3027 66.0969 20.3613ZM49.8957 33.3398C49.7004 33.457 49.4855 33.5645 49.2512 33.6621C49.0168 33.7598 48.7824 33.8672 48.548 33.9844C48.3137 34.1016 48.0988 34.2383 47.9035 34.3945C47.7082 34.5508 47.5617 34.7461 47.4641 34.9805C47.2492 34.8633 47.0441 34.8535 46.8488 34.9512C46.673 35.0684 46.4973 35.1953 46.3215 35.332C46.1457 35.4883 45.9602 35.6152 45.7648 35.7129C45.5891 35.8105 45.3937 35.8008 45.1789 35.6836C44.8078 35.918 44.4562 36.1719 44.1242 36.4453C43.7727 36.7188 43.4211 36.9824 43.0695 37.2363C42.718 37.5098 42.3566 37.7539 41.9855 37.9688C41.5949 38.2031 41.1848 38.3789 40.7551 38.4961C40.5402 38.8477 40.257 39.1211 39.9055 39.3164C39.5539 39.5312 39.2023 39.7363 38.8508 39.9316C38.4797 40.127 38.1477 40.3613 37.8547 40.6348C37.5617 40.9082 37.3762 41.2891 37.298 41.7773C36.6926 42.168 36.2824 42.666 36.0676 43.2715C35.8332 43.8965 35.7062 44.5508 35.6867 45.2344C35.6672 45.9375 35.6965 46.6406 35.7746 47.3438C35.8527 48.0664 35.8918 48.7207 35.8918 49.3066C36.1457 49.5996 36.3996 49.8047 36.6535 49.9219C36.9074 50.0391 37.1711 50.0977 37.4445 50.0977C37.718 50.0977 38.0012 50.0586 38.2941 49.9805C38.5676 49.9219 38.8703 49.8633 39.2023 49.8047C39.2805 49.5117 39.427 49.3164 39.6418 49.2188C39.8371 49.1406 40.052 49.082 40.2863 49.043C40.5012 49.0039 40.7062 48.9453 40.9016 48.8672C41.0773 48.8086 41.175 48.6523 41.1945 48.3984L41.4582 48.6328C41.4777 48.3203 41.5656 48.0566 41.7219 47.8418C41.8781 47.6465 42.0637 47.4609 42.2785 47.2852C42.4934 47.1094 42.7277 46.9434 42.9816 46.7871C43.216 46.6309 43.4211 46.4551 43.5969 46.2598C43.5578 45.8887 43.6262 45.5762 43.802 45.3223C43.9777 45.0684 44.173 44.834 44.3879 44.6191C44.6027 44.4043 44.798 44.1699 44.9738 43.916C45.1301 43.6621 45.1887 43.3398 45.1496 42.9492C45.3449 42.8711 45.4816 42.7441 45.5598 42.5684C45.6379 42.3926 45.716 42.2266 45.7941 42.0703C45.8723 41.9141 45.9699 41.7969 46.0871 41.7188C46.2238 41.6406 46.4289 41.6602 46.7023 41.7773C46.4289 41.5625 46.3117 41.3965 46.3508 41.2793C46.4094 41.1621 46.507 41.0547 46.6437 40.957C46.7805 40.8789 46.9074 40.7812 47.0246 40.6641C47.1418 40.5469 47.1418 40.3711 47.0246 40.1367C47.4934 39.9414 47.7961 39.6582 47.9328 39.2871C48.0695 38.916 48.1672 38.5156 48.2258 38.0859C48.3039 37.6758 48.4113 37.2656 48.548 36.8555C48.6848 36.4648 48.9875 36.1523 49.4562 35.918C49.4172 35.5664 49.4758 35.2539 49.632 34.9805C49.8078 34.7266 49.9738 34.4824 50.1301 34.248C50.3059 34.0137 50.423 33.7695 50.4816 33.5156C50.5598 33.2617 50.4914 32.959 50.2766 32.6074L49.8957 33.3398ZM85.7117 19.7754C85.5359 19.9512 85.3992 20.0879 85.3016 20.1855C85.2234 20.2832 85.1453 20.3809 85.0672 20.4785C85.0086 20.5566 84.9305 20.6445 84.8328 20.7422C84.7547 20.8398 84.6277 20.9863 84.452 21.1816C84.2957 21.3379 84.1492 21.5039 84.0125 21.6797C83.8758 21.8555 83.7195 22.0117 83.5438 22.1484C83.3094 22.0898 83.1238 22.1191 82.9871 22.2363C82.8699 22.3535 82.7527 22.4902 82.6355 22.6465C82.5379 22.7832 82.4402 22.9199 82.3426 23.0566C82.2645 23.1738 82.157 23.2227 82.0203 23.2031C81.5516 23.457 81.0828 23.6816 80.6141 23.877C80.1453 24.0527 79.6961 24.3164 79.2664 24.668L79.032 24.4336L75.9852 25.8984C75.8875 25.9375 75.7898 25.9961 75.6922 26.0742C75.5945 26.1523 75.4969 26.2207 75.3992 26.2793C74.9695 26.5137 74.5203 26.7285 74.0516 26.9238C73.6023 27.0996 73.1531 27.2656 72.7039 27.4219L72.323 27.5391C72.4793 27.9297 72.4793 28.2031 72.323 28.3594C72.1668 28.5156 71.9422 28.6328 71.6492 28.7109C71.3563 28.7695 71.034 28.8086 70.6824 28.8281C70.3309 28.8477 70.0574 28.916 69.8621 29.0332C69.6277 28.9941 69.3836 28.9746 69.1297 28.9746C68.8953 28.9941 68.6512 29.0234 68.3973 29.0625C68.1238 29.1016 67.8699 29.1211 67.6355 29.1211C67.4012 29.1211 67.1473 29.0918 66.8738 29.0332H66.8152C66.4832 29.1895 66.1902 29.2188 65.9363 29.1211C65.702 29.043 65.4871 28.9062 65.2918 28.7109C65.0965 28.4961 64.9109 28.252 64.7352 27.9785C64.5789 27.6855 64.4129 27.4219 64.2371 27.1875C64.1199 27.0312 63.9734 26.8066 63.7977 26.5137C63.6219 26.2207 63.4754 25.9082 63.3582 25.5762C63.2215 25.2441 63.1434 24.9121 63.1238 24.5801C63.0848 24.2285 63.1531 23.9258 63.3289 23.6719C63.5047 23.418 63.6512 23.1445 63.7684 22.8516C63.866 22.5586 63.9148 22.2168 63.9148 21.8262C63.9148 21.6895 63.9148 21.5625 63.9148 21.4453C63.8953 21.3281 63.8855 21.2012 63.8855 21.0645C63.9832 21.0645 64.0906 21.0742 64.2078 21.0938C64.325 21.0938 64.4324 21.0938 64.5301 21.0938C64.6473 21.0742 64.7352 21.0352 64.7938 20.9766C64.8719 20.8984 64.9109 20.7715 64.9109 20.5957C64.9109 20.498 64.8719 20.4199 64.7938 20.3613C64.7352 20.3027 64.6961 20.2441 64.6766 20.1855C64.7938 20.0098 64.9012 19.873 64.9988 19.7754C65.116 19.6582 65.2137 19.5508 65.2918 19.4531C65.3699 19.3359 65.4285 19.209 65.4676 19.0723C65.5066 18.916 65.4969 18.7109 65.4383 18.457C65.6727 18.0469 65.9461 17.6855 66.2586 17.373C66.5906 17.041 66.9324 16.7383 67.284 16.4648C67.6355 16.1719 67.9969 15.8887 68.368 15.6152C68.7391 15.3418 69.0906 15.0488 69.4227 14.7363C69.7938 14.8926 70.0867 14.8926 70.3016 14.7363C70.5359 14.5801 70.741 14.4141 70.9168 14.2383C71.0926 14.043 71.2684 13.8867 71.4441 13.7695C71.6199 13.6523 71.8543 13.7012 72.1473 13.916L72.2059 13.9746C72.7332 13.4473 73.2605 13.2129 73.7879 13.2715C74.3348 13.3301 74.7938 13.5059 75.1648 13.7988C75.5555 14.0918 75.8094 14.4336 75.9266 14.8242C76.0438 15.1953 75.9363 15.4492 75.6043 15.5859C75.8191 15.8008 75.9266 16.0547 75.9266 16.3477C75.9266 16.6406 75.8484 16.8945 75.6922 17.1094C75.5164 17.3438 75.3602 17.5879 75.2234 17.8418C75.1063 18.0762 74.9793 18.3301 74.8426 18.6035C74.6473 19.0527 74.4324 19.4824 74.198 19.8926C73.9637 20.2832 73.6316 20.6152 73.202 20.8887C72.8504 20.791 72.6063 20.8301 72.4695 21.0059C72.3523 21.1816 72.2645 21.377 72.2059 21.5918C72.1473 21.7871 72.0789 21.9434 72.0008 22.0605C71.9227 22.1777 71.7566 22.1387 71.5027 21.9434L71.4441 21.8848L71.3855 21.9434C71.2293 22.0996 71.1023 22.2754 71.0047 22.4707C70.9266 22.666 70.8094 22.8125 70.6531 22.9102C70.4773 22.8516 70.2918 22.8027 70.0965 22.7637C69.9012 22.7246 69.7156 22.6855 69.5398 22.6465C69.5398 23.0566 69.4617 23.3789 69.3055 23.6133C69.1492 23.8477 68.9441 24.043 68.6902 24.1992C68.4559 24.3359 68.1824 24.4531 67.8699 24.5508C67.5574 24.6289 67.2449 24.7363 66.9324 24.873C66.6395 24.9902 66.3563 25.1465 66.0828 25.3418C65.8289 25.5176 65.6238 25.7715 65.4676 26.1035C65.6629 26.3184 65.907 26.4453 66.2 26.4844C66.493 26.5039 66.7957 26.5039 67.1082 26.4844C67.4207 26.4453 67.7234 26.4258 68.0164 26.4258C68.3289 26.4258 68.6023 26.5039 68.8367 26.6602L68.866 26.6895L68.8953 26.6602C69.3641 26.6016 69.8133 26.4941 70.243 26.3379C70.6922 26.1621 71.1219 25.9863 71.532 25.8105C71.9617 25.6152 72.3914 25.4395 72.8211 25.2832C73.2703 25.1074 73.7293 24.9805 74.198 24.9023C74.2957 25.0586 74.4227 25.1465 74.5789 25.166C74.7547 25.1855 74.9207 25.1758 75.077 25.1367L75.1063 25.0781C75.1453 24.9414 75.1844 24.8242 75.2234 24.7266C75.2625 24.6094 75.3211 24.4824 75.3992 24.3457C75.5359 24.1309 75.702 23.9648 75.8973 23.8477C76.0926 23.7305 76.2977 23.6426 76.5125 23.584C76.7469 23.5254 76.991 23.4863 77.2449 23.4668C77.4988 23.4473 77.7527 23.418 78.0066 23.3789H78.0652L78.0945 23.291C78.1727 23.0566 78.2703 22.9004 78.3875 22.8223C78.5242 22.7246 78.6609 22.6562 78.7977 22.6172C78.9539 22.5781 79.1102 22.5488 79.2664 22.5293C79.4422 22.5098 79.6082 22.4512 79.7645 22.3535C80.116 22.4707 80.409 22.4316 80.6434 22.2363C80.8777 22.041 81.1023 21.8359 81.3172 21.6211L81.5516 21.9141L81.6395 21.7969C81.9324 21.5234 82.1473 21.3184 82.284 21.1816C82.4402 21.0449 82.5867 20.9277 82.7234 20.8301C82.8602 20.7129 83.0164 20.6055 83.1922 20.5078C83.3875 20.3906 83.6512 20.2246 83.9832 20.0098C84.2566 19.834 84.5203 19.6582 84.7742 19.4824C85.0477 19.3066 85.3113 19.1113 85.5652 18.8965C85.6629 18.9355 85.7117 19.0137 85.7117 19.1309C85.7117 19.2285 85.7117 19.3262 85.7117 19.4238C85.6922 19.4629 85.6727 19.5215 85.6531 19.5996C85.6531 19.6777 85.6727 19.7363 85.7117 19.7754ZM73.5828 16.1133C73.5633 16.0938 73.5438 16.084 73.5242 16.084C73.5242 16.084 73.5145 16.0742 73.4949 16.0547C73.0848 15.8398 72.743 15.7422 72.4695 15.7617C72.1961 15.7617 71.9422 15.8398 71.7078 15.9961C71.493 16.1328 71.2879 16.3184 71.0926 16.5527C70.9168 16.7676 70.7215 16.9727 70.5066 17.168C70.3113 17.3438 70.077 17.4805 69.8035 17.5781C69.5301 17.6758 69.198 17.666 68.8074 17.5488C68.7488 17.8613 68.6902 18.1738 68.6316 18.4863C68.5926 18.7793 68.5633 19.082 68.5438 19.3945C68.2117 19.5117 67.948 19.6777 67.7527 19.8926C67.577 20.1074 67.4207 20.3418 67.284 20.5957C67.1668 20.8496 67.0496 21.123 66.9324 21.416C66.8348 21.6895 66.698 21.9531 66.5223 22.207L66.6395 22.3535C66.7176 22.3145 66.8055 22.3438 66.9031 22.4414C67.0008 22.5391 67.0691 22.6074 67.1082 22.6465C67.323 22.334 67.6063 22.0703 67.9578 21.8555C68.3289 21.6406 68.7 21.4453 69.0711 21.2695C69.4617 21.0742 69.8328 20.8691 70.1844 20.6543C70.5359 20.4395 70.7996 20.1562 70.9754 19.8047C71.6004 19.6289 72.0691 19.2773 72.3816 18.75C72.6941 18.2227 72.9578 17.6758 73.1727 17.1094C73.2117 16.9922 73.2801 16.8262 73.3777 16.6113C73.4949 16.377 73.5633 16.2109 73.5828 16.1133ZM100.493 19.1309C100.512 19.4238 100.454 19.707 100.317 19.9805C100.2 20.2539 100.092 20.498 99.9945 20.7129L99.057 21.709L98.5004 23.3789C98.2855 23.5352 98.0512 23.6914 97.7973 23.8477C97.5629 23.9844 97.348 24.1309 97.1527 24.2871C96.9379 24.4629 96.7426 24.6582 96.5668 24.873C96.4105 25.0879 96.2348 25.2734 96.0395 25.4297C95.8441 25.5859 95.6098 25.7227 95.3363 25.8398C95.0824 25.9375 94.848 26.0547 94.6332 26.1914C94.2426 26.4258 93.8715 26.6699 93.5199 26.9238C93.1879 27.1777 92.8363 27.4219 92.4652 27.6562C92.3676 27.6953 92.2895 27.7441 92.2309 27.8027C92.1918 27.8418 92.1234 27.8809 92.0258 27.9199C91.9672 27.959 91.7133 28.0371 91.2641 28.1543C90.8148 28.2715 90.3168 28.4082 89.7699 28.5645C89.2426 28.7012 88.7445 28.8281 88.2758 28.9453C87.807 29.0625 87.5434 29.1211 87.4848 29.1211C87.1332 29.1602 86.7719 29.1797 86.4008 29.1797C86.0297 29.1797 85.6586 29.1895 85.2875 29.209L84.848 29.4727C84.6332 29.3164 84.3988 29.1699 84.1449 29.0332C83.891 28.8965 83.6762 28.75 83.5004 28.5938C83.3051 28.418 83.1098 28.2227 82.9145 28.0078C82.7191 27.7734 82.5434 27.5586 82.3871 27.3633C82.2895 27.0898 82.1918 26.8262 82.0941 26.5723C81.9965 26.2988 81.9184 26.0352 81.8598 25.7812L81.7133 24.668C81.6742 24.2969 81.6352 23.9355 81.5961 23.584C81.5766 23.2324 81.5473 22.8711 81.5082 22.5C81.8402 21.582 82.1332 20.6641 82.3871 19.7461C82.6605 18.8086 82.9926 17.8906 83.3832 16.9922C83.4809 16.7773 83.5687 16.5625 83.6469 16.3477C83.7445 16.1133 83.8422 15.8887 83.9398 15.6738C84.057 15.4395 84.184 15.2246 84.3207 15.0293C84.4574 14.8145 84.5746 14.5996 84.6723 14.3848C84.7699 14.1504 84.848 13.916 84.9066 13.6816C84.9652 13.4277 85.0434 13.1934 85.141 12.9785C85.1996 12.8613 85.2973 12.6953 85.434 12.4805C85.5707 12.2461 85.7172 12.0117 85.8734 11.7773C86.0297 11.5234 86.1762 11.2793 86.3129 11.0449C86.4691 10.8105 86.5961 10.625 86.6937 10.4883C86.85 10.293 87.0062 10.1074 87.1625 9.93164C87.3187 9.75586 87.4457 9.56055 87.5434 9.3457C87.7387 9.01367 87.9242 8.59375 88.1 8.08594C88.2758 7.57812 88.4711 7.12891 88.6859 6.73828C88.9203 6.30859 89.1937 5.9082 89.5062 5.53711C89.8383 5.14648 90.141 4.74609 90.4145 4.33594C90.7074 3.92578 90.9906 3.47656 91.2641 2.98828L92.5531 2.05078L93.1391 2.63672L94.5453 2.40234L95.4242 3.7207C95.3852 4.01367 95.3363 4.3457 95.2777 4.7168C95.2387 5.08789 95.1996 5.46875 95.1605 5.85938C95.141 6.23047 95.1215 6.60156 95.102 6.97266C95.102 7.32422 95.1215 7.63672 95.1605 7.91016C95.0629 8.26172 94.9164 8.63281 94.7211 9.02344C94.5453 9.39453 94.3402 9.7168 94.1059 9.99023L93.9887 11.5723L92.8168 12.627L92.6703 14.1211L91.6742 15.293C91.6156 15.5664 91.557 15.8496 91.4984 16.1426C91.4398 16.416 91.3617 16.6797 91.2641 16.9336C91.1664 17.168 91.0492 17.4121 90.9125 17.666C90.7758 17.9004 90.6391 18.1445 90.5023 18.3984C90.1117 18.7305 89.7113 19.1016 89.3012 19.5117C88.891 19.9219 88.5199 20.332 88.1879 20.7422C88.0121 20.957 87.8461 21.1914 87.6898 21.4453C87.5531 21.6797 87.4066 21.9043 87.2504 22.1191C86.7426 22.7637 86.1957 23.3691 85.6098 23.9355C85.0238 24.502 84.4477 25.0879 83.8812 25.6934L84.5258 26.8359C84.9359 26.9727 85.3559 27.0996 85.7855 27.2168C86.2152 27.334 86.6449 27.4414 87.0746 27.5391C87.2699 27.5 87.4945 27.4609 87.7484 27.4219C88.0023 27.3633 88.266 27.3047 88.5395 27.2461C88.8129 27.168 89.0766 27.0898 89.3305 27.0117C89.6039 26.9336 89.8285 26.8555 90.0043 26.7773C90.3949 26.6211 90.8441 26.3965 91.352 26.1035C91.8598 25.791 92.2895 25.5176 92.641 25.2832C93.266 24.8926 93.9008 24.4922 94.5453 24.082C95.1898 23.6719 95.8051 23.2422 96.391 22.793C96.7816 22.5 97.1918 22.1289 97.6215 21.6797C98.0512 21.2305 98.4516 20.8105 98.8227 20.4199C99.2133 20.0098 99.5551 19.6777 99.848 19.4238C100.161 19.1699 100.375 19.0723 100.493 19.1309ZM92.5238 5.27344C92.1137 5.95703 91.6742 6.62109 91.2055 7.26562C90.7562 7.89062 90.3363 8.54492 89.9457 9.22852C89.809 9.46289 89.6918 9.70703 89.5941 9.96094C89.4965 10.1953 89.3695 10.4297 89.2133 10.6641C89.0766 10.8789 88.9301 11.0938 88.7738 11.3086C88.6176 11.5234 88.4809 11.7578 88.3637 12.0117C88.1293 12.4609 87.9145 12.9395 87.7191 13.4473C87.5434 13.9355 87.348 14.4141 87.1332 14.8828C86.8988 15.3516 86.6254 15.791 86.3129 16.2012C86.0004 16.6113 85.7172 17.0508 85.4633 17.5195L84.9945 18.457C84.9555 18.5547 84.9164 18.6328 84.8773 18.6914C84.8383 18.7305 84.7992 18.7988 84.7602 18.8965C84.682 19.1113 84.643 19.3457 84.643 19.5996C84.643 19.8535 84.6137 20.0879 84.5551 20.3027C84.4965 20.5371 84.4086 20.7617 84.2914 20.9766C84.1742 21.1914 84.0668 21.4062 83.9691 21.6211C83.8715 21.8359 83.7934 22.0605 83.7348 22.2949C83.6762 22.5098 83.6078 22.7246 83.5297 22.9395C83.6859 22.7832 83.852 22.6465 84.0277 22.5293C84.223 22.3926 84.4086 22.2461 84.5844 22.0898C84.7602 21.9141 84.9262 21.7285 85.0824 21.5332C85.2387 21.3379 85.4145 21.1621 85.6098 21.0059C85.7855 20.8496 85.9711 20.7129 86.1664 20.5957C86.3812 20.459 86.5863 20.3223 86.7816 20.1855C87.0941 19.7559 87.3676 19.3164 87.602 18.8672C87.7191 18.6523 87.8168 18.4082 87.8949 18.1348C87.9926 17.8613 88.1098 17.6172 88.2465 17.4023C88.3637 17.1875 88.5102 16.9824 88.6859 16.7871C88.8812 16.5918 89.0473 16.3867 89.184 16.1719C89.3402 15.957 89.4672 15.7324 89.5648 15.498C89.682 15.2637 89.809 15.0391 89.9457 14.8242C90.2191 14.3945 90.5219 13.9844 90.8539 13.5938L91.0004 11.748L92.0551 10.5176L92.2016 9.4043L92.934 8.37891L93.0219 6.73828L92.5238 5.27344ZM129.937 2.7832C129.918 2.8418 129.898 2.92969 129.879 3.04688C129.859 3.14453 129.869 3.22266 129.908 3.28125C129.908 3.53516 129.957 3.79883 130.054 4.07227C130.152 4.32617 130.22 4.58008 130.259 4.83398C130.318 5.06836 130.298 5.29297 130.201 5.50781C130.123 5.72266 129.898 5.91797 129.527 6.09375C129.488 6.13281 129.468 6.16211 129.468 6.18164C129.312 6.70898 129.146 7.1582 128.97 7.5293C128.795 7.90039 128.58 8.23242 128.326 8.52539C128.091 8.81836 127.818 9.10156 127.505 9.375C127.193 9.62891 126.832 9.91211 126.421 10.2246L126.392 10.2539C126.412 10.3516 126.373 10.4395 126.275 10.5176C126.197 10.5957 126.099 10.6641 125.982 10.7227C125.865 10.7812 125.748 10.8496 125.63 10.9277C125.513 10.9863 125.435 11.0547 125.396 11.1328C125.377 11.1719 125.357 11.2109 125.338 11.25C125.338 11.2695 125.328 11.2988 125.308 11.3379C125.269 11.2988 125.22 11.2598 125.162 11.2207C125.123 11.1816 125.084 11.1426 125.045 11.1035L124.986 11.1328C124.615 11.3867 124.234 11.6797 123.843 12.0117C123.453 12.3242 123.082 12.666 122.73 13.0371C122.379 13.4082 122.066 13.7988 121.793 14.209C121.539 14.6191 121.353 15.0391 121.236 15.4688V15.498C121.041 15.752 120.914 16.0352 120.855 16.3477C120.796 16.6602 120.738 16.9824 120.679 17.3145C120.64 17.627 120.562 17.9395 120.445 18.252C120.347 18.5645 120.171 18.8477 119.918 19.1016C119.918 19.2969 119.898 19.4629 119.859 19.5996C119.839 19.7363 119.82 19.8633 119.8 19.9805C119.8 20.0781 119.82 20.1855 119.859 20.3027C119.898 20.4199 119.996 20.5566 120.152 20.7129H120.181C120.865 20.8301 121.402 21.0742 121.793 21.4453C122.203 21.7969 122.535 22.2266 122.789 22.7344C123.062 23.2227 123.306 23.7402 123.521 24.2871C123.736 24.834 123.99 25.3516 124.283 25.8398L124.312 25.8984C124.293 26.7188 124.263 27.5488 124.224 28.3887C124.205 29.209 124.185 30.0391 124.166 30.8789C124.068 30.9766 123.931 31.0547 123.755 31.1133C123.58 31.1719 123.482 31.2305 123.463 31.2891C123.541 31.4844 123.589 31.6309 123.609 31.7285C123.57 31.709 123.521 31.6895 123.463 31.6699C123.404 31.6699 123.355 31.6602 123.316 31.6406C123.238 31.7383 123.15 31.8262 123.052 31.9043C122.955 31.9824 122.857 32.0605 122.759 32.1387L122.701 31.9336C122.642 31.6992 122.486 31.5039 122.232 31.3477C121.998 31.2109 121.763 31.1328 121.529 31.1133C121.529 30.957 121.519 30.791 121.5 30.6152C121.5 30.459 121.48 30.3027 121.441 30.1465C121.48 30.1465 121.509 30.1367 121.529 30.1172C121.841 29.9023 122.007 29.6191 122.027 29.2676C122.066 28.9355 122.066 28.6035 122.027 28.2715C122.027 28.1738 122.027 28.0664 122.027 27.9492C122.027 27.8125 122.007 27.7051 121.968 27.627C122.066 27.5293 122.164 27.4512 122.261 27.3926C122.359 27.334 122.408 27.2266 122.408 27.0703C122.408 26.9141 122.359 26.7676 122.261 26.6309C122.183 26.4746 122.095 26.3184 121.998 26.1621C121.92 26.0059 121.871 25.8496 121.851 25.6934C121.832 25.5371 121.9 25.3613 122.056 25.166L121.793 24.9316L122.027 24.873L122.115 24.7852C122.115 24.6875 122.095 24.5605 122.056 24.4043C121.763 24.248 121.49 24.0723 121.236 23.877C121.002 23.6816 120.757 23.4766 120.504 23.2617C120.425 23.1836 120.308 23.0859 120.152 22.9688C120.015 22.832 119.859 22.6953 119.683 22.5586C119.527 22.4219 119.371 22.3145 119.214 22.2363C119.058 22.1387 118.921 22.0996 118.804 22.1191C118.746 22.1777 118.677 22.2461 118.599 22.3242C118.541 22.3828 118.492 22.4512 118.453 22.5293C118.394 22.4707 118.336 22.4219 118.277 22.3828C118.218 22.3242 118.15 22.2656 118.072 22.207C118.091 22.3047 118.121 22.4316 118.16 22.5879C118.199 22.7441 118.209 22.9004 118.189 23.0566C118.189 23.1934 118.15 23.3105 118.072 23.4082C117.994 23.5059 117.867 23.5449 117.691 23.5254V23.584C117.437 24.0527 117.095 24.5605 116.666 25.1074C116.255 25.6348 115.836 26.0645 115.406 26.3965C115.171 26.5918 114.947 26.8066 114.732 27.041C114.517 27.2559 114.293 27.4707 114.058 27.6855C113.687 27.6855 113.375 27.8027 113.121 28.0371C112.867 28.252 112.603 28.457 112.33 28.6523L112.505 28.8281C112.037 29.2188 111.529 29.5801 110.982 29.9121C110.435 30.2441 109.849 30.4102 109.224 30.4102C109.146 30.5469 109.068 30.6738 108.99 30.791C108.912 30.9277 108.824 31.0449 108.726 31.1426C108.492 31.1426 108.228 31.1816 107.935 31.2598C107.701 31.3184 107.496 31.3574 107.32 31.377C107.144 31.3965 106.929 31.377 106.675 31.3184H106.646C106.47 31.3184 106.304 31.3477 106.148 31.4062C105.992 31.4648 105.845 31.5234 105.709 31.582C105.572 31.6602 105.435 31.7285 105.298 31.7871C105.162 31.8457 105.025 31.8652 104.888 31.8457C104.849 31.7871 104.761 31.7188 104.625 31.6406C104.488 31.5625 104.341 31.4648 104.185 31.3477C104.029 31.25 103.882 31.123 103.746 30.9668C103.589 30.8301 103.492 30.6738 103.453 30.498C103.238 30.5957 103.013 30.6348 102.779 30.6152C102.525 30.6152 102.32 30.5273 102.164 30.3516L102.134 30.3223C101.939 30.1465 101.705 29.9902 101.431 29.8535C101.158 29.7363 101.021 29.5117 101.021 29.1797C101.021 29.1016 101.031 29.0332 101.05 28.9746C101.07 28.916 101.07 28.8477 101.05 28.7695C100.953 28.7695 100.855 28.7695 100.757 28.7695C100.66 28.7695 100.562 28.7793 100.464 28.7988C100.464 28.7402 100.474 28.6914 100.494 28.6523C100.513 28.5938 100.513 28.5352 100.494 28.4766C100.474 28.3594 100.455 28.2324 100.435 28.0957C100.416 27.9395 100.435 27.8125 100.494 27.7148C100.494 27.7148 100.474 27.7051 100.435 27.6855C100.298 27.5684 100.23 27.4512 100.23 27.334C100.211 27.1973 100.22 27.0605 100.259 26.9238C100.298 26.7676 100.347 26.6211 100.406 26.4844C100.464 26.3477 100.494 26.2207 100.494 26.1035C100.494 26.0645 100.484 26.0254 100.464 25.9863C100.445 25.9277 100.435 25.8789 100.435 25.8398C100.533 25.7422 100.63 25.6445 100.728 25.5469C100.826 25.4297 100.923 25.3223 101.021 25.2246C101.197 25.0098 101.382 24.8145 101.578 24.6387C101.754 24.4434 101.978 24.2773 102.252 24.1406L102.31 24.1113C102.427 23.916 102.515 23.7891 102.574 23.7305C102.632 23.6719 102.769 23.5938 102.984 23.4961C103.199 23.418 103.326 23.3496 103.365 23.291C103.404 23.2129 103.482 23.0957 103.599 22.9395C103.638 22.9785 103.677 23.0176 103.716 23.0566C103.736 23.0762 103.765 23.1055 103.804 23.1445C104.195 22.5391 104.673 22.1582 105.24 22.002C105.787 21.8262 106.392 21.7383 107.056 21.7383H107.086C107.3 21.543 107.505 21.3574 107.701 21.1816C107.896 21.0059 108.101 20.8105 108.316 20.5957C108.375 20.6543 108.423 20.7129 108.463 20.7715C108.521 20.8301 108.58 20.8789 108.638 20.918C108.775 20.6445 108.951 20.4785 109.166 20.4199C109.38 20.3613 109.605 20.332 109.839 20.332C110.093 20.3125 110.328 20.2832 110.543 20.2441C110.757 20.1855 110.933 20.0195 111.07 19.7461C111.109 19.7656 111.148 19.7754 111.187 19.7754C111.382 19.8145 111.597 19.8633 111.832 19.9219C112.086 19.9805 112.32 20.0098 112.535 20.0098C112.769 20.0098 112.974 19.9609 113.15 19.8633C113.345 19.7656 113.492 19.5801 113.589 19.3066C113.668 19.4043 113.736 19.4824 113.795 19.541C113.873 19.5996 113.951 19.6582 114.029 19.7168C114.088 19.6582 114.146 19.5996 114.205 19.541C114.263 19.4824 114.312 19.4043 114.351 19.3066C114.449 19.3262 114.576 19.375 114.732 19.4531C114.771 19.6289 114.869 19.7363 115.025 19.7754C115.181 19.8145 115.347 19.8242 115.523 19.8047C115.699 19.7852 115.855 19.7559 115.992 19.7168C116.148 19.6582 116.246 19.6289 116.285 19.6289V19.5996C116.441 19.3457 116.617 19.2383 116.812 19.2773C117.027 19.2969 117.232 19.375 117.427 19.5117C117.701 19.1016 117.886 18.6426 117.984 18.1348C118.082 17.627 118.179 17.1289 118.277 16.6406C118.394 16.1523 118.56 15.6934 118.775 15.2637C118.99 14.834 119.361 14.4922 119.888 14.2383C119.732 14.0234 119.537 13.8867 119.302 13.8281C119.068 13.75 118.824 13.6719 118.57 13.5938L118.541 13.5645C118.209 13.5449 117.886 13.5645 117.574 13.623C117.281 13.6816 116.988 13.7305 116.695 13.7695C116.402 13.7891 116.109 13.7695 115.816 13.7109C115.543 13.6328 115.269 13.457 114.996 13.1836C114.781 13.0859 114.546 12.9297 114.293 12.7148C114.039 12.4805 113.863 12.2559 113.765 12.041C113.765 12.002 113.755 11.9629 113.736 11.9238C113.736 11.8848 113.736 11.8457 113.736 11.8066C113.716 11.5527 113.707 11.4062 113.707 11.3672C113.707 11.3086 113.609 11.2207 113.414 11.1035C113.589 10.9277 113.716 10.7812 113.795 10.6641C113.892 10.5469 114.078 10.5078 114.351 10.5469H114.439C114.595 10.7227 114.722 10.918 114.82 11.1328C114.937 11.3281 115.054 11.5137 115.171 11.6895L115.347 11.5137C115.386 11.5527 115.406 11.5918 115.406 11.6309C115.425 11.6504 115.445 11.6797 115.464 11.7188C115.738 12.168 116.06 12.4023 116.431 12.4219C116.802 12.4219 117.213 12.3828 117.662 12.3047C117.72 12.2852 117.847 12.2656 118.043 12.2461C118.257 12.207 118.384 12.1875 118.423 12.1875C118.58 12.1094 118.726 12.041 118.863 11.9824C119.019 11.9043 119.175 11.8457 119.332 11.8066C119.605 11.748 119.879 11.6699 120.152 11.5723C120.425 11.4551 120.562 11.2305 120.562 10.8984C120.562 10.8594 120.552 10.8301 120.533 10.8105C120.533 10.7715 120.523 10.7129 120.504 10.6348C120.504 10.5566 120.504 10.498 120.504 10.459C120.523 10.2832 120.611 10.0586 120.767 9.78516C120.943 9.51172 121.119 9.23828 121.295 8.96484C121.47 8.67188 121.607 8.39844 121.705 8.14453C121.802 7.89062 121.793 7.70508 121.675 7.58789C121.734 7.54883 121.783 7.4707 121.822 7.35352C121.88 7.23633 121.929 7.11914 121.968 7.00195C122.027 6.86523 122.086 6.74805 122.144 6.65039C122.203 6.5332 122.271 6.46484 122.349 6.44531C122.349 6.19141 122.388 5.95703 122.466 5.74219C122.564 5.50781 122.662 5.2832 122.759 5.06836C122.838 4.93164 122.896 4.78516 122.935 4.62891C122.974 4.47266 123.033 4.31641 123.111 4.16016L123.287 4.21875L123.404 4.10156C123.404 4.04297 123.394 3.98438 123.375 3.92578C123.375 3.86719 123.375 3.80859 123.375 3.75C123.629 3.49609 123.775 3.21289 123.814 2.90039C123.873 2.58789 123.99 2.32422 124.166 2.10938V2.08008C124.38 1.96289 124.556 1.86523 124.693 1.78711C124.83 1.70898 124.976 1.5918 125.132 1.43555C125.054 1.16211 125.103 0.966797 125.279 0.849609C125.474 0.712891 125.63 0.537109 125.748 0.322266C125.923 0.498047 126.07 0.576172 126.187 0.556641C126.304 0.537109 126.412 0.488281 126.509 0.410156C126.627 0.3125 126.744 0.224609 126.861 0.146484C126.998 0.0488281 127.154 0.00976563 127.33 0.0292969C127.466 0.0683594 127.564 0.126953 127.623 0.205078C127.681 0.263672 127.759 0.332031 127.857 0.410156H128.912C128.931 0.410156 128.951 0.419922 128.97 0.439453C129.244 0.634766 129.4 0.859375 129.439 1.11328C129.478 1.36719 129.498 1.63086 129.498 1.9043C129.498 2.09961 129.546 2.25586 129.644 2.37305C129.742 2.4707 129.849 2.57812 129.966 2.69531L129.937 2.7832ZM128.619 4.04297C128.443 3.88672 128.316 3.71094 128.238 3.51562C128.179 3.32031 128.121 3.13477 128.062 2.95898C128.023 2.76367 127.964 2.58789 127.886 2.43164C127.808 2.25586 127.681 2.11914 127.505 2.02148C127.134 2.02148 126.783 2.11914 126.451 2.31445C126.119 2.50977 125.914 2.8125 125.836 3.22266V3.28125C125.875 3.32031 125.914 3.38867 125.953 3.48633C125.992 3.58398 126.011 3.65234 126.011 3.69141C126.031 3.84766 125.972 3.98438 125.836 4.10156C125.718 4.19922 125.582 4.30664 125.425 4.42383C125.289 4.52148 125.171 4.62891 125.074 4.74609C124.996 4.86328 124.996 5.00977 125.074 5.18555L124.986 5.21484C124.595 5.41016 124.351 5.66406 124.254 5.97656C124.156 6.26953 124.088 6.5918 124.048 6.94336C124.029 7.29492 123.99 7.64648 123.931 7.99805C123.873 8.34961 123.707 8.66211 123.433 8.93555L123.404 8.96484C123.384 9.08203 123.384 9.20898 123.404 9.3457C123.443 9.46289 123.453 9.58008 123.433 9.69727C123.629 9.52148 123.824 9.44336 124.019 9.46289C124.214 9.48242 124.39 9.52148 124.546 9.58008C124.722 9.61914 124.869 9.62891 124.986 9.60938C125.103 9.58984 125.191 9.45312 125.25 9.19922V9.16992C125.328 9.0332 125.425 8.88672 125.543 8.73047C125.679 8.57422 125.816 8.45703 125.953 8.37891C126.109 8.28125 126.216 8.20312 126.275 8.14453C126.353 8.08594 126.392 7.94922 126.392 7.73438C126.49 7.65625 126.617 7.50977 126.773 7.29492C126.949 7.08008 127.086 6.91406 127.183 6.79688C127.535 6.40625 127.857 5.99609 128.15 5.56641C128.463 5.13672 128.619 4.62891 128.619 4.04297ZM116.021 22.0605C115.787 22.0996 115.582 22.1094 115.406 22.0898C115.25 22.0508 115.103 22.0117 114.966 21.9727C114.849 21.9141 114.722 21.8652 114.586 21.8262C114.468 21.7676 114.322 21.7383 114.146 21.7383L114.088 21.709C114.048 21.9043 113.97 22.0215 113.853 22.0605C113.755 22.0801 113.638 22.0703 113.502 22.0312C113.365 21.9922 113.238 21.9531 113.121 21.9141C113.004 21.8555 112.906 21.8457 112.828 21.8848H112.798V21.9141C112.564 22.168 112.291 22.3047 111.978 22.3242C111.666 22.3242 111.363 22.3145 111.07 22.2949C110.777 22.2559 110.513 22.2656 110.279 22.3242C110.064 22.3633 109.927 22.5488 109.869 22.8809C109.83 23.0176 109.752 23.1152 109.634 23.1738C109.517 23.1934 109.41 23.1641 109.312 23.0859C109.214 23.0078 109.117 22.9492 109.019 22.9102C108.98 23.2031 108.912 23.3887 108.814 23.4668C108.716 23.5449 108.609 23.5645 108.492 23.5254C108.375 23.4863 108.248 23.4277 108.111 23.3496C107.974 23.252 107.838 23.1836 107.701 23.1445C107.642 23.3594 107.525 23.5156 107.349 23.6133C107.173 23.6914 106.978 23.7402 106.763 23.7598C106.548 23.7793 106.324 23.7793 106.089 23.7598C105.855 23.7402 105.66 23.7207 105.504 23.7012V23.7305C104.898 24.2383 104.332 24.7754 103.804 25.3418C103.277 25.9082 102.789 26.5234 102.339 27.1875C102.418 27.2266 102.466 27.2656 102.486 27.3047C102.486 27.3633 102.496 27.4414 102.515 27.5391C102.515 27.6367 102.505 27.7344 102.486 27.832L102.457 27.8906L103.658 28.8867L103.687 28.8574C104.097 28.7793 104.429 28.8086 104.683 28.9453C104.918 29.1016 105.181 29.2188 105.474 29.2969C105.591 29.1211 105.709 29.0039 105.826 28.9453C105.923 28.9062 106.031 28.8867 106.148 28.8867C106.265 28.9062 106.382 28.9355 106.5 28.9746C106.636 29.0137 106.783 29.0332 106.939 29.0332H107.027C106.988 28.6816 107.086 28.4766 107.32 28.418C107.554 28.3398 107.808 28.3008 108.082 28.3008C108.355 28.3008 108.609 28.291 108.843 28.2715C109.097 28.2324 109.224 28.0664 109.224 27.7734C109.283 27.7539 109.341 27.7441 109.4 27.7441C109.478 27.7246 109.537 27.6953 109.576 27.6562C109.713 27.7539 109.82 27.7734 109.898 27.7148C109.996 27.6562 110.084 27.5781 110.162 27.4805C110.24 27.3828 110.328 27.2852 110.425 27.1875C110.543 27.0703 110.709 27.0117 110.923 27.0117L110.953 26.9824C111.265 26.5918 111.539 26.3086 111.773 26.1328C112.027 25.9375 112.369 25.7227 112.798 25.4883C112.916 25.4492 113.062 25.3809 113.238 25.2832C113.414 25.1855 113.541 25.0977 113.619 25.0195C113.736 24.707 113.892 24.4336 114.088 24.1992C114.302 23.9648 114.527 23.7402 114.761 23.5254C114.996 23.3105 115.22 23.0859 115.435 22.8516C115.67 22.6172 115.865 22.3535 116.021 22.0605ZM147.618 19.541C147.696 19.834 147.667 20.0879 147.53 20.3027C147.394 20.498 147.208 20.6738 146.974 20.8301C146.759 20.9863 146.515 21.1328 146.241 21.2695C145.988 21.3867 145.773 21.5234 145.597 21.6797C144.718 21.875 143.917 22.0215 143.195 22.1191C142.491 22.1973 141.71 22.3047 140.851 22.4414C140.597 22.4805 140.353 22.4805 140.118 22.4414C139.904 22.3828 139.679 22.3633 139.445 22.3828C139.308 22.3828 139.181 22.3828 139.064 22.3828C138.946 22.3633 138.829 22.3633 138.712 22.3828C138.263 22.4219 137.97 22.5781 137.833 22.8516C137.696 23.1055 137.579 23.4082 137.482 23.7598C137.404 24.0918 137.296 24.4141 137.159 24.7266C137.042 25.0195 136.779 25.2246 136.368 25.3418C136.329 25.4395 136.339 25.5273 136.398 25.6055C136.476 25.6836 136.534 25.752 136.573 25.8105C136.241 25.9082 136.017 26.084 135.9 26.3379C135.802 26.5918 135.714 26.8457 135.636 27.0996C135.558 27.3535 135.441 27.5684 135.284 27.7441C135.148 27.9199 134.874 27.9785 134.464 27.9199C133.859 28.5645 133.146 29.082 132.325 29.4727C131.505 29.8828 130.655 30.1465 129.777 30.2637C129.62 30.1855 129.464 30.0879 129.308 29.9707C129.171 29.8535 129.025 29.7461 128.868 29.6484C128.732 29.5508 128.575 29.4727 128.4 29.4141C128.243 29.375 128.058 29.375 127.843 29.4141C127.823 29.0039 127.745 28.623 127.609 28.2715C127.452 27.9199 127.257 27.5879 127.023 27.2754C126.984 26.9238 127.032 26.6016 127.169 26.3086C127.286 25.9961 127.413 25.6934 127.55 25.4004C127.687 25.1074 127.804 24.8145 127.902 24.5215C127.98 24.209 127.96 23.8574 127.843 23.4668C128.038 23.3496 128.165 23.2129 128.224 23.0566C128.302 22.9004 128.351 22.7441 128.37 22.5879C128.409 22.4121 128.458 22.2559 128.517 22.1191C128.575 21.9629 128.712 21.8359 128.927 21.7383C128.771 21.2695 128.79 20.9277 128.986 20.7129C129.2 20.4785 129.454 20.2734 129.747 20.0977C130.04 19.9219 130.314 19.7266 130.568 19.5117C130.821 19.2969 130.919 18.9746 130.861 18.5449C130.978 18.4277 131.114 18.3301 131.271 18.252C131.427 18.1738 131.573 18.1055 131.71 18.0469C131.866 17.9688 132.013 17.8906 132.15 17.8125C132.286 17.7344 132.413 17.627 132.53 17.4902C132.394 17.3926 132.325 17.2949 132.325 17.1973C132.345 17.0996 132.374 17.002 132.413 16.9043C132.452 16.7871 132.491 16.6699 132.53 16.5527C132.589 16.4355 132.589 16.3184 132.53 16.2012C133.058 16.2793 133.517 16.2109 133.907 15.9961C134.318 15.7617 134.698 15.5273 135.05 15.293C135.421 15.0586 135.792 14.8926 136.163 14.7949C136.534 14.6973 136.964 14.8145 137.452 15.1465C137.491 15.2832 137.55 15.4883 137.628 15.7617C137.726 16.0156 137.814 16.2793 137.892 16.5527C137.989 16.8262 138.077 17.0898 138.155 17.3438C138.234 17.5977 138.282 17.7832 138.302 17.9004C138.302 17.998 138.302 18.1543 138.302 18.3691C138.302 18.584 138.302 18.8184 138.302 19.0723C138.302 19.3066 138.302 19.5312 138.302 19.7461C138.302 19.9609 138.302 20.127 138.302 20.2441C138.868 20.5762 139.435 20.7812 140.001 20.8594C140.568 20.918 141.134 20.7812 141.7 20.4492C141.915 20.6445 142.12 20.7031 142.316 20.625C142.511 20.5273 142.696 20.4199 142.872 20.3027C143.068 20.1855 143.263 20.127 143.458 20.127C143.654 20.1074 143.849 20.2637 144.044 20.5957C144.318 20.3418 144.601 20.1855 144.894 20.127C145.187 20.0488 145.489 20.0098 145.802 20.0098C146.114 19.9902 146.417 19.9609 146.71 19.9219C147.023 19.8828 147.325 19.7559 147.618 19.541ZM136.368 20.0391C136.368 19.7461 136.417 19.4336 136.515 19.1016C136.613 18.7695 136.691 18.4473 136.749 18.1348C136.808 17.8027 136.798 17.4902 136.72 17.1973C136.661 16.9043 136.476 16.6406 136.163 16.4062C135.948 16.5234 135.773 16.6895 135.636 16.9043C135.499 17.0996 135.363 17.3047 135.226 17.5195C135.089 17.7148 134.923 17.8809 134.728 18.0176C134.552 18.1543 134.318 18.1934 134.025 18.1348C133.927 18.3691 133.927 18.5645 134.025 18.7207C134.122 18.8574 134.239 18.9941 134.376 19.1309C134.513 19.248 134.64 19.375 134.757 19.5117C134.894 19.6484 134.943 19.8242 134.904 20.0391C134.982 20.0977 135.089 20.1562 135.226 20.2148C135.363 20.2539 135.499 20.2832 135.636 20.3027C135.792 20.3027 135.939 20.2832 136.075 20.2441C136.212 20.2051 136.31 20.1367 136.368 20.0391ZM136.163 22.3828C135.773 22.3828 135.431 22.2949 135.138 22.1191C134.864 21.9238 134.581 21.709 134.288 21.4746C134.015 21.2402 133.722 21.0254 133.409 20.8301C133.116 20.6152 132.755 20.4883 132.325 20.4492C132.15 20.6836 131.945 20.9082 131.71 21.123C131.476 21.3184 131.271 21.5332 131.095 21.7676C130.919 22.002 130.792 22.2559 130.714 22.5293C130.655 22.8027 130.704 23.1152 130.861 23.4668C130.411 23.6816 130.109 23.9941 129.952 24.4043C129.796 24.7949 129.689 25.2246 129.63 25.6934C129.591 26.1621 129.552 26.6309 129.513 27.0996C129.474 27.5684 129.347 27.9883 129.132 28.3594L129.777 27.9199C129.855 27.959 129.913 28.0176 129.952 28.0957C130.011 28.1738 130.021 28.2617 129.982 28.3594C130.138 28.2031 130.314 28.0859 130.509 28.0078C130.704 27.9102 130.9 27.8418 131.095 27.8027C131.31 27.7441 131.515 27.6953 131.71 27.6562C131.925 27.6172 132.13 27.5586 132.325 27.4805C132.814 27.7539 133.165 27.8125 133.38 27.6562C133.595 27.5 133.771 27.2656 133.907 26.9531C134.044 26.6406 134.191 26.3184 134.347 25.9863C134.503 25.6348 134.757 25.4199 135.109 25.3418L134.904 25.1367C135.236 24.7266 135.529 24.3066 135.782 23.877C136.056 23.4277 136.183 22.9297 136.163 22.3828ZM165.182 19.7754C165.007 19.9512 164.87 20.0879 164.772 20.1855C164.694 20.2832 164.616 20.3809 164.538 20.4785C164.479 20.5566 164.401 20.6445 164.304 20.7422C164.225 20.8398 164.098 20.9863 163.923 21.1816C163.766 21.3379 163.62 21.5039 163.483 21.6797C163.346 21.8555 163.19 22.0117 163.014 22.1484C162.78 22.0898 162.595 22.1191 162.458 22.2363C162.341 22.3535 162.223 22.4902 162.106 22.6465C162.009 22.7832 161.911 22.9199 161.813 23.0566C161.735 23.1738 161.628 23.2227 161.491 23.2031C161.022 23.457 160.554 23.6816 160.085 23.877C159.616 24.0527 159.167 24.3164 158.737 24.668L158.503 24.4336L155.456 25.8984C155.358 25.9375 155.261 25.9961 155.163 26.0742C155.065 26.1523 154.968 26.2207 154.87 26.2793C154.44 26.5137 153.991 26.7285 153.522 26.9238C153.073 27.0996 152.624 27.2656 152.175 27.4219L151.794 27.5391C151.95 27.9297 151.95 28.2031 151.794 28.3594C151.637 28.5156 151.413 28.6328 151.12 28.7109C150.827 28.7695 150.505 28.8086 150.153 28.8281C149.802 28.8477 149.528 28.916 149.333 29.0332C149.098 28.9941 148.854 28.9746 148.6 28.9746C148.366 28.9941 148.122 29.0234 147.868 29.0625C147.595 29.1016 147.341 29.1211 147.106 29.1211C146.872 29.1211 146.618 29.0918 146.345 29.0332H146.286C145.954 29.1895 145.661 29.2188 145.407 29.1211C145.173 29.043 144.958 28.9062 144.762 28.7109C144.567 28.4961 144.382 28.252 144.206 27.9785C144.05 27.6855 143.884 27.4219 143.708 27.1875C143.591 27.0312 143.444 26.8066 143.268 26.5137C143.093 26.2207 142.946 25.9082 142.829 25.5762C142.692 25.2441 142.614 24.9121 142.595 24.5801C142.555 24.2285 142.624 23.9258 142.8 23.6719C142.975 23.418 143.122 23.1445 143.239 22.8516C143.337 22.5586 143.386 22.2168 143.386 21.8262C143.386 21.6895 143.386 21.5625 143.386 21.4453C143.366 21.3281 143.356 21.2012 143.356 21.0645C143.454 21.0645 143.561 21.0742 143.679 21.0938C143.796 21.0938 143.903 21.0938 144.001 21.0938C144.118 21.0742 144.206 21.0352 144.264 20.9766C144.343 20.8984 144.382 20.7715 144.382 20.5957C144.382 20.498 144.343 20.4199 144.264 20.3613C144.206 20.3027 144.167 20.2441 144.147 20.1855C144.264 20.0098 144.372 19.873 144.47 19.7754C144.587 19.6582 144.684 19.5508 144.762 19.4531C144.841 19.3359 144.899 19.209 144.938 19.0723C144.977 18.916 144.968 18.7109 144.909 18.457C145.143 18.0469 145.417 17.6855 145.729 17.373C146.061 17.041 146.403 16.7383 146.755 16.4648C147.106 16.1719 147.468 15.8887 147.839 15.6152C148.21 15.3418 148.561 15.0488 148.893 14.7363C149.264 14.8926 149.557 14.8926 149.772 14.7363C150.007 14.5801 150.212 14.4141 150.387 14.2383C150.563 14.043 150.739 13.8867 150.915 13.7695C151.091 13.6523 151.325 13.7012 151.618 13.916L151.677 13.9746C152.204 13.4473 152.731 13.2129 153.259 13.2715C153.805 13.3301 154.264 13.5059 154.636 13.7988C155.026 14.0918 155.28 14.4336 155.397 14.8242C155.514 15.1953 155.407 15.4492 155.075 15.5859C155.29 15.8008 155.397 16.0547 155.397 16.3477C155.397 16.6406 155.319 16.8945 155.163 17.1094C154.987 17.3438 154.831 17.5879 154.694 17.8418C154.577 18.0762 154.45 18.3301 154.313 18.6035C154.118 19.0527 153.903 19.4824 153.669 19.8926C153.434 20.2832 153.102 20.6152 152.673 20.8887C152.321 20.791 152.077 20.8301 151.94 21.0059C151.823 21.1816 151.735 21.377 151.677 21.5918C151.618 21.7871 151.55 21.9434 151.471 22.0605C151.393 22.1777 151.227 22.1387 150.973 21.9434L150.915 21.8848L150.856 21.9434C150.7 22.0996 150.573 22.2754 150.475 22.4707C150.397 22.666 150.28 22.8125 150.124 22.9102C149.948 22.8516 149.762 22.8027 149.567 22.7637C149.372 22.7246 149.186 22.6855 149.011 22.6465C149.011 23.0566 148.932 23.3789 148.776 23.6133C148.62 23.8477 148.415 24.043 148.161 24.1992C147.927 24.3359 147.653 24.4531 147.341 24.5508C147.028 24.6289 146.716 24.7363 146.403 24.873C146.11 24.9902 145.827 25.1465 145.554 25.3418C145.3 25.5176 145.095 25.7715 144.938 26.1035C145.134 26.3184 145.378 26.4453 145.671 26.4844C145.964 26.5039 146.266 26.5039 146.579 26.4844C146.891 26.4453 147.194 26.4258 147.487 26.4258C147.8 26.4258 148.073 26.5039 148.307 26.6602L148.337 26.6895L148.366 26.6602C148.835 26.6016 149.284 26.4941 149.714 26.3379C150.163 26.1621 150.593 25.9863 151.003 25.8105C151.432 25.6152 151.862 25.4395 152.292 25.2832C152.741 25.1074 153.2 24.9805 153.669 24.9023C153.766 25.0586 153.893 25.1465 154.05 25.166C154.225 25.1855 154.391 25.1758 154.548 25.1367L154.577 25.0781C154.616 24.9414 154.655 24.8242 154.694 24.7266C154.733 24.6094 154.792 24.4824 154.87 24.3457C155.007 24.1309 155.173 23.9648 155.368 23.8477C155.563 23.7305 155.768 23.6426 155.983 23.584C156.218 23.5254 156.462 23.4863 156.716 23.4668C156.97 23.4473 157.223 23.418 157.477 23.3789H157.536L157.565 23.291C157.643 23.0566 157.741 22.9004 157.858 22.8223C157.995 22.7246 158.132 22.6562 158.268 22.6172C158.425 22.5781 158.581 22.5488 158.737 22.5293C158.913 22.5098 159.079 22.4512 159.235 22.3535C159.587 22.4707 159.88 22.4316 160.114 22.2363C160.348 22.041 160.573 21.8359 160.788 21.6211L161.022 21.9141L161.11 21.7969C161.403 21.5234 161.618 21.3184 161.755 21.1816C161.911 21.0449 162.057 20.9277 162.194 20.8301C162.331 20.7129 162.487 20.6055 162.663 20.5078C162.858 20.3906 163.122 20.2246 163.454 20.0098C163.727 19.834 163.991 19.6582 164.245 19.4824C164.518 19.3066 164.782 19.1113 165.036 18.8965C165.134 18.9355 165.182 19.0137 165.182 19.1309C165.182 19.2285 165.182 19.3262 165.182 19.4238C165.163 19.4629 165.143 19.5215 165.124 19.5996C165.124 19.6777 165.143 19.7363 165.182 19.7754ZM153.054 16.1133C153.034 16.0938 153.014 16.084 152.995 16.084C152.995 16.084 152.985 16.0742 152.966 16.0547C152.555 15.8398 152.214 15.7422 151.94 15.7617C151.667 15.7617 151.413 15.8398 151.179 15.9961C150.964 16.1328 150.759 16.3184 150.563 16.5527C150.387 16.7676 150.192 16.9727 149.977 17.168C149.782 17.3438 149.548 17.4805 149.274 17.5781C149.001 17.6758 148.669 17.666 148.278 17.5488C148.22 17.8613 148.161 18.1738 148.102 18.4863C148.063 18.7793 148.034 19.082 148.014 19.3945C147.682 19.5117 147.419 19.6777 147.223 19.8926C147.048 20.1074 146.891 20.3418 146.755 20.5957C146.637 20.8496 146.52 21.123 146.403 21.416C146.305 21.6895 146.169 21.9531 145.993 22.207L146.11 22.3535C146.188 22.3145 146.276 22.3438 146.374 22.4414C146.471 22.5391 146.54 22.6074 146.579 22.6465C146.794 22.334 147.077 22.0703 147.429 21.8555C147.8 21.6406 148.171 21.4453 148.542 21.2695C148.932 21.0742 149.304 20.8691 149.655 20.6543C150.007 20.4395 150.27 20.1562 150.446 19.8047C151.071 19.6289 151.54 19.2773 151.852 18.75C152.165 18.2227 152.429 17.6758 152.643 17.1094C152.682 16.9922 152.751 16.8262 152.848 16.6113C152.966 16.377 153.034 16.2109 153.054 16.1133Z" fill="#191919"/>
</svg>
