<svg width="200" height="35" viewBox="0 0 200 35" fill="none" xmlns="http://www.w3.org/2000/svg">
<path d="M37.1484 23.4961C37.0898 24.082 36.8848 24.5898 36.5332 25.0195C36.2012 25.4297 35.8008 25.791 35.332 26.1035C34.8633 26.3965 34.3555 26.6504 33.8086 26.8652C33.2617 27.0801 32.7539 27.2852 32.2852 27.4805C32.2852 27.7734 32.2168 27.959 32.0801 28.0371C31.9629 28.1152 31.8164 28.1641 31.6406 28.1836C31.4648 28.1836 31.2695 28.1836 31.0547 28.1836C30.8594 28.1836 30.6836 28.2422 30.5273 28.3594L30.2344 28.125C30.1758 28.2031 30.1074 28.2715 30.0293 28.3301C29.9707 28.3691 29.9121 28.4277 29.8535 28.5059C29.7754 28.6035 29.6973 28.7012 29.6191 28.7988C29.5605 28.877 29.4629 28.916 29.3262 28.916C29.0723 28.8184 28.8184 28.7988 28.5645 28.8574C28.3105 28.916 28.0469 29.0039 27.7734 29.1211C27.5195 29.2383 27.2559 29.3555 26.9824 29.4727C26.709 29.5703 26.4355 29.6191 26.1621 29.6191L26.1328 29.6484C25.918 29.8047 25.7617 29.9512 25.6641 30.0879C25.5664 30.2051 25.4492 30.3711 25.3125 30.5859C25.1562 30.8008 25 30.9863 24.8438 31.1426C24.707 31.3184 24.4824 31.3867 24.1699 31.3477C24.1113 31.2891 24.0332 31.2305 23.9355 31.1719C23.8379 31.1133 23.75 31.0645 23.6719 31.0254C23.457 30.9277 23.3398 30.8496 23.3203 30.791C23.3203 30.752 23.252 30.6836 23.1152 30.5859C22.959 30.6836 22.6953 30.7812 22.3242 30.8789C21.9531 30.9961 21.5527 31.0938 21.123 31.1719C20.7129 31.2695 20.3027 31.3574 19.8926 31.4355C19.502 31.5137 19.209 31.5625 19.0137 31.582C18.916 31.4844 18.8281 31.3965 18.75 31.3184C18.6719 31.2598 18.584 31.1816 18.4863 31.084H18.457C17.9688 31.1816 17.4902 31.2402 17.0215 31.2598C16.5723 31.2988 16.123 31.3184 15.6738 31.3184C15.2246 31.3184 14.7754 31.3184 14.3262 31.3184C13.877 31.3184 13.418 31.3281 12.9492 31.3477C12.6562 30.8594 12.3633 30.6055 12.0703 30.5859C11.7773 30.5859 11.4844 30.6641 11.1914 30.8203C10.8984 30.9766 10.6152 31.1426 10.3418 31.3184C10.0488 31.4941 9.75586 31.5039 9.46289 31.3477L9.43359 31.377C8.94531 31.5918 8.50586 31.8359 8.11523 32.1094C7.72461 32.4023 7.34375 32.6855 6.97266 32.959C6.58203 33.252 6.18164 33.5156 5.77148 33.75C5.3418 34.0039 4.85352 34.1797 4.30664 34.2773C3.99414 34.043 3.70117 33.9746 3.42773 34.0723C3.1543 34.1699 2.89062 34.2969 2.63672 34.4531C2.36328 34.6094 2.10938 34.7266 1.875 34.8047C1.64062 34.8828 1.41602 34.7949 1.20117 34.541H1.17188V34.5117C1.05469 34.4336 0.947266 34.4043 0.849609 34.4238C0.751953 34.4434 0.664062 34.4727 0.585938 34.5117C0.488281 34.5703 0.410156 34.6289 0.351562 34.6875C0.292969 34.7461 0.234375 34.7656 0.175781 34.7461C0.0976563 34.7461 0.0390625 34.6973 0 34.5996C0.0976563 34.3848 0.263672 34.2188 0.498047 34.1016C0.732422 33.9844 0.986328 33.8672 1.25977 33.75C1.5332 33.6523 1.80664 33.5254 2.08008 33.3691C2.35352 33.2324 2.57812 33.0273 2.75391 32.7539C3.20312 32.5195 3.66211 32.3047 4.13086 32.1094C4.58008 31.9141 4.99023 31.6504 5.36133 31.3184C5.69336 31.377 6.09375 31.3281 6.5625 31.1719C7.01172 31.0352 7.40234 30.918 7.73438 30.8203L7.82227 30.7617C7.88086 30.625 7.96875 30.5176 8.08594 30.4395C8.18359 30.3613 8.30078 30.293 8.4375 30.2344C8.55469 30.1562 8.68164 30.0684 8.81836 29.9707C8.95508 29.8535 9.08203 29.707 9.19922 29.5312L9.22852 29.502L9.19922 29.4727C9.08203 29.1016 8.93555 28.7695 8.75977 28.4766C8.56445 28.1836 8.37891 27.9004 8.20312 27.627C8.00781 27.334 7.8418 27.0312 7.70508 26.7188C7.56836 26.4062 7.5 26.0449 7.5 25.6348C7.59766 25.5176 7.69531 25.3809 7.79297 25.2246C7.89062 25.0684 7.99805 24.9219 8.11523 24.7852C8.23242 24.6289 8.35938 24.502 8.49609 24.4043C8.63281 24.2871 8.78906 24.2285 8.96484 24.2285L9.28711 24.5215C9.48242 24.3066 9.73633 24.1992 10.0488 24.1992C10.3418 24.1992 10.6641 24.2383 11.0156 24.3164C11.3477 24.375 11.6895 24.4434 12.041 24.5215C12.373 24.5801 12.6758 24.5703 12.9492 24.4922C13.2617 24.6484 13.5449 24.834 13.7988 25.0488C14.0527 25.2637 14.3164 25.4492 14.5898 25.6055C14.8438 25.7617 15.127 25.8691 15.4395 25.9277C15.7324 25.9668 16.0742 25.8887 16.4648 25.6934L16.5527 25.6641V25.6055C16.5918 25.3125 16.709 25.0879 16.9043 24.9316C17.1191 24.7559 17.3438 24.5996 17.5781 24.4629C17.8125 24.3262 18.0273 24.1895 18.2227 24.0527C18.418 23.8965 18.5352 23.6914 18.5742 23.4375C19.1016 22.9883 19.5605 22.5781 19.9512 22.207C20.3613 21.8359 20.7324 21.4648 21.0645 21.0938C21.416 20.7031 21.748 20.293 22.0605 19.8633C22.3926 19.4336 22.7539 18.9258 23.1445 18.3398L23.1738 18.3105C23.1348 18.1738 23.1836 18.0078 23.3203 17.8125C23.4766 17.5977 23.623 17.3633 23.7598 17.1094C23.8965 16.8555 23.9844 16.582 24.0234 16.2891C24.0625 15.9961 23.9648 15.6836 23.7305 15.3516C23.8672 15.0781 23.9551 14.8047 23.9941 14.5312C24.0527 14.2578 24.1699 13.9941 24.3457 13.7402L24.4043 13.623C24.2285 13.5449 24.1309 13.418 24.1113 13.2422C24.1113 13.0469 24.1211 12.832 24.1406 12.5977C24.1797 12.3633 24.1992 12.1289 24.1992 11.8945C24.2188 11.6406 24.1504 11.4258 23.9941 11.25C24.3848 10.957 24.6289 10.6152 24.7266 10.2246C24.8438 9.83398 24.9219 9.42383 24.9609 8.99414C25 8.62305 25.0488 8.33984 25.1074 8.14453C25.1855 7.92969 25.3027 7.64648 25.459 7.29492L25.4297 7.26562C25.1953 6.71875 25.1758 6.25977 25.3711 5.88867C25.5664 5.51758 25.8398 5.17578 26.1914 4.86328C26.543 4.53125 26.9043 4.20898 27.2754 3.89648C27.666 3.58398 27.9297 3.20313 28.0664 2.75391C28.3984 2.51953 28.7695 2.44141 29.1797 2.51953C29.5312 2.59766 29.8535 2.77344 30.1465 3.04688C30.4395 3.30078 30.6934 3.57422 30.9082 3.86719C30.9473 3.90625 30.9961 3.96484 31.0547 4.04297C31.1133 4.12109 31.1426 4.16992 31.1426 4.18945C31.2207 4.44336 31.25 4.70703 31.2305 4.98047C31.2109 5.23437 31.1719 5.48828 31.1133 5.74219C31.0547 5.99609 31.0059 6.25 30.9668 6.50391C30.9473 6.75781 30.9766 7.01172 31.0547 7.26562C30.8203 7.65625 30.6445 8.06641 30.5273 8.49609C30.4297 8.92578 30.332 9.35547 30.2344 9.78516C30.1562 10.2148 30.0488 10.6348 29.9121 11.0449C29.7754 11.4355 29.541 11.7871 29.209 12.0996V12.1289C28.9355 12.5977 28.6621 13.0371 28.3887 13.4473C28.1348 13.8379 27.8711 14.2383 27.5977 14.6484C27.3242 15.0391 27.0605 15.4492 26.8066 15.8789C26.5527 16.3086 26.3086 16.7676 26.0742 17.2559L26.0449 17.2852C26.2012 17.5781 26.2207 17.8516 26.1035 18.1055C25.9863 18.3594 25.8594 18.623 25.7227 18.8965C25.5859 19.1699 25.5078 19.4629 25.4883 19.7754C25.4688 20.0684 25.6348 20.3906 25.9863 20.7422C25.8887 20.8594 25.8398 21.0156 25.8398 21.2109C25.8398 21.4062 25.8398 21.6016 25.8398 21.7969C25.8594 21.9727 25.8594 22.1484 25.8398 22.3242C25.8203 22.4805 25.7422 22.5977 25.6055 22.6758C25.6641 22.7148 25.7129 22.7637 25.752 22.8223C25.8105 22.8809 25.8691 22.9297 25.9277 22.9688C25.9277 23.1055 25.918 23.2422 25.8984 23.3789C25.8984 23.5156 25.8887 23.6621 25.8691 23.8184C25.8496 24.0332 25.8398 24.248 25.8398 24.4629C25.8398 24.6777 25.8301 24.8926 25.8105 25.1074C25.8105 25.1465 25.8008 25.1953 25.7812 25.2539C25.7617 25.293 25.752 25.3418 25.752 25.4004C25.752 25.5566 25.7812 25.7031 25.8398 25.8398C25.918 25.9766 25.9863 26.1133 26.0449 26.25C26.1035 26.3672 26.123 26.4941 26.1035 26.6309C26.1035 26.7676 26.0352 26.9043 25.8984 27.041L25.9277 27.0996C26.123 27.3926 26.3086 27.5488 26.4844 27.5684C26.6797 27.5879 26.8652 27.5781 27.041 27.5391C27.2363 27.4805 27.4316 27.4414 27.627 27.4219C27.8223 27.3828 28.0273 27.4707 28.2422 27.6855C28.7695 27.4121 29.3066 27.1777 29.8535 26.9824C30.4004 26.7871 30.9473 26.6113 31.4941 26.4551C32.2168 26.2598 32.9102 26.0449 33.5742 25.8105C34.2578 25.5566 34.8926 25.1855 35.4785 24.6973C35.7129 24.502 35.9766 24.2676 36.2695 23.9941C36.582 23.7207 36.875 23.5547 37.1484 23.4961ZM29.5898 4.74609C29.4922 4.72656 29.4043 4.74609 29.3262 4.80469C29.248 4.84375 29.1699 4.89258 29.0918 4.95117C29.0137 4.99023 28.9355 5.00977 28.8574 5.00977C28.7988 4.99023 28.7402 4.92188 28.6816 4.80469L28.4766 4.86328C28.5156 5.33203 28.4668 5.77148 28.3301 6.18164C28.1934 6.5918 28.0176 6.99219 27.8027 7.38281C27.6074 7.75391 27.3926 8.13477 27.1582 8.52539C26.9238 8.89648 26.7285 9.28711 26.5723 9.69727C26.416 10.1074 26.3184 10.5469 26.2793 11.0156C26.2402 11.4648 26.3086 11.9531 26.4844 12.4805L26.5137 12.5391C26.8457 12.5391 27.0703 12.4609 27.1875 12.3047C27.3047 12.1289 27.373 11.9434 27.3926 11.748C27.4316 11.5527 27.4707 11.3867 27.5098 11.25C27.5488 11.0938 27.666 11.0254 27.8613 11.0449C27.8613 10.7715 27.9297 10.5371 28.0664 10.3418C28.2227 10.127 28.3691 9.92188 28.5059 9.72656C28.6426 9.53125 28.7402 9.32617 28.7988 9.11133C28.877 8.89648 28.8281 8.62305 28.6523 8.29102C28.7891 8.03711 28.8574 7.75391 28.8574 7.44141C28.877 7.12891 28.8867 6.81641 28.8867 6.50391C28.9062 6.19141 28.9551 5.89844 29.0332 5.625C29.1309 5.35156 29.3262 5.13672 29.6191 4.98047L29.5898 4.74609ZM24.2871 27.7148C24.2871 27.3047 24.1992 26.9238 24.0234 26.5723C23.8672 26.2012 23.7891 25.8105 23.7891 25.4004C23.7891 25.2832 23.7988 25.1953 23.8184 25.1367C23.9355 24.7656 23.9941 24.4141 23.9941 24.082C23.9941 23.75 23.9746 23.4277 23.9355 23.1152C23.8965 22.7832 23.877 22.4512 23.877 22.1191C23.8184 22.0605 23.8379 21.9824 23.9355 21.8848C24.0527 21.7871 24.1309 21.7188 24.1699 21.6797C24.1113 21.6406 24.0039 21.5527 23.8477 21.416C23.7109 21.2793 23.6133 21.1816 23.5547 21.123L23.3789 21.2109C23.3789 21.3477 23.3203 21.4648 23.2031 21.5625C23.0859 21.6406 22.959 21.7285 22.8223 21.8262C22.6855 21.9043 22.5781 22.002 22.5 22.1191C22.4219 22.2363 22.4121 22.4121 22.4707 22.6465C22.0215 22.9785 21.6113 23.3398 21.2402 23.7305C20.8691 24.1211 20.498 24.5215 20.127 24.9316C19.7754 25.3223 19.4141 25.7031 19.043 26.0742C18.6719 26.4258 18.2715 26.748 17.8418 27.041L18.7207 27.9199L18.8086 27.8906C19.0234 27.8125 19.209 27.8125 19.3652 27.8906C19.541 27.9688 19.6973 28.0566 19.834 28.1543C19.9902 28.2324 20.1367 28.291 20.2734 28.3301C20.4102 28.3691 20.5566 28.3203 20.7129 28.1836C20.8301 28.2617 20.9082 28.3301 20.9473 28.3887C21.2402 28.4082 21.5234 28.4473 21.7969 28.5059C22.0898 28.5645 22.373 28.6035 22.6465 28.623C22.9395 28.6426 23.2129 28.623 23.4668 28.5645C23.7402 28.4863 23.9941 28.3301 24.2285 28.0957H24.2578C24.2578 28.0371 24.2578 27.9785 24.2578 27.9199C24.2773 27.8418 24.2871 27.7734 24.2871 27.7148ZM16.4648 28.4766H16.4355C16.3184 28.2227 16.1328 28.1348 15.8789 28.2129C15.8398 28.2324 15.7617 28.252 15.6445 28.2715C15.5273 28.291 15.4102 28.3203 15.293 28.3594C15.1562 28.3789 15.0488 28.418 14.9707 28.4766C14.873 28.5156 14.834 28.5645 14.8535 28.623L14.0039 29.0918L17.6953 29.3262L16.4648 28.4766ZM13.7988 27.041C13.6035 26.9824 13.3984 26.8652 13.1836 26.6895C12.9492 26.4941 12.7637 26.3281 12.627 26.1914C12.3926 26.3086 12.1777 26.3477 11.9824 26.3086C11.7871 26.25 11.6016 26.1816 11.4258 26.1035C11.25 26.0059 11.084 25.9277 10.9277 25.8691C10.752 25.8105 10.5762 25.8398 10.4004 25.957C10.3223 25.918 10.2637 25.8789 10.2246 25.8398C10.166 25.7812 10.1172 25.7324 10.0781 25.6934C9.84375 26.0254 9.79492 26.3184 9.93164 26.5723C10.0684 26.8066 10.2441 27.0312 10.459 27.2461C10.6543 27.4414 10.8301 27.6367 10.9863 27.832C11.123 28.0078 11.0938 28.2129 10.8984 28.4473L10.9863 28.623H11.8359C11.875 28.584 11.9629 28.5156 12.0996 28.418C12.2168 28.3008 12.2852 28.2129 12.3047 28.1543C12.3828 28.0957 12.4805 28.0078 12.5977 27.8906C12.7148 27.7539 12.8418 27.627 12.9785 27.5098C13.1152 27.373 13.252 27.2559 13.3887 27.1582C13.5254 27.0605 13.6621 27.0215 13.7988 27.041ZM54.1852 27.4512C53.9117 27.9199 53.6969 28.3008 53.5406 28.5938C53.4039 28.8672 53.2574 29.1016 53.1012 29.2969C52.9645 29.4727 52.7984 29.6387 52.6031 29.7949C52.4273 29.9316 52.1734 30.1074 51.8414 30.3223C51.6266 30.5176 51.4117 30.6836 51.1969 30.8203C51.0211 30.957 50.8453 31.0742 50.6695 31.1719C50.5133 31.2695 50.3863 31.3184 50.2887 31.3184C50.2496 31.3184 50.2105 31.3086 50.1715 31.2891C50.1324 31.2891 50.0934 31.2891 50.0543 31.2891C49.9371 31.2891 49.8199 31.2891 49.7027 31.2891C49.6051 31.3086 49.5172 31.2402 49.4391 31.084C49.3805 31.1426 49.3316 31.2109 49.2926 31.2891C49.2535 31.3672 49.2145 31.4355 49.1754 31.4941C49.1363 31.5723 49.0777 31.6309 48.9996 31.6699C48.941 31.709 48.8531 31.709 48.7359 31.6699L48.5895 31.4941L48.15 31.875C47.6031 31.6016 47.0758 31.3672 46.568 31.1719C46.0797 30.9961 45.6402 30.7812 45.2496 30.5273C44.859 30.2734 44.527 29.9512 44.2535 29.5605C43.9801 29.1504 43.7848 28.5938 43.6676 27.8906C43.5699 27.7734 43.4625 27.6758 43.3453 27.5977C43.2281 27.5 43.0914 27.4707 42.9352 27.5098C42.7398 27.8418 42.5055 28.125 42.232 28.3594C41.9586 28.5938 41.6852 28.8477 41.4117 29.1211C41.3141 29.2188 41.2359 29.3262 41.1773 29.4434C41.1187 29.5605 41.0406 29.668 40.943 29.7656C40.7867 29.9414 40.6012 30.0684 40.3863 30.1465C40.1715 30.2051 39.9566 30.2637 39.7418 30.3223C39.527 30.3809 39.3219 30.4785 39.1266 30.6152C38.9508 30.752 38.8238 30.9863 38.7457 31.3184C38.5113 31.1816 38.277 31.1426 38.0426 31.2012C37.8668 31.2402 37.6812 31.2793 37.4859 31.3184C37.2906 31.377 37.0953 31.4062 36.9 31.4062C36.7242 31.4258 36.5484 31.4062 36.3727 31.3477C36.1969 31.2891 36.0406 31.1621 35.9039 30.9668C35.6305 31.084 35.3766 31.0742 35.1422 30.9375C34.9078 30.8203 34.6832 30.6543 34.4684 30.4395C34.273 30.2051 34.0777 29.9609 33.8824 29.707C33.6871 29.4531 33.5016 29.2676 33.3258 29.1504C33.2086 28.8379 33.2184 28.5742 33.3551 28.3594C33.4723 28.125 33.609 27.9102 33.7652 27.7148C33.902 27.5 33.9996 27.2949 34.0582 27.0996C34.1168 26.8848 34.0289 26.6309 33.7945 26.3379C33.9898 26.0449 34.1656 25.7422 34.3219 25.4297C34.4781 25.0977 34.6344 24.7754 34.7906 24.4629C34.9664 24.1309 35.1422 23.8184 35.318 23.5254C35.5133 23.2129 35.7477 22.9492 36.0211 22.7344C35.9039 22.5977 35.8453 22.4707 35.8453 22.3535C35.8453 22.2168 35.8746 22.0898 35.9332 21.9727C35.9918 21.8359 36.0602 21.709 36.1383 21.5918C36.2164 21.4551 36.275 21.3281 36.3141 21.2109L37.1637 20.8008L36.9586 20.0977C37.1734 20.1367 37.3297 20.127 37.4273 20.0684C37.5445 20.0098 37.6227 19.9219 37.6617 19.8047C37.7203 19.6875 37.7594 19.5605 37.7789 19.4238C37.818 19.2676 37.8668 19.1309 37.9254 19.0137C38.023 18.8379 38.1695 18.7109 38.3648 18.6328C38.775 18.3203 39.1754 17.9883 39.566 17.6367C39.9762 17.2852 40.3766 16.9434 40.7672 16.6113C41.1773 16.2793 41.5973 15.9668 42.027 15.6738C42.4566 15.3613 42.9254 15.0977 43.4332 14.8828C43.7848 14.9414 44.0582 15.0488 44.2535 15.2051C44.4684 15.3613 44.6246 15.5469 44.7223 15.7617C44.8395 15.9766 44.9273 16.2207 44.9859 16.4941C45.0445 16.748 45.1031 17.002 45.1617 17.2559C45.2594 17.5879 45.3766 17.8711 45.5133 18.1055C45.65 18.3398 45.8844 18.5352 46.2164 18.6914C45.943 19.1602 45.8355 19.6289 45.8941 20.0977C45.9527 20.5469 46.0113 21.0254 46.0699 21.5332C46.1285 22.002 46.1187 22.4609 46.0406 22.9102C45.982 23.3594 45.6988 23.7598 45.191 24.1113C45.152 24.248 45.1422 24.3945 45.1617 24.5508C45.1812 24.707 45.191 24.8633 45.191 25.0195C45.191 25.1758 45.1617 25.3223 45.1031 25.459C45.0445 25.5957 44.9371 25.7031 44.7809 25.7812C44.9566 25.9961 45.0445 26.2109 45.0445 26.4258C45.0641 26.6406 45.0738 26.8457 45.0738 27.041C45.0934 27.2363 45.1422 27.4121 45.2203 27.5684C45.318 27.7246 45.5328 27.8418 45.8648 27.9199C45.9234 28.1738 45.9723 28.3691 46.0113 28.5059C46.0699 28.623 46.1285 28.7207 46.1871 28.7988C46.2652 28.877 46.3629 28.9551 46.4801 29.0332C46.5973 29.0918 46.7535 29.1895 46.9488 29.3262C47.1051 29.3652 47.2809 29.3652 47.4762 29.3262C47.6715 29.2871 47.8277 29.3457 47.9449 29.502C48.0426 29.4043 48.1598 29.3555 48.2965 29.3555C48.4332 29.3359 48.5602 29.3359 48.6773 29.3555L49.0582 30C49.273 29.8438 49.5172 29.707 49.7906 29.5898C50.0641 29.4727 50.3277 29.375 50.5816 29.2969C50.8746 29.2188 51.1676 29.1504 51.4605 29.0918L54.1852 27.4512ZM42.9352 17.4316C42.7594 17.5879 42.5445 17.7441 42.2906 17.9004C42.0367 18.0566 41.7828 18.2227 41.5289 18.3984C41.2945 18.5742 41.0895 18.7695 40.9137 18.9844C40.7379 19.1797 40.6305 19.4141 40.5914 19.6875C40.1422 19.7656 39.8297 19.9512 39.6539 20.2441C39.4781 20.5371 39.3316 20.8594 39.2145 21.2109C39.0973 21.5625 38.9703 21.9141 38.8336 22.2656C38.6969 22.5977 38.4527 22.8613 38.1012 23.0566C37.984 23.1348 37.8766 23.1738 37.7789 23.1738C37.7984 23.1738 37.7398 23.2129 37.6031 23.291C37.3883 23.4473 37.2027 23.6426 37.0465 23.877C36.8902 24.1113 36.7535 24.3652 36.6363 24.6387C36.5387 24.9121 36.441 25.1953 36.3434 25.4883C36.2652 25.7617 36.1871 26.0156 36.109 26.25C35.8355 26.2891 35.6305 26.3477 35.4937 26.4258C35.357 26.5039 35.2691 26.5918 35.2301 26.6895C35.2105 26.7676 35.2203 26.8652 35.2594 26.9824C35.2984 27.0996 35.357 27.2266 35.4352 27.3633C35.5133 27.4805 35.5914 27.6172 35.6695 27.7734C35.7672 27.9297 35.8453 28.0859 35.9039 28.2422C35.9625 28.3984 35.9918 28.5547 35.9918 28.7109C36.0113 28.8672 35.9723 29.0137 35.8746 29.1504C36.148 29.3652 36.4117 29.4141 36.6656 29.2969C36.9195 29.1602 37.1539 29.0137 37.3687 28.8574C37.4469 28.7988 37.525 28.7402 37.6031 28.6816C37.7008 28.6035 37.7984 28.5449 37.8961 28.5059C38.3453 28.6035 38.7555 28.5742 39.1266 28.418C39.4977 28.2617 39.8395 28.0469 40.152 27.7734C40.4645 27.5 40.7672 27.207 41.0602 26.8945C41.3531 26.582 41.6461 26.3086 41.9391 26.0742L41.7047 25.8398C42.0562 25.7422 42.3004 25.6152 42.4371 25.459C42.5934 25.2832 42.691 25.0879 42.7301 24.873C42.7691 24.6582 42.7691 24.4336 42.7301 24.1992C42.691 23.9453 42.6617 23.6816 42.6422 23.4082C42.6227 23.252 42.6129 23.1055 42.6129 22.9688C42.6324 22.8125 42.6715 22.6562 42.7301 22.5C42.5738 22.0508 42.5445 21.6211 42.6422 21.2109C42.7594 20.8008 42.9059 20.4102 43.0816 20.0391C43.277 19.6484 43.4625 19.2578 43.6383 18.8672C43.8141 18.4766 43.902 18.0664 43.902 17.6367L42.9352 17.4316ZM85.05 25.4297C84.8742 25.5859 84.6301 25.791 84.3176 26.0449C84.0246 26.2793 83.8293 26.4941 83.7316 26.6895C83.6145 26.8848 83.5168 27.0605 83.4387 27.2168C83.3801 27.373 83.302 27.5098 83.2043 27.627C83.1262 27.7246 83.009 27.8027 82.8527 27.8613C82.716 27.9199 82.5207 27.9492 82.2668 27.9492C82.2668 28.0078 82.1594 28.1348 81.9445 28.3301C81.7492 28.5059 81.5344 28.7012 81.3 28.916C81.0656 29.1113 80.8508 29.3066 80.6555 29.502C80.4602 29.6777 80.3625 29.7949 80.3625 29.8535L80.0988 29.707C80.0598 29.6875 79.9426 29.6973 79.7473 29.7363C79.5715 29.7559 79.3566 29.8145 79.1027 29.9121C78.8684 29.9902 78.634 30.1074 78.3996 30.2637C78.1652 30.4199 77.9797 30.625 77.843 30.8789L77.7258 30.8496C77.4328 30.7715 77.1301 30.752 76.8176 30.791C76.5246 30.8496 76.2316 30.8789 75.9387 30.8789C75.3137 30.918 74.8547 30.8203 74.5617 30.5859C74.2687 30.3711 73.9562 29.9512 73.6242 29.3262C73.5461 29.1895 73.4777 29.043 73.4191 28.8867C73.3605 28.7305 73.3117 28.5742 73.2727 28.418V28.3008C73.5461 28.1445 73.6926 27.9395 73.7121 27.6855C73.7316 27.4121 73.7219 27.1289 73.6828 26.8359C73.6437 26.543 73.6145 26.2598 73.5949 25.9863C73.5949 25.7129 73.7023 25.4883 73.9172 25.3125C73.8 25 73.8098 24.707 73.9465 24.4336C74.1027 24.1406 74.2492 23.8672 74.3859 23.6133C74.5227 23.3594 74.591 23.1152 74.591 22.8809C74.591 22.6465 74.3762 22.4023 73.9465 22.1484C73.4973 22.3242 73.0676 22.5488 72.6574 22.8223C72.2668 23.0762 71.8664 23.3496 71.4562 23.6426C71.0656 23.916 70.6652 24.1895 70.2551 24.4629C69.8645 24.7363 69.4445 24.9609 68.9953 25.1367C68.5852 25.5859 68.1555 25.9766 67.7062 26.3086C67.257 26.6211 66.8176 26.9531 66.3879 27.3047C65.9777 27.6562 65.5969 28.0566 65.2453 28.5059C64.9133 28.9355 64.6594 29.4727 64.4836 30.1172C64.3859 30 64.2883 29.9219 64.1906 29.8828C64.093 29.8438 63.966 29.8047 63.8098 29.7656C63.5949 29.707 63.4387 29.6484 63.341 29.5898C63.2434 29.5117 63.1164 29.4043 62.9602 29.2676L62.9895 29.209C63.1652 28.7012 63.3703 28.1836 63.6047 27.6562C63.8391 27.1289 63.9562 26.6016 63.9562 26.0742C63.9562 25.8789 63.9367 25.7031 63.8977 25.5469C63.8586 25.3711 63.8391 25.1855 63.8391 24.9902C63.8391 24.6387 63.8977 24.3164 64.0148 24.0234C64.132 23.7305 64.259 23.457 64.3957 23.2031C64.552 22.9492 64.6887 22.7051 64.8059 22.4707C64.9426 22.2168 65.0109 21.9531 65.0109 21.6797C65.0109 21.4648 64.9621 21.25 64.8645 21.0352C64.7668 20.8203 64.6398 20.6348 64.4836 20.4785C64.1906 20.459 63.9172 20.498 63.6633 20.5957C63.4094 20.6738 63.1555 20.7715 62.9016 20.8887C62.6477 21.0059 62.384 21.1133 62.1105 21.2109C61.8371 21.2891 61.5441 21.3184 61.2316 21.2988C60.8215 21.709 60.4016 22.1191 59.9719 22.5293C59.5422 22.9199 59.1125 23.3105 58.6828 23.7012C57.7844 24.502 56.9055 25.332 56.0461 26.1914C55.2062 27.0508 54.5324 28.0273 54.0246 29.1211C53.927 29.3359 53.8391 29.5605 53.7609 29.7949C53.7023 30.0098 53.6242 30.2246 53.5266 30.4395C53.5266 30.4785 53.507 30.5176 53.468 30.5566H53.3215C53.1066 30.5566 52.9602 30.6152 52.882 30.7324C52.8234 30.8496 52.7746 30.9766 52.7355 31.1133C52.716 31.2695 52.6867 31.416 52.6477 31.5527C52.6086 31.6895 52.5207 31.7773 52.384 31.8164C52.2277 31.8555 52.0812 31.8262 51.9445 31.7285C51.7883 31.6309 51.6613 31.5332 51.5637 31.4355L51.5344 31.4062C51.3391 31.0938 51.2316 30.7715 51.2121 30.4395C51.1926 30.1074 51.2316 29.7852 51.3293 29.4727C51.4074 29.1406 51.5344 28.8184 51.7102 28.5059C51.8664 28.1934 52.0227 27.9004 52.1789 27.627C52.4133 27.2168 52.6281 26.7969 52.8234 26.3672C53.0383 25.918 53.1457 25.4492 53.1457 24.9609C53.1457 24.7461 53.1164 24.5605 53.0578 24.4043C53.0187 24.2285 52.9797 24.0527 52.9406 23.877L53.5852 23.4375C53.4875 23.3008 53.4289 23.1836 53.4094 23.0859C53.4094 22.9688 53.4094 22.8613 53.4094 22.7637C53.4289 22.666 53.4387 22.5781 53.4387 22.5C53.4582 22.4023 53.4484 22.3047 53.4094 22.207V22.1191L53.6437 21.8555C53.6047 21.2109 53.5852 20.6055 53.5852 20.0391C53.5852 19.4727 53.468 18.877 53.2336 18.252C53.507 17.998 53.7707 17.9395 54.0246 18.0762C54.2785 18.1934 54.5324 18.3301 54.7863 18.4863V18.5156L54.8156 18.5449C54.9719 18.7793 55.1086 19.0625 55.2258 19.3945C55.343 19.7266 55.4309 20.0781 55.4895 20.4492C55.5676 20.8008 55.6262 21.1523 55.6652 21.5039C55.7043 21.8555 55.7238 22.168 55.7238 22.4414C55.7238 22.5195 55.7141 22.5977 55.6945 22.6758C55.6945 22.7344 55.6945 22.8027 55.6945 22.8809L55.5187 23.0566C55.6164 23.1543 55.7238 23.252 55.841 23.3496C55.9582 23.4473 56.0852 23.4863 56.2219 23.4668C56.3391 23.1152 56.5246 22.8906 56.7785 22.793C57.0324 22.6758 57.2863 22.5879 57.5402 22.5293C57.8137 22.4707 58.048 22.3926 58.2434 22.2949C58.4582 22.1777 58.5656 21.9434 58.5656 21.5918C58.5656 21.5137 58.5559 21.4551 58.5363 21.416L58.5949 21.3574C59.1418 20.8105 59.6984 20.3223 60.2648 19.8926C60.8508 19.4434 61.4562 19.1113 62.0812 18.8965C62.7258 18.6816 63.3898 18.5938 64.0734 18.6328C64.7766 18.6719 65.5285 18.8867 66.3293 19.2773L66.3879 19.3066L66.7102 20.5078L66.5051 20.7129C66.7004 20.9863 66.7687 21.3086 66.7102 21.6797C66.6711 22.0312 66.593 22.3828 66.4758 22.7344C66.3586 23.0859 66.2512 23.418 66.1535 23.7305C66.0559 24.0234 66.0656 24.2383 66.1828 24.375C66.2805 24.5117 66.4562 24.5703 66.7102 24.5508C66.9836 24.5312 67.1984 24.5117 67.3547 24.4922C67.5109 24.2773 67.7258 24.0918 67.9992 23.9355C68.2922 23.7793 68.5754 23.6328 68.8488 23.4961C69.1418 23.3594 69.3957 23.2227 69.6105 23.0859C69.8254 22.9297 69.9426 22.7637 69.9621 22.5879C70.2746 22.6465 70.5285 22.6367 70.7238 22.5586C70.9191 22.4609 71.0754 22.3242 71.1926 22.1484C71.3098 21.9727 71.4172 21.7871 71.5148 21.5918C71.6125 21.377 71.7199 21.1816 71.8371 21.0059C71.9738 20.8105 72.1398 20.6641 72.3352 20.5664C72.5305 20.4688 72.7941 20.4395 73.1262 20.4785C73.5754 20.0293 74.1027 19.707 74.7082 19.5117C75.3332 19.2969 75.9582 19.1797 76.5832 19.1602C77.0324 19.1406 77.3449 19.2773 77.5207 19.5703C77.6965 19.8438 77.7844 20.1758 77.7844 20.5664C77.7844 21.0742 77.6672 21.5625 77.4328 22.0312C77.1984 22.5 76.9348 22.9785 76.6418 23.4668C76.3488 23.9551 76.0852 24.4629 75.8508 24.9902C75.6164 25.5176 75.4992 26.1035 75.4992 26.748C75.4992 26.8066 75.4992 26.9141 75.4992 27.0703C75.4992 27.207 75.509 27.3535 75.5285 27.5098C75.548 27.6465 75.5676 27.7832 75.5871 27.9199C75.6262 28.0371 75.675 28.1152 75.7336 28.1543C75.8117 28.1934 75.8801 28.2227 75.9387 28.2422L75.7922 28.3594C76.2414 28.418 76.6418 28.5059 76.9934 28.623C77.3449 28.7207 77.7258 28.6816 78.1359 28.5059C78.2531 28.4668 78.3703 28.4375 78.4875 28.418C78.6242 28.3984 78.7512 28.3691 78.8684 28.3301C79.0441 28.3105 79.1516 28.2422 79.1906 28.125C79.2297 27.9883 79.298 27.8613 79.3957 27.7441C79.5129 27.6074 79.6887 27.4902 79.923 27.3926C80.177 27.2754 80.5871 27.2168 81.1535 27.2168V26.748C81.5441 26.6309 81.8762 26.4844 82.1496 26.3086C82.423 26.1133 82.6867 25.9375 82.9406 25.7812C83.2141 25.625 83.507 25.5078 83.8195 25.4297C84.1516 25.3516 84.5617 25.3516 85.05 25.4297ZM103.288 27.4512C103.014 27.9199 102.8 28.3008 102.643 28.5938C102.507 28.8672 102.36 29.1016 102.204 29.2969C102.067 29.4727 101.901 29.6387 101.706 29.7949C101.53 29.9316 101.276 30.1074 100.944 30.3223C100.729 30.5176 100.514 30.6836 100.3 30.8203C100.124 30.957 99.948 31.0742 99.7723 31.1719C99.616 31.2695 99.4891 31.3184 99.3914 31.3184C99.3523 31.3184 99.3133 31.3086 99.2742 31.2891C99.2352 31.2891 99.1961 31.2891 99.157 31.2891C99.0398 31.2891 98.9227 31.2891 98.8055 31.2891C98.7078 31.3086 98.6199 31.2402 98.5418 31.084C98.4832 31.1426 98.4344 31.2109 98.3953 31.2891C98.3562 31.3672 98.3172 31.4355 98.2781 31.4941C98.2391 31.5723 98.1805 31.6309 98.1023 31.6699C98.0437 31.709 97.9559 31.709 97.8387 31.6699L97.6922 31.4941L97.2527 31.875C96.7059 31.6016 96.1785 31.3672 95.6707 31.1719C95.1824 30.9961 94.743 30.7812 94.3523 30.5273C93.9617 30.2734 93.6297 29.9512 93.3562 29.5605C93.0828 29.1504 92.8875 28.5938 92.7703 27.8906C92.6727 27.7734 92.5652 27.6758 92.448 27.5977C92.3309 27.5 92.1941 27.4707 92.0379 27.5098C91.8426 27.8418 91.6082 28.125 91.3348 28.3594C91.0613 28.5938 90.7879 28.8477 90.5145 29.1211C90.4168 29.2188 90.3387 29.3262 90.2801 29.4434C90.2215 29.5605 90.1434 29.668 90.0457 29.7656C89.8895 29.9414 89.7039 30.0684 89.4891 30.1465C89.2742 30.2051 89.0594 30.2637 88.8445 30.3223C88.6297 30.3809 88.4246 30.4785 88.2293 30.6152C88.0535 30.752 87.9266 30.9863 87.8484 31.3184C87.6141 31.1816 87.3797 31.1426 87.1453 31.2012C86.9695 31.2402 86.784 31.2793 86.5887 31.3184C86.3934 31.377 86.198 31.4062 86.0027 31.4062C85.827 31.4258 85.6512 31.4062 85.4754 31.3477C85.2996 31.2891 85.1434 31.1621 85.0066 30.9668C84.7332 31.084 84.4793 31.0742 84.2449 30.9375C84.0105 30.8203 83.7859 30.6543 83.5711 30.4395C83.3758 30.2051 83.1805 29.9609 82.9852 29.707C82.7898 29.4531 82.6043 29.2676 82.4285 29.1504C82.3113 28.8379 82.3211 28.5742 82.4578 28.3594C82.575 28.125 82.7117 27.9102 82.868 27.7148C83.0047 27.5 83.1023 27.2949 83.1609 27.0996C83.2195 26.8848 83.1316 26.6309 82.8973 26.3379C83.0926 26.0449 83.2684 25.7422 83.4246 25.4297C83.5809 25.0977 83.7371 24.7754 83.8934 24.4629C84.0691 24.1309 84.2449 23.8184 84.4207 23.5254C84.616 23.2129 84.8504 22.9492 85.1238 22.7344C85.0066 22.5977 84.948 22.4707 84.948 22.3535C84.948 22.2168 84.9773 22.0898 85.0359 21.9727C85.0945 21.8359 85.1629 21.709 85.241 21.5918C85.3191 21.4551 85.3777 21.3281 85.4168 21.2109L86.2664 20.8008L86.0613 20.0977C86.2762 20.1367 86.4324 20.127 86.5301 20.0684C86.6473 20.0098 86.7254 19.9219 86.7645 19.8047C86.823 19.6875 86.8621 19.5605 86.8816 19.4238C86.9207 19.2676 86.9695 19.1309 87.0281 19.0137C87.1258 18.8379 87.2723 18.7109 87.4676 18.6328C87.8777 18.3203 88.2781 17.9883 88.6687 17.6367C89.0789 17.2852 89.4793 16.9434 89.8699 16.6113C90.2801 16.2793 90.7 15.9668 91.1297 15.6738C91.5594 15.3613 92.0281 15.0977 92.5359 14.8828C92.8875 14.9414 93.1609 15.0488 93.3562 15.2051C93.5711 15.3613 93.7273 15.5469 93.825 15.7617C93.9422 15.9766 94.0301 16.2207 94.0887 16.4941C94.1473 16.748 94.2059 17.002 94.2645 17.2559C94.3621 17.5879 94.4793 17.8711 94.616 18.1055C94.7527 18.3398 94.9871 18.5352 95.3191 18.6914C95.0457 19.1602 94.9383 19.6289 94.9969 20.0977C95.0555 20.5469 95.1141 21.0254 95.1727 21.5332C95.2312 22.002 95.2215 22.4609 95.1434 22.9102C95.0848 23.3594 94.8016 23.7598 94.2937 24.1113C94.2547 24.248 94.2449 24.3945 94.2645 24.5508C94.284 24.707 94.2937 24.8633 94.2937 25.0195C94.2937 25.1758 94.2645 25.3223 94.2059 25.459C94.1473 25.5957 94.0398 25.7031 93.8836 25.7812C94.0594 25.9961 94.1473 26.2109 94.1473 26.4258C94.1668 26.6406 94.1766 26.8457 94.1766 27.041C94.1961 27.2363 94.2449 27.4121 94.323 27.5684C94.4207 27.7246 94.6355 27.8418 94.9676 27.9199C95.0262 28.1738 95.075 28.3691 95.1141 28.5059C95.1727 28.623 95.2312 28.7207 95.2898 28.7988C95.368 28.877 95.4656 28.9551 95.5828 29.0332C95.7 29.0918 95.8562 29.1895 96.0516 29.3262C96.2078 29.3652 96.3836 29.3652 96.5789 29.3262C96.7742 29.2871 96.9305 29.3457 97.0477 29.502C97.1453 29.4043 97.2625 29.3555 97.3992 29.3555C97.5359 29.3359 97.6629 29.3359 97.7801 29.3555L98.1609 30C98.3758 29.8438 98.6199 29.707 98.8934 29.5898C99.1668 29.4727 99.4305 29.375 99.6844 29.2969C99.9773 29.2188 100.27 29.1504 100.563 29.0918L103.288 27.4512ZM92.0379 17.4316C91.8621 17.5879 91.6473 17.7441 91.3934 17.9004C91.1395 18.0566 90.8855 18.2227 90.6316 18.3984C90.3973 18.5742 90.1922 18.7695 90.0164 18.9844C89.8406 19.1797 89.7332 19.4141 89.6941 19.6875C89.2449 19.7656 88.9324 19.9512 88.7566 20.2441C88.5809 20.5371 88.4344 20.8594 88.3172 21.2109C88.2 21.5625 88.073 21.9141 87.9363 22.2656C87.7996 22.5977 87.5555 22.8613 87.2039 23.0566C87.0867 23.1348 86.9793 23.1738 86.8816 23.1738C86.9012 23.1738 86.8426 23.2129 86.7059 23.291C86.491 23.4473 86.3055 23.6426 86.1492 23.877C85.993 24.1113 85.8562 24.3652 85.7391 24.6387C85.6414 24.9121 85.5437 25.1953 85.4461 25.4883C85.368 25.7617 85.2898 26.0156 85.2117 26.25C84.9383 26.2891 84.7332 26.3477 84.5965 26.4258C84.4598 26.5039 84.3719 26.5918 84.3328 26.6895C84.3133 26.7676 84.323 26.8652 84.3621 26.9824C84.4012 27.0996 84.4598 27.2266 84.5379 27.3633C84.616 27.4805 84.6941 27.6172 84.7723 27.7734C84.8699 27.9297 84.948 28.0859 85.0066 28.2422C85.0652 28.3984 85.0945 28.5547 85.0945 28.7109C85.1141 28.8672 85.075 29.0137 84.9773 29.1504C85.2508 29.3652 85.5145 29.4141 85.7684 29.2969C86.0223 29.1602 86.2566 29.0137 86.4715 28.8574C86.5496 28.7988 86.6277 28.7402 86.7059 28.6816C86.8035 28.6035 86.9012 28.5449 86.9988 28.5059C87.448 28.6035 87.8582 28.5742 88.2293 28.418C88.6004 28.2617 88.9422 28.0469 89.2547 27.7734C89.5672 27.5 89.8699 27.207 90.1629 26.8945C90.4559 26.582 90.7488 26.3086 91.0418 26.0742L90.8074 25.8398C91.159 25.7422 91.4031 25.6152 91.5398 25.459C91.6961 25.2832 91.7937 25.0879 91.8328 24.873C91.8719 24.6582 91.8719 24.4336 91.8328 24.1992C91.7937 23.9453 91.7645 23.6816 91.7449 23.4082C91.7254 23.252 91.7156 23.1055 91.7156 22.9688C91.7352 22.8125 91.7742 22.6562 91.8328 22.5C91.6766 22.0508 91.6473 21.6211 91.7449 21.2109C91.8621 20.8008 92.0086 20.4102 92.1844 20.0391C92.3797 19.6484 92.5652 19.2578 92.741 18.8672C92.9168 18.4766 93.0047 18.0664 93.0047 17.6367L92.0379 17.4316ZM117.571 29.4727C117.59 29.707 117.551 29.8828 117.454 30C117.356 30.1172 117.219 30.2051 117.043 30.2637C116.887 30.3223 116.711 30.3711 116.516 30.4102C116.321 30.4297 116.155 30.4785 116.018 30.5566C115.452 30.498 114.905 30.4199 114.377 30.3223C113.85 30.2051 113.362 30.0391 112.912 29.8242C112.463 29.5898 112.053 29.2871 111.682 28.916C111.33 28.5449 111.028 28.0762 110.774 27.5098C111.028 27.0996 111.116 26.6504 111.037 26.1621C110.959 25.6543 110.881 25.166 110.803 24.6973C110.745 24.2285 110.754 23.7988 110.832 23.4082C110.93 23.0176 111.272 22.7051 111.858 22.4707C111.819 22.2559 111.819 22.0215 111.858 21.7676C111.916 21.5137 111.848 21.2988 111.653 21.123C110.969 21.3574 110.373 21.6895 109.866 22.1191C109.358 22.5488 108.87 23.0176 108.401 23.5254C107.952 24.0332 107.493 24.5508 107.024 25.0781C106.575 25.5859 106.077 26.0352 105.53 26.4258C105.276 26.4453 105.002 26.4355 104.709 26.3965C104.436 26.3379 104.202 26.416 104.006 26.6309C104.026 26.7676 104.075 26.8848 104.153 26.9824C104.231 27.0801 104.289 27.1777 104.329 27.2754C104.387 27.373 104.416 27.4805 104.416 27.5977C104.416 27.6953 104.348 27.8125 104.211 27.9492C104.016 28.1445 103.801 28.3105 103.567 28.4473C103.352 28.5645 103.137 28.7012 102.922 28.8574C102.727 28.9941 102.561 29.1602 102.424 29.3555C102.287 29.5508 102.219 29.8145 102.219 30.1465C102.102 30.0879 101.995 30.0781 101.897 30.1172C101.799 30.1367 101.711 30.1855 101.633 30.2637C101.536 30.3418 101.448 30.4297 101.37 30.5273C101.291 30.625 101.213 30.7031 101.135 30.7617C101.096 30.8594 101.106 30.9375 101.164 30.9961C101.223 31.0742 101.291 31.1523 101.37 31.2305C101.291 31.4453 101.194 31.5723 101.077 31.6113C100.94 31.6699 100.803 31.6797 100.666 31.6406C100.51 31.6016 100.364 31.5332 100.227 31.4355C100.071 31.3574 99.934 31.2891 99.8168 31.2305C99.7582 30.9766 99.7191 30.6836 99.6996 30.3516C99.6801 30.0195 99.6898 29.6973 99.7289 29.3848C99.768 29.0527 99.8461 28.7402 99.9633 28.4473C100.08 28.1543 100.256 27.9102 100.491 27.7148C100.569 27.6562 100.618 27.627 100.637 27.627C100.657 27.6074 100.666 27.5977 100.666 27.5977C100.666 27.5977 100.676 27.5977 100.696 27.5977C100.715 27.5781 100.754 27.5391 100.813 27.4805C100.969 27.3047 101.077 27.1191 101.135 26.9238C101.194 26.709 101.243 26.4941 101.282 26.2793C101.321 26.0645 101.379 25.8594 101.457 25.6641C101.516 25.4492 101.633 25.2637 101.809 25.1074C101.731 24.7949 101.731 24.5215 101.809 24.2871C101.907 24.0332 102.024 23.7988 102.161 23.584C102.317 23.3496 102.463 23.125 102.6 22.9102C102.756 22.6758 102.854 22.4219 102.893 22.1484C102.912 22.0508 102.912 21.9629 102.893 21.8848C102.893 21.7871 102.893 21.6895 102.893 21.5918C102.854 21.2793 102.883 21.0449 102.981 20.8887C103.098 20.7129 103.235 20.5762 103.391 20.4785C103.567 20.3613 103.743 20.2441 103.918 20.127C104.114 20.0098 104.28 19.834 104.416 19.5996C104.983 19.873 105.315 20.2441 105.412 20.7129C105.53 21.1621 105.569 21.6699 105.53 22.2363C105.198 22.4512 104.944 22.7539 104.768 23.1445C104.592 23.5156 104.475 23.877 104.416 24.2285C104.455 24.3457 104.504 24.4141 104.563 24.4336C104.641 24.4336 104.719 24.4238 104.797 24.4043C104.895 24.3652 104.983 24.3262 105.061 24.2871C105.139 24.248 105.217 24.2285 105.295 24.2285C105.998 23.7402 106.692 23.1934 107.375 22.5879C108.079 21.9824 108.625 21.2891 109.016 20.5078C109.582 20.2344 110.12 19.9219 110.627 19.5703C111.135 19.1992 111.692 18.9258 112.297 18.75L112.971 18.0762C113.069 18.2324 113.186 18.2715 113.323 18.1934C113.459 18.0957 113.596 17.9883 113.733 17.8711C113.87 17.7539 113.996 17.6855 114.114 17.666C114.25 17.6465 114.377 17.7832 114.495 18.0762C114.69 18.584 114.739 19.082 114.641 19.5703C114.543 20.0391 114.387 20.5078 114.172 20.9766C113.977 21.4258 113.772 21.8848 113.557 22.3535C113.342 22.8223 113.215 23.3008 113.176 23.7891C113.176 23.9062 113.176 24.0332 113.176 24.1699C113.176 24.2871 113.166 24.4141 113.147 24.5508C113.108 24.9609 113.049 25.4102 112.971 25.8984C112.912 26.3672 112.942 26.7969 113.059 27.1875C113.157 27.5391 113.362 27.8516 113.674 28.125C113.987 28.3984 114.26 28.6719 114.495 28.9453C114.631 28.9258 114.768 28.9355 114.905 28.9746C115.041 29.0137 115.168 29.0527 115.286 29.0918C115.422 29.1309 115.549 29.1504 115.666 29.1504C115.784 29.1309 115.901 29.0625 116.018 28.9453C116.155 28.8867 116.282 28.8965 116.399 28.9746C116.536 29.0332 116.662 29.1113 116.78 29.209C116.897 29.3066 117.014 29.3945 117.131 29.4727C117.268 29.5312 117.414 29.5312 117.571 29.4727ZM139.588 9.3457C139.314 9.63867 139.012 9.79492 138.68 9.81445C138.348 9.81445 138.016 9.78516 137.684 9.72656C137.371 9.66797 137.059 9.64844 136.746 9.66797C136.453 9.66797 136.199 9.82422 135.984 10.1367C135.672 10.0586 135.35 10.0488 135.018 10.1074C134.686 10.1465 134.344 10.2148 133.992 10.3125C133.641 10.3906 133.289 10.4688 132.938 10.5469C132.586 10.625 132.234 10.6543 131.883 10.6348L131.385 10.1367C131.248 10.3516 131.053 10.4883 130.799 10.5469C130.564 10.5859 130.33 10.5273 130.096 10.3711C129.686 10.6445 129.275 10.7715 128.865 10.752C128.455 10.7324 128.055 10.7227 127.664 10.7227C127.273 10.7031 126.902 10.7812 126.551 10.957C126.219 11.1133 125.936 11.5137 125.701 12.1582C125.525 12.6074 125.359 13.0664 125.203 13.5352C125.047 13.9844 124.891 14.4336 124.734 14.8828C124.305 16.0547 123.865 17.2168 123.416 18.3691C122.986 19.502 122.498 20.625 121.951 21.7383C121.912 22.6172 121.932 23.5059 122.01 24.4043C122.088 25.3027 122.176 26.1914 122.273 27.0703C122.195 27.3047 122.166 27.5488 122.186 27.8027C122.225 28.0566 122.293 28.3105 122.391 28.5645C122.488 28.8184 122.605 29.0625 122.742 29.2969C122.879 29.5117 123.025 29.707 123.182 29.8828L123.709 29.3848L124.441 30.4102C124.637 30.1562 124.861 29.8926 125.115 29.6191C125.389 29.3262 125.672 29.0625 125.965 28.8281C126.258 28.5742 126.561 28.3691 126.873 28.2129C127.205 28.0371 127.537 27.9199 127.869 27.8613C128.006 27.7246 128.133 27.5781 128.25 27.4219C128.367 27.2656 128.494 27.1387 128.631 27.041C128.768 26.9238 128.914 26.8457 129.07 26.8066C129.246 26.748 129.451 26.7578 129.686 26.8359C130.311 26.4844 130.867 26.0449 131.355 25.5176C131.844 24.9707 132.332 24.4336 132.82 23.9062C133.309 23.3594 133.816 22.8613 134.344 22.4121C134.891 21.9629 135.525 21.6504 136.248 21.4746C135.779 22.6074 135.184 23.7109 134.461 24.7852C133.738 25.8398 132.928 26.7871 132.029 27.627C131.795 27.9004 131.502 28.1445 131.15 28.3594C130.994 28.457 130.828 28.5645 130.652 28.6816C130.477 28.7793 130.311 28.877 130.154 28.9746C129.627 29.3262 129.119 29.707 128.631 30.1172C128.143 30.5078 127.674 30.9473 127.225 31.4355C127.166 31.3184 127.088 31.2402 126.99 31.2012C126.893 31.1621 126.775 31.1426 126.639 31.1426C126.521 31.1426 126.395 31.1523 126.258 31.1719C126.141 31.1914 126.033 31.1914 125.936 31.1719C125.564 31.4453 125.076 31.6602 124.471 31.8164C123.885 31.9922 123.357 32.0312 122.889 31.9336C122.752 31.8945 122.566 31.8164 122.332 31.6992C122.098 31.6016 121.922 31.5137 121.805 31.4355C121.043 30.9277 120.467 30.3027 120.076 29.5605C119.705 28.7988 119.5 27.9688 119.461 27.0703L119.227 26.8359C119.48 26.6016 119.637 26.3672 119.695 26.1328C119.773 25.8984 119.793 25.6641 119.754 25.4297C119.734 25.1758 119.686 24.9219 119.607 24.668C119.549 24.3945 119.51 24.1211 119.49 23.8477C119.471 23.6719 119.471 23.5254 119.49 23.4082C119.529 23.291 119.568 23.1543 119.607 22.998C119.764 22.373 119.91 21.7676 120.047 21.1816C120.184 20.5762 120.33 19.9707 120.486 19.3652C120.877 17.8809 121.326 16.416 121.834 14.9707C122.361 13.5059 122.908 12.0605 123.475 10.6348C123.162 10.5176 122.85 10.4492 122.537 10.4297C122.225 10.3906 121.902 10.3711 121.57 10.3711C121.258 10.3711 120.936 10.3613 120.604 10.3418C120.291 10.3223 119.979 10.2539 119.666 10.1367C119.529 10.0781 119.461 10.0488 119.461 10.0488C119.461 10.0293 119.383 10.0195 119.227 10.0195C119.129 10.0195 118.992 10.0391 118.816 10.0781C118.641 10.0977 118.465 10.1074 118.289 10.1074C118.113 10.1074 117.957 10.0879 117.82 10.0488C117.664 10.0098 117.576 9.92188 117.557 9.78516V9.49219C117.576 9.17969 117.645 8.97461 117.762 8.87695C117.879 8.75977 118.025 8.69141 118.201 8.67188C118.377 8.63281 118.572 8.61328 118.787 8.61328C119.002 8.59375 119.207 8.52539 119.402 8.4082C119.949 8.52539 120.467 8.61328 120.955 8.67188C121.443 8.71094 121.912 8.70117 122.361 8.64258C122.83 8.58398 123.279 8.45703 123.709 8.26172C124.158 8.06641 124.598 7.77344 125.027 7.38281C125.34 6.77734 125.574 6.13281 125.73 5.44922C125.887 4.74609 126.062 4.0625 126.258 3.39844C126.473 2.71484 126.746 2.08984 127.078 1.52344C127.41 0.9375 127.918 0.449219 128.602 0.0585938C128.914 0.0195313 129.188 0.0585938 129.422 0.175781C129.656 0.292969 129.891 0.419922 130.125 0.556641C130.027 0.830078 129.949 1.11328 129.891 1.40625C129.832 1.69922 129.764 1.99219 129.686 2.28516C129.627 2.57812 129.549 2.86133 129.451 3.13477C129.354 3.4082 129.207 3.66211 129.012 3.89648C129.266 3.99414 129.412 4.11133 129.451 4.24805C129.49 4.38477 129.471 4.53125 129.393 4.6875C129.314 4.84375 129.217 5.00977 129.1 5.18555C128.982 5.36133 128.914 5.51758 128.895 5.6543C128.68 5.67383 128.494 5.81055 128.338 6.06445C128.201 6.31836 128.055 6.51367 127.898 6.65039C127.742 6.98242 127.771 7.26562 127.986 7.5C128.201 7.73438 128.396 7.95898 128.572 8.17383C128.748 8.23242 128.924 8.24219 129.1 8.20312C129.275 8.14453 129.432 8.08594 129.568 8.02734C129.725 7.96875 129.871 7.93945 130.008 7.93945C130.145 7.93945 130.271 8.01758 130.389 8.17383C130.584 7.95898 130.779 7.87109 130.975 7.91016C131.17 7.92969 131.365 7.97852 131.561 8.05664C131.756 8.11523 131.951 8.14453 132.146 8.14453C132.342 8.125 132.527 7.96875 132.703 7.67578C132.938 7.55859 133.152 7.5293 133.348 7.58789C133.562 7.64648 133.758 7.72461 133.934 7.82227C134.109 7.90039 134.275 7.96875 134.432 8.02734C134.607 8.06641 134.783 8.02734 134.959 7.91016C135.252 7.94922 135.574 7.95898 135.926 7.93945C136.297 7.91992 136.658 7.88086 137.01 7.82227C137.381 7.76367 137.742 7.69531 138.094 7.61719C138.465 7.51953 138.797 7.44141 139.09 7.38281C139.383 7.55859 139.559 7.71484 139.617 7.85156C139.676 7.98828 139.686 8.125 139.646 8.26172C139.627 8.39844 139.588 8.55469 139.529 8.73047C139.49 8.88672 139.51 9.0918 139.588 9.3457ZM150.707 27.041C150.296 27.9199 149.906 28.6133 149.535 29.1211C149.164 29.6289 148.744 30.0586 148.275 30.4102C147.826 30.7422 147.279 31.0547 146.634 31.3477C145.99 31.6406 145.179 32.0117 144.203 32.4609C143.812 32.3633 143.431 32.334 143.06 32.373C142.689 32.4316 142.328 32.4707 141.976 32.4902C141.644 32.5098 141.322 32.4707 141.009 32.373C140.697 32.2949 140.414 32.0605 140.16 31.6699H139.72C139.74 31.416 139.711 31.1426 139.632 30.8496C139.574 30.5762 139.388 30.4199 139.076 30.3809C139.271 30.166 139.398 29.9316 139.457 29.6777C139.515 29.4043 139.554 29.1309 139.574 28.8574C139.613 28.584 139.662 28.3203 139.72 28.0664C139.779 27.8125 139.925 27.5977 140.16 27.4219C139.925 27.1094 139.828 26.7969 139.867 26.4844C139.925 26.1523 140.033 25.8301 140.189 25.5176C140.365 25.1855 140.541 24.8633 140.716 24.5508C140.912 24.2188 141.009 23.8867 141.009 23.5547C140.834 23.4375 140.668 23.2812 140.511 23.0859C140.375 22.8711 140.179 22.8125 139.925 22.9102C139.398 23.418 138.871 23.9062 138.343 24.375C137.816 24.8242 137.298 25.293 136.791 25.7812C136.302 26.2695 135.834 26.7871 135.384 27.334C134.955 27.8613 134.554 28.4473 134.183 29.0918C133.851 29.1504 133.597 29.3066 133.421 29.5605C133.246 29.8145 133.089 30.0879 132.953 30.3809C132.816 30.6543 132.66 30.918 132.484 31.1719C132.328 31.4258 132.103 31.5918 131.81 31.6699C131.713 31.9824 131.615 32.2949 131.517 32.6074C131.4 32.9395 131.293 33.2617 131.195 33.5742C131.078 33.5156 130.931 33.4668 130.755 33.4277C130.56 33.3887 130.375 33.3398 130.199 33.2812C130.023 33.2227 129.867 33.1445 129.73 33.0469C129.593 32.9688 129.505 32.8613 129.466 32.7246C129.447 32.6855 129.447 32.5977 129.466 32.4609C129.466 32.3438 129.466 32.2656 129.466 32.2266C129.505 31.6797 129.652 31.1621 129.906 30.6738C130.14 30.2051 130.394 29.7461 130.668 29.2969C130.941 28.8281 131.195 28.3594 131.429 27.8906C131.664 27.4219 131.791 26.9043 131.81 26.3379C132.103 26.3379 132.289 26.25 132.367 26.0742C132.464 25.8984 132.533 25.7129 132.572 25.5176C132.63 25.3223 132.699 25.1465 132.777 24.9902C132.855 24.834 133.031 24.7754 133.304 24.8145C133.129 24.5801 133.05 24.3262 133.07 24.0527C133.109 23.7598 133.187 23.4766 133.304 23.2031C133.421 22.9102 133.568 22.6367 133.744 22.3828C133.92 22.1094 134.066 21.8652 134.183 21.6504C134.164 21.377 134.183 21.1035 134.242 20.8301C134.32 20.5566 134.447 20.3125 134.623 20.0977C134.798 19.8828 134.955 19.6777 135.091 19.4824C135.228 19.2871 135.365 19.082 135.502 18.8672C135.58 18.7695 135.638 18.6621 135.677 18.5449C135.736 18.4277 135.795 18.3203 135.853 18.2227C136.029 17.9688 136.146 17.7051 136.205 17.4316C136.263 17.1387 136.322 16.8555 136.38 16.582C136.459 16.2891 136.556 16.0352 136.673 15.8203C136.81 15.5859 137.045 15.4004 137.377 15.2637C137.377 15.0488 137.406 14.8535 137.464 14.6777C137.543 14.4824 137.621 14.2871 137.699 14.0918C137.777 13.8965 137.845 13.7109 137.904 13.5352C137.982 13.3398 138.021 13.1348 138.021 12.9199C138.08 12.8223 138.168 12.7246 138.285 12.627C138.402 12.5293 138.509 12.4316 138.607 12.334C138.705 12.2363 138.783 12.1387 138.841 12.041C138.9 11.9238 138.91 11.7871 138.871 11.6309C138.89 11.377 138.88 11.1133 138.841 10.8398C138.822 10.5664 138.9 10.332 139.076 10.1367C139.037 9.88281 139.066 9.67773 139.164 9.52148C139.281 9.36523 139.418 9.22852 139.574 9.11133C139.73 8.99414 139.896 8.88672 140.072 8.78906C140.267 8.67188 140.433 8.54492 140.57 8.4082C140.472 8.27148 140.453 8.11523 140.511 7.93945C140.57 7.76367 140.648 7.59766 140.746 7.44141C140.863 7.26562 140.99 7.09961 141.127 6.94336C141.263 6.78711 141.361 6.65039 141.42 6.5332C141.537 6.29883 141.634 6.06445 141.713 5.83008C141.81 5.5957 141.918 5.38086 142.035 5.18555C142.152 4.9707 142.289 4.77539 142.445 4.59961C142.621 4.42383 142.845 4.27734 143.119 4.16016C143.041 3.76953 143.06 3.4668 143.177 3.25195C143.314 3.03711 143.49 2.85156 143.705 2.69531C143.939 2.53906 144.183 2.39258 144.437 2.25586C144.691 2.09961 144.896 1.88477 145.052 1.61133C145.267 1.55273 145.502 1.49414 145.755 1.43555C146.009 1.35742 146.263 1.30859 146.517 1.28906C146.771 1.25 147.015 1.25 147.25 1.28906C147.484 1.32813 147.699 1.43555 147.894 1.61133C147.972 1.68945 148.021 1.73828 148.041 1.75781C148.06 1.77734 148.07 1.79688 148.07 1.81641C148.07 1.81641 148.07 1.83594 148.07 1.875C148.089 1.89453 148.138 1.94336 148.216 2.02148C148.295 2.09961 148.373 2.17773 148.451 2.25586C148.529 2.31445 148.607 2.39258 148.685 2.49023C148.705 2.62695 148.705 2.7832 148.685 2.95898C148.666 3.11523 148.656 3.27148 148.656 3.42773C148.656 3.58398 148.675 3.73047 148.714 3.86719C148.773 4.00391 148.9 4.10156 149.095 4.16016C148.939 4.72656 148.871 5.33203 148.89 5.97656C148.91 6.62109 148.92 7.27539 148.92 7.93945C148.92 8.58398 148.871 9.20898 148.773 9.81445C148.675 10.4199 148.421 10.957 148.011 11.4258L147.806 12.9199C147.552 12.9395 147.377 13.0273 147.279 13.1836C147.181 13.3203 147.113 13.4863 147.074 13.6816C147.035 13.877 146.996 14.082 146.957 14.2969C146.937 14.5117 146.869 14.6875 146.752 14.8242C146.595 15.0195 146.439 15.2441 146.283 15.498C146.127 15.752 145.961 15.9863 145.785 16.2012C145.609 16.416 145.404 16.6016 145.17 16.7578C144.955 16.8945 144.701 16.9629 144.408 16.9629C144.369 17.0801 144.291 17.2168 144.173 17.373C144.056 17.5293 143.92 17.6855 143.763 17.8418C143.627 17.9785 143.48 18.1055 143.324 18.2227C143.168 18.3203 143.031 18.3887 142.914 18.4277C142.757 18.4863 142.611 18.5352 142.474 18.5742C142.357 18.5938 142.22 18.6523 142.064 18.75C141.888 18.8477 141.713 18.9746 141.537 19.1309C141.361 19.2871 141.175 19.4238 140.98 19.541C140.785 19.6582 140.58 19.7461 140.365 19.8047C140.15 19.8438 139.935 19.8145 139.72 19.7168C139.466 20.0293 139.173 20.2246 138.841 20.3027C138.529 20.3613 138.216 20.4102 137.904 20.4492C137.611 20.4688 137.328 20.5371 137.054 20.6543C136.8 20.752 136.605 20.9863 136.468 21.3574C136.429 21.3965 136.39 21.4844 136.351 21.6211C136.332 21.7383 136.322 21.8164 136.322 21.8555C136.322 22.0703 136.312 22.334 136.293 22.6465C136.273 22.959 136.351 23.1934 136.527 23.3496C137.23 23.0176 137.894 22.627 138.519 22.1777C139.164 21.709 139.847 21.3184 140.57 21.0059L140.775 21.2402C140.834 20.8105 141.019 20.5957 141.332 20.5957C141.644 20.5762 141.966 20.5762 142.298 20.5957H142.504C142.543 20.5957 142.572 20.5957 142.591 20.5957C142.63 20.5762 142.67 20.5664 142.709 20.5664C143.08 20.5664 143.324 20.7129 143.441 21.0059C143.558 21.2988 143.666 21.582 143.763 21.8555C143.548 22.0898 143.373 22.373 143.236 22.7051C143.119 23.0176 143.002 23.3496 142.884 23.7012C142.787 24.0527 142.67 24.4043 142.533 24.7559C142.416 25.0879 142.25 25.4004 142.035 25.6934C142.211 25.791 142.289 25.8984 142.269 26.0156C142.25 26.1328 142.211 26.25 142.152 26.3672C142.113 26.4844 142.103 26.6016 142.123 26.7188C142.142 26.8164 142.269 26.8945 142.504 26.9531C142.308 27.0898 142.171 27.2559 142.093 27.4512C142.035 27.627 141.976 27.8223 141.918 28.0371C141.879 28.2324 141.83 28.4277 141.771 28.623C141.713 28.7988 141.595 28.9551 141.42 29.0918C141.498 29.2676 141.556 29.4434 141.595 29.6191C141.654 29.7754 141.664 29.9609 141.625 30.1758C141.898 30.5273 142.171 30.7227 142.445 30.7617C142.738 30.8008 143.021 30.7812 143.295 30.7031C143.568 30.625 143.851 30.5469 144.144 30.4688C144.437 30.3906 144.74 30.4102 145.052 30.5273C145.599 30.1562 145.98 29.9316 146.195 29.8535C146.41 29.7754 146.576 29.7168 146.693 29.6777C146.83 29.6387 146.986 29.5508 147.162 29.4141C147.338 29.2773 147.67 28.9746 148.158 28.5059C148.646 28.3691 149.076 28.1445 149.447 27.832C149.838 27.5195 150.257 27.2559 150.707 27.041ZM146.341 3.10547C146.361 3.33984 146.302 3.52539 146.166 3.66211C146.048 3.7793 145.912 3.89648 145.755 4.01367C145.599 4.11133 145.443 4.21875 145.287 4.33594C145.15 4.43359 145.072 4.58984 145.052 4.80469C144.798 4.92188 144.632 5.07813 144.554 5.27344C144.476 5.46875 144.408 5.67383 144.349 5.88867C144.31 6.08398 144.242 6.2793 144.144 6.47461C144.046 6.66992 143.851 6.82617 143.558 6.94336L143.763 7.14844C143.119 7.73438 142.601 8.42773 142.211 9.22852C141.839 10.0293 141.507 10.8301 141.214 11.6309C140.941 11.9238 140.746 12.2559 140.629 12.627C140.511 12.9785 140.394 13.3398 140.277 13.7109C140.179 14.0625 140.043 14.4043 139.867 14.7363C139.711 15.0488 139.447 15.293 139.076 15.4688C139.271 15.7227 139.339 15.957 139.281 16.1719C139.242 16.3867 139.144 16.5918 138.988 16.7871C138.832 16.9824 138.666 17.1777 138.49 17.373C138.334 17.5684 138.246 17.7832 138.226 18.0176C138.597 18.0957 138.959 18.0859 139.31 17.9883C139.681 17.8906 140.043 17.7539 140.394 17.5781C140.746 17.3828 141.078 17.168 141.39 16.9336C141.703 16.6992 142.005 16.4941 142.298 16.3184L142.504 16.5234C143.382 16.0352 144.105 15.4492 144.671 14.7656C145.257 14.0625 145.814 13.3008 146.341 12.4805C146.166 12.3438 146.088 12.1973 146.107 12.041C146.146 11.9434 146.195 11.8262 146.254 11.6895C146.312 11.5527 146.361 11.4355 146.4 11.3379C146.595 10.752 146.742 10.2051 146.839 9.69727C147.093 8.64258 147.269 7.58789 147.367 6.5332C147.484 5.45898 147.562 4.38477 147.601 3.31055L146.341 3.10547ZM169.238 27.4512C168.964 27.9199 168.749 28.3008 168.593 28.5938C168.456 28.8672 168.31 29.1016 168.154 29.2969C168.017 29.4727 167.851 29.6387 167.655 29.7949C167.48 29.9316 167.226 30.1074 166.894 30.3223C166.679 30.5176 166.464 30.6836 166.249 30.8203C166.073 30.957 165.898 31.0742 165.722 31.1719C165.566 31.2695 165.439 31.3184 165.341 31.3184C165.302 31.3184 165.263 31.3086 165.224 31.2891C165.185 31.2891 165.146 31.2891 165.107 31.2891C164.989 31.2891 164.872 31.2891 164.755 31.2891C164.657 31.3086 164.57 31.2402 164.491 31.084C164.433 31.1426 164.384 31.2109 164.345 31.2891C164.306 31.3672 164.267 31.4355 164.228 31.4941C164.189 31.5723 164.13 31.6309 164.052 31.6699C163.993 31.709 163.905 31.709 163.788 31.6699L163.642 31.4941L163.202 31.875C162.655 31.6016 162.128 31.3672 161.62 31.1719C161.132 30.9961 160.693 30.7812 160.302 30.5273C159.911 30.2734 159.579 29.9512 159.306 29.5605C159.032 29.1504 158.837 28.5938 158.72 27.8906C158.622 27.7734 158.515 27.6758 158.398 27.5977C158.28 27.5 158.144 27.4707 157.988 27.5098C157.792 27.8418 157.558 28.125 157.284 28.3594C157.011 28.5938 156.738 28.8477 156.464 29.1211C156.366 29.2188 156.288 29.3262 156.23 29.4434C156.171 29.5605 156.093 29.668 155.995 29.7656C155.839 29.9414 155.654 30.0684 155.439 30.1465C155.224 30.2051 155.009 30.2637 154.794 30.3223C154.579 30.3809 154.374 30.4785 154.179 30.6152C154.003 30.752 153.876 30.9863 153.798 31.3184C153.564 31.1816 153.329 31.1426 153.095 31.2012C152.919 31.2402 152.734 31.2793 152.538 31.3184C152.343 31.377 152.148 31.4062 151.952 31.4062C151.777 31.4258 151.601 31.4062 151.425 31.3477C151.249 31.2891 151.093 31.1621 150.956 30.9668C150.683 31.084 150.429 31.0742 150.195 30.9375C149.96 30.8203 149.736 30.6543 149.521 30.4395C149.325 30.2051 149.13 29.9609 148.935 29.707C148.739 29.4531 148.554 29.2676 148.378 29.1504C148.261 28.8379 148.271 28.5742 148.407 28.3594C148.525 28.125 148.661 27.9102 148.818 27.7148C148.954 27.5 149.052 27.2949 149.111 27.0996C149.169 26.8848 149.081 26.6309 148.847 26.3379C149.042 26.0449 149.218 25.7422 149.374 25.4297C149.53 25.0977 149.687 24.7754 149.843 24.4629C150.019 24.1309 150.195 23.8184 150.37 23.5254C150.566 23.2129 150.8 22.9492 151.073 22.7344C150.956 22.5977 150.898 22.4707 150.898 22.3535C150.898 22.2168 150.927 22.0898 150.986 21.9727C151.044 21.8359 151.113 21.709 151.191 21.5918C151.269 21.4551 151.327 21.3281 151.366 21.2109L152.216 20.8008L152.011 20.0977C152.226 20.1367 152.382 20.127 152.48 20.0684C152.597 20.0098 152.675 19.9219 152.714 19.8047C152.773 19.6875 152.812 19.5605 152.831 19.4238C152.87 19.2676 152.919 19.1309 152.978 19.0137C153.075 18.8379 153.222 18.7109 153.417 18.6328C153.827 18.3203 154.228 17.9883 154.618 17.6367C155.029 17.2852 155.429 16.9434 155.82 16.6113C156.23 16.2793 156.65 15.9668 157.079 15.6738C157.509 15.3613 157.978 15.0977 158.486 14.8828C158.837 14.9414 159.111 15.0488 159.306 15.2051C159.521 15.3613 159.677 15.5469 159.775 15.7617C159.892 15.9766 159.98 16.2207 160.038 16.4941C160.097 16.748 160.155 17.002 160.214 17.2559C160.312 17.5879 160.429 17.8711 160.566 18.1055C160.702 18.3398 160.937 18.5352 161.269 18.6914C160.995 19.1602 160.888 19.6289 160.946 20.0977C161.005 20.5469 161.064 21.0254 161.122 21.5332C161.181 22.002 161.171 22.4609 161.093 22.9102C161.034 23.3594 160.751 23.7598 160.243 24.1113C160.204 24.248 160.195 24.3945 160.214 24.5508C160.234 24.707 160.243 24.8633 160.243 25.0195C160.243 25.1758 160.214 25.3223 160.155 25.459C160.097 25.5957 159.989 25.7031 159.833 25.7812C160.009 25.9961 160.097 26.2109 160.097 26.4258C160.116 26.6406 160.126 26.8457 160.126 27.041C160.146 27.2363 160.195 27.4121 160.273 27.5684C160.37 27.7246 160.585 27.8418 160.917 27.9199C160.976 28.1738 161.025 28.3691 161.064 28.5059C161.122 28.623 161.181 28.7207 161.239 28.7988C161.318 28.877 161.415 28.9551 161.532 29.0332C161.65 29.0918 161.806 29.1895 162.001 29.3262C162.157 29.3652 162.333 29.3652 162.529 29.3262C162.724 29.2871 162.88 29.3457 162.997 29.502C163.095 29.4043 163.212 29.3555 163.349 29.3555C163.486 29.3359 163.613 29.3359 163.73 29.3555L164.111 30C164.325 29.8438 164.57 29.707 164.843 29.5898C165.116 29.4727 165.38 29.375 165.634 29.2969C165.927 29.2188 166.22 29.1504 166.513 29.0918L169.238 27.4512ZM157.988 17.4316C157.812 17.5879 157.597 17.7441 157.343 17.9004C157.089 18.0566 156.835 18.2227 156.581 18.3984C156.347 18.5742 156.142 18.7695 155.966 18.9844C155.79 19.1797 155.683 19.4141 155.644 19.6875C155.195 19.7656 154.882 19.9512 154.706 20.2441C154.53 20.5371 154.384 20.8594 154.267 21.2109C154.15 21.5625 154.023 21.9141 153.886 22.2656C153.749 22.5977 153.505 22.8613 153.154 23.0566C153.036 23.1348 152.929 23.1738 152.831 23.1738C152.851 23.1738 152.792 23.2129 152.655 23.291C152.441 23.4473 152.255 23.6426 152.099 23.877C151.943 24.1113 151.806 24.3652 151.689 24.6387C151.591 24.9121 151.493 25.1953 151.396 25.4883C151.318 25.7617 151.239 26.0156 151.161 26.25C150.888 26.2891 150.683 26.3477 150.546 26.4258C150.409 26.5039 150.321 26.5918 150.282 26.6895C150.263 26.7676 150.273 26.8652 150.312 26.9824C150.351 27.0996 150.409 27.2266 150.488 27.3633C150.566 27.4805 150.644 27.6172 150.722 27.7734C150.82 27.9297 150.898 28.0859 150.956 28.2422C151.015 28.3984 151.044 28.5547 151.044 28.7109C151.064 28.8672 151.025 29.0137 150.927 29.1504C151.2 29.3652 151.464 29.4141 151.718 29.2969C151.972 29.1602 152.206 29.0137 152.421 28.8574C152.499 28.7988 152.577 28.7402 152.655 28.6816C152.753 28.6035 152.851 28.5449 152.948 28.5059C153.398 28.6035 153.808 28.5742 154.179 28.418C154.55 28.2617 154.892 28.0469 155.204 27.7734C155.517 27.5 155.82 27.207 156.113 26.8945C156.405 26.582 156.698 26.3086 156.991 26.0742L156.757 25.8398C157.109 25.7422 157.353 25.6152 157.489 25.459C157.646 25.2832 157.743 25.0879 157.782 24.873C157.821 24.6582 157.821 24.4336 157.782 24.1992C157.743 23.9453 157.714 23.6816 157.695 23.4082C157.675 23.252 157.665 23.1055 157.665 22.9688C157.685 22.8125 157.724 22.6562 157.782 22.5C157.626 22.0508 157.597 21.6211 157.695 21.2109C157.812 20.8008 157.958 20.4102 158.134 20.0391C158.329 19.6484 158.515 19.2578 158.691 18.8672C158.866 18.4766 158.954 18.0664 158.954 17.6367L157.988 17.4316ZM170.132 28.418C170.112 28.7109 170.073 29.0527 170.014 29.4434C169.956 29.834 169.848 30.1953 169.692 30.5273C169.536 30.8594 169.331 31.1426 169.077 31.377C168.823 31.6113 168.491 31.709 168.081 31.6699C167.846 31.6504 167.661 31.582 167.524 31.4648C167.368 31.3477 167.241 31.2012 167.143 31.0254C167.046 30.8496 166.977 30.6641 166.938 30.4688C166.88 30.2539 166.85 30.0488 166.85 29.8535V29.2383C166.909 28.9648 167.075 28.6621 167.348 28.3301C167.602 27.9785 167.866 27.7246 168.139 27.5684C168.432 27.4121 168.696 27.4121 168.93 27.5684C169.165 27.7246 169.292 28.1543 169.311 28.8574C169.448 28.7402 169.575 28.623 169.692 28.5059C169.809 28.3691 169.956 28.3398 170.132 28.418ZM198.975 4.57031C198.955 4.62891 198.936 4.7168 198.916 4.83398C198.897 4.93164 198.907 5.00977 198.946 5.06836C198.946 5.32227 198.995 5.58594 199.092 5.85938C199.19 6.11328 199.258 6.36719 199.297 6.62109C199.356 6.85547 199.336 7.08008 199.239 7.29492C199.161 7.50977 198.936 7.70508 198.565 7.88086C198.526 7.91992 198.506 7.94922 198.506 7.96875C198.35 8.49609 198.184 8.94531 198.008 9.31641C197.832 9.6875 197.618 10.0195 197.364 10.3125C197.129 10.6055 196.856 10.8887 196.543 11.1621C196.231 11.416 195.87 11.6992 195.459 12.0117L195.43 12.041C195.45 12.1387 195.411 12.2266 195.313 12.3047C195.235 12.3828 195.137 12.4512 195.02 12.5098C194.903 12.5684 194.786 12.6367 194.668 12.7148C194.551 12.7734 194.473 12.8418 194.434 12.9199C194.414 12.959 194.395 12.998 194.375 13.0371C194.375 13.0566 194.366 13.0859 194.346 13.125C194.307 13.0859 194.258 13.0469 194.2 13.0078C194.161 12.9688 194.121 12.9297 194.082 12.8906L194.024 12.9199C193.653 13.1738 193.272 13.4668 192.881 13.7988C192.491 14.1113 192.12 14.4531 191.768 14.8242C191.416 15.1953 191.104 15.5859 190.83 15.9961C190.577 16.4062 190.391 16.8262 190.274 17.2559V17.2852C190.079 17.5391 189.952 17.8223 189.893 18.1348C189.834 18.4473 189.776 18.7695 189.717 19.1016C189.678 19.4141 189.6 19.7266 189.483 20.0391C189.385 20.3516 189.209 20.6348 188.955 20.8887C188.955 21.084 188.936 21.25 188.897 21.3867C188.877 21.5234 188.858 21.6504 188.838 21.7676C188.838 21.8652 188.858 21.9727 188.897 22.0898C188.936 22.207 189.034 22.3438 189.19 22.5H189.219C189.903 22.6172 190.44 22.8613 190.83 23.2324C191.241 23.584 191.573 24.0137 191.827 24.5215C192.1 25.0098 192.344 25.5273 192.559 26.0742C192.774 26.6211 193.028 27.1387 193.321 27.627L193.35 27.6855C193.33 28.5059 193.301 29.3359 193.262 30.1758C193.243 30.9961 193.223 31.8262 193.204 32.666C193.106 32.7637 192.969 32.8418 192.793 32.9004C192.618 32.959 192.52 33.0176 192.5 33.0762C192.579 33.2715 192.627 33.418 192.647 33.5156C192.608 33.4961 192.559 33.4766 192.5 33.457C192.442 33.457 192.393 33.4473 192.354 33.4277C192.276 33.5254 192.188 33.6133 192.09 33.6914C191.993 33.7695 191.895 33.8477 191.797 33.9258L191.739 33.7207C191.68 33.4863 191.524 33.291 191.27 33.1348C191.036 32.998 190.801 32.9199 190.567 32.9004C190.567 32.7441 190.557 32.5781 190.538 32.4023C190.538 32.2461 190.518 32.0898 190.479 31.9336C190.518 31.9336 190.547 31.9238 190.567 31.9043C190.879 31.6895 191.045 31.4062 191.065 31.0547C191.104 30.7227 191.104 30.3906 191.065 30.0586C191.065 29.9609 191.065 29.8535 191.065 29.7363C191.065 29.5996 191.045 29.4922 191.006 29.4141C191.104 29.3164 191.202 29.2383 191.299 29.1797C191.397 29.1211 191.446 29.0137 191.446 28.8574C191.446 28.7012 191.397 28.5547 191.299 28.418C191.221 28.2617 191.133 28.1055 191.036 27.9492C190.957 27.793 190.909 27.6367 190.889 27.4805C190.87 27.3242 190.938 27.1484 191.094 26.9531L190.83 26.7188L191.065 26.6602L191.153 26.5723C191.153 26.4746 191.133 26.3477 191.094 26.1914C190.801 26.0352 190.528 25.8594 190.274 25.6641C190.039 25.4688 189.795 25.2637 189.541 25.0488C189.463 24.9707 189.346 24.873 189.19 24.7559C189.053 24.6191 188.897 24.4824 188.721 24.3457C188.565 24.209 188.409 24.1016 188.252 24.0234C188.096 23.9258 187.959 23.8867 187.842 23.9062C187.784 23.9648 187.715 24.0332 187.637 24.1113C187.579 24.1699 187.53 24.2383 187.491 24.3164C187.432 24.2578 187.373 24.209 187.315 24.1699C187.256 24.1113 187.188 24.0527 187.11 23.9941C187.129 24.0918 187.159 24.2188 187.198 24.375C187.237 24.5312 187.246 24.6875 187.227 24.8438C187.227 24.9805 187.188 25.0977 187.11 25.1953C187.032 25.293 186.905 25.332 186.729 25.3125V25.3711C186.475 25.8398 186.133 26.3477 185.704 26.8945C185.293 27.4219 184.873 27.8516 184.444 28.1836C184.209 28.3789 183.985 28.5938 183.77 28.8281C183.555 29.043 183.33 29.2578 183.096 29.4727C182.725 29.4727 182.413 29.5898 182.159 29.8242C181.905 30.0391 181.641 30.2441 181.368 30.4395L181.543 30.6152C181.075 31.0059 180.567 31.3672 180.02 31.6992C179.473 32.0312 178.887 32.1973 178.262 32.1973C178.184 32.334 178.106 32.4609 178.028 32.5781C177.95 32.7148 177.862 32.832 177.764 32.9297C177.53 32.9297 177.266 32.9688 176.973 33.0469C176.739 33.1055 176.534 33.1445 176.358 33.1641C176.182 33.1836 175.967 33.1641 175.713 33.1055H175.684C175.508 33.1055 175.342 33.1348 175.186 33.1934C175.03 33.252 174.883 33.3105 174.746 33.3691C174.61 33.4473 174.473 33.5156 174.336 33.5742C174.2 33.6328 174.063 33.6523 173.926 33.6328C173.887 33.5742 173.799 33.5059 173.663 33.4277C173.526 33.3496 173.379 33.252 173.223 33.1348C173.067 33.0371 172.92 32.9102 172.784 32.7539C172.627 32.6172 172.53 32.4609 172.491 32.2852C172.276 32.3828 172.051 32.4219 171.817 32.4023C171.563 32.4023 171.358 32.3145 171.202 32.1387L171.172 32.1094C170.977 31.9336 170.743 31.7773 170.469 31.6406C170.196 31.5234 170.059 31.2988 170.059 30.9668C170.059 30.8887 170.069 30.8203 170.088 30.7617C170.108 30.7031 170.108 30.6348 170.088 30.5566C169.991 30.5566 169.893 30.5566 169.795 30.5566C169.698 30.5566 169.6 30.5664 169.502 30.5859C169.502 30.5273 169.512 30.4785 169.532 30.4395C169.551 30.3809 169.551 30.3223 169.532 30.2637C169.512 30.1465 169.493 30.0195 169.473 29.8828C169.454 29.7266 169.473 29.5996 169.532 29.502C169.532 29.502 169.512 29.4922 169.473 29.4727C169.336 29.3555 169.268 29.2383 169.268 29.1211C169.248 28.9844 169.258 28.8477 169.297 28.7109C169.336 28.5547 169.385 28.4082 169.444 28.2715C169.502 28.1348 169.532 28.0078 169.532 27.8906C169.532 27.8516 169.522 27.8125 169.502 27.7734C169.483 27.7148 169.473 27.666 169.473 27.627C169.571 27.5293 169.668 27.4316 169.766 27.334C169.864 27.2168 169.961 27.1094 170.059 27.0117C170.235 26.7969 170.42 26.6016 170.616 26.4258C170.791 26.2305 171.016 26.0645 171.289 25.9277L171.348 25.8984C171.465 25.7031 171.553 25.5762 171.612 25.5176C171.67 25.459 171.807 25.3809 172.022 25.2832C172.237 25.2051 172.364 25.1367 172.403 25.0781C172.442 25 172.52 24.8828 172.637 24.7266C172.676 24.7656 172.715 24.8047 172.754 24.8438C172.774 24.8633 172.803 24.8926 172.842 24.9316C173.233 24.3262 173.711 23.9453 174.278 23.7891C174.825 23.6133 175.43 23.5254 176.094 23.5254H176.123C176.338 23.3301 176.543 23.1445 176.739 22.9688C176.934 22.793 177.139 22.5977 177.354 22.3828C177.413 22.4414 177.461 22.5 177.5 22.5586C177.559 22.6172 177.618 22.666 177.676 22.7051C177.813 22.4316 177.989 22.2656 178.204 22.207C178.418 22.1484 178.643 22.1191 178.877 22.1191C179.131 22.0996 179.366 22.0703 179.58 22.0312C179.795 21.9727 179.971 21.8066 180.108 21.5332C180.147 21.5527 180.186 21.5625 180.225 21.5625C180.42 21.6016 180.635 21.6504 180.87 21.709C181.123 21.7676 181.358 21.7969 181.573 21.7969C181.807 21.7969 182.012 21.748 182.188 21.6504C182.383 21.5527 182.53 21.3672 182.627 21.0938C182.705 21.1914 182.774 21.2695 182.832 21.3281C182.911 21.3867 182.989 21.4453 183.067 21.5039C183.125 21.4453 183.184 21.3867 183.243 21.3281C183.301 21.2695 183.35 21.1914 183.389 21.0938C183.487 21.1133 183.614 21.1621 183.77 21.2402C183.809 21.416 183.907 21.5234 184.063 21.5625C184.219 21.6016 184.385 21.6113 184.561 21.5918C184.737 21.5723 184.893 21.543 185.03 21.5039C185.186 21.4453 185.284 21.416 185.323 21.416V21.3867C185.479 21.1328 185.655 21.0254 185.85 21.0645C186.065 21.084 186.27 21.1621 186.465 21.2988C186.739 20.8887 186.924 20.4297 187.022 19.9219C187.12 19.4141 187.217 18.916 187.315 18.4277C187.432 17.9395 187.598 17.4805 187.813 17.0508C188.028 16.6211 188.399 16.2793 188.926 16.0254C188.77 15.8105 188.575 15.6738 188.34 15.6152C188.106 15.5371 187.862 15.459 187.608 15.3809L187.579 15.3516C187.246 15.332 186.924 15.3516 186.612 15.4102C186.319 15.4688 186.026 15.5176 185.733 15.5566C185.44 15.5762 185.147 15.5566 184.854 15.498C184.58 15.4199 184.307 15.2441 184.034 14.9707C183.819 14.873 183.584 14.7168 183.33 14.502C183.077 14.2676 182.901 14.043 182.803 13.8281C182.803 13.7891 182.793 13.75 182.774 13.7109C182.774 13.6719 182.774 13.6328 182.774 13.5938C182.754 13.3398 182.745 13.1934 182.745 13.1543C182.745 13.0957 182.647 13.0078 182.452 12.8906C182.627 12.7148 182.754 12.5684 182.832 12.4512C182.93 12.334 183.116 12.2949 183.389 12.334H183.477C183.633 12.5098 183.76 12.7051 183.858 12.9199C183.975 13.1152 184.092 13.3008 184.209 13.4766L184.385 13.3008C184.424 13.3398 184.444 13.3789 184.444 13.418C184.463 13.4375 184.483 13.4668 184.502 13.5059C184.776 13.9551 185.098 14.1895 185.469 14.209C185.84 14.209 186.25 14.1699 186.7 14.0918C186.758 14.0723 186.885 14.0527 187.08 14.0332C187.295 13.9941 187.422 13.9746 187.461 13.9746C187.618 13.8965 187.764 13.8281 187.901 13.7695C188.057 13.6914 188.213 13.6328 188.37 13.5938C188.643 13.5352 188.916 13.457 189.19 13.3594C189.463 13.2422 189.6 13.0176 189.6 12.6855C189.6 12.6465 189.59 12.6172 189.571 12.5977C189.571 12.5586 189.561 12.5 189.541 12.4219C189.541 12.3438 189.541 12.2852 189.541 12.2461C189.561 12.0703 189.649 11.8457 189.805 11.5723C189.981 11.2988 190.157 11.0254 190.332 10.752C190.508 10.459 190.645 10.1855 190.743 9.93164C190.84 9.67773 190.83 9.49219 190.713 9.375C190.772 9.33594 190.821 9.25781 190.86 9.14062C190.918 9.02344 190.967 8.90625 191.006 8.78906C191.065 8.65234 191.123 8.53516 191.182 8.4375C191.241 8.32031 191.309 8.25195 191.387 8.23242C191.387 7.97852 191.426 7.74414 191.504 7.5293C191.602 7.29492 191.7 7.07031 191.797 6.85547C191.875 6.71875 191.934 6.57227 191.973 6.41602C192.012 6.25977 192.071 6.10352 192.149 5.94727L192.325 6.00586L192.442 5.88867C192.442 5.83008 192.432 5.77148 192.413 5.71289C192.413 5.6543 192.413 5.5957 192.413 5.53711C192.666 5.2832 192.813 5 192.852 4.6875C192.911 4.375 193.028 4.11133 193.204 3.89648V3.86719C193.418 3.75 193.594 3.65234 193.731 3.57422C193.868 3.49609 194.014 3.37891 194.17 3.22266C194.092 2.94922 194.141 2.75391 194.317 2.63672C194.512 2.5 194.668 2.32422 194.786 2.10938C194.961 2.28516 195.108 2.36328 195.225 2.34375C195.342 2.32422 195.45 2.27539 195.547 2.19727C195.664 2.09961 195.782 2.01172 195.899 1.93359C196.036 1.83594 196.192 1.79688 196.368 1.81641C196.504 1.85547 196.602 1.91406 196.661 1.99219C196.719 2.05078 196.797 2.11914 196.895 2.19727H197.95C197.969 2.19727 197.989 2.20703 198.008 2.22656C198.282 2.42187 198.438 2.64648 198.477 2.90039C198.516 3.1543 198.536 3.41797 198.536 3.69141C198.536 3.88672 198.584 4.04297 198.682 4.16016C198.78 4.25781 198.887 4.36523 199.004 4.48242L198.975 4.57031ZM197.657 5.83008C197.481 5.67383 197.354 5.49805 197.276 5.30273C197.217 5.10742 197.159 4.92188 197.1 4.74609C197.061 4.55078 197.002 4.375 196.924 4.21875C196.846 4.04297 196.719 3.90625 196.543 3.80859C196.172 3.80859 195.821 3.90625 195.489 4.10156C195.157 4.29687 194.952 4.59961 194.873 5.00977V5.06836C194.913 5.10742 194.952 5.17578 194.991 5.27344C195.03 5.37109 195.049 5.43945 195.049 5.47852C195.069 5.63477 195.01 5.77148 194.873 5.88867C194.756 5.98633 194.62 6.09375 194.463 6.21094C194.327 6.30859 194.209 6.41602 194.112 6.5332C194.034 6.65039 194.034 6.79688 194.112 6.97266L194.024 7.00195C193.633 7.19727 193.389 7.45117 193.291 7.76367C193.194 8.05664 193.125 8.37891 193.086 8.73047C193.067 9.08203 193.028 9.43359 192.969 9.78516C192.911 10.1367 192.745 10.4492 192.471 10.7227L192.442 10.752C192.422 10.8691 192.422 10.9961 192.442 11.1328C192.481 11.25 192.491 11.3672 192.471 11.4844C192.666 11.3086 192.862 11.2305 193.057 11.25C193.252 11.2695 193.428 11.3086 193.584 11.3672C193.76 11.4062 193.907 11.416 194.024 11.3965C194.141 11.377 194.229 11.2402 194.288 10.9863V10.957C194.366 10.8203 194.463 10.6738 194.58 10.5176C194.717 10.3613 194.854 10.2441 194.991 10.166C195.147 10.0684 195.254 9.99023 195.313 9.93164C195.391 9.87305 195.43 9.73633 195.43 9.52148C195.528 9.44336 195.655 9.29688 195.811 9.08203C195.987 8.86719 196.123 8.70117 196.221 8.58398C196.573 8.19336 196.895 7.7832 197.188 7.35352C197.5 6.92383 197.657 6.41602 197.657 5.83008ZM185.059 23.8477C184.825 23.8867 184.62 23.8965 184.444 23.877C184.288 23.8379 184.141 23.7988 184.004 23.7598C183.887 23.7012 183.76 23.6523 183.623 23.6133C183.506 23.5547 183.36 23.5254 183.184 23.5254L183.125 23.4961C183.086 23.6914 183.008 23.8086 182.891 23.8477C182.793 23.8672 182.676 23.8574 182.539 23.8184C182.403 23.7793 182.276 23.7402 182.159 23.7012C182.041 23.6426 181.944 23.6328 181.866 23.6719H181.836V23.7012C181.602 23.9551 181.329 24.0918 181.016 24.1113C180.704 24.1113 180.401 24.1016 180.108 24.082C179.815 24.043 179.551 24.0527 179.317 24.1113C179.102 24.1504 178.965 24.3359 178.907 24.668C178.868 24.8047 178.789 24.9023 178.672 24.9609C178.555 24.9805 178.448 24.9512 178.35 24.873C178.252 24.7949 178.155 24.7363 178.057 24.6973C178.018 24.9902 177.95 25.1758 177.852 25.2539C177.754 25.332 177.647 25.3516 177.53 25.3125C177.413 25.2734 177.286 25.2148 177.149 25.1367C177.012 25.0391 176.875 24.9707 176.739 24.9316C176.68 25.1465 176.563 25.3027 176.387 25.4004C176.211 25.4785 176.016 25.5273 175.801 25.5469C175.586 25.5664 175.362 25.5664 175.127 25.5469C174.893 25.5273 174.698 25.5078 174.541 25.4883V25.5176C173.936 26.0254 173.37 26.5625 172.842 27.1289C172.315 27.6953 171.827 28.3105 171.377 28.9746C171.455 29.0137 171.504 29.0527 171.524 29.0918C171.524 29.1504 171.534 29.2285 171.553 29.3262C171.553 29.4238 171.543 29.5215 171.524 29.6191L171.495 29.6777L172.696 30.6738L172.725 30.6445C173.135 30.5664 173.467 30.5957 173.721 30.7324C173.955 30.8887 174.219 31.0059 174.512 31.084C174.629 30.9082 174.746 30.791 174.864 30.7324C174.961 30.6934 175.069 30.6738 175.186 30.6738C175.303 30.6934 175.42 30.7227 175.538 30.7617C175.674 30.8008 175.821 30.8203 175.977 30.8203H176.065C176.026 30.4688 176.123 30.2637 176.358 30.2051C176.592 30.127 176.846 30.0879 177.12 30.0879C177.393 30.0879 177.647 30.0781 177.881 30.0586C178.135 30.0195 178.262 29.8535 178.262 29.5605C178.321 29.541 178.379 29.5312 178.438 29.5312C178.516 29.5117 178.575 29.4824 178.614 29.4434C178.75 29.541 178.858 29.5605 178.936 29.502C179.034 29.4434 179.121 29.3652 179.2 29.2676C179.278 29.1699 179.366 29.0723 179.463 28.9746C179.58 28.8574 179.746 28.7988 179.961 28.7988L179.991 28.7695C180.303 28.3789 180.577 28.0957 180.811 27.9199C181.065 27.7246 181.407 27.5098 181.836 27.2754C181.954 27.2363 182.1 27.168 182.276 27.0703C182.452 26.9727 182.579 26.8848 182.657 26.8066C182.774 26.4941 182.93 26.2207 183.125 25.9863C183.34 25.752 183.565 25.5273 183.799 25.3125C184.034 25.0977 184.258 24.873 184.473 24.6387C184.707 24.4043 184.903 24.1406 185.059 23.8477Z" fill="white"/>
</svg>
