<svg width="32" height="30" viewBox="0 0 32 30" fill="none" xmlns="http://www.w3.org/2000/svg">
<g clip-path="url(#clip0_294_1997)">
<path d="M2.45924 12.8492C2.7619 11.4766 3.9699 10.5 5.3651 10.5H8.93071L5.95398 24H3.71135C1.80699 24 0.392376 22.2227 0.805492 20.3492L2.45924 12.8492Z" fill="#707070"/>
<path d="M29.2359 6H15.8413L15.3885 8.1288C15.0943 9.51188 13.8814 10.5 12.4779 10.5H8.93066L10.6584 2.3716C10.9524 0.988305 12.1654 0 13.5691 0H26.8293C28.7244 0 30.137 1.76095 29.74 3.62844L29.2359 6Z" fill="#707070"/>
<path d="M23.0423 27.6284C22.7483 29.0117 21.5353 30 20.1316 30H8.35974C6.46465 30 5.05204 28.2391 5.44902 26.3716L5.95314 24H23.8136L23.0423 27.6284Z" fill="#707070"/>
<path d="M28.7459 12.75C30.6825 12.75 32.1035 14.5842 31.6338 16.4776L30.3315 21.7276C30.0002 23.0631 28.8096 24 27.4436 24H23.8143L25.1166 18.75H10.4189L11.1902 15.1216C11.4843 13.7383 12.6973 12.75 14.101 12.75H28.7459Z" fill="#707070"/>
</g>
<defs>
<clipPath id="clip0_294_1997">
<rect width="32" height="30" fill="white"/>
</clipPath>
</defs>
</svg>
