<svg width="103" height="30" viewBox="0 0 103 30" fill="none" xmlns="http://www.w3.org/2000/svg">
<g clip-path="url(#clip0_294_2020)">
<path d="M33.2471 4.71548H36.4431V3.91748H34.2105V0H33.2471V4.71548ZM41.9555 5.86957C42.4604 5.86957 42.899 5.75086 43.1847 5.48705C43.4372 5.25622 43.59 4.93306 43.59 4.45821V1.33215H42.7196V1.68828H42.7063C42.5003 1.40469 42.188 1.23982 41.7628 1.23982C40.8989 1.23982 40.2876 1.88613 40.2876 2.89518C40.2876 3.91742 41.0318 4.51098 41.7893 4.51098C42.2212 4.51098 42.4804 4.33951 42.6797 4.11527H42.6996V4.4846C42.6996 4.94626 42.4538 5.19027 41.9422 5.19027C41.5235 5.19027 41.3308 5.02539 41.2577 4.81435H40.3607C40.4537 5.47386 41.0252 5.86957 41.9555 5.86957ZM41.9422 3.79211C41.477 3.79211 41.1714 3.45577 41.1714 2.882C41.1714 2.31481 41.477 1.95868 41.9355 1.95868C42.4804 1.95868 42.7462 2.38077 42.7462 2.8754C42.7462 3.37662 42.5135 3.79211 41.9422 3.79211ZM47.8049 0.8046H48.7085V0H47.8049V0.8046ZM47.8049 4.71548H48.7085V1.33221H47.8049V4.71548ZM54.2865 4.81435C55.137 4.81435 55.7217 4.40545 55.7217 3.72616C55.7217 2.93476 55.0905 2.77647 54.519 2.65776C54.034 2.55883 53.5821 2.53245 53.5821 2.24227C53.5821 1.99825 53.8147 1.86635 54.1669 1.86635C54.5522 1.86635 54.7848 1.99825 54.8247 2.36098H55.642C55.5755 1.68169 55.0772 1.23982 54.1802 1.23982C53.4027 1.23982 52.7914 1.58935 52.7914 2.32141C52.7914 3.06006 53.3894 3.22493 54.0007 3.34365C54.4659 3.43598 54.8978 3.46895 54.8978 3.79211C54.8978 4.02953 54.6719 4.18122 54.2732 4.18122C53.8679 4.18122 53.5888 4.00975 53.529 3.62064H52.6918C52.7449 4.33951 53.2964 4.81435 54.2865 4.81435ZM59.5548 4.71543H60.4584V2.75009C60.4584 2.30163 60.7043 2.01144 61.0697 2.01144C61.4019 2.01144 61.5946 2.20929 61.5946 2.59181V4.71543H62.4983V2.75009C62.4983 2.30163 62.7309 2.01144 63.1096 2.01144C63.4418 2.01144 63.6345 2.20929 63.6345 2.59181V4.71543H64.5382V2.44012C64.5382 1.70148 64.1329 1.23982 63.4152 1.23982C62.9834 1.23982 62.6246 1.46405 62.392 1.83337H62.3787C62.2126 1.47724 61.8671 1.23982 61.4352 1.23982C60.9634 1.23982 60.6312 1.47724 60.4451 1.78721H60.4252V1.33215H59.5548V4.71543ZM59.0615 4.7155V1.33223H58.1578V3.28437C58.1578 3.73284 57.8986 4.0494 57.4734 4.0494C57.088 4.0494 56.9086 3.83176 56.9086 3.43606V1.33223H56.0116V3.58775C56.0116 4.3264 56.4368 4.80784 57.1943 4.80784C57.6727 4.80784 57.9385 4.62977 58.1711 4.3198H58.191V4.7155H59.0615ZM49.1996 5.8234H50.1033V4.33291H50.1166C50.3093 4.62309 50.6216 4.81435 51.1 4.81435C51.9771 4.81435 52.5751 4.12187 52.5751 3.02708C52.5751 1.97187 51.997 1.23982 51.0933 1.23982C50.6282 1.23982 50.3093 1.45745 50.09 1.75423H50.0701V1.33215H49.1996V5.8234ZM50.9073 4.06911C50.3691 4.06911 50.0833 3.66681 50.0833 3.05347C50.0833 2.44672 50.3093 1.96527 50.8741 1.96527C51.4322 1.96527 51.6581 2.41374 51.6581 3.05347C51.6581 3.69319 51.3657 4.06911 50.9073 4.06911ZM45.6953 4.81435C46.7518 4.81435 47.4761 4.03613 47.4761 3.02708C47.4761 2.01803 46.7518 1.23982 45.6953 1.23982C44.6388 1.23982 43.9145 2.01803 43.9145 3.02708C43.9145 4.03613 44.6388 4.81435 45.6953 4.81435ZM45.6953 4.12846C45.1371 4.12846 44.8315 3.6866 44.8315 3.02708C44.8315 2.36757 45.1371 1.91911 45.6953 1.91911C46.2468 1.91911 46.5591 2.36757 46.5591 3.02708C46.5591 3.6866 46.2468 4.12846 45.6953 4.12846ZM38.3441 4.81435C39.4007 4.81435 40.1249 4.03613 40.1249 3.02708C40.1249 2.01803 39.4007 1.23982 38.3441 1.23982C37.2877 1.23982 36.5634 2.01803 36.5634 3.02708C36.5634 4.03613 37.2877 4.81435 38.3441 4.81435ZM38.3441 4.12846C37.786 4.12846 37.4804 3.6866 37.4804 3.02708C37.4804 2.36757 37.786 1.91911 38.3441 1.91911C38.8956 1.91911 39.208 2.36757 39.208 3.02708C39.208 3.6866 38.8956 4.12846 38.3441 4.12846Z" fill="#707070"/>
<path d="M33.8984 26.0704H35.4363V22.9296H38.7349V21.6138H35.4363V19.7888H39.3288V18.4837H33.8984V26.0704ZM44.7987 26.2295C46.2517 26.2295 47.1533 25.3063 47.2487 24.1498H45.8593C45.7638 24.7651 45.3502 25.0729 44.7668 25.0729C43.8866 25.0729 43.4729 24.3832 43.4729 23.3539C43.4729 22.3035 43.9184 21.635 44.7881 21.635C45.3184 21.635 45.6896 21.9958 45.7851 22.4733H47.1957C47.0048 21.2955 46.1351 20.4784 44.7245 20.4784C43.0699 20.4784 42.0092 21.7305 42.0092 23.3539C42.0092 24.9774 43.0805 26.2295 44.7987 26.2295ZM51.2227 19.7782H52.6652V18.4837H51.2227V19.7782ZM51.2227 26.0704H52.6652V20.6271H51.2227V26.0704ZM60.9188 20.627H59.5081V26.0703H60.9506V22.9826C60.9506 22.2398 61.4173 21.7305 62.0537 21.7305C62.6582 21.7305 62.9976 22.1443 62.9976 22.7279V26.0703H64.4401V22.5157C64.4401 21.3273 63.687 20.4784 62.5627 20.4784C61.8203 20.4784 61.3218 20.7862 60.9506 21.3697H60.9188V20.627ZM70.7151 26.0704H72.1577V18.4837H70.7151V26.0704ZM83.0216 26.2295C84.7081 26.2295 85.8645 24.9774 85.8645 23.3539C85.8645 21.7305 84.7081 20.4784 83.0216 20.4784C81.3352 20.4784 80.1793 21.7305 80.1793 23.3539C80.1793 24.9774 81.3352 26.2295 83.0216 26.2295ZM83.0216 25.1259C82.1311 25.1259 81.6428 24.415 81.6428 23.3539C81.6428 22.2929 82.1311 21.5713 83.0216 21.5713C83.9023 21.5713 84.4004 22.2929 84.4004 23.3539C84.4004 24.415 83.9023 25.1259 83.0216 25.1259ZM94.8705 26.2295C96.557 26.2295 97.7128 24.9774 97.7128 23.3539C97.7128 21.7305 96.557 20.4784 94.8705 20.4784C93.1841 20.4784 92.0276 21.7305 92.0276 23.3539C92.0276 24.9774 93.1841 26.2295 94.8705 26.2295ZM94.8705 25.1259C93.9794 25.1259 93.4918 24.415 93.4918 23.3539C93.4918 22.2929 93.9794 21.5713 94.8705 21.5713C95.7506 21.5713 96.2493 22.2929 96.2493 23.3539C96.2493 24.415 95.7506 25.1259 94.8705 25.1259ZM33.8984 15.3577H36.7305C37.6851 15.3577 38.417 15.0965 38.9792 14.6369C39.7747 13.9788 40.1884 12.9133 40.1884 11.7016C40.1884 9.49743 38.8837 7.88878 36.8578 7.88878H33.8984V15.3577ZM35.4365 14.0519V9.18406H36.6669C37.9715 9.18406 38.6291 10.2182 38.6291 11.7016C38.6291 13.1849 38.067 14.0519 36.6244 14.0519H35.4365ZM46.5012 17.1126H47.9437V14.7518H47.965C48.2725 15.2114 48.7711 15.5143 49.5348 15.5143C50.9349 15.5143 51.8895 14.4175 51.8895 12.6835C51.8895 11.0121 50.9667 9.85261 49.5242 9.85261C48.7817 9.85261 48.2725 10.1973 47.9225 10.6674H47.8907V9.99889H46.5012V17.1126ZM49.2272 14.334C48.368 14.334 47.9119 13.6968 47.9119 12.7253C47.9119 11.7643 48.2725 11.0017 49.1741 11.0017C50.0651 11.0017 50.4258 11.712 50.4258 12.7253C50.4258 13.7385 49.9591 14.334 49.2272 14.334ZM59.3153 9.99889H57.9258V15.3577H59.3683V12.7462C59.3683 11.618 60.0472 11.127 60.9912 11.2211H61.023V9.97795C60.9382 9.94665 60.8427 9.93622 60.6836 9.93622C60.0472 9.93622 59.676 10.2496 59.3471 10.8555H59.3153V9.99889ZM65.0413 15.3577H66.4836V12.2448C66.4836 11.5344 66.876 11.0748 67.4595 11.0748C67.9901 11.0748 68.2978 11.3882 68.2978 11.9941V15.3577H69.7405V12.2448C69.7405 11.5344 70.1114 11.0748 70.7164 11.0748C71.2464 11.0748 71.5541 11.3882 71.5541 11.9941V15.3577H72.9967V11.7538C72.9967 10.5838 72.3494 9.85261 71.204 9.85261C70.5143 9.85261 69.9419 10.2078 69.5703 10.7928H69.5495C69.2842 10.2287 68.7326 9.85261 68.0429 9.85261C67.29 9.85261 66.7593 10.2287 66.4627 10.7197H66.4308V9.99889H65.0413V15.3577ZM80.8912 9.99889H79.4805V15.3577H80.9225V12.3179C80.9225 11.5867 81.3893 11.0853 82.0262 11.0853C82.6305 11.0853 82.9701 11.4926 82.9701 12.0672V15.3577H84.4128V11.8582C84.4128 10.6883 83.6592 9.85261 82.5353 9.85261C81.7928 9.85261 81.2941 10.1555 80.9225 10.7301H80.8912V9.99889ZM92.3262 15.5039C93.2173 15.5039 93.9207 15.1801 94.437 14.5324C94.9533 13.8848 95.2108 13.1083 95.2108 12.203C95.2108 11.4787 94.9957 10.9007 94.5641 10.4689C94.1326 10.0372 93.5811 9.8213 92.9096 9.8213C92.0393 9.8213 91.3398 10.1486 90.8092 10.8032C90.2786 11.4509 90.0139 12.2308 90.0139 13.1431C90.0139 13.8813 90.229 14.4593 90.6606 14.8772C91.0993 15.295 91.6541 15.5039 92.3262 15.5039ZM90.862 13.1327C90.862 12.4154 91.0393 11.7991 91.3927 11.2837C91.7532 10.7684 92.2519 10.5107 92.8881 10.5107C93.3692 10.5107 93.733 10.6709 93.9807 10.9912C94.2284 11.3116 94.3516 11.7155 94.3516 12.203C94.3516 12.9342 94.175 13.5505 93.8216 14.0519C93.4676 14.5533 92.98 14.804 92.3575 14.804C91.877 14.804 91.5054 14.6508 91.244 14.3444C90.9898 14.031 90.862 13.6271 90.862 13.1327ZM95.7864 10.6361H96.529L95.6372 15.1998L95.6065 15.3577H96.4442L97.336 10.794L97.3673 10.6361H98.3751L98.5127 9.95715H97.5048L97.6639 9.13195C97.7063 8.923 97.7773 8.77326 97.8764 8.68274C97.9755 8.59222 98.1554 8.54695 98.4175 8.54695C98.5375 8.54695 98.647 8.55041 98.7461 8.55739L98.8843 7.84704C98.7285 7.83315 98.5727 7.82617 98.4175 7.82617C97.9507 7.82617 97.5935 7.92367 97.3458 8.11867C97.0987 8.31367 96.9286 8.63748 96.8367 9.09015L96.6672 9.95715H95.9246L95.7864 10.6361ZM84.7915 10.939H85.5445V14.0833C85.5445 15.0965 86.3189 15.3681 87.0191 15.3681C87.5914 15.3681 87.9206 15.3472 87.9206 15.3472V14.3026C87.9206 14.3026 87.6768 14.3131 87.4963 14.3131C87.1781 14.3131 86.9552 14.1773 86.9552 13.7803V10.939H87.8887V9.99889H86.9552V8.3275H85.5445V9.99889H84.7915V10.939ZM76.3553 15.5143C77.7556 15.5143 78.6148 14.71 78.8162 13.7595H77.3951C77.236 14.1668 76.9068 14.4175 76.3449 14.4175C75.528 14.4175 75.0613 13.9057 74.955 13.0805H78.901C78.901 11.1688 77.9674 9.85261 76.2171 9.85261C74.6265 9.85261 73.5339 11.0853 73.5339 12.6731C73.5339 14.2713 74.5521 15.5143 76.3553 15.5143ZM76.2386 10.9495C76.8964 10.9495 77.3527 11.4195 77.3951 12.0985H74.9765C75.1037 11.3986 75.4746 10.9495 76.2386 10.9495ZM61.2897 10.939H62.0427V14.0833C62.0427 15.0965 62.8171 15.3681 63.5171 15.3681C64.0899 15.3681 64.4187 15.3472 64.4187 15.3472V14.3026C64.4187 14.3026 64.1748 14.3131 63.9945 14.3131C63.6763 14.3131 63.4535 14.1773 63.4535 13.7803V10.939H64.3869V9.99889H63.4535V8.3275H62.0427V9.99889H61.2897V10.939ZM55.8985 15.3577H57.288V15.3055C57.1607 15.2115 57.0971 14.9712 57.0971 14.5638V11.8374C57.0971 10.5839 56.4395 9.86311 54.806 9.86311C53.2149 9.86311 52.5043 10.6884 52.4618 11.6285H53.7453C53.7877 11.1167 54.1166 10.8764 54.7954 10.8764C55.4 10.8764 55.7076 11.1271 55.7076 11.5136C55.7076 11.921 55.2939 11.9941 54.3923 12.1194C53.1831 12.2866 52.2073 12.6626 52.2073 13.8431C52.2073 14.9085 52.9922 15.483 54.1059 15.483C55.0393 15.483 55.4318 15.1697 55.7076 14.7623H55.7288C55.7606 15.0026 55.8136 15.2533 55.8985 15.3577ZM54.4559 14.4907C53.9468 14.4907 53.6074 14.3131 53.6074 13.8117C53.6074 13.3103 53.9787 13.1432 54.7318 12.976C55.0924 12.8925 55.4848 12.8088 55.7394 12.6626V13.467C55.7394 13.9893 55.2833 14.4907 54.4559 14.4907ZM43.3763 15.5143C44.7763 15.5143 45.6355 14.71 45.837 13.7595H44.4157C44.2566 14.1668 43.9278 14.4175 43.3656 14.4175C42.5489 14.4175 42.0822 13.9057 41.9761 13.0805H45.9219C45.9219 11.1688 44.9885 9.85261 43.2383 9.85261C41.6473 9.85261 40.5548 11.0853 40.5548 12.6731C40.5548 14.2713 41.573 15.5143 43.3763 15.5143ZM43.2596 10.9495C43.9172 10.9495 44.3733 11.4195 44.4157 12.0985H41.9973C42.1246 11.3986 42.4959 10.9495 43.2596 10.9495ZM100.501 26.2295C101.859 26.2295 102.792 25.5716 102.792 24.4786C102.792 23.2054 101.785 22.9507 100.873 22.7597C100.098 22.6006 99.3764 22.5581 99.3764 22.0912C99.3764 21.6987 99.748 21.4865 100.31 21.4865C100.925 21.4865 101.296 21.6987 101.36 22.2823H102.665C102.558 21.1893 101.763 20.4784 100.331 20.4784C99.0903 20.4784 98.1144 21.0408 98.1144 22.2186C98.1144 23.407 99.0694 23.6722 100.045 23.8633C100.787 24.0118 101.477 24.0648 101.477 24.5848C101.477 24.9668 101.116 25.2108 100.48 25.2108C99.8328 25.2108 99.3875 24.9349 99.2917 24.3089H97.9553C98.0401 25.4655 98.9208 26.2295 100.501 26.2295ZM88.8437 27.9271C89.6495 27.9271 90.3496 27.7362 90.8059 27.3118C91.2088 26.9403 91.4526 26.4204 91.4526 25.6565V20.627H90.0634V21.2H90.0419C89.7134 20.7437 89.2147 20.4784 88.536 20.4784C87.1573 20.4784 86.1814 21.5183 86.1814 23.1418C86.1814 24.7864 87.3691 25.7414 88.5784 25.7414C89.2675 25.7414 89.6814 25.4655 89.9995 25.1047H90.0315V25.6989C90.0315 26.4417 89.639 26.8342 88.8222 26.8342C88.154 26.8342 87.8463 26.569 87.7296 26.2295H86.2981C86.4467 27.2905 87.3587 27.9271 88.8437 27.9271ZM88.8222 24.5848C88.0797 24.5848 87.5921 24.0436 87.5921 23.1205C87.5921 22.208 88.0797 21.635 88.8118 21.635C89.6814 21.635 90.1058 22.3141 90.1058 23.1099C90.1058 23.9163 89.7342 24.5848 88.8222 24.5848ZM74.8286 26.0704H79.9303V24.7865H76.3664V18.4837H74.8286V26.0704ZM68.6668 26.0703H70.056V26.0173C69.9289 25.9217 69.865 25.6777 69.865 25.2639V22.4945C69.865 21.2212 69.2079 20.489 67.5742 20.489C65.9836 20.489 65.2724 21.3273 65.23 22.2823H66.5136C66.556 21.7623 66.8845 21.5183 67.5638 21.5183C68.1681 21.5183 68.4758 21.773 68.4758 22.1655C68.4758 22.5794 68.0618 22.6536 67.1603 22.781C65.9516 22.9507 64.9757 23.3327 64.9757 24.5317C64.9757 25.614 65.7606 26.1977 66.8741 26.1977C67.8076 26.1977 68.2 25.8793 68.4758 25.4655H68.4967C68.5286 25.7095 68.5821 25.9642 68.6668 26.0703ZM67.2242 25.1896C66.715 25.1896 66.3754 25.0092 66.3754 24.4999C66.3754 23.9906 66.747 23.8208 67.4999 23.651C67.8604 23.5661 68.2528 23.4813 68.5077 23.3327V24.1498C68.5077 24.6803 68.0514 25.1896 67.2242 25.1896ZM56.0836 26.2295C57.77 26.2295 58.9261 24.9774 58.9261 23.3539C58.9261 21.7305 57.77 20.4784 56.0836 20.4784C54.3972 20.4784 53.2411 21.7305 53.2411 23.3539C53.2411 24.9774 54.3972 26.2295 56.0836 26.2295ZM56.0836 25.1259C55.1926 25.1259 54.7048 24.415 54.7048 23.3539C54.7048 22.2929 55.1926 21.5713 56.0836 21.5713C56.9639 21.5713 57.4624 22.2929 57.4624 23.3539C57.4624 24.415 56.9639 25.1259 56.0836 25.1259ZM47.4713 21.582H48.2243V24.7758C48.2243 25.805 48.9986 26.0809 49.6986 26.0809C50.2713 26.0809 50.6001 26.0597 50.6001 26.0597V24.9986C50.6001 24.9986 50.3562 25.0093 50.1759 25.0093C49.8577 25.0093 49.6349 24.8713 49.6349 24.4681V21.582H50.5683V20.627H49.6349V18.9293H48.2243V20.627H47.4713V21.582ZM39.9909 26.0704H41.4333V20.6271H39.9909V26.0704ZM39.9909 19.7782H41.4333V18.4837H39.9909V19.7782Z" fill="#707070"/>
<path d="M9.77848 18.9335V23.4988H2.60759V0.0205078H0V26.1075H9.77848V29.3683H17.9272C22.4277 29.3683 26.076 25.7185 26.076 21.2162C26.076 19.586 25.596 18.0688 24.7722 16.7949V6.54224H14.3418V9.15094H22.8165V13.064H14.3418V18.9335H16.9494V15.6727H17.9272C20.9875 15.6727 23.4684 18.1546 23.4684 21.2162C23.4684 24.2777 20.9875 26.7596 17.9272 26.7596H12.3861V21.5422H14.3418V18.9335H9.77848V2.62921H24.7722V0.0205078H7.17089V18.9335H9.77848Z" fill="#707070"/>
</g>
<defs>
<clipPath id="clip0_294_2020">
<rect width="103" height="30" fill="white"/>
</clipPath>
</defs>
</svg>
