<svg width="123" height="30" viewBox="0 0 123 30" fill="none" xmlns="http://www.w3.org/2000/svg">
<g clip-path="url(#clip0_294_2002)">
<path d="M36.0781 21.185H44.8287V18.5509H39.1883V8.62891H36.0781V21.185Z" fill="#707070"/>
<path d="M50.0128 19.4282C48.7652 19.4282 48.1151 18.3395 48.1151 16.7063C48.1151 15.0731 48.7652 13.9668 50.0128 13.9668C51.2604 13.9668 51.9281 15.0731 51.9281 16.7063C51.9281 18.3395 51.2604 19.4282 50.0128 19.4282ZM50.0304 21.4653C52.9297 21.4653 54.8274 19.4107 54.8274 16.7063C54.8274 14.0019 52.9297 11.9473 50.0304 11.9473C47.1487 11.9473 45.2158 14.0019 45.2158 16.7063C45.2158 19.4107 47.1487 21.4653 50.0304 21.4653Z" fill="#707070"/>
<path d="M59.8459 24.2926C61.1813 24.2926 62.3586 23.9941 63.1493 23.2916C63.8698 22.6419 64.3442 21.6585 64.3442 20.3063V12.1931H61.6031V13.159H61.5679C61.0408 12.4038 60.2325 11.9297 59.0376 11.9297C56.8061 11.9297 55.2598 13.7912 55.2598 16.4253C55.2598 19.1824 57.1399 20.6926 59.1606 20.6926C60.2501 20.6926 60.9353 20.2536 61.4625 19.6565H61.5328V20.5521C61.5328 21.6409 61.0232 22.2731 59.8108 22.2731C58.8619 22.2731 58.3875 21.8692 58.2293 21.3951H55.4531C55.7342 23.2741 57.3683 24.2926 59.8459 24.2926ZM59.8283 18.5677C58.7565 18.5677 58.0536 17.6897 58.0536 16.3375C58.0536 14.9677 58.7565 14.0897 59.8283 14.0897C61.0232 14.0897 61.6558 15.1082 61.6558 16.3199C61.6558 17.5843 61.0759 18.5677 59.8283 18.5677Z" fill="#707070"/>
<path d="M69.9806 19.4282C68.733 19.4282 68.0829 18.3395 68.0829 16.7063C68.0829 15.0731 68.733 13.9668 69.9806 13.9668C71.2282 13.9668 71.8959 15.0731 71.8959 16.7063C71.8959 18.3395 71.2282 19.4282 69.9806 19.4282ZM69.9982 21.4653C72.8974 21.4653 74.7948 19.4107 74.7948 16.7063C74.7948 14.0019 72.8974 11.9473 69.9982 11.9473C67.1164 11.9473 65.1836 14.0019 65.1836 16.7063C65.1836 19.4107 67.1164 21.4653 69.9982 21.4653Z" fill="#707070"/>
<path d="M75.6318 21.185H78.496V12.1938H75.6318V21.185ZM75.6318 10.947H78.496V8.62891H75.6318V10.947Z" fill="#707070"/>
<path d="M79.7383 24.1521H82.6024V20.2536H82.6376C83.1999 21.0087 84.0257 21.4653 85.1854 21.4653C87.54 21.4653 89.1039 19.6038 89.1039 16.6887C89.1039 13.9843 87.6454 11.9297 85.2557 11.9297C84.0257 11.9297 83.1471 12.4741 82.5321 13.2819H82.4794V12.1931H79.7383V24.1521ZM84.4474 19.2526C83.2174 19.2526 82.5146 18.2516 82.5146 16.7941C82.5146 15.3365 83.1471 14.2302 84.3947 14.2302C85.6247 14.2302 86.2046 15.2487 86.2046 16.7941C86.2046 18.3219 85.5369 19.2526 84.4474 19.2526Z" fill="#707070"/>
<path d="M93.7669 21.4653C96.1215 21.4653 97.861 20.4468 97.861 18.4799C97.861 16.1794 95.9985 15.7755 94.417 15.5121C93.2749 15.3014 92.2557 15.2136 92.2557 14.5814C92.2557 14.0194 92.8005 13.756 93.5033 13.756C94.294 13.756 94.8387 14.0019 94.9442 14.8097H97.5799C97.4393 13.036 96.0687 11.9297 93.5209 11.9297C91.3947 11.9297 89.6376 12.9131 89.6376 14.8097C89.6376 16.917 91.3069 17.3385 92.8707 17.6019C94.0656 17.8126 95.155 17.9004 95.155 18.7082C95.155 19.2877 94.6103 19.6038 93.7493 19.6038C92.8005 19.6038 92.203 19.1648 92.0976 18.2692H89.3916C89.4795 20.2536 91.1312 21.4653 93.7669 21.4653Z" fill="#707070"/>
<path d="M101.752 21.448C102.999 21.448 103.79 20.9563 104.44 20.0782H104.493V21.1846H107.234V12.1934H104.37V17.2158C104.37 18.287 103.772 19.0246 102.788 19.0246C101.875 19.0246 101.435 18.4802 101.435 17.4968V12.1934H98.5889V18.0938C98.5889 20.0958 99.6783 21.448 101.752 21.448Z" fill="#707070"/>
<path d="M108.48 21.1843H111.345V16.1443C111.345 15.0731 111.872 14.318 112.768 14.318C113.629 14.318 114.033 14.8799 114.033 15.8458V21.1843H116.897V16.1443C116.897 15.0731 117.407 14.318 118.32 14.318C119.181 14.318 119.586 14.8799 119.586 15.8458V21.1843H122.45V15.3365C122.45 13.317 121.431 11.9297 119.392 11.9297C118.233 11.9297 117.266 12.4214 116.563 13.5102H116.528C116.071 12.5443 115.175 11.9297 113.998 11.9297C112.698 11.9297 111.837 12.5443 111.274 13.4751H111.222V12.1931H108.48V21.1843Z" fill="#707070"/>
<path d="M18.6037 1.4469L15.7242 0.675781L13.2976 9.72668L11.1068 1.55547L8.22721 2.32659L10.5942 11.155L4.69855 5.26284L2.59057 7.36956L9.05739 13.8326L1.004 11.676L0.232422 14.5538L9.03177 16.9101C8.93102 16.4759 8.87772 16.0234 8.87772 15.5585C8.87772 12.2675 11.5471 9.59973 14.84 9.59973C18.1329 9.59973 20.8023 12.2675 20.8023 15.5585C20.8023 16.0204 20.7496 16.4701 20.6501 16.9018L28.6471 19.0433L29.4186 16.1655L20.5843 13.7997L28.6383 11.643L27.8667 8.76515L19.0327 11.1308L24.9283 5.23865L22.8204 3.13192L16.4432 9.50527L18.6037 1.4469Z" fill="#707070"/>
<path d="M20.6424 16.9346C20.3955 17.9777 19.8743 18.9148 19.1592 19.6656L24.9526 25.4557L27.0606 23.3489L20.6424 16.9346Z" fill="#707070"/>
<path d="M19.1007 19.7266C18.3769 20.4654 17.4623 21.0167 16.4365 21.3008L18.5447 29.1638L21.4242 28.3926L19.1007 19.7266Z" fill="#707070"/>
<path d="M16.3287 21.3298C15.8528 21.4521 15.354 21.5171 14.84 21.5171C14.2893 21.5171 13.756 21.4424 13.2497 21.3027L11.1396 29.1728L14.0192 29.9439L16.3287 21.3298Z" fill="#707070"/>
<path d="M13.1478 21.2733C12.1378 20.9751 11.2394 20.4167 10.5304 19.6758L4.72266 25.48L6.83063 27.5868L13.1478 21.2733Z" fill="#707070"/>
<path d="M10.4818 19.625C9.78498 18.8793 9.27739 17.9548 9.03578 16.9277L1.0127 19.0762L1.78426 21.9541L10.4818 19.625Z" fill="#707070"/>
</g>
<defs>
<clipPath id="clip0_294_2002">
<rect width="123" height="30" fill="white"/>
</clipPath>
</defs>
</svg>
