<svg width="22" height="22" viewBox="0 0 22 22" fill="none" xmlns="http://www.w3.org/2000/svg">
<path d="M0.649902 0.650005H1.95607C2.20208 0.650005 2.32509 0.650005 2.42409 0.695246C2.51132 0.735113 2.58525 0.79923 2.63705 0.879951C2.69584 0.971549 2.71323 1.09332 2.74803 1.33687L3.22133 4.65001M3.22133 4.65001L4.27322 12.3814C4.40671 13.3625 4.47345 13.8531 4.708 14.2224C4.91468 14.5477 5.21099 14.8064 5.56126 14.9674C5.95877 15.15 6.45385 15.15 7.44401 15.15H16.0019C16.9444 15.15 17.4157 15.15 17.8009 14.9804C18.1405 14.8309 18.4318 14.5898 18.6422 14.2842C18.8808 13.9376 18.969 13.4747 19.1454 12.5488L20.469 5.5997C20.5311 5.27381 20.5621 5.11087 20.5171 4.98351C20.4777 4.87178 20.3998 4.77769 20.2975 4.71802C20.1807 4.65001 20.0149 4.65001 19.6831 4.65001H3.22133ZM8.6499 19.65C8.6499 20.2023 8.20219 20.65 7.6499 20.65C7.09762 20.65 6.6499 20.2023 6.6499 19.65C6.6499 19.0977 7.09762 18.65 7.6499 18.65C8.20219 18.65 8.6499 19.0977 8.6499 19.65ZM16.6499 19.65C16.6499 20.2023 16.2022 20.65 15.6499 20.65C15.0976 20.65 14.6499 20.2023 14.6499 19.65C14.6499 19.0977 15.0976 18.65 15.6499 18.65C16.2022 18.65 16.6499 19.0977 16.6499 19.65Z" stroke="white" stroke-width="1.3" stroke-linecap="round" stroke-linejoin="round"/>
</svg>
