<svg width="32" height="32" viewBox="0 0 32 32" fill="none" xmlns="http://www.w3.org/2000/svg">
<rect width="32" height="32" fill="white"/>
<g clip-path="url(#clip0_223_3119)">
<path fill-rule="evenodd" clip-rule="evenodd" d="M8 13.75V20.95H10.2222C10.4557 20.95 10.6868 20.9966 10.9026 21.087C11.1182 21.1775 11.3142 21.31 11.4793 21.4772C11.6444 21.6444 11.7753 21.8428 11.8647 22.0612C11.954 22.2796 12 22.5136 12 22.75V25H17.3333L24 18.25V11.05H21.7778C21.5443 11.05 21.3132 11.0034 21.0974 10.913C20.8818 10.8225 20.6858 10.6899 20.5207 10.5228C20.3556 10.3556 20.2247 10.1572 20.1353 9.93883C20.046 9.72045 20 9.48638 20 9.25V7H14.6667L8 13.75ZM15.5556 20.5H12.4444V15.55L16.4444 11.5H19.5556V16.45L15.5556 20.5Z" fill="#191919"/>
</g>
<defs>
<clipPath id="clip0_223_3119">
<rect width="16" height="18" fill="white" transform="translate(8 7)"/>
</clipPath>
</defs>
</svg>
