<svg width="22" height="22" viewBox="0 0 22 22" fill="none" xmlns="http://www.w3.org/2000/svg">
<path d="M18.3618 8.73679L11.4868 15.6118C11.4229 15.6757 11.3471 15.7264 11.2637 15.761C11.1802 15.7956 11.0907 15.8134 11.0004 15.8134C10.91 15.8134 10.8206 15.7956 10.7371 15.761C10.6536 15.7264 10.5778 15.6757 10.514 15.6118L3.63898 8.73679C3.50997 8.60779 3.4375 8.43282 3.4375 8.25038C3.4375 8.06794 3.50997 7.89298 3.63898 7.76398C3.76798 7.63497 3.94294 7.5625 4.12538 7.5625C4.30782 7.5625 4.48279 7.63497 4.61179 7.76398L11.0004 14.1534L17.389 7.76398C17.4529 7.7001 17.5287 7.64943 17.6121 7.61486C17.6956 7.58029 17.785 7.5625 17.8754 7.5625C17.9657 7.5625 18.0552 7.58029 18.1386 7.61486C18.2221 7.64943 18.2979 7.7001 18.3618 7.76398C18.4257 7.82785 18.4763 7.90368 18.5109 7.98714C18.5455 8.0706 18.5633 8.16005 18.5633 8.25038C18.5633 8.34072 18.5455 8.43017 18.5109 8.51362C18.4763 8.59708 18.4257 8.67291 18.3618 8.73679Z" fill="white"/>
</svg>
