<svg width="20" height="20" viewBox="0 0 20 20" fill="none" xmlns="http://www.w3.org/2000/svg">
<path d="M5 18.333H1.66699V7.08301H5V18.333ZM10.833 7.08301V7.78418C11.3543 7.59993 11.9156 7.5 12.5 7.5C15.2614 7.5 17.5 9.73858 17.5 12.5V18.333H14.167V12.5C14.167 11.5795 13.4205 10.833 12.5 10.833C11.5795 10.833 10.833 11.5795 10.833 12.5V18.333H7.5V7.08301H10.833ZM3.33301 1.66699C4.25337 1.66699 4.99982 2.41268 5 3.33301C5 4.25348 4.25348 5 3.33301 5C2.41268 4.99982 1.66699 4.25337 1.66699 3.33301C1.66717 2.41279 2.41279 1.66717 3.33301 1.66699Z" fill="#8D8D8D"/>
</svg>
