<svg width="121" height="30" viewBox="0 0 121 30" fill="none" xmlns="http://www.w3.org/2000/svg">
<path d="M19.4619 15.0199C20.4494 14.1944 21.0773 12.9545 21.0773 11.5682C21.0773 10.182 20.4494 8.94211 19.4619 8.11663C19.5751 8.06192 19.684 8.00255 19.7877 7.93821C20.4427 7.53167 21.2158 7.29688 22.0438 7.29688C24.4069 7.29688 26.3226 9.20926 26.3226 11.5682C26.3226 13.9272 24.4069 15.8396 22.0438 15.8396C21.2158 15.8396 20.4427 15.6048 19.7877 15.1983C19.684 15.1339 19.5751 15.0746 19.4619 15.0199Z" fill="#707070"/>
<path d="M18.2741 12.2404C18.7158 11.0326 18.6386 9.64546 17.9442 8.44491C17.2499 7.24435 16.085 6.48402 14.8164 6.26201C14.887 6.15817 14.9516 6.05239 15.0091 5.94488C15.3728 5.26589 15.9247 4.67669 16.6418 4.2634C18.6883 3.08389 21.3052 3.78386 22.4868 5.82682C23.6683 7.86979 22.9671 10.4821 20.9206 11.6616C20.2035 12.0749 19.4164 12.2574 18.6455 12.2323C18.5235 12.2283 18.3994 12.2313 18.2741 12.2404Z" fill="#707070"/>
<path d="M15.8521 10.4272C15.6297 9.16084 14.868 7.99802 13.6654 7.30488C12.4627 6.61174 11.0731 6.53469 9.86328 6.97562C9.87246 6.85045 9.87538 6.72661 9.87135 6.60478C9.8462 5.83525 10.029 5.04951 10.4431 4.33366C11.6247 2.2907 14.2415 1.59073 16.2881 2.77023C18.3345 3.94974 19.0358 6.56207 17.8542 8.60505C17.4402 9.32087 16.85 9.87184 16.1698 10.2348C16.0621 10.2923 15.9561 10.3567 15.8521 10.4272Z" fill="#707070"/>
<path d="M12.8468 10.0646C12.0199 9.07887 10.7779 8.45203 9.38916 8.45203C8.00043 8.45203 6.75843 9.07887 5.93153 10.0646C5.87676 9.95163 5.81727 9.84292 5.75279 9.73934C5.34555 9.0855 5.11035 8.31379 5.11035 7.4872C5.11035 5.12818 7.02604 3.21582 9.38916 3.21582C11.7523 3.21582 13.668 5.12818 13.668 7.4872C13.668 8.31379 13.4328 9.0855 13.0256 9.73934C12.961 9.84292 12.9016 9.95163 12.8468 10.0646Z" fill="#707070"/>
<path d="M10.062 11.251C8.85213 10.8101 7.4625 10.8872 6.25985 11.5803C5.0572 12.2734 4.29554 13.4362 4.07315 14.7026C3.96913 14.6321 3.86315 14.5677 3.75546 14.5102C3.07529 14.1472 2.48505 13.5963 2.07104 12.8804C0.889473 10.8374 1.59066 8.22515 3.63719 7.04563C5.68372 5.86612 8.30059 6.56609 9.4822 8.60907C9.89621 9.32489 10.0791 10.1107 10.0538 10.8801C10.0499 11.002 10.0528 11.1258 10.062 11.251Z" fill="#707070"/>
<path d="M8.24437 13.6683C6.97574 13.8903 5.8109 14.6506 5.11655 15.8512C4.4222 17.0517 4.34502 18.4389 4.78672 19.6467C4.66132 19.6375 4.53725 19.6346 4.41519 19.6385C3.64433 19.6637 2.85721 19.4812 2.14013 19.0679C0.0935963 17.8884 -0.607596 15.2761 0.573967 13.2331C1.75553 11.1901 4.37241 10.4901 6.41894 11.6697C7.13603 12.083 7.68794 12.6721 8.05156 13.3511C8.10913 13.4586 8.17375 13.5644 8.24437 13.6683Z" fill="#707070"/>
<path d="M7.88122 16.6694C6.89376 17.4949 6.2658 18.7347 6.2658 20.121C6.2658 21.5073 6.89376 22.7472 7.88122 23.5726C7.76805 23.6273 7.65914 23.6867 7.55543 23.7511C6.90044 24.1576 6.12735 24.3923 5.29932 24.3923C2.9362 24.3923 1.02051 22.48 1.02051 20.121C1.02051 17.762 2.9362 15.8496 5.29932 15.8496C6.12735 15.8496 6.90044 16.0844 7.55543 16.491C7.65914 16.5553 7.76805 16.6147 7.88122 16.6694Z" fill="#707070"/>
<path d="M9.06896 19.4492C8.62719 20.657 8.70438 22.0441 9.39874 23.2447C10.0931 24.4453 11.258 25.2056 12.5266 25.4276C12.4559 25.5315 12.3914 25.6373 12.3338 25.7448C11.9702 26.4237 11.4183 27.0129 10.7012 27.4262C8.65463 28.6058 6.03776 27.9057 4.8562 25.8628C3.67463 23.8198 4.37583 21.2075 6.42235 20.028C7.13944 19.6147 7.92657 19.4322 8.69742 19.4574C8.81944 19.4613 8.94353 19.4584 9.06896 19.4492Z" fill="#707070"/>
<path d="M11.4901 21.2637C11.7125 22.5301 12.4742 23.6929 13.6768 24.386C14.8794 25.0791 16.2691 25.1562 17.479 24.7153C17.4698 24.8405 17.4669 24.9643 17.4708 25.0861C17.4961 25.8556 17.3132 26.6414 16.8992 27.3572C15.7176 29.4002 13.1007 30.1002 11.0542 28.9206C9.00763 27.7411 8.30646 25.1289 9.48807 23.0859C9.90208 22.37 10.4923 21.8191 11.1724 21.4561C11.2801 21.3986 11.3861 21.3341 11.4901 21.2637Z" fill="#707070"/>
<path d="M14.4959 21.627C15.3229 22.6127 16.5649 23.2395 17.9536 23.2395C19.3424 23.2395 20.5844 22.6127 21.4113 21.627C21.466 21.7399 21.5255 21.8486 21.59 21.9521C21.9972 22.606 22.2324 23.3778 22.2324 24.2043C22.2324 26.5634 20.3168 28.4757 17.9536 28.4757C15.5905 28.4757 13.6748 26.5634 13.6748 24.2043C13.6748 23.3778 13.91 22.606 14.3172 21.9521C14.3817 21.8486 14.4412 21.7399 14.4959 21.627Z" fill="#707070"/>
<path d="M17.2812 20.4408C18.4911 20.8818 19.8807 20.8047 21.0833 20.1116C22.286 19.4185 23.0477 18.2557 23.27 16.9893C23.374 17.0597 23.48 17.1242 23.5877 17.1817C24.2679 17.5447 24.8581 18.0956 25.2722 18.8114C26.4538 20.8544 25.7525 23.4667 23.706 24.6463C21.6595 25.8258 19.0426 25.1258 17.861 23.0828C17.447 22.367 17.2642 21.5812 17.2893 20.8117C17.2934 20.6899 17.2904 20.566 17.2812 20.4408Z" fill="#707070"/>
<path d="M22.229 15.8356C22.2281 15.8371 22.2272 15.8386 22.2264 15.8401C21.5321 17.0406 20.3672 17.801 19.0986 18.023C19.1692 18.1269 19.2338 18.2327 19.2914 18.3401C19.655 19.0191 20.2069 19.6083 20.924 20.0216C22.9706 21.2012 25.5874 20.5011 26.769 18.4582C27.7819 16.7067 27.4111 14.5368 25.9951 13.21C25.373 14.7003 23.9295 15.7633 22.229 15.8356Z" fill="#707070"/>
<path d="M37.3761 7.76904V20.5261H34.5439V7.76904H37.3761ZM34.9929 20.5261L35.0447 18.0264H42.3842V20.5261H34.9929ZM42.8275 16.199C42.8275 15.2911 43.0174 14.4981 43.3974 13.82C43.7773 13.1304 44.3126 12.596 45.0034 12.2168C45.6941 11.8375 46.5 11.6479 47.4211 11.6479C48.3421 11.6479 49.1422 11.8375 49.8215 12.2168C50.5123 12.596 51.0476 13.1304 51.4276 13.82C51.8075 14.4981 51.9974 15.2911 51.9974 16.199C51.9974 17.107 51.8075 17.9 51.4276 18.5781C51.0476 19.2562 50.5123 19.7848 49.8215 20.1641C49.1422 20.5433 48.3421 20.733 47.4211 20.733C46.5 20.733 45.6941 20.5433 45.0034 20.1641C44.3126 19.7848 43.7773 19.2562 43.3974 18.5781C43.0174 17.9 42.8275 17.107 42.8275 16.199ZM45.5042 16.1818C45.5042 16.6186 45.5848 17.0036 45.7459 17.3369C45.9071 17.6587 46.1316 17.9115 46.4194 18.0954C46.7073 18.2678 47.0412 18.354 47.4211 18.354C47.801 18.354 48.1349 18.2678 48.4227 18.0954C48.7105 17.9115 48.9293 17.6587 49.079 17.3369C49.2401 17.0036 49.3207 16.6186 49.3207 16.1818C49.3207 15.7451 49.2401 15.3658 49.079 15.044C48.9293 14.7222 48.7105 14.4751 48.4227 14.3027C48.1349 14.1188 47.801 14.0269 47.4211 14.0269C47.0412 14.0269 46.7073 14.1188 46.4194 14.3027C46.1316 14.4751 45.9071 14.7222 45.7459 15.044C45.5848 15.3658 45.5042 15.7451 45.5042 16.1818ZM52.598 16.0612C52.598 15.1762 52.7764 14.4005 53.1333 13.7338C53.4903 13.0673 53.9796 12.5501 54.6012 12.1823C55.2229 11.803 55.9367 11.6134 56.7426 11.6134C57.4219 11.6134 58.0206 11.7513 58.5386 12.0271C59.0683 12.303 59.4251 12.665 59.6094 13.1132L59.3503 13.2856L59.5576 11.9065H61.958V19.9745C61.958 20.9858 61.7622 21.8593 61.3708 22.5949C60.9794 23.3419 60.421 23.9165 59.6957 24.3188C58.9819 24.721 58.1299 24.9222 57.1398 24.9222C56.3109 24.9222 55.5626 24.7555 54.8948 24.4222C54.2386 24.1004 53.7032 23.6407 53.2887 23.0431C52.8858 22.4454 52.644 21.7559 52.5635 20.9743H55.2575C55.2805 21.4685 55.4762 21.8478 55.8446 22.1122C56.2245 22.3765 56.7081 22.5087 57.2953 22.5087C57.9515 22.5087 58.4581 22.3248 58.815 21.957C59.1719 21.6007 59.3503 21.1238 59.3503 20.5261V18.6987L59.5921 18.9229C59.4079 19.3711 59.051 19.7331 58.5214 20.009C57.9918 20.2848 57.3816 20.4227 56.6908 20.4227C55.8964 20.4227 55.1884 20.2388 54.5667 19.871C53.9565 19.5033 53.4729 18.9919 53.116 18.3368C52.7707 17.6817 52.598 16.9231 52.598 16.0612ZM55.292 15.9922C55.292 16.406 55.3783 16.7737 55.551 17.0955C55.7238 17.4173 55.954 17.6701 56.2419 17.854C56.5296 18.0264 56.8462 18.1126 57.1917 18.1126C57.6061 18.1126 57.9688 18.0264 58.2796 17.854C58.602 17.6701 58.8495 17.4173 59.0222 17.0955C59.2064 16.7737 59.2985 16.406 59.2985 15.9922C59.2985 15.567 59.2064 15.2049 59.0222 14.9061C58.838 14.5958 58.5847 14.3544 58.2623 14.1821C57.9515 14.0097 57.5888 13.9235 57.1743 13.9235C56.829 13.9235 56.5124 14.0097 56.2245 14.1821C55.9367 14.3544 55.7065 14.5958 55.5338 14.9061C55.3726 15.2165 55.292 15.5784 55.292 15.9922ZM62.9058 16.199C62.9058 15.2911 63.0958 14.4981 63.4757 13.82C63.8556 13.1304 64.3909 12.596 65.0817 12.2168C65.7725 11.8375 66.5784 11.6479 67.4994 11.6479C68.4205 11.6479 69.2206 11.8375 69.8999 12.2168C70.5906 12.596 71.126 13.1304 71.5059 13.82C71.8858 14.4981 72.0758 15.2911 72.0758 16.199C72.0758 17.107 71.8858 17.9 71.5059 18.5781C71.126 19.2562 70.5906 19.7848 69.8999 20.1641C69.2206 20.5433 68.4205 20.733 67.4994 20.733C66.5784 20.733 65.7725 20.5433 65.0817 20.1641C64.3909 19.7848 63.8556 19.2562 63.4757 18.5781C63.0958 17.9 62.9058 17.107 62.9058 16.199ZM65.5825 16.1818C65.5825 16.6186 65.6631 17.0036 65.8243 17.3369C65.9854 17.6587 66.21 17.9115 66.4978 18.0954C66.7856 18.2678 67.1195 18.354 67.4994 18.354C67.8794 18.354 68.2133 18.2678 68.5011 18.0954C68.7888 17.9115 69.0076 17.6587 69.1573 17.3369C69.3185 17.0036 69.3991 16.6186 69.3991 16.1818C69.3991 15.7451 69.3185 15.3658 69.1573 15.044C69.0076 14.7222 68.7888 14.4751 68.5011 14.3027C68.2133 14.1188 67.8794 14.0269 67.4994 14.0269C67.1195 14.0269 66.7856 14.1188 66.4978 14.3027C66.21 14.4751 65.9854 14.7222 65.8243 15.044C65.6631 15.3658 65.5825 15.7451 65.5825 16.1818ZM73.1944 20.5261V11.9065H75.8711V20.5261H73.1944ZM74.5414 10.5618C74.1155 10.5618 73.7528 10.4181 73.4534 10.1308C73.1656 9.832 73.0217 9.46995 73.0217 9.04474C73.0217 8.61953 73.1656 8.26324 73.4534 7.97587C73.7528 7.68858 74.1155 7.54492 74.5414 7.54492C74.9559 7.54492 75.307 7.68858 75.5948 7.97587C75.8942 8.26324 76.0439 8.61953 76.0439 9.04474C76.0439 9.46995 75.8942 9.832 75.5948 10.1308C75.307 10.4181 74.9559 10.5618 74.5414 10.5618ZM77.602 24.6636V11.9065H80.0373L80.1749 12.9581C80.4169 12.5558 80.8029 12.2341 81.332 11.9926C81.8618 11.7513 82.432 11.6307 83.0418 11.6307C83.8476 11.6307 84.5499 11.8088 85.1486 12.1651C85.7473 12.5213 86.2194 13.0328 86.565 13.6994C86.9098 14.3544 87.0941 15.1475 87.1178 16.0784C87.1407 16.9863 86.9905 17.7966 86.6686 18.5091C86.3459 19.2102 85.8801 19.7618 85.2696 20.1641C84.6591 20.5664 83.9228 20.7675 83.0592 20.7675C82.4605 20.7675 81.9022 20.6641 81.3842 20.4572C80.8661 20.2503 80.4802 19.986 80.2271 19.6642V24.6636H77.602ZM80.2785 16.2163C80.2785 16.6415 80.3647 17.0208 80.5379 17.3541C80.7222 17.6759 80.9697 17.9288 81.2806 18.1126C81.6024 18.2851 81.971 18.3712 82.3854 18.3712C82.8116 18.3712 83.1746 18.2793 83.4736 18.0954C83.7844 17.9115 84.0208 17.6587 84.1814 17.3369C84.3546 17.015 84.4408 16.6415 84.4408 16.2163C84.4408 15.791 84.3546 15.4175 84.1814 15.0957C84.0208 14.774 83.7844 14.5211 83.4736 14.3372C83.1746 14.1533 82.8116 14.0614 82.3854 14.0614C81.971 14.0614 81.6024 14.1533 81.2806 14.3372C80.9697 14.5096 80.7222 14.7567 80.5379 15.0785C80.3647 15.4003 80.2785 15.7796 80.2785 16.2163ZM87.5733 17.8023H89.9744C89.9744 18.1011 90.0716 18.3368 90.2678 18.5091C90.475 18.6815 90.7739 18.7677 91.1654 18.7677C91.3955 18.7677 91.5861 18.739 91.7356 18.6815C91.8969 18.6241 92.0179 18.5436 92.0978 18.4402C92.1903 18.3252 92.2362 18.1988 92.2362 18.0609C92.2362 17.9115 92.1848 17.7851 92.0812 17.6817C91.9887 17.5782 91.8273 17.4978 91.5972 17.4403L90.078 17.0438C89.2254 16.814 88.6212 16.4749 88.2645 16.0267C87.9071 15.5784 87.7291 15.067 87.7291 14.4923C87.7291 13.9177 87.8731 13.4178 88.1609 12.9926C88.4599 12.5558 88.8632 12.2225 89.3694 11.9926C89.8763 11.7513 90.4457 11.6307 91.0792 11.6307C92.0345 11.6307 92.8175 11.895 93.428 12.4237C94.0496 12.9408 94.3778 13.6476 94.4126 14.5441H92.0116C92.0235 14.2452 91.9373 14.0097 91.753 13.8372C91.5687 13.6534 91.3267 13.5615 91.0278 13.5615C90.7628 13.5615 90.5438 13.6304 90.3714 13.7683C90.21 13.8947 90.1294 14.0729 90.1294 14.3027C90.1294 14.5211 90.21 14.682 90.3714 14.7855C90.5327 14.8774 90.751 14.9578 91.0278 15.0268L92.5644 15.4061C93.2785 15.5784 93.8195 15.8716 94.188 16.2852C94.5565 16.699 94.74 17.2277 94.74 17.8713C94.74 18.7562 94.4126 19.4573 93.7562 19.9745C93.0998 20.4916 92.2481 20.7503 91.2002 20.7503C90.1183 20.7503 89.2484 20.4802 88.5928 19.94C87.9474 19.3883 87.6081 18.6758 87.5733 17.8023ZM98.9837 20.7503C97.9706 20.7503 97.1877 20.4342 96.6349 19.8021C96.0829 19.17 95.8061 18.3425 95.8061 17.3196V11.9065H98.4657V16.3542C98.4657 17.1587 98.6096 17.6989 98.8975 17.9747C99.1854 18.2506 99.565 18.3885 100.037 18.3885C100.648 18.3885 101.068 18.2161 101.298 17.8713C101.528 17.5265 101.643 17.0323 101.643 16.3887V11.9065H104.303V20.5261H101.799L101.626 19.5608C101.361 19.917 100.987 20.2043 100.504 20.4227C100.02 20.6411 99.5136 20.7503 98.9837 20.7503ZM108.693 20.5261H106.016V11.9065H108.503L108.693 13.3891L108.4 13.0787C108.63 12.642 108.975 12.2915 109.436 12.0271C109.908 11.7513 110.414 11.6134 110.956 11.6134C111.807 11.6134 112.475 11.803 112.959 12.1823C113.454 12.5615 113.811 13.0615 114.029 13.6821H113.614C113.753 13.0615 114.087 12.5615 114.616 12.1823C115.146 11.803 115.779 11.6134 116.516 11.6134C117.633 11.6134 118.456 11.9122 118.986 12.5098C119.515 13.1075 119.78 13.9005 119.78 14.8889V20.5261H117.19V15.544C117.19 15.0038 117.057 14.6015 116.792 14.3372C116.539 14.0729 116.2 13.9407 115.773 13.9407C115.52 13.9407 115.278 13.9982 115.048 14.1131C114.818 14.2165 114.628 14.4061 114.478 14.682C114.329 14.9464 114.253 15.3256 114.253 15.8198V20.5261H111.629V15.544C111.629 15.0038 111.502 14.6073 111.249 14.3544C110.995 14.0901 110.656 13.958 110.23 13.958C109.977 13.958 109.729 14.0154 109.487 14.1304C109.257 14.2338 109.067 14.4234 108.918 14.6993C108.768 14.9636 108.693 15.3371 108.693 15.8198V20.5261Z" fill="#707070"/>
</svg>
