<svg width="133" height="30" viewBox="0 0 133 30" fill="none" xmlns="http://www.w3.org/2000/svg">
<g clip-path="url(#clip0_294_1980)">
<path d="M38.3736 15.6015C38.4 15.0891 38.4 14.5756 38.3736 14.0631H9.36656C9.36045 14.1908 9.3551 14.3192 9.35204 14.4477H3.27532L3.27226 14.64H0V15.0246H3.27149L3.27608 15.2169H9.35204C9.3551 15.3462 9.35968 15.4738 9.36733 15.6015H17.6951C17.6635 15.3464 17.6477 15.0895 17.6477 14.8323H29.8776C29.8776 15.0931 29.8623 15.35 29.8302 15.6015H38.3736ZM38.3132 13.2938H29.6858C29.6187 13.0321 29.5344 12.7751 29.4335 12.5246H18.0941C17.994 12.7738 17.9091 13.03 17.8419 13.2938H9.42618C9.43994 13.1654 9.45523 13.0369 9.47205 12.9092H3.39532L3.42131 12.7215H0V12.3369H3.4817L3.51686 12.14H9.59358C9.61651 12.0115 9.6425 11.8831 9.67002 11.7554H38.0709C38.1779 12.2592 38.2597 12.7723 38.3132 13.2938ZM37.8851 10.9862H28.5369C28.3164 10.7092 28.0727 10.4519 27.8085 10.2169H19.7184C19.4547 10.4523 19.2101 10.7092 18.99 10.9862H9.85576C9.89016 10.8577 9.92685 10.7292 9.96506 10.6015H3.88834L3.9556 10.3854H0V10H4.08325L4.14287 9.83154H10.2196C10.2655 9.70231 10.3144 9.57462 10.3648 9.44692H37.3753C37.5725 9.94692 37.743 10.4615 37.8851 10.9862ZM37.0466 8.67846H10.6935C10.7531 8.54923 10.8143 8.42154 10.8777 8.29385H4.80176L4.90953 8.08154H0V7.69692H5.11668L5.21375 7.52462H11.2905C11.3646 7.39538 11.4411 7.26692 11.519 7.14H36.2211C36.5253 7.63385 36.802 8.14769 37.0466 8.67846ZM9.42618 16.3708H38.3139C38.2597 16.8923 38.1779 17.4062 38.0709 17.9092H29.0605C29.2019 17.6631 29.3273 17.4062 29.4343 17.14H18.0926C18.1996 17.4062 18.3242 17.6631 18.4656 17.9092H9.66925C9.64205 17.7814 9.61657 17.6532 9.59282 17.5246H3.51686C3.50441 17.457 3.49243 17.3893 3.48093 17.3215H0V16.9369H3.42055C3.41177 16.8765 3.40336 16.8159 3.39532 16.7554H9.47205C9.45508 16.6274 9.43979 16.4992 9.42618 16.3708ZM9.85499 18.6785H37.8844C37.743 19.2038 37.5725 19.7169 37.3753 20.2169H26.7261C27.1134 20.0006 27.4763 19.7427 27.8085 19.4477H19.7184C20.0505 19.7427 20.4134 20.0006 20.8007 20.2169H10.3648C10.3147 20.0894 10.2662 19.9612 10.2196 19.8323H4.14287L4.07714 19.6469H0V19.2623H3.95025C3.9294 19.196 3.90902 19.1296 3.8891 19.0631H9.96506C9.92685 18.9354 9.89016 18.8077 9.85499 18.6785ZM10.6935 20.9862H37.0466C36.8022 21.5151 36.5266 22.0289 36.2211 22.5246H11.519C11.4406 22.3976 11.3642 22.2694 11.2897 22.14H5.21375C5.17554 22.0738 5.13808 22.0077 5.10139 21.9408H0V21.5562H4.89578L4.80176 21.3715H10.8785C10.815 21.2442 10.7533 21.116 10.6935 20.9869V20.9862ZM12.9331 24.4477C13.0455 24.5785 13.1609 24.7062 13.2786 24.8323H34.4615C34.9127 24.3485 35.3307 23.8345 35.7128 23.2938H12.0273C12.1191 23.4238 12.2123 23.5523 12.3086 23.6785H6.23189L6.38324 23.8746H0V24.2592H6.69586C6.7486 24.3231 6.80211 24.3854 6.85638 24.4477H12.9331ZM15.4685 26.7554C15.6543 26.8885 15.8431 27.0169 16.0341 27.14H31.706C32.4095 26.6853 33.0729 26.1706 33.6888 25.6015H14.0521C14.1935 25.7323 14.338 25.8608 14.4848 25.9862H8.40805C8.4906 26.0569 8.57391 26.1262 8.65799 26.1938H0V26.5785H9.15101C9.23051 26.6385 9.31153 26.6977 9.39255 26.7554H15.4693H15.4685ZM20.8321 29.1277C21.812 29.3377 22.8278 29.4477 23.8697 29.4477C26.2041 29.4477 28.4093 28.8938 30.363 27.9092H17.3764C17.6485 28.0462 17.9244 28.1746 18.2049 28.2938H12.1282C12.2368 28.34 12.3461 28.3854 12.4554 28.4292H0V28.8138H13.5484C14.8914 29.2262 16.317 29.4477 17.7937 29.4477C18.8356 29.4477 19.8522 29.3377 20.8321 29.1277ZM12.0273 6.37077H35.7128C35.3307 5.83009 34.9127 5.31609 34.4615 4.83231H13.2786C13.1609 4.95846 13.0455 5.08615 12.9323 5.21692H6.85638L6.72185 5.37538H0V5.76H6.40693C6.34808 5.83462 6.28998 5.91 6.23266 5.98615H12.3086C12.2123 6.11308 12.1191 6.24154 12.0273 6.37077ZM14.0514 4.06308H33.688C33.0724 3.49404 32.4092 2.97932 31.706 2.52462H16.0341C15.8431 2.64846 15.6543 2.77692 15.4685 2.90923H9.39255C9.30847 2.97 9.22439 3.03077 9.14184 3.09308H0V3.47769H8.64959C8.56856 3.54385 8.48831 3.61077 8.40881 3.67846H14.4848C14.338 3.80385 14.1935 3.93231 14.0514 4.06308ZM17.3771 1.75538H30.3637C28.348 0.740335 26.1244 0.2135 23.8704 0.216923C22.8278 0.216923 21.812 0.327692 20.8321 0.537692C19.8332 0.324 18.8149 0.216487 17.7937 0.216923C16.1626 0.216923 14.5948 0.487692 13.1311 0.986154H0V1.37077H18.2049C17.9251 1.49017 17.649 1.61844 17.3771 1.75538ZM85.0344 0C85.5366 0 85.931 0.126154 86.2176 0.378462C86.5165 0.619231 86.6656 0.955385 86.6656 1.38923C86.6656 1.82231 86.5165 2.16462 86.2176 2.41692C85.931 2.65769 85.5366 2.77846 85.0344 2.77846C84.533 2.77846 84.1324 2.65769 83.8336 2.41692C83.5469 2.16462 83.4032 1.82231 83.4032 1.38923C83.4032 0.956154 83.5469 0.62 83.8336 0.378462C84.1324 0.126154 84.533 0 85.0344 0ZM86.4324 4.45538V12.3023C86.4324 12.8077 86.5165 13.1508 86.6839 13.3308C86.8628 13.5115 87.1616 13.6015 87.5797 13.6015V13.98C87.2454 13.9636 86.9108 13.9515 86.5761 13.9438C86.1164 13.9196 85.6561 13.9076 85.1957 13.9077C84.7302 13.9077 84.2578 13.92 83.7801 13.9438C83.4215 13.9518 83.0629 13.9639 82.7046 13.98V13.6015C83.1227 13.6015 83.4155 13.5115 83.5829 13.3308C83.7617 13.1508 83.8519 12.8077 83.8519 12.3023V6.62C83.8519 6.07923 83.7678 5.68154 83.6004 5.43C83.4453 5.16538 83.1464 5.03308 82.7046 5.03308V4.65385C83.0868 4.69 83.4575 4.70769 83.816 4.70769C84.3174 4.70769 84.7837 4.69 85.214 4.65385C85.6558 4.60615 86.0625 4.54 86.4324 4.45538Z" fill="#707070"/>
<path fill-rule="evenodd" clip-rule="evenodd" d="M91.4776 6.11087V4.45549C91.1077 4.5401 90.701 4.60625 90.2592 4.65395C89.8166 4.6901 89.3504 4.70779 88.8604 4.70779C88.5019 4.70779 88.132 4.6901 87.749 4.65395V5.03318C88.1794 5.03318 88.4782 5.16549 88.6456 5.4301C88.813 5.68241 88.8963 6.07933 88.8963 6.6201V15.6401C88.8963 16.1209 88.813 16.4455 88.6456 16.6139C88.4905 16.7824 88.2153 16.8663 87.8209 16.8663V17.2455L88.771 17.1916C89.2071 17.1794 89.6433 17.1733 90.0796 17.1732C90.6888 17.1732 91.2628 17.1793 91.8002 17.1909C92.3498 17.2155 92.7801 17.2332 93.0912 17.2447V16.8663C92.589 16.8663 92.1946 16.7701 91.9079 16.5778C91.6213 16.3978 91.4776 16.0247 91.4776 15.4593V13.6516C91.6351 13.7839 91.82 13.8932 92.0333 13.9801C92.4155 14.1493 92.8397 14.2332 93.306 14.2332C93.9396 14.2332 94.5068 14.1186 95.009 13.8901C95.5195 13.6641 95.9684 13.3177 96.3176 12.8801C96.6875 12.4232 96.9688 11.8639 97.1599 11.2024C97.3632 10.5409 97.4649 9.77164 97.4649 8.89318C97.4649 7.89549 97.3212 7.06549 97.0346 6.40395C96.7479 5.7301 96.365 5.23164 95.8872 4.90702C95.4098 4.57028 94.8391 4.39345 94.2561 4.40164C93.5628 4.40164 92.9536 4.58164 92.4277 4.94241C92.0142 5.22318 91.6977 5.61241 91.4776 6.11164V6.11087ZM91.4776 6.73087V13.2701C91.577 13.3886 91.697 13.487 91.8361 13.5655C92.0631 13.6855 92.3199 13.7455 92.6073 13.7455C93.1447 13.7455 93.5689 13.5655 93.88 13.2047C94.1903 12.8316 94.4112 12.3147 94.5427 11.6532C94.6864 10.9801 94.7583 10.1801 94.7583 9.25395C94.7583 8.2201 94.6925 7.40779 94.5611 6.81856C94.4296 6.22933 94.25 5.80856 94.023 5.55625C93.7959 5.30318 93.5215 5.17702 93.1982 5.17702C92.7686 5.17702 92.3742 5.34625 92.0157 5.68241C91.7459 5.94395 91.5663 6.29395 91.4776 6.73087Z" fill="#707070"/>
<path d="M101.58 4.40154C102.083 4.40154 102.518 4.4677 102.889 4.6C103.271 4.72 103.546 4.84077 103.714 4.96077C104.12 5.2377 104.371 5.05693 104.467 4.41923H104.843C104.819 4.75616 104.801 5.17154 104.789 5.66385C104.777 6.14539 104.771 6.78846 104.771 7.59462H104.395C104.333 7.14359 104.219 6.7015 104.054 6.2777C103.902 5.86639 103.649 5.50026 103.319 5.21308C103.008 4.93616 102.602 4.7977 102.1 4.7977C101.754 4.7977 101.461 4.90077 101.222 5.10539C100.983 5.2977 100.863 5.58 100.863 5.95308C100.863 6.31385 100.971 6.63231 101.186 6.90923C101.401 7.17385 101.676 7.43231 102.011 7.68462C102.357 7.92539 102.715 8.18385 103.086 8.46C103.481 8.76077 103.839 9.06154 104.162 9.36231C104.471 9.63436 104.731 9.95776 104.932 10.3185C105.124 10.6669 105.219 11.0815 105.219 11.5631C105.219 12.1038 105.064 12.5785 104.753 12.9877C104.442 13.3846 104.03 13.6915 103.516 13.9077C103.014 14.1246 102.452 14.2331 101.832 14.2331C101.506 14.2368 101.181 14.2004 100.863 14.1246C100.615 14.0623 100.374 13.9715 100.146 13.8538C99.9912 13.7815 99.8414 13.7154 99.6985 13.6554C99.5765 13.5879 99.4507 13.5278 99.3216 13.4754C99.2024 13.4392 99.0946 13.4808 98.9991 13.6015C98.9157 13.7215 98.85 13.89 98.8019 14.1062H98.4258C98.4495 13.7215 98.4678 13.2523 98.4793 12.6992C98.4915 12.1462 98.4976 11.4123 98.4976 10.4992H98.8737C98.9456 11.1485 99.077 11.7254 99.2681 12.23C99.4592 12.7238 99.716 13.1146 100.039 13.4031C100.373 13.68 100.791 13.8185 101.294 13.8185C101.497 13.8185 101.694 13.7762 101.885 13.6915C102.076 13.6069 102.232 13.4685 102.352 13.2762C102.483 13.0838 102.549 12.8377 102.549 12.5377C102.549 12.0077 102.375 11.5685 102.028 11.22C101.694 10.8715 101.264 10.4923 100.738 10.0838C100.356 9.77077 99.9912 9.46462 99.6449 9.16385C99.3239 8.8682 99.0462 8.52814 98.8202 8.15385C98.6019 7.76962 98.4905 7.33331 98.4976 6.89077C98.4976 6.35 98.6406 5.89308 98.9272 5.52C99.2198 5.14304 99.611 4.85561 100.057 4.69C100.542 4.49636 101.059 4.39843 101.58 4.40154ZM123.832 4.6C123.521 4.4677 123.115 4.40154 122.613 4.40154C122.051 4.3958 121.496 4.53228 121 4.79846C120.51 5.05077 120.122 5.47769 119.834 6.07923V4.45616C119.464 4.54 119.058 4.60616 118.616 4.65385C118.185 4.69 117.719 4.7077 117.218 4.7077C116.859 4.7077 116.489 4.69 116.106 4.65385V5.03308C116.548 5.03308 116.847 5.16539 117.002 5.43C117.17 5.68231 117.253 6.07923 117.253 6.62V12.3023C117.253 12.8077 117.163 13.1508 116.985 13.3308C116.817 13.5115 116.524 13.6015 116.106 13.6015V13.98C116.465 13.9639 116.823 13.9518 117.182 13.9438C117.647 13.9201 118.114 13.9081 118.58 13.9077C118.998 13.9077 119.405 13.92 119.798 13.9438C120.205 13.9562 120.504 13.9685 120.695 13.98V13.6015C120.385 13.6015 120.163 13.5115 120.031 13.3308C119.9 13.1508 119.834 12.8077 119.834 12.3023V7.28769C119.834 6.89077 119.912 6.53616 120.067 6.22308C120.235 5.89846 120.45 5.64616 120.712 5.46616C120.965 5.28909 121.265 5.19455 121.573 5.19539C121.848 5.19539 122.051 5.26154 122.182 5.39385C122.326 5.51385 122.422 5.68846 122.47 5.91693C122.517 6.13308 122.541 6.39154 122.541 6.69231V12.3023C122.541 12.8077 122.475 13.1508 122.344 13.3308C122.224 13.5115 122.003 13.6015 121.681 13.6015V13.98C121.896 13.9685 122.212 13.9562 122.631 13.9438C123.479 13.8952 124.329 13.8952 125.176 13.9438C125.618 13.9562 125.947 13.9685 126.162 13.98V13.6015C125.779 13.6015 125.51 13.5115 125.355 13.3308C125.2 13.1508 125.122 12.8077 125.122 12.3023V7.3677L125.121 7.31154L125.118 7.12923C125.146 6.8277 125.226 6.53343 125.355 6.26C125.523 5.93462 125.737 5.67616 126 5.48385C126.263 5.29154 126.551 5.19539 126.861 5.19539C127.171 5.19539 127.399 5.26154 127.542 5.39385C127.697 5.51385 127.799 5.68846 127.847 5.91693C127.907 6.13308 127.936 6.39154 127.936 6.69231V12.3023C127.936 12.8077 127.871 13.1508 127.739 13.3308C127.62 13.5115 127.399 13.6015 127.076 13.6015V13.98C127.291 13.9685 127.608 13.9562 128.026 13.9438C128.45 13.9196 128.874 13.9076 129.299 13.9077C129.741 13.9077 130.189 13.92 130.643 13.9438C131.097 13.9562 131.438 13.9685 131.665 13.98V13.6015C131.247 13.6015 130.948 13.5115 130.768 13.3308C130.601 13.1508 130.518 12.8077 130.518 12.3023V7.45C130.518 6.84846 130.476 6.3677 130.392 6.00693C130.308 5.63385 130.172 5.33385 129.98 5.10539C129.789 4.88846 129.538 4.72077 129.227 4.6C128.916 4.4677 128.51 4.40154 128.008 4.40154C127.399 4.40154 126.825 4.5277 126.288 4.78C125.773 5.0277 125.355 5.5 125.035 6.19693C125.024 6.13325 125.011 6.06989 124.997 6.00693C124.913 5.63385 124.776 5.33385 124.585 5.10539C124.394 4.88846 124.142 4.72077 123.832 4.6ZM114.7 12.0138V4.45539C114.329 4.54 113.923 4.60616 113.481 4.65385C113.051 4.69 112.585 4.7077 112.083 4.7077C111.724 4.7077 111.354 4.69 110.971 4.65385V5.03308C111.414 5.03308 111.713 5.16539 111.868 5.43C112.035 5.68231 112.119 6.07923 112.119 6.62V11.3462C112.119 11.7431 112.035 12.1038 111.868 12.4285C111.726 12.7257 111.51 12.9807 111.24 13.1685C110.99 13.349 110.688 13.4439 110.38 13.4392C110.082 13.4392 109.855 13.3785 109.699 13.2585C109.538 13.1166 109.425 12.9275 109.376 12.7177C109.325 12.4562 109.301 12.1902 109.304 11.9238V4.45539C108.934 4.54 108.528 4.60616 108.086 4.65385C107.656 4.69 107.189 4.7077 106.688 4.7077C106.329 4.7077 105.959 4.69 105.576 4.65385V5.03308C106.018 5.03308 106.317 5.16539 106.472 5.43C106.64 5.68231 106.723 6.07923 106.723 6.62V11.1838C106.723 11.7731 106.765 12.2546 106.849 12.6269C106.932 13 107.076 13.3008 107.279 13.5292C107.458 13.7338 107.703 13.9023 108.014 14.0346C108.324 14.1662 108.731 14.2331 109.233 14.2331C109.855 14.2331 110.416 14.1062 110.918 13.8538C111.432 13.5892 111.832 13.1562 112.119 12.5554V14.1785C112.519 14.0793 112.927 14.0129 113.338 13.98C113.768 13.9438 114.234 13.9262 114.736 13.9262C115.107 13.9262 115.477 13.9438 115.847 13.98V13.6015C115.417 13.6015 115.118 13.4754 114.951 13.2223C114.783 12.9577 114.7 12.5554 114.7 12.0146V12.0138Z" fill="#707070"/>
<path fill-rule="evenodd" clip-rule="evenodd" d="M80.0263 4.88842C79.3689 4.5638 78.6038 4.40149 77.7317 4.40149C76.8832 4.40149 76.1242 4.5638 75.4554 4.88842C74.798 5.21303 74.2783 5.73611 73.8961 6.45765C73.5254 7.17919 73.3396 8.13534 73.3396 9.32611C73.3396 10.5169 73.5254 11.4723 73.8953 12.1946C74.2775 12.9038 74.7973 13.4207 75.4546 13.7453C76.1242 14.07 76.8832 14.233 77.7317 14.233C78.6038 14.233 79.3689 14.07 80.0263 13.7453C80.6829 13.4207 81.1973 12.9038 81.5673 12.1946C81.938 11.473 82.123 10.5169 82.123 9.32611C82.123 8.13534 81.938 7.17996 81.5673 6.45765C81.1973 5.73611 80.6829 5.21303 80.0263 4.88842ZM76.5308 5.84457C76.8534 5.12303 77.2539 4.76226 77.7317 4.76226C78.2216 4.76226 78.6222 5.12303 78.9325 5.84457C79.2551 6.5538 79.4163 7.71457 79.4163 9.32611C79.4163 10.9376 79.2551 12.0984 78.9325 12.8076C78.6222 13.5169 78.2216 13.8723 77.7317 13.8723C77.2539 13.8723 76.8534 13.5169 76.5308 12.8076C76.2083 12.0984 76.047 10.9376 76.047 9.32611C76.047 7.71457 76.2075 6.5538 76.5308 5.84457ZM67.4945 17.3715C66.7531 17.3715 66.0903 17.3053 65.5048 17.173C64.9316 17.053 64.4775 16.8607 64.1427 16.5961C63.8202 16.343 63.6589 16.0307 63.6589 15.6576C63.6589 15.2846 63.8255 14.9484 64.1603 14.6476C64.4951 14.3592 64.9912 14.1307 65.6485 13.9623L65.8091 14.2507C65.6038 14.4058 65.4331 14.6023 65.3076 14.8276C65.2121 15.0446 65.1639 15.2669 65.1639 15.4953C65.1639 16.0007 65.3909 16.3853 65.8457 16.6492C66.312 16.9261 66.9388 17.0646 67.7276 17.0646C68.265 17.0646 68.7435 16.9923 69.1616 16.8484C69.5919 16.7038 69.9259 16.4869 70.1652 16.1992C70.4167 15.91 70.542 15.5553 70.542 15.1346C70.542 14.7738 70.4106 14.4669 70.1476 14.2146C69.8847 13.9738 69.3588 13.8538 68.57 13.8538H67.4586C66.9694 13.8538 66.5383 13.8 66.1683 13.6915C65.8091 13.5838 65.5285 13.4146 65.3252 13.1861C65.1227 12.9461 65.021 12.6453 65.021 12.2846C65.021 11.7792 65.2182 11.3346 65.6126 10.9492C65.9214 10.6476 66.3479 10.3607 66.8922 10.0892C66.5344 10.0444 66.1829 9.95793 65.845 9.83149C65.3076 9.62688 64.8834 9.3138 64.5731 8.89303C64.262 8.47226 64.1068 7.93149 64.1068 7.26995C64.1068 6.60842 64.262 6.06688 64.5731 5.64611C64.8834 5.21303 65.3076 4.89995 65.8457 4.70765C66.3831 4.5038 66.9923 4.40149 67.6734 4.40149C68.3552 4.40149 68.9644 4.5038 69.5017 4.70842C69.8564 4.83457 70.1606 5.0138 70.4167 5.24457C70.5688 5.0238 70.7537 4.82688 70.9716 4.6538C71.3782 4.34149 71.8147 4.18457 72.2802 4.18457C72.6624 4.18457 72.9498 4.29303 73.1409 4.50995C73.3442 4.7138 73.4459 4.98457 73.4459 5.32149C73.4459 5.68226 73.3495 5.95226 73.1585 6.13303C72.9674 6.30226 72.7526 6.38611 72.5133 6.38611C72.3029 6.3833 72.1001 6.30657 71.94 6.16919C71.7719 6.02457 71.6771 5.80842 71.6534 5.51995C71.6328 5.26149 71.7046 4.94149 71.869 4.55842C71.5204 4.70765 71.2514 4.87765 71.0618 5.06919C70.9189 5.20785 70.794 5.36423 70.6903 5.53457C70.7194 5.57072 70.7476 5.60842 70.7744 5.64611C71.0855 6.06688 71.2407 6.60765 71.2407 7.26919C71.2407 7.93072 71.0855 8.47226 70.7744 8.89303C70.4641 9.3138 70.0398 9.62688 69.5017 9.83149C68.9644 10.0353 68.3552 10.1376 67.6734 10.1376C67.5714 10.1378 67.4695 10.1354 67.3676 10.1307C67.2063 10.2407 67.0512 10.3576 66.9029 10.4807C66.8108 10.5532 66.7369 10.6465 66.6871 10.7529C66.6373 10.8594 66.613 10.9762 66.6162 11.0938C66.6162 11.4784 66.8555 11.6707 67.3332 11.6707H69.2869C69.9443 11.6707 70.5298 11.7492 71.0434 11.9053C71.5693 12.0623 71.9813 12.3207 72.2802 12.6815C72.5913 13.03 72.7465 13.4869 72.7465 14.0523C72.7465 14.6415 72.5554 15.1884 72.1732 15.6938C71.8025 16.1992 71.2292 16.6015 70.4518 16.9023C69.6752 17.2153 68.6892 17.3715 67.4945 17.3715ZM67.6734 9.81303C67.9967 9.81303 68.2466 9.63303 68.4262 9.27226C68.6059 8.89919 68.6953 8.23149 68.6953 7.26995C68.6953 6.30765 68.6059 5.64611 68.4262 5.28534C68.2474 4.91226 67.9967 4.72611 67.6741 4.72611C67.363 4.72611 67.1123 4.91226 66.9212 5.28534C66.7416 5.64611 66.6522 6.30765 66.6522 7.26995C66.6522 8.23149 66.7416 8.89919 66.9212 9.27226C67.1123 9.63303 67.363 9.81303 67.6734 9.81303ZM61.3383 4.88842C60.6809 4.5638 59.9165 4.40149 59.0444 4.40149C58.196 4.40149 57.4369 4.5638 56.7681 4.88842C56.1108 5.21303 55.591 5.73611 55.2088 6.45765C54.8381 7.17919 54.6523 8.13534 54.6523 9.32611C54.6523 10.5169 54.8381 11.4723 55.208 12.1946C55.5902 12.9038 56.11 13.4207 56.7673 13.7453C57.4369 14.07 58.196 14.233 59.0444 14.233C59.9165 14.233 60.6817 14.07 61.3383 13.7453C61.9956 13.4207 62.5093 12.9038 62.88 12.1946C63.2507 11.473 63.4357 10.5169 63.4357 9.32611C63.4357 8.13534 63.2507 7.17996 62.88 6.45765C62.51 5.73611 61.9956 5.21303 61.3383 4.88842ZM57.8428 5.84457C58.1661 5.12303 58.5659 4.76226 59.0444 4.76226C59.5336 4.76226 59.9341 5.12303 60.2445 5.84457C60.5678 6.5538 60.7291 7.71457 60.7291 9.32611C60.7291 10.9376 60.5678 12.0984 60.2452 12.8076C59.9341 13.5169 59.5344 13.8723 59.0444 13.8723C58.5659 13.8723 58.1654 13.5169 57.8428 12.8076C57.5203 12.0984 57.359 10.9376 57.359 9.32611C57.359 7.71457 57.5203 6.5538 57.8428 5.84457Z" fill="#707070"/>
<path d="M49.8243 1.20801V1.56955C49.4185 1.58108 49.1074 1.62878 48.8926 1.71339C48.7943 1.74689 48.7054 1.80374 48.6336 1.87913C48.5617 1.95451 48.509 2.04622 48.4798 2.14647C48.4087 2.35032 48.3728 2.6757 48.3728 3.12032V12.2842C48.3728 12.6565 48.3965 12.9334 48.4446 13.1142C48.5043 13.2942 48.612 13.4142 48.7672 13.4749C48.9346 13.5349 49.18 13.5649 49.5018 13.5649H50.3808C50.7859 13.5649 51.1689 13.4688 51.5273 13.2765C51.8866 13.0842 52.2084 12.8134 52.495 12.4642C52.7974 12.0763 53.0394 11.6444 53.2128 11.1834C53.4039 10.6911 53.5468 10.1434 53.6423 9.54185H54.0551C54.0192 9.95109 54.0016 10.4803 54.0016 11.1295C54.0016 11.4065 54.0069 11.8088 54.0192 12.338C54.0314 12.8672 54.0666 13.4149 54.1262 13.9795C53.4396 13.9541 52.7525 13.942 52.0655 13.9434C51.3011 13.9319 50.6193 13.9257 50.0215 13.9257H48.875C48.4087 13.9257 47.9065 13.9319 47.3692 13.9434C46.8311 13.9434 46.2876 13.9495 45.738 13.9619C45.1877 13.9619 44.6679 13.968 44.1787 13.9795V13.6188C44.5609 13.5949 44.8475 13.5465 45.0386 13.4749C45.2297 13.4026 45.3551 13.258 45.4155 13.0419C45.4865 12.8249 45.5225 12.5003 45.5225 12.0672V3.12032C45.5225 2.67493 45.4865 2.35108 45.4155 2.14647C45.3919 2.0464 45.3433 1.95407 45.2743 1.87826C45.2052 1.80245 45.1181 1.74569 45.021 1.71339C44.83 1.62878 44.5487 1.58108 44.1787 1.56878V1.20801C45.1223 1.24319 46.0665 1.26114 47.0107 1.26185C47.5366 1.26185 48.0502 1.25647 48.5517 1.24416C49.0661 1.23185 49.4903 1.22032 49.8243 1.20801Z" fill="#707070"/>
<path fill-rule="evenodd" clip-rule="evenodd" d="M129.844 28.8866C129.819 28.7573 129.835 28.5889 129.896 28.3812L132.42 19.1758C132.016 19.3426 131.598 19.4726 131.171 19.5642C130.733 19.6512 130.231 19.6981 129.663 19.7073L129.573 19.9796C129.994 19.9796 130.257 20.0489 130.36 20.1873C130.462 20.3258 130.475 20.5412 130.398 20.835L129.8 23.1035C129.763 22.994 129.698 22.8961 129.612 22.8189C129.466 22.6804 129.264 22.6112 129.007 22.6112C128.492 22.6112 128.015 22.7281 127.577 22.9612C127.136 23.2034 126.74 23.5192 126.404 23.895C126.052 24.2759 125.753 24.7034 125.515 25.1658C125.281 25.6157 125.095 26.0894 124.961 26.5789C124.839 27.0005 124.774 27.4367 124.768 27.8758C124.768 28.2904 124.833 28.6319 124.961 28.8996C125.09 29.1589 125.266 29.3535 125.489 29.4827C125.712 29.6042 125.962 29.6642 126.237 29.6642C126.657 29.6642 127.035 29.5396 127.37 29.2889C127.705 29.0296 128.018 28.6319 128.311 28.0958C128.433 27.8773 128.557 27.6319 128.679 27.3596L128.594 27.6812C128.516 27.9344 128.465 28.195 128.44 28.4589C128.423 28.6835 128.44 28.8742 128.492 29.0296C128.594 29.4527 128.912 29.665 129.445 29.665C129.642 29.665 129.844 29.6258 130.05 29.5481C130.257 29.4704 130.449 29.3365 130.63 29.1458C130.819 28.9558 130.969 28.6842 131.08 28.3289L131.39 27.3827H131.145L130.939 27.9658C130.785 28.4073 130.639 28.705 130.501 28.8604C130.372 29.0081 130.239 29.0812 130.101 29.0812C129.955 29.0812 129.87 29.0166 129.844 28.8866ZM129.157 25.5481C129.06 25.8642 128.954 26.165 128.839 26.4489C128.625 27.0027 128.397 27.4781 128.156 27.8758C127.924 28.2642 127.697 28.5665 127.473 28.7835C127.25 28.9904 127.052 29.0942 126.881 29.0942C126.717 29.0942 126.597 29.0166 126.52 28.8612C126.451 28.6966 126.417 28.4504 126.417 28.1219C126.417 27.655 126.468 27.1796 126.571 26.6958C126.675 26.2035 126.816 25.7319 126.996 25.2827C127.163 24.8611 127.37 24.4571 127.615 24.0765C127.847 23.7135 128.092 23.4281 128.349 23.2204C128.615 23.0127 128.878 22.9096 129.135 22.9096C129.307 22.9096 129.445 22.9704 129.548 23.0912C129.62 23.1696 129.675 23.2835 129.713 23.4342L129.157 25.5481Z" fill="#707070"/>
<path d="M121.271 29.4829H119.687L121.232 23.8952C121.31 23.636 121.335 23.4544 121.31 23.3506C121.284 23.2467 121.207 23.1952 121.078 23.1952C120.915 23.1952 120.764 23.2775 120.627 23.4413C120.489 23.6052 120.348 23.8952 120.202 24.3106L119.982 24.919H119.738L120.073 23.9467C120.193 23.6006 120.343 23.3337 120.524 23.1429C120.704 22.9444 120.902 22.806 121.117 22.7283C121.331 22.6506 121.55 22.6113 121.773 22.6113C122.048 22.6113 122.25 22.6675 122.379 22.7806C122.516 22.8929 122.603 23.0398 122.637 23.2213C122.68 23.417 122.689 23.6188 122.662 23.8175C122.645 24.0252 122.611 24.2283 122.559 24.4267L122.352 25.2398L122.405 25.1013C122.645 24.4875 122.877 23.999 123.1 23.636C123.333 23.2644 123.577 23.0006 123.835 22.8452C124.087 22.6908 124.377 22.6099 124.672 22.6113C124.981 22.6113 125.217 22.7021 125.381 22.8837C125.553 23.0652 125.639 23.2898 125.639 23.5583C125.639 23.7737 125.587 23.9775 125.484 24.1675C125.384 24.3458 125.242 24.497 125.071 24.6083C124.909 24.7121 124.72 24.7637 124.505 24.7637C124.29 24.7637 124.118 24.7075 123.989 24.5952C123.869 24.4829 123.809 24.3183 123.809 24.1029C123.809 23.9121 123.852 23.7398 123.938 23.5837C124.021 23.4316 124.135 23.2992 124.273 23.1952C124.41 23.0829 124.561 23.0052 124.724 22.9613C124.706 22.9435 124.684 22.9303 124.659 22.9229C124.63 22.9137 124.6 22.9093 124.569 22.9098C124.381 22.9098 124.187 22.979 123.989 23.1175C123.792 23.2467 123.586 23.459 123.371 23.7529C123.156 24.0467 122.937 24.4352 122.714 24.919C122.462 25.4912 122.239 26.0755 122.044 26.6698C121.947 26.9575 121.849 27.2667 121.751 27.5983L121.271 29.4829Z" fill="#707070"/>
<path fill-rule="evenodd" clip-rule="evenodd" d="M116.457 27.4796L116.402 27.6812C116.321 27.9739 116.265 28.2733 116.235 28.5758C116.209 28.8527 116.252 29.0858 116.363 29.2758C116.535 29.535 116.827 29.665 117.239 29.665C117.437 29.665 117.634 29.6258 117.832 29.5481C118.038 29.4704 118.231 29.3365 118.412 29.1458C118.592 28.9473 118.743 28.6704 118.863 28.3166L119.185 27.3704H118.94L118.747 27.9535C118.592 28.4027 118.442 28.7012 118.296 28.8481C118.15 28.9942 118.008 29.0681 117.871 29.0681C117.759 29.0681 117.686 29.0335 117.652 28.9642C117.625 28.8762 117.616 28.7835 117.626 28.6919C117.643 28.582 117.669 28.4737 117.703 28.3681L119.366 22.6112C119.107 22.6734 118.844 22.7168 118.579 22.7412C118.313 22.7673 118.026 22.7842 117.716 22.7927L117.53 23.4866C117.522 23.3104 117.471 23.1389 117.381 22.9873C117.314 22.8692 117.216 22.7717 117.098 22.7054C116.98 22.6391 116.846 22.6065 116.711 22.6112C116.334 22.6112 115.956 22.7281 115.578 22.9612C115.176 23.2155 114.815 23.5304 114.508 23.895C114.161 24.2926 113.859 24.7273 113.606 25.1912C113.353 25.6564 113.15 26.1477 113.001 26.6565C112.86 27.1144 112.787 27.5904 112.782 28.0696C112.782 28.5542 112.894 28.9427 113.117 29.2365C113.34 29.5219 113.683 29.6642 114.147 29.6642C114.474 29.6642 114.787 29.5696 115.088 29.3796C115.397 29.1889 115.689 28.8735 115.964 28.4335C116.135 28.1681 116.298 27.8504 116.457 27.4796ZM115.346 28.7958C115.148 28.9773 114.972 29.0681 114.818 29.0681C114.689 29.0681 114.59 29.0035 114.521 28.8735C114.461 28.735 114.431 28.5066 114.431 28.1866C114.431 27.7281 114.482 27.2573 114.585 26.7735C114.689 26.2889 114.826 25.8227 114.998 25.3735C115.179 24.9235 115.376 24.5219 115.591 24.1673C115.805 23.8135 116.02 23.5319 116.235 23.3242C116.458 23.1166 116.668 23.0135 116.866 23.0135C117.072 23.0135 117.218 23.1173 117.304 23.3242C117.39 23.5119 117.412 23.7635 117.371 24.0781L116.99 25.495L117.034 25.2696C116.896 25.8227 116.733 26.3327 116.544 26.7996C116.379 27.2171 116.181 27.6202 115.951 28.005C115.745 28.3419 115.543 28.6058 115.346 28.7958ZM111.05 28.3812C110.99 28.5889 110.973 28.7573 110.999 28.8866C111.024 29.0166 111.111 29.0812 111.257 29.0812C111.394 29.0812 111.527 29.0081 111.656 28.8612C111.793 28.705 111.939 28.4073 112.094 27.9658L112.3 27.3827H112.545L112.236 28.3289C112.124 28.6835 111.974 28.9558 111.785 29.1458C111.624 29.3225 111.426 29.46 111.205 29.5481C111.012 29.6236 110.806 29.6632 110.599 29.665C110.067 29.665 109.749 29.4527 109.646 29.0296C109.592 28.8446 109.574 28.6507 109.595 28.4589C109.612 28.2342 109.663 27.9742 109.749 27.6812L109.834 27.3596C109.711 27.6319 109.588 27.8773 109.466 28.0958C109.174 28.6319 108.86 29.0296 108.526 29.2881C108.199 29.5362 107.8 29.6687 107.391 29.665C107.117 29.665 106.868 29.6035 106.644 29.4835C106.414 29.3465 106.23 29.1431 106.116 28.8996C105.987 28.6319 105.923 28.2904 105.923 27.8758C105.923 27.4781 105.987 27.045 106.116 26.5789C106.245 26.1035 106.43 25.6327 106.67 25.1658C106.907 24.7036 107.206 24.2761 107.559 23.895C107.911 23.5058 108.302 23.195 108.731 22.9612C109.172 22.7272 109.663 22.6069 110.161 22.6112C110.419 22.6112 110.621 22.6804 110.767 22.8189C110.851 22.8935 110.914 22.9881 110.955 23.1035L111.552 20.835C111.63 20.5412 111.617 20.325 111.514 20.1865C111.411 20.0481 111.149 19.9789 110.728 19.9789L110.819 19.7073C111.324 19.7044 111.829 19.6565 112.326 19.5642C112.753 19.4726 113.171 19.3426 113.576 19.1758L111.05 28.3812ZM109.994 26.4489C110.109 26.1642 110.215 25.8642 110.311 25.5481L110.868 23.4342C110.841 23.308 110.785 23.1903 110.702 23.0912C110.652 23.0316 110.588 22.9843 110.517 22.9528C110.446 22.9214 110.368 22.9066 110.29 22.9096C110.033 22.9096 109.771 23.0135 109.505 23.2204C109.246 23.4281 109.002 23.7135 108.77 24.0765C108.525 24.4567 108.318 24.8605 108.152 25.2819C107.969 25.7396 107.826 26.2127 107.727 26.6958C107.625 27.1643 107.573 27.6424 107.572 28.1219C107.572 28.4504 107.606 28.6966 107.675 28.8604C107.752 29.0166 107.873 29.0942 108.036 29.0942C108.208 29.0942 108.405 28.9904 108.628 28.7827C108.852 28.5673 109.079 28.2642 109.311 27.875C109.579 27.4202 109.807 26.943 109.994 26.4489Z" fill="#707070"/>
<path d="M98.8281 29.4829H100.413L100.562 28.8967L100.554 28.939C100.718 28.3336 100.902 27.7506 101.108 27.1883C101.309 26.6516 101.532 26.1239 101.778 25.6067C102.01 25.1221 102.242 24.699 102.474 24.3359C102.706 23.9729 102.929 23.6921 103.144 23.4929C103.359 23.2852 103.556 23.1821 103.736 23.1821C103.882 23.1821 103.972 23.2336 104.007 23.3375C104.042 23.4553 104.047 23.5805 104.02 23.7006C103.994 23.8411 103.96 23.9798 103.917 24.1159L102.745 27.6813C102.624 28.0444 102.555 28.3552 102.538 28.6144C102.521 28.8736 102.568 29.0859 102.68 29.2498C102.766 29.3798 102.886 29.479 103.041 29.5482C103.204 29.6252 103.398 29.6652 103.621 29.6652C103.826 29.6652 104.033 29.6259 104.239 29.5482C104.454 29.479 104.651 29.349 104.831 29.159C105.02 28.969 105.175 28.6921 105.295 28.329L105.617 27.3829H105.373L105.166 27.9659C105.003 28.4159 104.849 28.7136 104.703 28.8606C104.565 29.0083 104.432 29.0813 104.303 29.0813C104.166 29.0813 104.08 29.0252 104.046 28.9121C104.011 28.7921 104.033 28.6144 104.11 28.3813L105.373 24.569C105.484 24.2321 105.54 23.9167 105.54 23.6229C105.548 23.3206 105.467 23.0783 105.295 22.8967C105.132 22.7067 104.84 22.6121 104.419 22.6121C104.101 22.6121 103.797 22.6813 103.505 22.819C103.213 22.9575 102.929 23.199 102.655 23.5452C102.379 23.8821 102.096 24.3406 101.804 24.919C101.61 25.3092 101.432 25.7072 101.271 26.1121L101.701 24.4267C101.753 24.219 101.791 24.0113 101.817 23.8044C101.843 23.589 101.834 23.3936 101.791 23.2206C101.75 23.0418 101.644 22.8848 101.495 22.7798C101.349 22.6675 101.134 22.6113 100.851 22.6113C100.507 22.6113 100.193 22.7067 99.9097 22.8967C99.6269 23.0867 99.3945 23.4367 99.2141 23.9467L98.8793 24.919H99.1239L99.3433 24.3098C99.4977 23.8867 99.6391 23.5967 99.7683 23.4413C99.9059 23.2775 100.056 23.1952 100.219 23.1952C100.339 23.1952 100.413 23.2298 100.439 23.299C100.472 23.3683 100.481 23.4544 100.464 23.5583C100.445 23.672 100.419 23.7845 100.387 23.8952L98.8281 29.4829Z" fill="#707070"/>
<path fill-rule="evenodd" clip-rule="evenodd" d="M95.5446 27.6813L95.5989 27.4798C95.4613 27.8109 95.2966 28.1299 95.1067 28.4336C94.8315 28.8736 94.5395 29.1898 94.2299 29.3798C93.9295 29.5698 93.6161 29.6644 93.2897 29.6644C92.8258 29.6644 92.4826 29.5221 92.2594 29.2367C92.0354 28.9429 91.9238 28.5544 91.9238 28.0698C91.9238 27.6206 91.9972 27.1498 92.1432 26.6567C92.2922 26.1478 92.4952 25.6566 92.7486 25.1913C93.001 24.7273 93.3035 24.2926 93.6505 23.8952C93.9573 23.5306 94.318 23.2156 94.7199 22.9613C95.0975 22.7283 95.4758 22.6113 95.8534 22.6113C96.1454 22.6113 96.3686 22.7367 96.5238 22.9883C96.6063 23.1167 96.656 23.2829 96.6721 23.4867L96.8586 22.7929C97.1674 22.7844 97.4556 22.7675 97.7216 22.7413C97.9967 22.7152 98.2581 22.6721 98.5073 22.6113L96.8456 28.369C96.8106 28.4745 96.7848 28.5829 96.7684 28.6929C96.7586 28.7845 96.7675 28.8771 96.7944 28.9652C96.8288 29.0344 96.9014 29.069 97.013 29.069C97.1506 29.069 97.292 28.9959 97.438 28.849C97.584 28.7021 97.7346 28.4029 97.889 27.9544L98.0823 27.3706H98.3269L98.0051 28.3167C97.8851 28.6713 97.7345 28.9475 97.5542 29.1475C97.3937 29.3237 97.1956 29.461 96.9748 29.549C96.7861 29.6251 96.5849 29.6648 96.3816 29.6659C95.9696 29.6659 95.6776 29.5359 95.5057 29.2767C95.3941 29.0867 95.3513 28.8536 95.3772 28.5767C95.4073 28.2742 95.4633 27.9741 95.5446 27.6813ZM93.9593 29.0683C94.1145 29.0683 94.2903 28.9775 94.4883 28.7959C94.6855 28.6059 94.8873 28.3421 95.0937 28.0052C95.2993 27.6683 95.4972 27.2667 95.686 26.7998C95.8748 26.3329 96.0384 25.8229 96.176 25.269L96.1324 25.4952L96.5131 24.079C96.5536 23.7636 96.5314 23.5121 96.4466 23.3252C96.3602 23.1175 96.2142 23.0136 96.0078 23.0136C95.8106 23.0136 95.6004 23.1175 95.3772 23.3244C95.1625 23.5321 94.9477 23.8129 94.7329 24.1675C94.5181 24.5213 94.3201 24.9236 94.1397 25.3729C93.9667 25.8281 93.8289 26.2962 93.7277 26.7729C93.6268 27.2373 93.575 27.7113 93.5733 28.1867C93.5733 28.5067 93.6031 28.7359 93.6635 28.8736C93.7323 29.0036 93.8309 29.0683 93.9593 29.0683Z" fill="#707070"/>
<path d="M92.8171 23.0521L92.8561 22.7928H91.3213L91.9282 20.6667C91.6742 20.7296 91.4159 20.7731 91.1554 20.7967C90.8894 20.8221 90.6012 20.8398 90.2924 20.8482L89.7382 22.7928H88.5657L88.5015 23.0521H89.6649L88.3463 27.6813C88.2347 28.0613 88.1965 28.4028 88.2309 28.7051C88.2737 28.999 88.3937 29.2328 88.5917 29.4051C88.7973 29.5782 89.0939 29.6651 89.4807 29.6651C89.9186 29.6651 90.2962 29.5482 90.6142 29.3144C90.9322 29.0813 91.1814 28.6967 91.3618 28.1605L91.6194 27.3828H91.374L91.1814 27.9144C91.0262 28.3467 90.855 28.649 90.6654 28.8221C90.485 28.9951 90.3046 29.0813 90.1243 29.0813C90.0534 29.0837 89.9829 29.0696 89.9182 29.0403C89.8535 29.011 89.7964 28.9671 89.7512 28.9121C89.6649 28.8005 89.6565 28.6236 89.7253 28.3813L91.2471 23.0521H92.8171ZM88.5504 20.2128C88.4648 20.4375 88.3486 20.7667 88.2026 21.1982C88.065 21.6213 87.9282 22.1751 87.7906 22.8575H87.533C87.5583 22.7367 87.5758 22.6113 87.5843 22.4821C87.6007 22.3661 87.6094 22.2492 87.6102 22.1321C87.6102 21.7944 87.5415 21.5013 87.4039 21.2505C87.2717 20.9875 87.0596 20.7739 86.7985 20.6405C86.5325 20.4851 86.1885 20.4075 85.7681 20.4075C85.3126 20.4075 84.9258 20.5282 84.6086 20.7705C84.2906 21.0036 84.1316 21.3798 84.1316 21.8982C84.1316 22.2182 84.2042 22.5213 84.3502 22.8059C84.5054 23.0828 84.6988 23.3551 84.9304 23.6228C85.1711 23.8821 85.4242 24.1459 85.6902 24.4136C85.9569 24.6728 86.2061 24.9413 86.4377 25.2175C86.6693 25.4944 86.8589 25.7882 87.0049 26.099C87.1593 26.4021 87.2365 26.7344 87.2365 27.0975C87.2365 27.5559 87.1249 27.949 86.9017 28.2775C86.6839 28.6001 86.3978 28.8702 86.0639 29.0682C85.7139 29.2696 85.3363 29.4181 84.9434 29.509C84.5651 29.6107 84.1754 29.6631 83.7838 29.6651C83.3971 29.6651 83.0753 29.6344 82.8177 29.5744C82.5975 29.5326 82.3847 29.4582 82.1863 29.3536C82.0176 29.2605 81.85 29.1657 81.6833 29.069C81.6075 29.0049 81.52 28.9564 81.4257 28.9259C81.3657 28.8956 81.3002 28.8778 81.2331 28.8736C81.1208 28.8736 81.0267 28.9298 80.9495 29.0428C80.8482 29.2117 80.762 29.3893 80.692 29.5736H80.4336C80.6464 29.0464 80.8231 28.5051 80.9625 27.9536C81.065 27.5559 81.1811 27.059 81.3103 26.4621H81.5679C81.532 26.6338 81.5019 26.8067 81.4777 26.9805C81.4517 27.1536 81.4433 27.3267 81.4517 27.4998C81.4777 28.1044 81.6619 28.5713 82.0059 28.8998C82.3583 29.2282 82.8735 29.3921 83.5515 29.3921C84.127 29.3921 84.5612 29.2713 84.8532 29.0298C85.1452 28.779 85.2912 28.4159 85.2912 27.9405C85.2912 27.5775 85.2224 27.2482 85.0848 26.9551C84.9549 26.6503 84.7813 26.3662 84.5696 26.1121C84.3512 25.849 84.1236 25.594 83.887 25.3475C83.65 25.1009 83.422 24.8456 83.2037 24.5821C82.9928 24.3203 82.8153 24.0329 82.6755 23.7267C82.5348 23.3993 82.4648 23.0456 82.4699 22.689C82.4699 22.2575 82.5601 21.8813 82.7405 21.5613C82.9222 21.2492 83.1679 20.9796 83.4613 20.7705C83.7621 20.5544 84.0977 20.392 84.4534 20.2905C84.7994 20.1806 85.1599 20.1238 85.5228 20.1221C85.9867 20.1221 86.3689 20.1782 86.6693 20.2913C86.9705 20.4028 87.2281 20.5375 87.4429 20.6928L87.6874 20.8482C87.7646 20.8828 87.825 20.8998 87.8678 20.8998C87.9878 20.8998 88.13 20.6713 88.2928 20.2128H88.5504Z" fill="#707070"/>
<path fill-rule="evenodd" clip-rule="evenodd" d="M76.1143 28.8866C76.0883 28.7573 76.1059 28.5889 76.1662 28.3812L78.6909 19.1758C78.2867 19.3426 77.8685 19.4726 77.4412 19.5642C77.0032 19.6512 76.501 19.6981 75.9339 19.7073L75.8437 19.9796C76.2641 19.9796 76.527 20.0489 76.6294 20.1873C76.7326 20.3258 76.7456 20.5412 76.6684 20.835L76.0707 23.1035C76.0331 22.994 75.9684 22.896 75.8827 22.8189C75.7367 22.6804 75.5349 22.6112 75.2773 22.6112C74.7613 22.6112 74.2851 22.7281 73.8471 22.9612C73.4066 23.2034 73.0101 23.5192 72.6746 23.895C72.3221 24.2759 72.023 24.7034 71.7856 25.1658C71.5517 25.6157 71.3659 26.0894 71.2315 26.5789C71.1091 27.0004 71.0441 27.4367 71.0381 27.8758C71.0381 28.2904 71.1031 28.6319 71.2315 28.8996C71.3607 29.1589 71.5365 29.3535 71.7596 29.4827C71.9828 29.6042 72.232 29.6642 72.5072 29.6642C72.9276 29.6642 73.306 29.5396 73.6408 29.2889C73.9756 29.0296 74.2889 28.6319 74.5809 28.0958C74.7032 27.8773 74.8263 27.6319 74.9494 27.3596L74.8653 27.6812C74.7871 27.9343 74.7351 28.1949 74.7101 28.4589C74.6896 28.6507 74.707 28.8446 74.7613 29.0296C74.8645 29.4527 75.1817 29.665 75.7153 29.665C75.9125 29.665 76.1143 29.6258 76.3206 29.5481C76.527 29.4704 76.7196 29.3365 76.9 29.1458C77.0896 28.9558 77.2394 28.6842 77.351 28.3289L77.6606 27.3827H77.416L77.2096 27.9658C77.0552 28.4073 76.9092 28.705 76.7716 28.8604C76.6424 29.0081 76.5094 29.0812 76.3718 29.0812C76.2266 29.0812 76.1402 29.0166 76.1143 28.8866ZM75.4263 25.5481C75.33 25.8642 75.2245 26.165 75.1091 26.4489C74.8951 27.0027 74.6673 27.4781 74.4265 27.8758C74.1949 28.2642 73.9671 28.5665 73.7439 28.7835C73.5208 28.9904 73.3235 29.0942 73.1508 29.0942C72.988 29.0942 72.868 29.0166 72.7908 28.8612C72.722 28.6966 72.6876 28.4504 72.6876 28.1219C72.6876 27.655 72.7388 27.1796 72.842 26.6958C72.9452 26.2035 73.0866 25.7319 73.267 25.2827C73.4332 24.861 73.6406 24.457 73.8861 24.0765C74.1177 23.7135 74.3623 23.4281 74.6199 23.2204C74.8859 23.0127 75.1481 22.9096 75.4057 22.9096C75.5777 22.9096 75.7153 22.9704 75.8184 23.0912C75.8903 23.1696 75.9453 23.2835 75.9835 23.4342L75.4263 25.5481Z" fill="#707070"/>
<path d="M65.5279 29.4829H63.9434L65.5027 23.8952C65.5371 23.7744 65.5623 23.6621 65.5791 23.5583C65.5983 23.4713 65.5894 23.3805 65.5539 23.299C65.5279 23.2298 65.4545 23.1952 65.3345 23.1952C65.1717 23.1952 65.0211 23.2775 64.8835 23.4413C64.7551 23.5967 64.6129 23.8867 64.4585 24.3106L64.2399 24.919H63.9953L64.3301 23.9467C64.5105 23.4367 64.7429 23.0867 65.0257 22.8967C65.3085 22.7067 65.6219 22.6121 65.9659 22.6121C66.2495 22.6121 66.4642 22.6675 66.6102 22.7798C66.7599 22.8847 66.8656 23.0417 66.9068 23.2206C66.9496 23.3936 66.958 23.5883 66.9328 23.8044C66.9065 24.014 66.8677 24.2218 66.8166 24.4267L66.387 26.1129C66.569 25.6598 66.7463 25.2629 66.9198 24.919C67.2118 24.3406 67.4946 23.8821 67.7698 23.5452C68.045 23.199 68.3278 22.9575 68.6198 22.819C68.9125 22.6806 69.2167 22.6113 69.5347 22.6113C69.9551 22.6113 70.2479 22.7067 70.4107 22.8967C70.5827 23.0783 70.6644 23.3198 70.6553 23.6229C70.6553 23.9167 70.6002 24.2321 70.4879 24.569L69.2259 28.3813C69.1479 28.6144 69.1265 28.7921 69.1609 28.9121C69.1953 29.0252 69.2817 29.0813 69.4193 29.0813C69.5477 29.0813 69.6807 29.0083 69.8183 28.8613C69.9643 28.7136 70.1187 28.4152 70.2823 27.9659L70.4886 27.3829H70.7332L70.4107 28.329C70.2907 28.6921 70.1355 28.969 69.9475 29.1598C69.7856 29.3377 69.5815 29.4713 69.3543 29.5482C69.1569 29.6245 68.9474 29.6641 68.7359 29.6652C68.5128 29.6652 68.3194 29.6259 68.1566 29.5482C68.0014 29.479 67.8814 29.379 67.7958 29.2498C67.6842 29.0859 67.6368 28.8736 67.6536 28.6144C67.6712 28.3552 67.74 28.0444 67.86 27.6813L69.0325 24.1159C69.0753 23.9775 69.1097 23.839 69.1357 23.7006C69.1627 23.5804 69.1583 23.4553 69.1227 23.3375C69.0883 23.2336 68.9981 23.1821 68.8521 23.1821C68.6717 23.1821 68.4738 23.2859 68.2597 23.4929C68.045 23.6921 67.821 23.9729 67.5894 24.3359C67.3323 24.745 67.1 25.1694 66.8938 25.6067C66.6622 26.0913 66.4383 26.6175 66.2235 27.1883C66.0171 27.7498 65.8336 28.3336 65.6701 28.939L65.6777 28.8967L65.5279 29.4829Z" fill="#707070"/>
<path fill-rule="evenodd" clip-rule="evenodd" d="M60.7134 27.4802L60.6599 27.6817C60.5787 27.9746 60.5225 28.2739 60.4917 28.5764C60.4657 28.8533 60.5085 29.0864 60.6201 29.2764C60.7921 29.5356 61.0841 29.6656 61.4969 29.6656C61.7171 29.664 61.9348 29.6171 62.1364 29.5278C62.338 29.4385 62.5194 29.3087 62.6694 29.1464C62.8498 28.9479 62.9996 28.671 63.1204 28.3171L63.4414 27.371H63.1968L63.0042 27.954C62.849 28.4033 62.6984 28.7017 62.5532 28.8487C62.4072 28.9948 62.265 29.0687 62.1282 29.0687C62.0159 29.0687 61.9432 29.034 61.9089 28.9648C61.882 28.8767 61.8731 28.7841 61.8829 28.6925C61.9004 28.5802 61.9257 28.4725 61.9608 28.3687L63.6226 22.6117C63.3641 22.6739 63.1015 22.7174 62.8368 22.7417C62.57 22.7679 62.2826 22.7848 61.9731 22.7933L61.7865 23.4871C61.7786 23.311 61.7277 23.1395 61.6383 22.9879C61.5712 22.8698 61.4734 22.7724 61.3554 22.7062C61.2374 22.6399 61.1037 22.6072 60.9687 22.6117C60.5903 22.6117 60.212 22.7287 59.8344 22.9617C59.4568 23.1956 59.1006 23.5064 58.765 23.8956C58.418 24.293 58.1155 24.7277 57.863 25.1917C57.6097 25.657 57.4067 26.1482 57.2577 26.6571C57.1171 27.115 57.0435 27.591 57.0391 28.0702C57.0391 28.5548 57.1507 28.9433 57.3739 29.2371C57.597 29.5225 57.941 29.6648 58.4042 29.6648C58.7306 29.6648 59.0448 29.5702 59.3444 29.3802C59.654 29.1894 59.9467 28.874 60.2211 28.434C60.3916 28.1687 60.5552 27.851 60.7134 27.4802ZM59.6027 28.7964C59.4055 28.9779 59.229 29.0687 59.0746 29.0687C58.9454 29.0687 58.8468 29.004 58.778 28.874C58.7184 28.7356 58.6878 28.5071 58.6878 28.1871C58.6878 27.7287 58.7398 27.2579 58.843 26.774C58.9454 26.2894 59.083 25.8233 59.255 25.374C59.4354 24.924 59.6326 24.5225 59.8473 24.1679C60.0621 23.814 60.2769 23.5325 60.4917 23.3248C60.7149 23.1171 60.9251 23.014 61.1231 23.014C61.3295 23.014 61.4747 23.1179 61.5611 23.3248C61.6467 23.5125 61.6681 23.764 61.6276 24.0787L61.2469 25.4956L61.2905 25.2702C61.1529 25.8233 60.9901 26.3333 60.8013 26.8002C60.6117 27.2664 60.4145 27.6687 60.2081 28.0056C60.0017 28.3425 59.8 28.6064 59.6027 28.7964Z" fill="#707070"/>
<path d="M53.5933 29.4829H52.0088L53.5543 23.8952C53.6315 23.636 53.6575 23.4544 53.6315 23.3506C53.6063 23.2467 53.5291 23.1952 53.3999 23.1952C53.2371 23.1952 53.0866 23.2775 52.949 23.4413C52.8114 23.6052 52.67 23.8952 52.524 24.3106L52.3046 24.919H52.06L52.3948 23.9467C52.5156 23.6006 52.6654 23.3337 52.8458 23.1429C53.0262 22.9444 53.2241 22.806 53.4389 22.7283C53.6529 22.6506 53.8723 22.6113 54.0963 22.6113C54.3707 22.6113 54.5725 22.6675 54.7009 22.7806C54.8375 22.8909 54.9294 23.0476 54.9592 23.2213C55.0021 23.4029 55.0105 23.6013 54.9845 23.8175C54.9677 24.0252 54.9333 24.2283 54.8813 24.4267L54.6749 25.2398L54.6955 25.1837L54.7269 25.1013C54.9677 24.4875 55.1993 23.999 55.4225 23.636C55.6548 23.2644 55.8994 23.0006 56.157 22.8452C56.4094 22.6908 56.6994 22.6099 56.9948 22.6113C57.3036 22.6113 57.5398 22.7021 57.7033 22.8837C57.8745 23.0652 57.9609 23.2898 57.9609 23.5583C57.9609 23.7737 57.9089 23.9775 57.8058 24.1675C57.7058 24.3457 57.5644 24.497 57.3938 24.6083C57.2235 24.7139 57.0266 24.7678 56.8266 24.7637C56.6126 24.7637 56.4406 24.7075 56.3114 24.5952C56.1914 24.4829 56.131 24.3183 56.131 24.1029C56.131 23.9121 56.1738 23.7398 56.2602 23.5837C56.3458 23.4283 56.4574 23.299 56.595 23.1952C56.7326 23.0829 56.8824 23.0052 57.046 22.9613C57.0279 22.9436 57.0059 22.9305 56.9818 22.9229C56.9647 22.917 56.947 22.9132 56.929 22.9113C56.9163 22.9101 56.9036 22.9096 56.8908 22.9098C56.7028 22.9098 56.5086 22.979 56.3114 23.1175C56.1142 23.2467 55.9078 23.459 55.693 23.7529C55.479 24.0467 55.2596 24.4352 55.0357 24.919C54.7839 25.4911 54.5604 26.0754 54.3661 26.6698C54.269 26.9567 54.1712 27.2667 54.0733 27.5983L53.5933 29.4829Z" fill="#707070"/>
<path fill-rule="evenodd" clip-rule="evenodd" d="M51.1832 20.7837C50.7537 20.4722 50.0665 20.3168 49.1217 20.3168C48.8297 20.3168 48.5378 20.3214 48.245 20.3299C47.9622 20.3383 47.6358 20.3429 47.2666 20.3429H46.6222C46.3899 20.3337 46.1713 20.3299 45.9649 20.3299C45.7931 20.3222 45.6214 20.3135 45.4497 20.3037L45.3855 20.5629C45.7203 20.5629 45.9481 20.606 46.0681 20.6929C46.1973 20.7699 46.2569 20.8914 46.2485 21.056C46.2311 21.266 46.1966 21.4741 46.1453 21.6783L44.4446 28.1091C44.3681 28.4199 44.2818 28.6537 44.187 28.8091C44.1014 28.9577 43.9637 29.0688 43.801 29.1206C43.6374 29.1722 43.4096 29.2068 43.1176 29.2237L43.0664 29.4829C43.2116 29.4752 43.3882 29.4706 43.5938 29.4706C43.8002 29.4614 44.0196 29.4576 44.2512 29.4576C44.8996 29.4377 45.5484 29.4421 46.1965 29.4706C46.5489 29.4783 46.8714 29.4837 47.1634 29.4837C47.7214 29.4837 48.2496 29.4268 48.748 29.3145C49.2073 29.2096 49.6467 29.0304 50.0489 28.7837C50.4088 28.568 50.7132 28.2703 50.9379 27.9145C51.1611 27.5683 51.2727 27.1629 51.2727 26.696C51.2727 26.1683 51.0586 25.7145 50.6291 25.3345C50.2087 24.9537 49.5421 24.7291 48.6318 24.6599C49.1998 24.5778 49.7516 24.4073 50.2675 24.1545C50.7491 23.9037 51.1267 23.5968 51.4018 23.2337C51.6788 22.889 51.829 22.4586 51.8268 22.0152C51.8268 21.4968 51.6136 21.086 51.1832 20.7837ZM47.0709 24.8291L46.2095 28.1091C46.1583 28.3245 46.1239 28.5153 46.1071 28.6791C46.0979 28.8437 46.1407 28.9691 46.2355 29.056C46.3303 29.1422 46.5061 29.1853 46.7637 29.1853C47.3736 29.1853 47.872 29.0683 48.258 28.8352C48.6362 28.6114 48.9375 28.2768 49.1217 27.876C49.3105 27.4606 49.4045 26.9937 49.4045 26.476C49.4045 26.1552 49.3487 25.8745 49.2371 25.6329C49.1389 25.3876 48.9622 25.1821 48.735 25.0491C48.5034 24.9022 48.1938 24.8291 47.807 24.8291H47.0709ZM47.129 24.6083H47.7176C48.2068 24.6083 48.6234 24.4829 48.9666 24.2322C49.3189 23.9729 49.5857 23.636 49.7661 23.2214C49.9539 22.8106 50.0505 22.3636 50.0489 21.9114C50.0489 21.4791 49.9633 21.1468 49.7913 20.9129C49.6285 20.6799 49.3403 20.5629 48.9276 20.5629C48.6279 20.5629 48.4132 20.6237 48.284 20.7445C48.1556 20.8568 48.044 21.1029 47.9492 21.4829L47.129 24.6083Z" fill="#707070"/>
</g>
<defs>
<clipPath id="clip0_294_1980">
<rect width="133" height="30" fill="white"/>
</clipPath>
</defs>
</svg>
