<svg width="124" height="35" viewBox="0 0 124 35" fill="none" xmlns="http://www.w3.org/2000/svg">
<g clip-path="url(#clip0_343_2486)">
<path fill-rule="evenodd" clip-rule="evenodd" d="M0 13.125V27.125H4.44444C4.91135 27.125 5.3737 27.2156 5.80512 27.3914C6.23644 27.5673 6.62847 27.8251 6.95855 28.1502C7.28874 28.4751 7.55068 28.861 7.72939 29.2856C7.90798 29.7103 8 30.1654 8 30.625V35H18.6667L32 21.875V7.875H27.5556C27.0886 7.875 26.6263 7.78448 26.1948 7.60859C25.7636 7.4327 25.3716 7.17488 25.0414 6.84988C24.7113 6.52488 24.4493 6.13902 24.2706 5.71439C24.092 5.28976 24 4.83464 24 4.375V0H13.3333L0 13.125ZM15.1111 26.25H8.88889V16.625L16.8889 8.75H23.1111V18.375L15.1111 26.25Z" fill="white"/>
</g>
<path d="M49.5137 19.834C49.5547 20.5664 49.7275 21.1611 50.0322 21.6182C50.6123 22.4736 51.6348 22.9014 53.0996 22.9014C53.7559 22.9014 54.3535 22.8076 54.8926 22.6201C55.9355 22.2568 56.457 21.6064 56.457 20.6689C56.457 19.9658 56.2373 19.4648 55.7979 19.166C55.3525 18.873 54.6553 18.6182 53.7061 18.4014L51.957 18.0059C50.8145 17.748 50.0059 17.4639 49.5312 17.1533C48.7109 16.6143 48.3008 15.8086 48.3008 14.7363C48.3008 13.5762 48.7021 12.624 49.5049 11.8799C50.3076 11.1357 51.4443 10.7637 52.915 10.7637C54.2686 10.7637 55.417 11.0918 56.3604 11.748C57.3096 12.3984 57.7842 13.4414 57.7842 14.877H56.1406C56.0527 14.1855 55.8652 13.6553 55.5781 13.2861C55.0449 12.6123 54.1396 12.2754 52.8623 12.2754C51.8311 12.2754 51.0898 12.4922 50.6387 12.9258C50.1875 13.3594 49.9619 13.8633 49.9619 14.4375C49.9619 15.0703 50.2256 15.5332 50.7529 15.8262C51.0986 16.0137 51.8809 16.248 53.0996 16.5293L54.9102 16.9424C55.7832 17.1416 56.457 17.4141 56.9316 17.7598C57.752 18.3633 58.1621 19.2393 58.1621 20.3877C58.1621 21.8174 57.6406 22.8398 56.5977 23.4551C55.5605 24.0703 54.3535 24.3779 52.9766 24.3779C51.3711 24.3779 50.1143 23.9678 49.2061 23.1475C48.2979 22.333 47.8525 21.2285 47.8701 19.834H49.5137ZM60.1224 11.959H61.722V14.5869H63.225V15.8789H61.722V22.0225C61.722 22.3506 61.8334 22.5703 62.056 22.6816C62.1791 22.7461 62.3841 22.7783 62.6713 22.7783C62.7474 22.7783 62.8295 22.7783 62.9173 22.7783C63.0052 22.7725 63.1078 22.7637 63.225 22.752V24C63.0433 24.0527 62.8529 24.0908 62.6537 24.1143C62.4603 24.1377 62.2494 24.1494 62.0209 24.1494C61.2826 24.1494 60.7816 23.9619 60.5179 23.5869C60.2543 23.2061 60.1224 22.7139 60.1224 22.1104V15.8789H58.848V14.5869H60.1224V11.959ZM68.3757 14.376C69.0437 14.376 69.6911 14.5342 70.3181 14.8506C70.945 15.1611 71.4226 15.5654 71.7507 16.0635C72.0671 16.5381 72.278 17.0918 72.3835 17.7246C72.4773 18.1582 72.5241 18.8496 72.5241 19.7988H65.6247C65.654 20.7539 65.8796 21.5215 66.3015 22.1016C66.7234 22.6758 67.3767 22.9629 68.2614 22.9629C69.0876 22.9629 69.7468 22.6904 70.239 22.1455C70.5202 21.8291 70.7195 21.4629 70.8366 21.0469H72.3923C72.3513 21.3926 72.2136 21.7793 71.9792 22.207C71.7507 22.6289 71.4929 22.9746 71.2058 23.2441C70.7253 23.7129 70.1306 24.0293 69.4216 24.1934C69.0407 24.2871 68.6101 24.334 68.1296 24.334C66.9577 24.334 65.9646 23.9092 65.1501 23.0596C64.3357 22.2041 63.9284 21.0088 63.9284 19.4736C63.9284 17.9619 64.3386 16.7344 65.1589 15.791C65.9792 14.8477 67.0515 14.376 68.3757 14.376ZM70.8982 18.542C70.8337 17.8564 70.6843 17.3086 70.4499 16.8984C70.0163 16.1367 69.2927 15.7559 68.279 15.7559C67.5525 15.7559 66.9431 16.0195 66.4509 16.5469C65.9587 17.0684 65.698 17.7334 65.6687 18.542H70.8982ZM78.0352 14.376C78.7032 14.376 79.3507 14.5342 79.9776 14.8506C80.6046 15.1611 81.0821 15.5654 81.4102 16.0635C81.7266 16.5381 81.9376 17.0918 82.043 17.7246C82.1368 18.1582 82.1837 18.8496 82.1837 19.7988H75.2843C75.3136 20.7539 75.5391 21.5215 75.961 22.1016C76.3829 22.6758 77.0362 22.9629 77.921 22.9629C78.7471 22.9629 79.4063 22.6904 79.8985 22.1455C80.1798 21.8291 80.379 21.4629 80.4962 21.0469H82.0518C82.0108 21.3926 81.8731 21.7793 81.6388 22.207C81.4102 22.6289 81.1524 22.9746 80.8653 23.2441C80.3848 23.7129 79.7901 24.0293 79.0811 24.1934C78.7003 24.2871 78.2696 24.334 77.7891 24.334C76.6173 24.334 75.6241 23.9092 74.8096 23.0596C73.9952 22.2041 73.588 21.0088 73.588 19.4736C73.588 17.9619 73.9981 16.7344 74.8184 15.791C75.6388 14.8477 76.711 14.376 78.0352 14.376ZM80.5577 18.542C80.4932 17.8564 80.3438 17.3086 80.1095 16.8984C79.6759 16.1367 78.9522 15.7559 77.9386 15.7559C77.212 15.7559 76.6026 16.0195 76.1104 16.5469C75.6182 17.0684 75.3575 17.7334 75.3282 18.542H80.5577ZM83.8188 11.0889H85.4008V24H83.8188V11.0889ZM91.0525 14.3145C92.1131 14.3145 92.9744 14.5723 93.6365 15.0879C94.3045 15.6035 94.7059 16.4912 94.8406 17.751H93.3025C93.2088 17.1709 92.9949 16.6904 92.6609 16.3096C92.327 15.9229 91.7908 15.7295 91.0525 15.7295C90.0447 15.7295 89.324 16.2217 88.8904 17.2061C88.6092 17.8447 88.4686 18.6328 88.4686 19.5703C88.4686 20.5137 88.6678 21.3076 89.0662 21.9521C89.4646 22.5967 90.0916 22.9189 90.9471 22.9189C91.6033 22.9189 92.1219 22.7197 92.5027 22.3213C92.8895 21.917 93.1561 21.3662 93.3025 20.6689H94.8406C94.6648 21.917 94.2254 22.8311 93.5223 23.4111C92.8191 23.9854 91.9197 24.2725 90.824 24.2725C89.5936 24.2725 88.6121 23.8242 87.8797 22.9277C87.1473 22.0254 86.7811 20.9004 86.7811 19.5527C86.7811 17.9004 87.1824 16.6143 87.9852 15.6943C88.7879 14.7744 89.8104 14.3145 91.0525 14.3145ZM96.1066 14.5869H97.6095V16.2129C97.7326 15.8965 98.0343 15.5127 98.5148 15.0615C98.9953 14.6045 99.549 14.376 100.176 14.376C100.205 14.376 100.255 14.3789 100.325 14.3848C100.396 14.3906 100.516 14.4023 100.686 14.4199V16.0898C100.592 16.0723 100.504 16.0605 100.422 16.0547C100.346 16.0488 100.261 16.0459 100.167 16.0459C99.3703 16.0459 98.758 16.3037 98.3302 16.8193C97.9025 17.3291 97.6886 17.918 97.6886 18.5859V24H96.1066V14.5869ZM105.617 14.376C106.285 14.376 106.932 14.5342 107.559 14.8506C108.186 15.1611 108.664 15.5654 108.992 16.0635C109.308 16.5381 109.519 17.0918 109.625 17.7246C109.718 18.1582 109.765 18.8496 109.765 19.7988H102.866C102.895 20.7539 103.121 21.5215 103.542 22.1016C103.964 22.6758 104.618 22.9629 105.502 22.9629C106.329 22.9629 106.988 22.6904 107.48 22.1455C107.761 21.8291 107.96 21.4629 108.078 21.0469H109.633C109.592 21.3926 109.455 21.7793 109.22 22.207C108.992 22.6289 108.734 22.9746 108.447 23.2441C107.966 23.7129 107.372 24.0293 106.663 24.1934C106.282 24.2871 105.851 24.334 105.371 24.334C104.199 24.334 103.206 23.9092 102.391 23.0596C101.577 22.2041 101.169 21.0088 101.169 19.4736C101.169 17.9619 101.58 16.7344 102.4 15.791C103.22 14.8477 104.292 14.376 105.617 14.376ZM108.139 18.542C108.075 17.8564 107.925 17.3086 107.691 16.8984C107.257 16.1367 106.534 15.7559 105.52 15.7559C104.793 15.7559 104.184 16.0195 103.692 16.5469C103.2 17.0684 102.939 17.7334 102.91 18.542H108.139ZM112.297 21.0469C112.344 21.5742 112.475 21.9785 112.692 22.2598C113.091 22.7695 113.782 23.0244 114.766 23.0244C115.352 23.0244 115.868 22.8984 116.313 22.6465C116.759 22.3887 116.981 21.9932 116.981 21.46C116.981 21.0557 116.803 20.748 116.445 20.5371C116.217 20.4082 115.766 20.2588 115.092 20.0889L113.835 19.7725C113.032 19.5732 112.44 19.3506 112.059 19.1045C111.38 18.6768 111.04 18.085 111.04 17.3291C111.04 16.4385 111.359 15.7178 111.998 15.167C112.642 14.6162 113.507 14.3408 114.591 14.3408C116.009 14.3408 117.031 14.7568 117.658 15.5889C118.051 16.1162 118.241 16.6846 118.229 17.2939H116.735C116.706 16.9365 116.58 16.6113 116.357 16.3184C115.994 15.9023 115.364 15.6943 114.468 15.6943C113.87 15.6943 113.416 15.8086 113.105 16.0371C112.801 16.2656 112.648 16.5674 112.648 16.9424C112.648 17.3525 112.85 17.6807 113.255 17.9268C113.489 18.0732 113.835 18.2021 114.292 18.3135L115.338 18.5684C116.474 18.8438 117.236 19.1104 117.623 19.3682C118.238 19.7725 118.546 20.4082 118.546 21.2754C118.546 22.1133 118.226 22.8369 117.588 23.4463C116.955 24.0557 115.988 24.3604 114.687 24.3604C113.287 24.3604 112.294 24.0439 111.708 23.4111C111.128 22.7725 110.817 21.9844 110.776 21.0469H112.297ZM120.313 11.959H121.912V14.5869H123.415V15.8789H121.912V22.0225C121.912 22.3506 122.024 22.5703 122.246 22.6816C122.369 22.7461 122.574 22.7783 122.862 22.7783C122.938 22.7783 123.02 22.7783 123.108 22.7783C123.196 22.7725 123.298 22.7637 123.415 22.752V24C123.234 24.0527 123.043 24.0908 122.844 24.1143C122.651 24.1377 122.44 24.1494 122.211 24.1494C121.473 24.1494 120.972 23.9619 120.708 23.5869C120.445 23.2061 120.313 22.7139 120.313 22.1104V15.8789H119.038V14.5869H120.313V11.959Z" fill="white"/>
<defs>
<clipPath id="clip0_343_2486">
<rect width="32" height="35" fill="white"/>
</clipPath>
</defs>
</svg>
